<?xml version="1.0" standalone="no"?>
<!DOCTYPE svg PUBLIC "-//W3C//DTD SVG 20010904//EN"
 "http://www.w3.org/TR/2001/REC-SVG-20010904/DTD/svg10.dtd">
<svg version="1.0" xmlns="http://www.w3.org/2000/svg"
 width="180.000000pt" height="180.000000pt" viewBox="0 0 180.000000 180.000000"
 preserveAspectRatio="xMidYMid meet">
<metadata>
Created by potrace 1.14, written by Peter Selinger 2001-2017
</metadata>
<g transform="translate(0.000000,180.000000) scale(0.100000,-0.100000)"
fill="#000000" stroke="none">
<path d="M209 1753 c-1 -5 -1 -11 0 -15 0 -5 -3 -8 -9 -8 -5 0 -10 5 -10 11 0
6 -7 3 -16 -5 -12 -12 -20 -13 -35 -6 -11 6 -19 7 -18 3 3 -20 -2 -27 -12 -13
-9 13 -10 13 -6 0 6 -22 -21 -70 -40 -70 -15 0 -14 -2 3 -16 10 -8 13 -12 5
-8 -10 5 -12 1 -6 -17 5 -19 4 -21 -4 -9 -9 13 -11 13 -11 -1 0 -9 3 -19 7
-23 10 -9 12 -56 2 -51 -4 3 -9 -2 -13 -10 -3 -8 -1 -17 5 -20 5 -4 7 -11 4
-16 -4 -5 -1 -9 4 -9 6 0 11 -5 11 -11 0 -5 -5 -7 -11 -3 -8 5 -8 1 0 -14 7
-14 8 -23 1 -27 -5 -3 -10 -11 -10 -16 0 -6 6 -7 12 -3 10 6 10 4 0 -8 -10
-13 -10 -17 0 -21 10 -4 10 -6 1 -6 -7 -1 -13 -6 -13 -12 0 -5 4 -8 8 -5 4 2
8 -11 8 -29 0 -18 -3 -32 -7 -29 -4 2 -9 -3 -13 -11 -3 -8 -1 -17 5 -20 5 -4
7 -11 4 -16 -4 -5 -1 -9 4 -9 6 0 11 -5 11 -11 0 -5 -5 -7 -11 -3 -8 5 -8 1 0
-14 7 -14 8 -23 1 -27 -5 -3 -10 -11 -10 -16 0 -6 6 -7 13 -3 9 6 9 4 -1 -8
-10 -13 -10 -17 0 -21 10 -4 10 -6 1 -6 -7 -1 -13 -6 -13 -12 0 -5 4 -8 8 -5
4 2 8 -11 8 -29 0 -18 -3 -32 -7 -29 -4 2 -9 -3 -13 -11 -3 -8 -1 -17 5 -20 5
-4 7 -11 4 -16 -4 -5 -1 -9 4 -9 6 0 11 -5 11 -11 0 -5 -5 -7 -11 -3 -8 5 -8
1 0 -14 7 -14 8 -23 1 -27 -5 -3 -10 -11 -10 -16 0 -6 6 -7 12 -3 10 6 10 4 0
-8 -10 -13 -10 -17 0 -21 10 -4 10 -6 1 -6 -7 -1 -13 -6 -13 -12 0 -5 4 -8 8
-5 4 2 8 -11 8 -29 0 -18 -3 -32 -7 -29 -4 2 -9 -3 -13 -11 -3 -8 -1 -17 5
-20 5 -4 7 -11 4 -16 -4 -5 -1 -9 4 -9 6 0 11 -5 11 -11 0 -5 -5 -7 -11 -3 -8
5 -8 1 0 -14 7 -14 8 -23 1 -27 -5 -3 -10 -11 -10 -16 0 -6 6 -7 12 -3 10 6
10 4 0 -8 -10 -13 -10 -17 0 -21 10 -4 10 -6 1 -6 -7 -1 -13 -6 -13 -12 0 -5
4 -8 8 -5 4 2 8 -11 8 -29 0 -18 -3 -32 -7 -29 -4 2 -9 -3 -13 -11 -3 -8 -1
-17 5 -20 5 -4 7 -11 4 -16 -4 -5 -1 -9 4 -9 6 0 11 -5 11 -11 0 -5 -5 -7 -11
-3 -8 5 -8 1 0 -14 7 -14 8 -23 1 -27 -5 -3 -10 -11 -10 -16 0 -6 6 -7 12 -3
10 6 10 4 0 -8 -10 -13 -10 -17 0 -21 10 -4 10 -6 1 -6 -7 -1 -13 -6 -13 -12
0 -5 4 -8 8 -5 4 2 8 -11 8 -29 0 -18 -3 -32 -7 -29 -12 7 -18 -23 -6 -35 6
-6 7 -11 2 -11 -5 0 -1 -6 10 -13 14 -11 15 -16 5 -22 -9 -5 -11 -4 -6 3 4 7
2 12 -3 12 -14 0 -14 -13 0 -27 8 -8 8 -13 0 -17 -16 -11 -13 -24 7 -29 15 -4
15 -5 -2 -6 -18 -1 -17 -3 4 -21 13 -11 19 -20 14 -20 -6 0 -15 5 -20 10 -7 7
-11 6 -11 -4 0 -9 10 -13 27 -12 18 1 26 -3 28 -16 1 -10 2 -24 3 -32 2 -9 15
-13 40 -12 31 1 35 -1 26 -13 -9 -12 -9 -13 1 -7 7 4 12 2 12 -5 0 -7 6 -4 14
6 11 15 17 17 28 7 8 -6 18 -9 22 -5 10 10 96 11 90 1 -8 -13 11 -9 25 4 11
11 13 10 8 -3 -4 -13 -1 -16 15 -11 15 3 16 7 6 13 -9 6 -6 8 9 6 12 0 19 -5
17 -9 -8 -13 11 -9 25 5 11 10 13 9 9 -3 -4 -11 1 -15 18 -15 13 1 27 5 31 10
5 4 2 5 -5 1 -6 -4 -12 -2 -12 3 0 14 17 14 25 1 4 -6 12 -7 18 -3 18 11 54 8
70 -5 12 -10 17 -10 23 -1 4 8 3 9 -4 5 -7 -4 -12 -2 -12 3 0 14 17 14 25 1 4
-6 12 -7 18 -3 18 11 54 8 70 -5 12 -10 17 -10 23 -1 4 8 3 9 -4 5 -7 -4 -12
-2 -12 3 0 14 17 14 25 1 4 -6 12 -7 18 -3 17 10 57 12 51 1 -8 -12 10 -10 25
5 11 10 13 9 8 -4 -4 -13 -1 -16 15 -11 15 3 16 7 6 13 -9 6 -6 8 9 6 12 0 19
-5 17 -9 -8 -13 11 -9 25 5 11 10 13 9 8 -5 -4 -12 -2 -15 8 -11 8 3 13 8 10
12 -7 12 32 6 48 -8 12 -9 17 -9 23 0 4 8 3 9 -4 5 -7 -4 -12 -2 -12 3 0 14
17 14 25 1 3 -5 13 -6 22 -3 11 4 14 3 9 -5 -5 -8 -2 -10 8 -6 9 3 14 9 12 13
-8 12 62 5 78 -8 11 -9 16 -9 22 0 4 8 3 9 -4 5 -7 -4 -12 -2 -12 3 0 14 17
14 25 1 4 -7 12 -7 18 -2 17 12 93 8 110 -7 12 -9 17 -9 23 0 4 8 3 9 -4 5 -7
-4 -12 -3 -12 3 0 5 9 9 20 8 14 -1 19 -6 15 -17 -3 -9 1 -8 10 4 11 14 15 16
15 5 0 -12 2 -12 10 1 6 10 10 11 10 3 0 -7 5 -13 11 -13 5 0 7 5 4 10 -8 13
18 8 27 -5 5 -6 12 -5 20 4 10 10 10 12 1 7 -7 -4 -13 -5 -13 -2 0 3 9 10 21
17 19 10 20 9 14 -13 -5 -21 -5 -21 8 -6 8 10 17 15 20 11 4 -3 7 -1 7 6 0 8
6 11 16 7 14 -5 15 -4 5 8 -8 10 -9 16 -1 21 5 3 13 0 16 -9 5 -12 9 -11 25 5
11 11 17 25 12 32 -5 8 -2 8 9 -1 14 -11 16 -10 14 12 -2 16 1 23 7 19 7 -4 8
1 4 13 -6 15 -3 14 11 -5 l19 -23 -1 23 c-1 13 -5 28 -11 32 -5 5 0 6 11 2 25
-7 39 25 20 46 -8 9 -8 10 1 5 11 -6 22 15 27 52 2 9 9 18 17 20 8 2 10 0 4
-5 -13 -11 -18 -40 -7 -47 4 -2 8 3 9 12 1 9 4 29 7 44 4 17 2 28 -4 28 -6 0
-8 -5 -4 -12 5 -7 3 -8 -6 -3 -10 6 -9 11 5 22 11 7 13 13 7 13 -7 0 -12 5
-12 11 0 5 4 8 9 4 5 -3 13 -1 16 5 4 6 3 9 -2 8 -8 -3 -13 5 -13 23 0 5 6 7
13 3 9 -5 9 -4 0 6 -6 7 -9 19 -6 28 4 9 2 13 -4 9 -12 -8 -12 11 0 31 5 7 4
12 -2 12 -6 0 -11 5 -11 11 0 5 4 8 8 5 5 -3 9 1 9 9 0 8 -5 15 -11 15 -6 0
-4 5 4 10 13 8 12 10 -4 10 -20 0 -20 0 0 15 18 14 18 14 -5 10 l-24 -4 21 20
c28 25 27 27 -2 22 -13 -3 -27 1 -31 7 -5 9 -1 10 16 5 16 -4 19 -3 11 3 -7 5
-12 13 -11 18 4 20 -2 26 -15 15 -11 -9 -16 -9 -22 0 -4 8 -3 9 4 5 8 -5 12 2
12 19 0 17 -4 24 -12 19 -6 -4 -8 -3 -4 4 3 6 -6 20 -20 31 -15 12 -23 21 -18
21 4 0 3 5 -3 11 -6 6 -9 18 -6 27 5 11 3 13 -8 7 -12 -8 -12 -6 0 8 14 18 2
24 -15 7 -6 -6 -10 -3 -11 10 -1 13 2 18 9 14 6 -4 8 -3 5 4 -4 5 -17 8 -30 4
-19 -5 -20 -3 -9 10 16 20 -3 37 -21 19 -9 -9 -7 -10 8 -5 21 8 20 6 -6 -14
-14 -10 -16 -9 -16 5 0 36 -3 43 -18 43 -20 0 -19 17 3 29 14 8 14 11 2 12 -8
1 -19 1 -25 0 -5 -1 0 7 13 18 23 20 31 37 10 25 -7 -5 -8 -3 -4 5 5 7 14 10
21 7 7 -2 16 1 19 9 3 10 0 12 -12 8 -14 -6 -15 -5 -2 9 14 16 16 15 28 0 12
-15 12 -13 6 12 -5 23 -4 27 7 21 8 -5 11 -4 6 1 -5 5 -13 9 -18 9 -5 0 -8 5
-7 10 2 6 6 9 10 8 5 -2 8 2 8 8 0 5 4 7 10 4 6 -3 7 1 3 10 -4 12 -8 13 -13
5 -5 -8 -9 -7 -13 5 -4 9 -3 14 2 11 11 -7 23 22 15 35 -3 5 5 9 18 9 13 0 18
3 12 8 -6 4 -10 14 -9 22 6 33 10 45 20 52 6 5 6 8 -1 8 -6 0 -10 17 -9 40 1
21 -1 37 -5 35 -3 -2 -12 0 -20 6 -12 7 -12 9 4 9 13 0 17 5 13 19 -2 10 0 25
5 34 7 13 5 15 -7 11 -8 -3 -12 -11 -8 -17 3 -6 1 -7 -6 -3 -9 6 -9 11 -1 21
8 10 8 15 -1 21 -8 5 -9 3 -4 -6 5 -8 4 -11 -3 -7 -5 4 -8 16 -5 27 3 11 10
17 16 13 6 -3 7 -1 3 6 -4 6 -12 9 -17 6 -5 -4 -9 5 -9 19 0 14 -5 26 -11 26
-5 0 -7 6 -3 13 6 9 5 9 -8 -1 -13 -10 -18 -9 -29 5 -9 11 -10 14 -1 9 8 -4
12 -1 12 9 0 10 -6 15 -13 12 -8 -3 -20 -1 -28 5 -11 8 -10 9 4 4 9 -3 17 -1
17 3 0 14 -26 21 -37 10 -6 -6 -10 -4 -10 5 0 8 4 13 9 10 5 -4 4 3 -4 15 -7
12 -17 19 -23 17 -5 -2 -18 1 -27 6 -14 7 -18 5 -19 -9 0 -11 -3 -13 -6 -5 -3
7 1 19 8 28 10 13 9 13 -14 5 -22 -9 -25 -8 -20 6 5 12 3 14 -8 7 -17 -11 -40
-15 -35 -6 2 4 -2 13 -9 19 -11 10 -15 9 -18 -5 -4 -16 -5 -16 -6 0 -1 16 -41
23 -41 6 0 -3 -9 -6 -19 -5 -11 0 -17 5 -15 9 3 4 0 8 -5 8 -6 0 -11 -6 -11
-12 0 -10 -3 -9 -9 1 -7 11 -9 11 -14 0 -4 -10 -6 -8 -6 4 -1 10 -6 15 -11 12
-6 -4 -8 -10 -6 -14 3 -3 -11 -7 -29 -7 -18 0 -31 4 -29 8 8 13 -11 9 -24 -4
-10 -10 -15 -10 -21 1 -5 8 -14 10 -22 5 -19 -12 -79 -11 -79 1 0 5 -5 3 -10
-5 -8 -13 -10 -12 -10 3 0 10 -5 15 -10 12 -6 -4 -8 -10 -6 -14 3 -3 -11 -7
-29 -7 -18 0 -31 4 -29 8 8 13 -11 9 -24 -4 -10 -10 -15 -10 -21 1 -5 8 -14
10 -22 5 -19 -12 -79 -11 -79 1 0 5 -5 3 -10 -5 -8 -13 -10 -12 -10 3 0 10 -5
15 -10 12 -6 -4 -8 -10 -6 -14 3 -3 -11 -7 -29 -7 -18 0 -31 4 -29 8 8 13 -11
9 -24 -4 -10 -10 -15 -10 -21 1 -5 8 -14 10 -22 5 -19 -12 -79 -11 -79 1 0 5
-5 3 -10 -5 -8 -13 -10 -12 -10 3 0 10 -5 15 -10 12 -6 -4 -8 -10 -6 -14 3 -3
-11 -7 -29 -7 -18 0 -31 4 -29 8 8 13 -11 9 -24 -4 -10 -10 -15 -10 -22 1 -6
10 -13 12 -22 5 -19 -13 -94 -10 -90 4 1 7 0 12 -3 12 -3 0 -6 -3 -6 -7z m-75
-48 c-4 -8 -11 -15 -16 -15 -6 0 -5 6 2 15 7 8 14 15 16 15 2 0 1 -7 -2 -15z
m1316 -35 c0 -5 -5 -10 -11 -10 -5 0 -7 5 -4 10 3 6 8 10 11 10 2 0 4 -4 4
-10z m-975 -221 c-5 -15 -4 -19 4 -15 6 4 11 2 11 -3 0 -6 5 -11 11 -11 5 0 7
5 3 12 -7 11 10 9 49 -7 10 -4 17 -3 17 5 0 6 -4 9 -9 6 -4 -3 -17 1 -27 8
-13 10 -23 11 -31 4 -9 -7 -13 -7 -13 0 0 17 25 20 45 6 10 -8 23 -10 29 -5
14 11 47 10 40 -1 -3 -4 -1 -8 5 -8 6 0 8 -8 5 -17 -4 -11 -2 -14 3 -8 4 6 14
11 21 13 6 1 18 3 25 5 7 1 11 -7 10 -18 -1 -19 -1 -20 12 -1 15 20 11 41 -6
31 -5 -4 -9 -1 -9 4 0 16 16 13 34 -4 9 -9 24 -15 33 -13 10 2 17 -2 16 -9 -2
-7 2 -13 7 -13 6 0 10 5 10 10 0 17 -5 25 -12 23 -5 -2 -8 2 -8 7 0 13 6 13
31 -1 11 -5 17 -15 13 -20 -4 -7 1 -7 14 0 23 12 38 0 27 -21 -4 -7 0 -4 9 6
16 19 12 41 -5 31 -5 -4 -9 -1 -9 4 0 16 16 13 34 -4 9 -9 24 -15 33 -13 10 2
17 -2 15 -9 -1 -7 2 -13 8 -13 9 0 12 8 9 28 -1 4 -5 6 -10 4 -5 -1 -9 2 -9 8
0 14 5 13 48 -9 37 -18 62 -18 62 1 0 7 -5 7 -13 -1 -10 -8 -19 -7 -33 5 -18
14 -18 15 3 5 14 -7 24 -8 28 -1 10 16 25 12 25 -7 0 -14 3 -13 21 6 15 16 24
19 33 12 7 -6 23 -9 36 -6 12 2 31 0 41 -5 12 -7 20 -6 25 1 4 8 9 8 17 0 18
-18 31 -13 16 6 -13 15 -12 15 8 2 16 -9 19 -16 10 -21 -8 -5 -5 -8 8 -9 11
-1 23 -1 28 0 4 0 7 -4 7 -10 0 -5 5 -7 12 -3 7 4 8 3 4 -5 -4 -6 -12 -8 -18
-5 -7 5 -8 2 -4 -5 5 -7 14 -10 22 -7 11 4 12 2 1 -15 -10 -16 -9 -21 3 -29 8
-5 10 -10 4 -10 -7 0 -15 -7 -18 -16 -6 -15 -4 -15 10 -3 16 13 16 12 5 -8 -6
-13 -9 -23 -6 -23 3 0 1 -10 -6 -21 -8 -16 -8 -20 0 -14 8 5 10 -2 5 -22 -9
-37 -13 -41 -24 -23 -11 17 -13 9 -4 -14 3 -9 11 -13 17 -9 6 3 7 1 3 -6 -6
-9 -11 -9 -23 1 -14 11 -15 10 -8 -11 5 -18 4 -22 -6 -16 -9 6 -11 4 -6 -8 4
-12 2 -14 -11 -10 -15 6 -16 5 -2 -12 14 -17 14 -18 -10 -5 -23 12 -24 12 -11
-4 8 -9 11 -19 7 -23 -3 -3 -6 -1 -6 6 0 9 -5 9 -21 1 -11 -7 -18 -17 -16 -24
3 -7 -1 -13 -9 -13 -9 0 -13 7 -9 16 4 13 2 12 -9 -1 -14 -19 -32 -25 -21 -8
3 6 -1 7 -9 4 -9 -3 -14 -10 -11 -14 7 -11 -22 -6 -32 5 -4 4 -2 5 6 0 10 -5
12 -4 7 4 -4 6 -13 8 -19 4 -7 -4 -16 -8 -22 -9 -5 0 -16 -2 -24 -2 -11 -2
-11 -5 -1 -17 16 -19 3 -20 -15 -1 -11 10 -11 16 -2 27 10 10 9 11 -3 2 -8 -5
-25 -9 -37 -8 -12 1 -20 -2 -17 -7 4 -5 13 -7 23 -3 12 5 13 3 5 -5 -9 -9 -17
-9 -32 -1 -17 9 -23 8 -30 -5 -6 -11 -11 -13 -16 -5 -4 6 -3 11 2 11 5 0 9 7
9 15 0 13 -4 12 -21 -2 -12 -10 -24 -22 -28 -28 -5 -7 -8 -6 -8 1 0 5 6 16 13
23 10 10 6 11 -16 7 -16 -3 -36 -11 -45 -18 -13 -11 -14 -11 -7 1 6 11 4 13
-8 8 -10 -4 -17 -1 -18 6 0 9 -2 9 -6 0 -2 -7 -9 -13 -14 -13 -6 0 -8 4 -5 9
3 5 -5 8 -19 7 -23 -1 -24 -2 -8 -13 19 -15 5 -17 -17 -3 -9 6 -17 5 -22 -3
-6 -9 -8 -9 -8 0 0 15 -41 8 -52 -9 -4 -7 -8 -8 -8 -2 0 5 6 16 13 23 10 10 7
11 -13 7 -14 -2 -33 -7 -42 -11 -13 -5 -18 -2 -18 11 0 16 -2 16 -9 4 -6 -8
-8 -17 -6 -21 3 -3 -6 -4 -18 -2 -15 3 -28 -2 -37 -14 -12 -15 -12 -16 0 -5
18 16 33 16 24 0 -10 -16 -11 -89 -1 -95 4 -2 4 -9 0 -16 -10 -16 -10 -58 -1
-63 5 -3 5 -11 1 -17 -14 -22 -14 -49 -1 -41 7 4 10 4 6 -1 -4 -4 -3 -13 2
-20 7 -8 5 -12 -5 -12 -8 0 -15 4 -15 9 0 4 -5 8 -11 8 -8 0 -8 -4 1 -15 6 -8
15 -14 18 -13 4 0 14 0 22 -1 13 -1 13 -2 0 -11 -12 -7 -10 -9 8 -7 25 1 27 7
10 26 -10 11 -8 10 10 0 12 -8 22 -17 22 -22 0 -4 5 -5 10 -2 6 4 8 11 5 16
-3 5 1 6 10 3 13 -5 13 -9 3 -23 -11 -14 -11 -14 2 -5 8 6 25 10 37 9 12 -1
20 2 17 7 -4 5 -13 7 -23 3 -12 -5 -13 -3 -5 5 9 9 17 9 33 0 12 -6 19 -15 17
-19 -3 -4 1 -8 9 -8 10 0 12 4 5 12 -8 9 -4 13 15 13 13 0 23 -3 21 -7 -3 -4
8 -7 24 -6 15 0 26 3 23 7 -2 5 1 8 6 8 6 0 11 -4 11 -8 0 -5 7 -9 15 -9 13 0
12 4 -2 20 -18 20 -18 20 9 2 15 -9 26 -20 23 -24 -2 -4 2 -8 10 -8 10 0 12 4
5 12 -8 9 -4 13 15 13 13 0 23 -3 21 -7 -3 -4 8 -7 24 -6 15 0 26 3 23 7 -2 5
1 8 6 8 6 0 11 -4 11 -10 0 -5 4 -10 10 -10 5 0 9 3 9 8 -3 19 2 32 12 32 8 0
7 -6 -2 -16 -12 -15 -11 -16 10 -9 15 4 21 4 17 -3 -7 -12 20 -10 31 3 4 4 3
5 -3 2 -6 -3 -11 1 -11 10 0 12 5 11 19 -7 16 -20 18 -20 19 -4 1 17 2 17 6 2
2 -10 9 -18 14 -18 6 0 7 6 3 13 -5 9 -4 9 5 1 14 -13 54 -7 46 6 -3 5 4 6 15
3 11 -3 27 0 35 7 12 10 16 9 21 -4 3 -9 11 -13 17 -9 6 3 7 1 3 -5 -5 -8 1
-12 14 -12 13 0 18 4 15 11 -4 6 2 5 13 -2 12 -7 18 -18 14 -24 -3 -6 0 -6 9
1 19 15 46 14 46 -3 0 -9 -4 -10 -13 -2 -13 10 -32 -6 -20 -18 3 -4 6 -1 6 7
0 9 3 10 14 1 8 -6 20 -10 27 -9 7 2 13 -2 14 -9 0 -7 7 -18 15 -25 9 -7 23
-22 30 -32 14 -18 13 -19 -4 -13 -15 6 -17 5 -8 -6 7 -8 9 -17 5 -21 -4 -4 0
-4 9 -1 9 4 18 0 21 -9 4 -10 1 -13 -7 -10 -8 3 -17 0 -21 -6 -3 -6 -1 -9 5
-8 7 2 14 -5 15 -14 2 -10 10 -25 19 -34 21 -21 20 -27 -2 -15 -17 9 -19 6
-17 -24 2 -21 -2 -35 -9 -35 -6 -1 0 -7 13 -14 15 -8 20 -16 12 -20 -6 -4 -11
-3 -11 2 0 5 -7 9 -15 9 -11 0 -12 -4 -3 -14 6 -7 8 -16 4 -20 -3 -3 -6 -1 -6
5 0 7 -5 12 -10 12 -7 0 -7 -6 -1 -19 9 -16 6 -18 -24 -16 -19 1 -40 -2 -47
-6 -16 -10 -51 9 -42 22 4 7 -1 7 -15 0 -19 -11 -25 -8 -22 11 3 21 -18 4 -30
-23 -12 -31 -13 -31 -28 -13 -9 11 -27 20 -41 20 -14 0 -24 6 -23 12 5 21 -13
13 -27 -13 -7 -14 -17 -25 -22 -25 -5 0 -4 9 2 19 7 14 7 22 0 26 -6 4 -9 1
-8 -7 2 -8 -6 -13 -21 -12 -14 1 -31 -5 -39 -12 -10 -10 -19 -11 -32 -4 -24
13 -33 13 -25 0 4 -6 -1 -7 -11 -3 -14 5 -13 8 7 19 13 7 19 13 14 14 -6 0
-21 -7 -33 -16 -12 -8 -22 -11 -22 -6 0 18 -33 22 -56 7 -13 -9 -24 -11 -24
-6 0 5 -7 11 -15 15 -12 4 -13 2 -6 -13 7 -13 6 -18 -4 -18 -8 0 -12 4 -9 9
10 16 -15 7 -26 -10 -11 -16 -11 -16 -6 1 3 9 1 17 -4 17 -5 0 -7 8 -4 18 5
16 5 16 -6 0 -11 -18 -36 -26 -25 -9 3 5 1 12 -4 16 -6 3 -8 -3 -6 -15 4 -22
-10 -28 -18 -7 -3 7 -6 5 -6 -5 -1 -10 -5 -18 -11 -18 -5 0 -7 7 -4 15 10 24
-12 17 -24 -7 -9 -21 -10 -20 -7 10 4 33 -8 44 -19 17 -3 -8 -10 -15 -16 -15
-6 0 -9 4 -5 9 3 5 1 12 -4 16 -6 3 -8 -3 -6 -15 4 -22 -10 -28 -18 -7 -3 7
-6 5 -6 -5 -1 -10 -5 -18 -11 -18 -5 0 -7 7 -4 15 4 8 1 15 -4 15 -6 0 -14 -9
-17 -21 -5 -15 -10 -17 -20 -9 -9 8 -15 8 -18 0 -3 -6 -4 -5 -3 2 2 7 10 12
19 10 10 -2 15 4 14 18 -2 24 -12 26 -21 5 -3 -8 -13 -15 -21 -15 -10 0 -13
-5 -9 -12 4 -7 3 -8 -5 -4 -6 4 -19 2 -28 -6 -9 -7 -14 -8 -11 -3 10 16 -8 39
-22 30 -9 -6 -9 -10 1 -17 12 -8 11 -9 0 -6 -24 7 -23 24 1 36 l23 11 -25 -2
c-18 -1 -25 3 -24 15 1 10 -2 15 -7 12 -5 -3 -9 0 -9 6 0 7 -9 9 -22 6 -13 -3
-17 -3 -10 0 6 3 12 11 12 19 0 7 10 20 23 29 l22 17 -22 -11 c-19 -9 -23 -8
-23 5 0 9 5 13 10 10 6 -3 10 -1 10 4 0 6 -4 11 -10 11 -16 0 -7 24 15 38 18
11 17 12 -10 6 -18 -3 -25 -2 -18 3 8 6 9 14 3 23 -13 20 -12 30 1 30 5 0 7
-5 4 -11 -4 -6 2 -5 13 2 14 9 18 17 12 25 -6 6 -6 15 -2 19 4 5 2 5 -5 1 -7
-4 -11 -12 -9 -19 1 -7 1 -9 -1 -4 -3 4 -9 5 -14 1 -5 -3 1 11 12 31 12 20 18
35 13 34 -25 -4 -26 3 -4 16 l25 15 -30 -5 c-16 -3 -24 -2 -18 1 10 4 10 11 2
26 -8 15 -8 19 0 14 6 -4 11 0 11 9 0 9 5 13 10 10 6 -3 10 -1 10 4 0 6 -7 11
-15 11 -8 0 -15 -5 -15 -11 0 -5 -5 -7 -11 -4 -6 5 -4 12 8 20 10 7 22 11 27
8 5 -4 6 -1 2 6 -4 6 -11 9 -16 6 -4 -3 -11 2 -14 11 -3 8 -2 12 4 9 13 -8 13
1 0 28 -9 20 -9 20 2 4 32 -46 37 -49 18 -10 -24 50 -25 60 -5 43 18 -15 20
-4 2 14 -7 7 -19 11 -27 9 -10 -3 -9 0 3 7 9 6 17 16 17 21 0 6 -5 7 -12 3 -7
-4 -8 -3 -4 5 4 6 12 9 17 6 5 -3 6 1 3 9 -3 8 -13 12 -22 9 -13 -4 -14 -3 -3
5 7 5 14 21 14 36 0 14 3 26 8 26 5 0 9 5 9 11 0 5 -4 7 -10 4 -5 -3 -10 1
-10 10 0 11 5 15 14 12 10 -4 13 -1 9 9 -3 9 -13 13 -27 9 -12 -4 -16 -3 -9 2
16 12 21 49 6 46 -7 -2 -13 2 -13 7 0 6 4 10 9 10 5 0 18 19 30 43 18 37 18
39 2 20 -16 -19 -20 -20 -25 -7 -3 8 -2 12 4 9 6 -3 10 -4 10 -1 0 2 3 13 7
23 6 16 5 16 -10 4 -11 -9 -17 -10 -17 -2 0 6 4 11 8 11 5 0 16 6 27 13 14 11
15 16 5 22 -9 5 -11 4 -6 -3 5 -8 0 -12 -13 -12 -12 0 -21 5 -21 11 0 5 5 7
10 4 15 -10 12 18 -6 43 -8 12 -10 22 -5 22 6 0 11 -4 11 -8 0 -5 7 -17 16
-28 14 -18 15 -18 4 4 -15 30 -6 53 17 46 15 -5 16 -4 3 5 -8 6 -11 11 -7 11
5 0 5 6 0 13 -10 16 -13 38 -4 33 4 -3 13 -1 21 4 8 5 21 3 33 -3 16 -10 21
-9 31 6 15 23 19 22 11 -4z m180 9 c3 -3 -1 -11 -10 -18 -8 -7 -15 -11 -16 -9
-6 31 -5 37 7 35 7 -1 16 -5 19 -8z m160 3 c3 -5 2 -12 -3 -15 -5 -3 -9 1 -9
9 0 17 3 19 12 6z m780 -41 c-3 -5 -11 -10 -16 -10 -6 0 -7 5 -4 10 3 6 11 10
16 10 6 0 7 -4 4 -10z m-1225 -25 c-7 -8 -18 -15 -24 -14 -7 0 -6 2 2 6 6 2
10 9 6 14 -3 5 2 9 12 9 13 0 14 -3 4 -15z m1240 -29 c0 -2 -7 -7 -16 -10 -8
-3 -12 -2 -9 4 6 10 25 14 25 6z m-5 -44 c-3 -3 -11 0 -18 7 -9 10 -8 11 6 5
10 -3 15 -9 12 -12z m5 -16 c0 -2 -7 -7 -16 -10 -8 -3 -12 -2 -9 4 6 10 25 14
25 6z m-10 -31 c-6 -8 -9 -19 -6 -24 4 -5 1 -13 -5 -17 -7 -4 -9 -3 -5 4 3 6
1 14 -4 17 -7 5 -5 12 7 21 24 18 28 18 13 -1z m-533 -232 c0 -10 -4 -10 -16
-1 -9 7 -18 13 -20 15 -2 1 5 1 16 0 11 0 20 -7 20 -14z m-544 -33 c-3 -12 -8
-19 -11 -16 -5 6 5 36 12 36 2 0 2 -9 -1 -20z m232 -249 c3 -5 2 -12 -3 -15
-5 -3 -9 1 -9 9 0 17 3 19 12 6z m160 0 c3 -5 2 -12 -3 -15 -5 -3 -9 1 -9 9 0
17 3 19 12 6z m-561 -96 c-4 -8 -11 -12 -16 -9 -6 4 -5 10 3 15 19 12 19 11
13 -6z m1096 -135 c0 -5 -2 -10 -4 -10 -3 0 -8 5 -11 10 -3 6 -1 10 4 10 6 0
11 -4 11 -10z m4 -87 c2 -11 -1 -20 -8 -20 -6 0 -12 13 -11 28 0 30 13 25 19
-8z m-1077 -51 c7 -13 8 -23 1 -33 -8 -11 -9 -11 -5 2 3 9 1 21 -5 27 -6 6
-18 8 -27 5 -14 -4 -14 -3 -1 6 20 14 23 14 37 -7z m263 -26 c0 -9 -32 -36
-42 -36 -6 0 0 9 13 20 25 21 29 23 29 16z m253 -10 c4 -9 0 -13 -11 -11 -9 2
-21 4 -27 4 -5 1 -3 6 5 11 20 13 27 12 33 -4z m227 4 c0 -5 -5 -10 -11 -10
-5 0 -7 5 -4 10 3 6 8 10 11 10 2 0 4 -4 4 -10z m130 -11 c0 -5 -4 -9 -8 -9
-5 0 -9 7 -9 15 0 8 4 12 9 9 4 -3 8 -9 8 -15z m-510 -9 c-24 -15 -36 -11 -14
4 10 8 21 12 24 10 2 -3 -2 -9 -10 -14z m313 3 c-3 -7 -8 -13 -12 -13 -4 0 -8
6 -8 13 0 8 6 14 13 14 7 0 10 -6 7 -14z m116 4 c8 -11 6 -13 -9 -12 -11 1
-23 5 -27 10 -5 4 -2 5 5 1 6 -4 12 -2 12 3 0 15 5 14 19 -2z m416 -216 c3 -5
2 -12 -3 -15 -5 -3 -9 1 -9 9 0 17 3 19 12 6z m-55 -31 c0 -5 -4 -10 -10 -10
-5 0 -10 5 -10 10 0 6 5 10 10 10 6 0 10 -4 10 -10z"/>
<path d="M1062 1448 c-15 -15 -15 -28 -1 -28 5 0 7 5 4 10 -8 13 11 13 38 -1
16 -9 22 -9 25 0 2 6 8 11 13 11 6 0 7 -5 3 -12 -4 -7 -3 -8 5 -4 19 12 2 26
-27 21 -14 -2 -31 0 -37 5 -7 6 -16 5 -23 -2z"/>
<path d="M410 1441 c0 -7 -4 -10 -9 -6 -5 3 -13 0 -17 -6 -5 -8 0 -10 18 -6
14 4 28 4 32 0 11 -11 37 -12 30 -1 -3 5 -9 7 -12 4 -3 -3 -14 1 -24 11 -12
10 -18 12 -18 4z"/>
<path d="M577 1444 c7 -3 9 -13 6 -22 -4 -14 -3 -14 5 -2 12 16 7 30 -11 29
-9 0 -9 -2 0 -5z"/>
<path d="M1190 1437 c0 -8 7 -14 15 -14 11 0 12 4 4 14 -6 7 -13 13 -15 13 -2
0 -4 -6 -4 -13z"/>
<path d="M367 1185 c-10 -14 -13 -26 -7 -30 5 -3 8 -11 6 -18 -1 -7 -1 -9 1
-4 3 4 10 4 16 0 7 -3 3 3 -7 15 -11 12 -14 22 -9 22 6 0 14 7 17 16 10 25 3
25 -17 -1z"/>
<path d="M370 1040 c-9 -6 -10 -10 -3 -10 6 0 15 5 18 10 8 12 4 12 -15 0z"/>
<path d="M366 1012 c-2 -4 -1 -14 4 -22 7 -11 9 -9 7 8 -1 24 -3 26 -11 14z"/>
<path d="M475 1000 c-3 -5 -1 -10 4 -10 6 0 11 5 11 10 0 6 -2 10 -4 10 -3 0
-8 -4 -11 -10z"/>
<path d="M479 955 c-1 -3 -2 -17 -3 -32 -1 -16 -5 -34 -10 -41 -4 -7 -5 -16
-2 -19 3 -4 6 -1 6 6 0 7 4 10 9 7 5 -4 8 2 6 11 -1 10 2 23 7 30 5 7 5 14 -2
18 -6 3 -8 11 -5 16 4 5 4 9 1 9 -3 0 -7 -2 -7 -5z"/>
<path d="M365 940 c-3 -5 -2 -10 4 -10 5 0 13 5 16 10 3 6 2 10 -4 10 -5 0
-13 -4 -16 -10z"/>
<path d="M479 858 c-6 -27 -5 -39 4 -45 7 -3 9 -3 5 2 -4 4 -3 14 3 21 7 8 7
14 -1 19 -5 3 -10 5 -11 3z"/>
<path d="M1187 753 c-4 -3 -7 -11 -7 -17 0 -6 5 -5 12 2 6 6 9 14 7 17 -3 3
-9 2 -12 -2z"/>
<path d="M365 740 c-3 -5 -2 -10 4 -10 5 0 13 5 16 10 3 6 2 10 -4 10 -5 0
-13 -4 -16 -10z"/>
<path d="M1145 730 c-3 -6 1 -7 9 -4 18 7 21 14 7 14 -6 0 -13 -4 -16 -10z"/>
<path d="M1370 640 c0 -5 5 -10 11 -10 5 0 7 5 4 10 -3 6 -8 10 -11 10 -2 0
-4 -4 -4 -10z"/>
<path d="M365 580 c-3 -5 -2 -10 4 -10 5 0 13 5 16 10 3 6 2 10 -4 10 -5 0
-13 -4 -16 -10z"/>
<path d="M777 383 c-4 -3 -7 -11 -7 -17 0 -6 5 -5 12 2 6 6 9 14 7 17 -3 3 -9
2 -12 -2z"/>
<path d="M990 380 c0 -5 0 -12 0 -15 0 -12 14 -4 16 10 1 8 -2 15 -7 15 -5 0
-9 -4 -9 -10z"/>
<path d="M1193 370 c-1 -11 2 -20 7 -20 4 0 7 7 6 15 -3 23 -12 26 -13 5z"/>
<path d="M1307 375 c-4 -8 -3 -16 1 -19 4 -3 9 4 9 15 2 23 -3 25 -10 4z"/>
<path d="M1337 383 c-4 -3 -7 -11 -7 -17 0 -6 5 -5 12 2 6 6 9 14 7 17 -3 3
-9 2 -12 -2z"/>
<path d="M1367 377 c-3 -8 1 -14 8 -14 7 0 11 6 8 14 -3 7 -6 13 -8 13 -2 0
-5 -6 -8 -13z"/>
<path d="M454 364 c-18 -14 -18 -14 6 -3 31 14 36 19 24 19 -6 0 -19 -7 -30
-16z"/>
<path d="M1320 1745 c0 -2 6 -8 13 -14 10 -8 14 -7 14 2 0 8 -6 14 -14 14 -7
0 -13 -1 -13 -2z"/>
<path d="M1651 799 c25 -36 36 -42 45 -28 4 7 3 9 -3 6 -12 -8 -36 17 -26 26
3 4 1 7 -6 7 -7 0 -10 4 -7 8 3 5 -1 9 -9 9 -11 0 -9 -7 6 -28z"/>
<path d="M1710 259 c0 -5 5 -7 10 -4 6 3 10 8 10 11 0 2 -4 4 -10 4 -5 0 -10
-5 -10 -11z"/>
<path d="M266 48 c3 -5 10 -6 15 -3 13 9 11 12 -6 12 -8 0 -12 -4 -9 -9z"/>
<path d="M1226 48 c3 -5 10 -6 15 -3 13 9 11 12 -6 12 -8 0 -12 -4 -9 -9z"/>
</g>
</svg>
