<svg xmlns="http://www.w3.org/2000/svg" viewBox="0 0 512 512">
  <path fill="#00a6c8" d="M510.661 256c0 140.644-114.015 254.659-254.66 254.659S1.341 396.644 1.341 255.999c0-140.644 114.015-254.66 254.66-254.66S510.66 115.354 510.66 255.999z"/>
  <path fill="#fdc514" d="M279.906 78.864c6.26 1.166 9.382-2.292 10.293-7.037 1.233-6.326-1.421-38.145-1.421-38.145s-14.476 28.374-15.722 34.674c-.938 4.731.63 9.235 6.849 10.495zm22.785 7.01c5.911 2.386 9.623-.415 11.447-4.865 2.44-5.951 5.951-37.69 5.951-37.69S300.426 68.262 298 74.226c-1.81 4.463-1.166 9.168 4.691 11.648zm21.016 11.366c5.361 3.525 9.516 1.514 12.156-2.507 3.538-5.362 13.082-35.773 13.082-35.773s-24.125 20.587-27.611 25.935c-2.68 4.021-2.922 8.779 2.373 12.344zm18.389 15.347c4.557 4.49 9.06 3.364 12.425 0 4.49-4.557 19.716-32.516 19.716-32.516s-27.584 15.427-32.074 19.984c-3.377 3.404-4.557 8.042 0 12.585zm15.119 18.616c3.606 5.362 8.229 5.093 12.197 2.412 5.267-3.578 25.587-27.986 25.587-27.986s-30.023 9.677-35.317 13.255c-3.954 2.68-6.005 6.969-2.466 12.317zm11.218 21.298c2.507 5.911 7.091 6.607 11.486 4.758 5.87-2.466 30.492-22.383 30.492-22.383s-31.296 3.552-37.167 6.018c-4.409 1.85-7.238 5.656-4.812 11.607zm6.916 23.081c1.341 6.299 5.67 7.881 10.361 6.943 6.233-1.26 34.205-15.936 34.205-15.936s-31.377-2.68-37.623-1.434c-4.678.938-8.176 4.115-6.943 10.428zm2.333 24.031c.08 6.447 4.021 8.859 8.82 8.859 6.353 0 36.631-8.859 36.631-8.859s-30.277-8.859-36.631-8.859c-4.758 0-8.82 2.412-8.82 8.859zm-2.333 24.018c-1.152 6.327 2.265 9.489 6.943 10.428 6.246 1.246 37.623-1.447 37.623-1.447s-27.973-14.663-34.205-15.923c-4.691-.952-9.127.617-10.361 6.943zm-6.916 23.094c-2.359 5.978.402 9.744 4.812 11.593 5.87 2.479 37.167 6.031 37.167 6.031s-24.622-19.93-30.492-22.383c-4.396-1.863-9.047-1.193-11.486 4.758zm-11.218 21.338c-3.471 5.361-1.488 9.651 2.466 12.317 5.361 3.592 35.317 13.269 35.317 13.269s-20.319-24.421-25.587-27.986c-4.021-2.68-8.672-2.962-12.197 2.399zm-15.119 18.603c-4.437 4.611-3.31 9.168 0 12.586 4.49 4.557 32.074 19.971 32.074 19.971s-15.226-27.945-19.716-32.502c-3.364-3.404-7.921-4.611-12.425 0zm-18.389 15.307c-5.24 3.646-5.026 8.337-2.373 12.358 3.512 5.361 27.611 25.935 27.611 25.935s-9.543-30.425-13.082-35.786c-2.68-4.021-6.889-6.085-12.156-2.507zm-21.016 11.379c-5.844 2.533-6.5 7.184-4.691 11.647 2.426 5.964 22.089 30.907 22.089 30.907s-3.512-31.738-5.951-37.69c-1.823-4.463-5.563-7.332-11.447-4.865zm-113.967-11.379c-5.362-3.512-9.516-1.514-12.17 2.507-3.512 5.361-13.082 35.786-13.082 35.786s24.125-20.587 27.624-25.935c2.68-4.021 2.922-8.779-2.373-12.358zm-18.443-15.307c-4.557-4.503-9.047-3.351-12.424 0-4.49 4.557-19.716 32.502-19.716 32.502s27.583-15.413 32.087-19.971c3.364-3.418 4.543-8.042 0-12.586zm-15.065-18.603c-3.592-5.361-8.216-5.08-12.184-2.399-5.281 3.565-25.614 27.986-25.614 27.986s30.023-9.677 35.318-13.269c4.021-2.68 6.005-6.956 2.48-12.317zm-11.232-21.338c-2.506-5.924-7.09-6.621-11.487-4.758-5.87 2.453-30.492 22.383-30.492 22.383s31.309-3.552 37.181-6.031c4.396-1.849 7.238-5.643 4.798-11.594zm-6.915-23.094c-1.34-6.299-5.669-7.894-10.347-6.943-6.233 1.26-34.205 15.923-34.205 15.923s31.377 2.68 37.623 1.447c4.665-.938 8.176-4.115 6.929-10.428zm-2.333-24.018c-.067-6.447-4.021-8.859-8.82-8.859-6.353 0-36.618 8.859-36.618 8.859s30.264 8.859 36.618 8.859c4.772 0 8.82-2.412 8.82-8.859zm2.333-24.031c1.166-6.339-2.265-9.489-6.929-10.428-6.246-1.26-37.623 1.434-37.623 1.434s27.972 14.677 34.205 15.936c4.677.938 9.114-.63 10.347-6.943zm6.915-23.081c2.359-5.991-.402-9.757-4.798-11.607-5.87-2.466-37.18-6.018-37.18-6.018s24.621 19.917 30.492 22.383c4.396 1.85 9.06 1.193 11.487-4.758zm11.232-21.298c3.458-5.362 1.488-9.637-2.48-12.317-5.294-3.579-35.317-13.255-35.317-13.255s20.333 24.407 25.613 27.986c4.021 2.68 8.659 2.948 12.184-2.412zm15.065-18.616c4.436-4.611 3.31-9.181 0-12.585-4.504-4.557-32.087-19.984-32.087-19.984s15.226 27.959 19.716 32.516c3.377 3.418 7.935 4.597 12.424 0zm85.781-21.231c59.067 0 106.943 48.533 106.943 108.391s-47.863 108.378-106.943 108.378-106.93-48.506-106.93-108.418 47.957-108.351 106.93-108.351zm.16-14.851c6.353-.094 8.726-4.115 8.726-8.954 0-6.434-8.726-37.114-8.726-37.114s-8.739 30.68-8.739 37.114c0 4.838 2.373 8.954 8.739 8.954zm23.684 243.83c-6.219 1.341-7.787 5.75-6.849 10.495 1.247 6.3 15.722 34.674 15.722 34.674s2.68-31.819 1.421-38.132c-.938-4.731-4.021-8.296-10.293-7.036zm-23.684 2.386c-6.367.094-8.739 4.115-8.739 8.94 0 6.447 8.739 37.113 8.739 37.113s8.726-30.666 8.726-37.113c0-4.825-2.373-8.94-8.726-8.94zm-23.71-2.386c-6.246-1.166-9.382 2.305-10.293 7.036-1.233 6.313 1.434 38.132 1.434 38.132s14.462-28.375 15.722-34.674c.925-4.745-.63-9.248-6.863-10.495zm-22.786-6.983c-5.911-2.386-9.624.402-11.447 4.865-2.426 5.951-5.938 37.69-5.938 37.69S211.99 330.964 214.416 325c1.836-4.463 1.179-9.181-4.691-11.647zM188.724 97.24c5.24-3.632 5.026-8.323 2.373-12.344-3.525-5.362-27.624-25.935-27.624-25.935s9.57 30.425 13.082 35.773c2.68 4.021 6.889 6.085 12.17 2.507zm21.002-11.366c5.844-2.533 6.528-7.184 4.691-11.648-2.426-5.965-22.075-30.907-22.075-30.907s3.512 31.739 5.938 37.69c1.823 4.45 5.576 7.318 11.446 4.865zm22.786-7.01c6.219-1.341 7.787-5.763 6.863-10.495-1.26-6.313-15.722-34.688-15.722-34.688s-2.68 31.819-1.434 38.145c.938 4.745 4.021 8.296 10.293 7.037z"/>
  <path fill="#fdc514" d="m252.51 388.879-1.85 3.753-2.05 4.772-1.246 2.292-1.018 2.077-.817 1.649-1.018 1.046-2.466-2.077-2.667-1.863-2.869-1.461-3.07-1.247-6.567-1.662-3.27-.63-3.498-.416-7.184-.63-7.171-.201-6.956-.402-6.567-.831-3.686-.63-3.485-.831-1.85-.63-1.85-.616-1.635-.831-1.434-.831-2.265-1.461-2.252-1.675-2.466-1.849-2.251-2.091-4.704-4.57-4.718-4.57-4.718-4.37-4.303-3.94-2.05-1.461-2.05-1.447-1.85-.831-1.85-.616-3.485-.831-3.083-1.046-3.07-1.032-3.07-1.461-2.68-1.247-2.654-1.675-2.466-1.649-2.252-1.662-2.466-1.877-2.037-1.877-2.05-2.077-2.05-2.064-3.9-4.37-3.7-4.584-7.372-9.757-7.787-9.972-4.517-4.772-4.704-4.785-2.667-2.493-2.667-2.305-2.882-2.05-3.07-2.305-.617.214-.617.616-.617.831-.402 1.046-.617 1.877-.201.831-1.434-.616-1.233-.644-1.434-.616-1.233-.416h-2.667l-1.434.416-1.434.616 1.434 1.877 1.836 2.493 1.849 2.922 1.648 3.11 1.635 3.324 1.233 3.11.402 1.675.415 1.247.215 1.447v1.247H53.836l1.622 2.493 1.849 2.507 2.05 2.479 2.252 2.292 4.517 4.57 2.251 1.877 2.05 1.447-2.251.214-3.07.201-3.083.402-2.252.214 1.836 1.675 2.265 1.662 2.453 1.849 2.68 1.89 2.654 1.649 2.667 1.461 2.466.831 2.251.63 1.019.201.817.214.63.214.402.416.201.188v.844l-.201.416-.402 1.26-.215 1.233-.201.831v.63l.201 1.032.215.831.402.416.617.416.817.416 1.032.201 1.019.416 1.032.416 1.019.429.817.616.215.201v.429l-.215.214-1.635 1.233-.831.817-.817 1.059v.831l-.201.817.201 1.046.201 1.247 3.498 1.26 3.686 1.247 1.635.402 1.635.63 1.233.616 1.032.63-6.769 5.415 1.85 1.649 2.251 1.247 2.868 1.461 2.868 1.032 3.297 1.046 3.07.616 2.668.616h2.453l-2.252 1.675-2.868 1.863-3.07 1.662-2.265 1.662 2.064 1.461 6.138 3.123 3.9 1.863 9.02 3.94 9.838 3.954 10.24 3.74 10.066 3.324 4.504 1.461 4.101 1.046 3.686 1.019 3.284.63-6.554-.63-6.152-.817-6.166-1.032-5.737-1.274-5.737-1.649-5.536-1.649-5.335-1.89-5.12-2.064-10.052-4.168-9.422-4.155-4.517-1.877-4.517-1.863-8.605-3.324 1.032-.616 1.219-.429 1.648-.603 1.836-.429 3.9-1.247 3.485-1.247-6.152-1.032-8.404-1.662-4.102-1.247-3.485-1.046-1.434-.616-1.233-.63-1.019-.63-.617-.616v-.214l.201-.201.617-.214.617-.416 1.635-.603 2.265-.644 4.919-1.461 4.102-1.447-10.052-1.863-7.787-1.247-2.868-.63-2.265-.831-.818-.402-.818-.63-.617-.416-.402-.63.603-.416 1.849-.416 2.667-.416 3.082-.616 3.27-.429 2.868-.817 1.448-.429 1.219-.402.831-.63.817-.63-3.297-1.233-4.088-.831-4.718-.63-4.718-.616-2.466-.63-2.239-.416-4.53-1.662-2.05-1.032-1.836-1.461-1.648-1.461-1.233-1.863.429-.214.804-.201h1.032l1.635.201 3.7.214 4.102.201 4.504.429h5.75l1.635-.228 1.233-.402.817-.416-4.919-2.077-6.554-2.922-3.7-1.849-3.901-1.877-3.887-2.091-3.901-2.077-3.7-2.279-3.471-2.493-3.284-2.493-2.882-2.493-1.22-1.461-1.233-1.247-.817-1.233-.817-1.461-.831-1.247-.402-1.461-.201-1.247-.201-1.461h1.434l1.635.214 1.635.63 1.648.616 3.27 2.077 3.7 2.091 1.635 1.032 1.849 1.032 1.837.831 1.635.63 1.849.429 1.648.201h1.849l1.635-.63-4.932-3.74-5.522-4.785-6.367-5.603-6.34-6.233-6.367-6.661-5.951-6.635-2.667-3.538-2.654-3.324-2.252-3.324-2.064-3.123-.402-.844v-1.447l.201-.616.201-.63.617-.416.617-.616.617-.416.818-.201.818-.214h1.649l1.032.214.804.201.831.616.616.63 3.686 3.74 4.302 4.356 4.517 4.785 4.919 4.772 4.919 4.37 4.919 4.155 2.453 1.675 2.265 1.447 2.453 1.247 2.265.831-1.635-1.032-1.849-1.877-2.466-2.479-2.667-3.137-5.938-7.264-6.554-8.538-3.297-4.557-3.07-4.57-2.869-4.57-2.869-4.37-2.466-4.155-2.05-3.74-1.434-3.525-1.233-2.909-.201-1.046v-1.662l.201-.63.415-.617.402-.63.415-.416.617-.402 1.434-.429 1.233-.416h2.869l.831.214.603.201.817.429.63.617 1.635 1.447 1.635 2.077 3.7 4.785 3.887 6.031 4.504 6.433 4.718 6.648 2.466 3.123 2.453 3.123 2.681 2.694 2.868 2.493-3.498-6.863-3.901-7.894-2.038-4.356-1.849-4.37-1.849-4.57-1.635-4.571-1.434-4.785-1.434-4.571-1.019-4.571-.831-4.571-.416-4.369-.201-4.155.201-2.077.215-1.863.201-1.876.416-1.863.416-.63.201-.617.617-.63.402-.416 1.434-.63 1.447-.416h1.42l1.246.214.603.201.416.214.201.416.201.63 2.05 6.648 1.849 7.064 1.849 7.264 1.849 7.077 1.836 7.064 2.453 6.648 1.233 3.11 1.447 3.123 1.635 2.909 1.836 2.909-1.22-6.018-.831-5.415-.818-4.972-.402-4.584-.402-3.941-.215-3.525.215-2.922.201-2.493.402-2.077.617-1.662.402-.63.416-.617.416-.416.617-.416.603-.214h1.849l1.648.63 1.635.831 1.434 6.648 1.434 6.447 1.635 6.018 1.85 5.831 2.05 5.817 2.265 5.817 2.453 6.018 2.868 6.031 2.05 3.954 2.05 3.94 2.251 3.954 2.265 3.94 2.453 3.753 2.466 3.74 2.654 3.726 2.68 3.753 4.919 6.233 5.12 5.803 5.335 5.83 5.535 5.401 5.736 5.401 5.951 5 6.138 4.772 6.367 4.57 4.303 2.909 4.517 2.694 4.718 2.707 4.504 2.493 7.184 3.538 6.97 3.31 7.371 2.922 7.385 2.707 6.97 2.279 7.171 1.863 7.385 1.675 7.171 1.447 7.6 1.046 7.371.817 7.6.644 7.586.402zm18.67 63.169 3.485.416 1.649.63.402.201v.214h-.402l-.429.201-3.271.63h-2.68l-8.618-.63-21.726-.416-11.688.214-5.536.201-5.549.416-4.919.416-4.704.429-3.9.616-3.485.831-1.22.402-1.246.429-1.018.416-.817.616.416-2.064.817-2.091-1.434.416-1.434.429-1.233.616-1.233.63-1.032.603-.817.844-.603 1.046-.201 1.032-.617-1.461-.429-1.233-.214-1.447-.201-1.247.201-1.046.214-1.247.201-1.032.617-1.046.416-.831.817-1.032 1.635-1.662 2.265-1.461 2.453-1.447a18.31 18.31 0 0 0 4.169 1.829l.133.034a12.244 12.244 0 0 0 4.389-.437l-.087.022a5.48 5.48 0 0 0 3.827 1.551c1.548 0 2.947-.64 3.946-1.671l.001-.002c.095-.091.183-.187.263-.289l.005-.006a4.523 4.523 0 0 0 1.009-1.63l.01-.031c.154-.624.242-1.341.242-2.077s-.088-1.454-.254-2.139l.012.062 2.466-.214 2.869-.402 3.083-.844 3.27-.817 3.284-.644 3.07-.817 2.881-.416 2.466-.214-1.032.844-2.466 1.863-2.869 2.279-2.05 1.461 2.68.63 2.251.416-4.919 5.603-1.22 1.662 1.635.63 1.635.416 1.836.402h3.7l1.85-.402 1.85-.416 1.421-.844 1.662.844 1.635.63 1.622.416 1.662.416 3.686.402 3.9.416h15.575z"/>
  <path fill="#fdc514" d="m208.226 440.213.63.201.603.214.201.63.201.616-.201.63-.201.616-.603.416h-1.447l-.402-.416-.416-.616-.214-.63.214-.616.416-.63.402-.214.817-.201z"/>
  <path fill="#fdc514" d="m207.985 441.044.416.214.214.416-.214.416-.416.201-.402-.201-.214-.416.214-.416.402-.214z"/>
  <path fill="#fdc514" d="M208.159 443.899h-.026a1.903 1.903 0 1 1 1.903-1.931v.029a1.876 1.876 0 0 1-1.849 1.876h-.001z"/>
  <path fill="#fdc514" d="m360.901 462.221-1.421.644-1.434.201-1.247.214-1.005-.214-1.032-.201-1.032-.416-.817-.416-1.019-.63-4.101-3.123-1.019-.416-.831-.188h-1.019l-1.849 3.94-2.453 4.973-.831 1.26-.817 1.032-.817.63-.817.616-1.032.416h-1.032l-1.005-.416-1.247-.616-.402-.63-.416-.616-.402-.831-.416-1.046-.402-1.863-.201-1.247-1.247 1.046-1.233 1.434-1.019 1.675-1.219 1.863-1.447 1.877-1.434 1.447-.817.831-1.019.63-1.032.402-1.219.429h-.63l-1.032.214-1.005-.214-.831-.429-2.453-2.909-2.68-2.895-1.849 2.895-2.05 2.507-1.019 1.046-1.032 1.032-1.032.817-1.005.644-.817.402-1.032.214H299.6l-.817-.214-.817-.402-.616-.644-.817-1.032-.831-2.493-.817-2.077-.201-1.046-.402-.817-.416-.429h-.402l-5.549 9.154-.817.831-1.434.616-1.649.429-1.635.402h-1.836l-1.447-.402-.402-.214-.63-.63-.188-.416v-.831l.817-9.141-.63.201-.817.429-.817.402-.804.844-1.662 1.863-1.81 2.077-1.849 2.279-2.252 1.877-2.064 1.662-1.219.63-1.032.214-1.434.201-1.019-.201-.416-.214-.416-.416-.201-.616v-.63l.201-2.68.416-2.68.201-1.461-.201-1.247-.214-1.247-.804-1.447-1.233 1.863-2.064 2.68-2.44 2.68-2.68 2.68-1.447 1.032-1.434 1.046-1.22.416-1.032.416-.416-.201h-.536l-.429-.416-.201-.214-.402-.616-.201-.63v-.831l-.214-1.032.214-7.894-5.133 3.525-6.206 3.927-1.434.63-1.635.831-1.434.416-1.649.416-1.381.389h-1.475l-1.447-.214-1.233-.416.617-1.649.617-1.461.603-1.461.845-1.247.817-1.233.817-1.26 1.018-1.046 1.018-1.032 2.265-1.662 2.68-1.662 2.68-1.233 3.083-1.046 3.083-.831 6.97-1.26 3.471-.402 7.586-.416 7.8-.214h15.548l11.272-.63 3.485-.402 3.471-.63 3.082-.63 3.082-.75 2.868-1.233 2.68-1.247 2.252-1.675 2.252-1.649 1.849-2.305-2.05-4.155 1.635-.201 1.649-.416 1.635-.817 1.434-1.059.63-.402.603-.644.416-.817.402-.63.201-.817v-1.461l-.402-.831 3.485-.63 3.686-.402 3.901-.214h4.021l8.43.402 8.605.644 8.82 1.032 8.591.831 8.417.844 7.787.402v2.909l-.201 1.247-.402 1.247-.416 1.247-.416 1.046-.603.817-.817 1.046-1.447 1.447-1.836 1.26-1.849.831-2.05.416-2.252.416-2.265-.214-2.05-.201-2.252-.63-4.101-2.064-1.635-1.474-1.568-1.662v3.525l-.616 4.584-.402 2.292-.616 2.064-.416.831-.616.616-.402.63-.657.402zm-164.202-19.93 4.718 2.077 1.233-1.032 1.635-1.247 1.836-1.032 1.649-1.046 6.138-2.493 5.362-2.493 2.68-1.032 2.265-1.26 2.251-1.247 1.85-1.247 9.422-6.233 4.517-2.909 4.101-2.909 3.07-2.507 2.466-2.265 2.68-2.493 2.868-2.68 1.019-1.046 1.233-.831 1.434-.831 1.649-.817 3.471-1.662 3.485-1.247 4.731-1.26 5.106-1.233 5.361-1.059 5.951-1.032 7.184-.817 7.171-1.046 7.385-.831 9.623-1.662 2.265-.63 2.466-.616 2.453-.63 2.466-3.11 3.887-4.37 2.68-2.68 3.07-2.479 3.485-2.68 4.101-2.68 6.139-3.74 6.567-3.324 6.702-3.525 6.554-3.123 5.495-2.761 5.736-2.895 4.731-2.493 3.7-2.507 1.005-3.123 1.434-3.11 1.849-3.123 2.252-3.11 2.453-3.324 3.096-3.324 3.271-3.74 4.101-4.021 3.686-3.324 3.901-3.324 2.05-1.447 2.05-1.461 2.265-1.247 2.252-1.247 2.252-1.046 2.265-.831 2.44-.603 2.265-.644 2.466-.201 2.252-.214 2.466.214 2.252.416-.201 2.493-.63 2.493-.817 2.493-1.032 2.68-1.421 2.68-1.849 2.68-2.252 2.909-2.68 2.922 2.05-.228 1.849-.416 1.434-.416 1.434-.616 1.233-.429 1.434-.402 1.836-.201 2.05-.214.214 1.461v1.461l-.214 1.447-.402 1.247-.616 1.247-.817 1.247-.817 1.032-1.032 1.046-4.303 4.142-4.316 3.94 2.466.228 2.68.831 2.68.817 2.038.429-2.466 1.863-2.868 1.877-2.868 1.863-3.284 1.89-3.257 1.89-3.284 2.091-3.271 2.279-3.082 2.493 1.434.214 1.849.831.817.201.817.416.616.214.616-.214-4.101 2.279-5.134 2.6-2.453 1.233-2.064 1.26-1.019.616-.616.616-.416.63-.402.63.201.831.416.616.817.63.616.63-.201.831-.416.603-.817.644-.817.616-1.849 1.046-2.466 1.032-2.453.817-2.252.844-1.662.831-1.219.63 4.101 4.155-1.434 1.434-1.447 1.046-1.219.63-1.447.63-2.855.402h-3.901l.429 1.877.589 1.877.416 2.077.402 2.077-3.471 2.68-4.303 3.056-4.718 3.11-5.361 3.11-3.082 1.662-3.043 1.501-3.284 1.247-3.485 1.247-3.7 1.247-3.887.831-4.101.831-4.289.616 7.573.214h6.554l6.152-.63 5.536-.616 5.134-1.046 4.517-1.233 4.503-1.675 4.316-1.662 5.736-2.68 5.536-3.11 5.361-3.324 5.522-3.324-3.297-1.675-3.284-1.032-1.635-.63-1.649-.831-1.849-.831-1.836-1.032 1.635-1.341 1.849-.817 2.252-.831 2.466-.616 4.919-1.032 5.12-.644 4.517-.616 4.101-.416 1.635-.429 1.447-.402.817-.416.603-.616-.201-.214-.402-.402-.63-.214-.817-.429-2.252-.416-2.868-.416-2.922-.12-2.882-.416-2.453-.616-1.635-.63 5.536-1.247 5.536-1.26 4.919-1.032 4.101-1.019 3.485-1.046 3.07-1.26 1.447-.616 1.019-.616 1.032-.63.817-.831-.214-.214-.402-.416-.817-.201-1.032-.214-2.68-.201h-3.07l-6.353-.416-2.68-.429-1.649-.416 2.868-1.233 4.919-1.461 4.316-1.247 3.901-1.032 3.686-1.26 3.887-1.247 3.901-1.582 1.836-1.046 1.649-1.046.616-.616.616-.831.616-.616.201-.63-.201-.616-.616-.416-.616-.214h-5.736l-2.68.214h-3.7l-1.019-.214-.831-.429-.804-.402 8.202-5.361 7.586-5 6.702-4.356 5.951-4.155 2.466-2.077 2.252-2.077 1.849-2.077 1.635-2.077 1.219-2.279 1.032-2.292.63-2.493v-2.68h-1.447l-1.434.201-1.635.63-1.649.63-3.271 2.077-3.498 2.077-1.836 1.046-1.649 1.032-1.849.831-1.849.616-1.622.416-1.649.214h-1.849l-1.635-.63 4.919-3.726 5.536-4.798 6.353-5.603 6.366-6.233 6.353-6.702 5.938-6.702 2.68-3.538 2.68-3.324 2.252-3.324 2.05-3.123.429-.831.188-.616-.188-.831-.214-.63-.214-.616-.603-.536-.616-.616-.616-.214-.817-.429-.63-.08h-1.649l-.817.201-1.032.214-.603.63-.817.616-3.767 3.7-4.303 4.37-4.517 4.785-4.933 4.772-4.919 4.356-4.919 4.168-2.453 1.675-2.252 1.447-2.453 1.26-2.05 1.032 1.421-1.247 1.849-1.877 2.466-2.479 2.68-3.11 5.951-7.291 6.554-8.511 3.284-4.584 3.07-4.57 3.082-4.356 2.68-4.584 2.466-4.142 2.05-3.753 1.635-3.525 1.032-2.909.201-1.046v-1.662l-.201-.617-.416-.63-.402-.617-.416-.416-.616-.214-1.233-.617-1.434-.416h-2.868l-.817.214-.616.201-.817.402-.63.63-1.635 1.461-1.582 2.077-3.7 4.772-3.913 6.031-4.289 6.447-4.718 6.702-2.68 3.123-2.453 3.11-2.68 2.68-2.882 2.479 3.7-6.849 3.686-7.894 2.05-4.37 1.849-4.37 1.836-4.57 1.635-4.571 1.447-4.772 1.434-4.584 1.032-4.557.817-4.584.402-4.356.214-4.155-.214-2.077-.214-1.876-.188-1.863-.416-1.876-.214-.617-.402-.63-.603-.617-.416-.429-1.434-.617-1.434-.402h-1.447l-1.219.201-.416.201-.616.214-.201.402-.201.63-2.05 6.863-1.849 6.849-1.849 7.278-1.836 7.064-1.849 7.064-2.453 6.702-1.286 3.377-1.421 2.909-1.649 3.11-1.849 2.68 1.233-6.031.817-5.361.817-4.986.416-4.571.416-3.941.201-3.538-.201-2.909-.201-2.493-.416-2.091-.616-1.649-.416-.63-.402-.63-.416-.416-1.233-.402-.603-.214h-.644l-.603.214-1.649.402-1.635.845-1.434 6.702-1.447 6.434-1.635 6.031-1.836 5.817-2.05 5.817-2.252 5.603-2.466 6.031-2.868 6.031-2.05 3.94-2.05 4.021-2.265 4.021-2.252 3.94-2.453 3.753-2.466 3.74-5.361 7.479-4.919 6.233-5.134 5.83-5.361 5.817-5.536 5.361-5.736 5.361-5.884 4.839-6.152 4.798-6.339 4.557-4.329 2.909-4.503 2.909-9.021 5.361-7.184 3.31-7.171 3.337-14.771 5.361-12.291 3.753-12.706 2.922-6.366.992-6.567.831-6.366.844-6.554.416-.616.201-.603.201-1.233.63-1.447 1.046-2.077 2.024-2.68 2.493-3.217 3.377-3.9 4.37-3.686 4.356-4.316 4.678-2.305 2.346-2.251 2.265-2.68 2.104-2.68 2.064-2.037 1.461-2.064 1.233-2.251 1.046-2.265 1.032-4.919 2.091-9.838 3.726-4.303 1.675-1.85.831-1.836 1.046-1.635.831-1.246.817-1.22 1.247-1.032 1.046-.617 1.032-.402 1.046-.201 1.461v.817z"/>
  <path fill="#fdc514" d="M207.984 442.464a.778.778 0 0 1-.764-.764v-.014c0-.425.34-.77.763-.777.422 0 .764.342.764.764v.014a.75.75 0 0 1-.737.75z"/>
  <path fill="#fdc514" d="M207.984 442.464a.778.778 0 0 1-.764-.764v-.014c0-.425.34-.77.763-.777.422 0 .764.342.764.764v.014a.75.75 0 0 1-.737.75l-.027.027z"/>
</svg>
