<!--?xml version="1.0" standalone="no"?-->
              <svg id="sw-js-blob-svg" viewBox="0 0 100 100" xmlns="http://www.w3.org/2000/svg" version="1.1">
                    <defs> 
                        <linearGradient id="sw-gradient" x1="0" x2="1" y1="1" y2="0">
                            <stop id="stop1" stop-color="rgba(248, 117, 55, 1)" offset="0%"></stop>
                            <stop id="stop2" stop-color="rgba(251, 168, 31, 1)" offset="100%"></stop>
                        </linearGradient>
                    </defs>
                <path fill="url(#sw-gradient)" d="M28.7,-32.8C36.9,-27.4,42.9,-18,45,-7.7C47,2.6,45.2,13.8,39.3,21.5C33.4,29.1,23.5,33.3,14.4,34.1C5.4,35,-2.8,32.7,-9.6,29C-16.3,25.4,-21.6,20.4,-26.4,14.2C-31.3,8,-35.8,0.4,-35.5,-7.1C-35.2,-14.6,-30,-22.1,-23.3,-27.8C-16.6,-33.4,-8.3,-37.2,1,-38.4C10.3,-39.6,20.6,-38.2,28.7,-32.8Z" width="100%" height="100%" transform="translate(50 50)" stroke-width="0" style="transition: all 0.3s ease 0s;"></path>
              </svg>