<!--?xml version="1.0" standalone="no"?-->
              <svg id="sw-js-blob-svg" viewBox="0 0 100 100" xmlns="http://www.w3.org/2000/svg" version="1.1">
                    <defs> 
                        <linearGradient id="sw-gradient" x1="0" x2="1" y1="1" y2="0">
                            <stop id="stop1" stop-color="rgba(248, 117, 55, 1)" offset="0%"></stop>
                            <stop id="stop2" stop-color="rgba(251, 168, 31, 1)" offset="100%"></stop>
                        </linearGradient>
                    </defs>
                <path fill="url(#sw-gradient)" d="M14.4,-21.5C18.3,-17,21,-12.3,25.1,-6.5C29.2,-0.7,34.7,6.2,33.6,11.2C32.4,16.3,24.4,19.5,17.7,22C11,24.6,5.5,26.6,-2,29.3C-9.5,32.1,-19,35.7,-24.4,32.6C-29.7,29.6,-30.9,20,-32.3,11.5C-33.7,3,-35.2,-4.5,-34.2,-12.3C-33.2,-20,-29.8,-28.2,-23.7,-32C-17.6,-35.9,-8.8,-35.5,-1.8,-33C5.2,-30.6,10.5,-26.1,14.4,-21.5Z" width="100%" height="100%" transform="translate(50 50)" stroke-width="0" style="transition: all 0.3s ease 0s;"></path>
              </svg>