<!--?xml version="1.0" standalone="no"?-->
              <svg id="sw-js-blob-svg" viewBox="0 0 100 100" xmlns="http://www.w3.org/2000/svg" version="1.1">
                    <defs> 
                        <linearGradient id="sw-gradient" x1="0" x2="1" y1="1" y2="0">
                            <stop id="stop1" stop-color="rgba(248, 117, 55, 1)" offset="0%"></stop>
                            <stop id="stop2" stop-color="rgba(251, 168, 31, 1)" offset="100%"></stop>
                        </linearGradient>
                    </defs>
                <path fill="url(#sw-gradient)" d="M13.8,-20.1C19.3,-17.9,26.3,-16.5,29.6,-12.6C32.9,-8.6,32.5,-2,32.7,5.5C32.9,13,33.7,21.4,29.9,26.2C26.2,30.9,18,32,10.5,32.8C3.1,33.5,-3.5,34,-8.8,31.6C-14,29.2,-17.9,24.1,-21.5,19.1C-25,14.1,-28.2,9.3,-32,2.8C-35.7,-3.8,-40.1,-12,-39,-19.1C-37.8,-26.2,-31.1,-32.1,-23.7,-33.5C-16.3,-34.8,-8.1,-31.7,-2,-28.6C4.1,-25.5,8.2,-22.4,13.8,-20.1Z" width="100%" height="100%" transform="translate(50 50)" stroke-width="0" style="transition: all 0.3s ease 0s;"></path>
              </svg>