<!--?xml version="1.0" standalone="no"?-->
              <svg id="sw-js-blob-svg" viewBox="0 0 100 100" xmlns="http://www.w3.org/2000/svg" version="1.1">
                    <defs> 
                        <linearGradient id="sw-gradient" x1="0" x2="1" y1="1" y2="0">
                            <stop id="stop1" stop-color="rgba(248, 117, 55, 1)" offset="0%"></stop>
                            <stop id="stop2" stop-color="rgba(251, 168, 31, 1)" offset="100%"></stop>
                        </linearGradient>
                    </defs>
                <path fill="url(#sw-gradient)" d="M25,-28.2C32.9,-23,40.4,-15.7,41.1,-7.9C41.7,0,35.5,8.5,30.4,17.7C25.2,26.9,21.1,36.8,14.5,38.7C7.9,40.5,-1.1,34.3,-9.8,29.8C-18.4,25.4,-26.6,22.8,-31.1,17C-35.6,11.2,-36.4,2.3,-34.1,-5.2C-31.8,-12.7,-26.3,-18.8,-20.1,-24.3C-13.9,-29.8,-7,-34.7,0.8,-35.6C8.5,-36.5,17,-33.4,25,-28.2Z" width="100%" height="100%" transform="translate(50 50)" stroke-width="0" style="transition: all 0.3s ease 0s;"></path>
              </svg>