<!--?xml version="1.0" standalone="no"?-->
              <svg id="sw-js-blob-svg" viewBox="0 0 100 100" xmlns="http://www.w3.org/2000/svg" version="1.1">
                    <defs> 
                        <linearGradient id="sw-gradient" x1="0" x2="1" y1="1" y2="0">
                            <stop id="stop1" stop-color="rgba(248, 117, 55, 1)" offset="0%"></stop>
                            <stop id="stop2" stop-color="rgba(251, 168, 31, 1)" offset="100%"></stop>
                        </linearGradient>
                    </defs>
                <path fill="url(#sw-gradient)" d="M20.3,-25.1C27.1,-22.9,34.2,-18.2,35.4,-12.1C36.5,-6,31.8,1.4,29.1,9.5C26.5,17.6,26,26.4,21.5,29.7C17,33,8.5,30.8,-0.6,31.6C-9.7,32.4,-19.4,36.2,-22.8,32.5C-26.3,28.9,-23.6,17.8,-25.1,9.1C-26.6,0.4,-32.3,-6,-33.2,-13.1C-34,-20.1,-30,-27.9,-23.6,-30.3C-17.3,-32.6,-8.7,-29.5,-1,-28.2C6.7,-26.9,13.4,-27.3,20.3,-25.1Z" width="100%" height="100%" transform="translate(50 50)" stroke-width="0" style="transition: all 0.3s ease 0s;"></path>
              </svg>