<svg id="visual" viewBox="0 0 900 600" width="900" height="600" xmlns="http://www.w3.org/2000/svg" xmlns:xlink="http://www.w3.org/1999/xlink" version="1.1"><g transform="translate(938.3532001978681 -102.5184037693696)"><path d="M228.9 -350.3C332.8 -336.5 478.2 -348.3 520.6 -294.1C563 -240 502.5 -120 478.1 -14.1C453.7 91.8 465.5 183.7 432.2 253.7C399 323.7 320.7 371.8 241.2 450.9C161.7 530 80.8 640 -21 676.4C-122.8 712.8 -245.7 675.5 -318 592.3C-390.3 509 -412.1 379.8 -470.7 273.4C-529.3 167 -624.6 83.5 -610.6 8.1C-596.6 -67.3 -473.2 -134.7 -405.1 -224.4C-336.9 -314.2 -324 -426.4 -265.6 -466.6C-207.3 -506.8 -103.7 -474.9 -20.6 -439.2C62.5 -403.6 125 -364.2 228.9 -350.3" fill="#2200ba"></path></g></svg>