<!--?xml version="1.0" standalone="no"?-->
              <svg id="sw-js-blob-svg" viewBox="0 0 100 100" xmlns="http://www.w3.org/2000/svg" version="1.1">
                    <defs> 
                        <linearGradient id="sw-gradient" x1="0" x2="1" y1="1" y2="0">
                            <stop id="stop1" stop-color="rgba(248, 117, 55, 1)" offset="0%"></stop>
                            <stop id="stop2" stop-color="rgba(251, 168, 31, 1)" offset="100%"></stop>
                        </linearGradient>
                    </defs>
                <path fill="url(#sw-gradient)" d="M26.5,-32.5C32,-26.9,32.7,-16.4,32.6,-7.2C32.5,2,31.6,9.9,28.6,17.9C25.6,25.9,20.5,34,12.9,37.8C5.4,41.5,-4.6,40.9,-14.3,37.9C-23.9,35,-33.1,29.7,-36.3,22C-39.4,14.3,-36.5,4.2,-34.8,-6.2C-33,-16.5,-32.3,-27.1,-26.7,-32.8C-21.1,-38.5,-10.6,-39.2,-0.1,-39.1C10.4,-39,20.9,-38.2,26.5,-32.5Z" width="100%" height="100%" transform="translate(50 50)" stroke-width="0" style="transition: all 0.3s ease 0s;"></path>
              </svg>