<!--?xml version="1.0" standalone="no"?-->
              <svg id="sw-js-blob-svg" viewBox="0 0 100 100" xmlns="http://www.w3.org/2000/svg" version="1.1">
                    <defs> 
                        <linearGradient id="sw-gradient" x1="0" x2="1" y1="1" y2="0">
                            <stop id="stop1" stop-color="rgba(248, 117, 55, 1)" offset="0%"></stop>
                            <stop id="stop2" stop-color="rgba(251, 168, 31, 1)" offset="100%"></stop>
                        </linearGradient>
                    </defs>
                <path fill="url(#sw-gradient)" d="M22.9,-27C28.6,-22.4,31.6,-14.3,34,-5.3C36.5,3.7,38.3,13.4,34.9,20.9C31.5,28.3,22.8,33.5,13.8,35.9C4.8,38.3,-4.5,38.1,-11.9,34.6C-19.4,31.1,-25,24.4,-27.5,17.2C-30,10.1,-29.4,2.5,-27.8,-4.6C-26.3,-11.8,-23.7,-18.5,-18.9,-23.2C-14.1,-28,-7,-30.9,0.8,-31.8C8.5,-32.7,17.1,-31.6,22.9,-27Z" width="100%" height="100%" transform="translate(50 50)" stroke-width="0" style="transition: all 0.3s ease 0s;"></path>
              </svg>