<svg xmlns="http://www.w3.org/2000/svg" version="1.1" xmlns:xlink="http://www.w3.org/1999/xlink" xmlns:svgjs="http://svgjs.com/svgjs" width="1440" height="560" preserveAspectRatio="none" viewBox="0 0 1440 560"><g mask="url(&quot;#SvgjsMask1003&quot;)" fill="none"><path d="M66.91 199.37L131.86 236.87L131.86 311.87L66.91 349.37L1.96 311.87L1.96 236.87zM131.86 311.87L196.82 349.37L196.82 424.37L131.86 461.87L66.91 424.37L66.91 349.37zM196.82 -25.63L261.77 11.87L261.77 86.87L196.82 124.37L131.86 86.87L131.86 11.87zM196.82 199.37L261.77 236.87L261.77 311.87L196.82 349.37L131.86 311.87L131.86 236.87zM196.82 424.37L261.77 461.87L261.77 536.87L196.82 574.37L131.86 536.87L131.86 461.87zM391.68 311.87L456.63 349.37L456.63 424.37L391.68 461.87L326.73 424.37L326.73 349.37zM456.63 199.37L521.59 236.87L521.59 311.87L456.63 349.37L391.68 311.87L391.68 236.87zM521.59 311.87L586.54 349.37L586.54 424.37L521.59 461.87L456.63 424.37L456.63 349.37zM586.54 -25.63L651.49 11.87L651.49 86.87L586.54 124.37L521.59 86.87L521.59 11.87zM586.54 424.37L651.49 461.87L651.49 536.87L586.54 574.37L521.59 536.87L521.59 461.87zM716.45 -25.63L781.4 11.87L781.4 86.87L716.45 124.37L651.49 86.87L651.49 11.87zM781.4 311.87L846.36 349.37L846.36 424.37L781.4 461.87L716.45 424.37L716.45 349.37zM716.45 424.37L781.4 461.87L781.4 536.87L716.45 574.37L651.49 536.87L651.49 461.87zM846.35 -25.63L911.31 11.87L911.31 86.87L846.35 124.37L781.4 86.87L781.4 11.87zM846.35 199.37L911.31 236.87L911.31 311.87L846.35 349.37L781.4 311.87L781.4 236.87zM911.31 311.87L976.26 349.37L976.26 424.37L911.31 461.87L846.35 424.37L846.35 349.37zM911.31 536.87L976.26 574.37L976.26 649.37L911.31 686.87L846.35 649.37L846.35 574.37zM1171.12 311.87L1236.08 349.37L1236.08 424.37L1171.12 461.87L1106.17 424.37L1106.17 349.37zM1106.17 424.37L1171.12 461.87L1171.12 536.87L1106.17 574.37L1041.22 536.87L1041.22 461.87zM1171.12 536.87L1236.08 574.37L1236.08 649.37L1171.12 686.87L1106.17 649.37L1106.17 574.37zM1301.03 86.87L1365.98 124.37L1365.98 199.37L1301.03 236.87L1236.08 199.37L1236.08 124.37zM1236.08 199.37L1301.03 236.87L1301.03 311.87L1236.08 349.37L1171.12 311.87L1171.12 236.87zM1430.94 86.87L1495.89 124.37L1495.89 199.37L1430.94 236.87L1365.99 199.37L1365.99 124.37zM1365.99 199.37L1430.94 236.87L1430.94 311.87L1365.99 349.37L1301.03 311.87L1301.03 236.87zM1365.99 424.37L1430.94 461.87L1430.94 536.87L1365.99 574.37L1301.03 536.87L1301.03 461.87zM1430.94 536.87L1495.89 574.37L1495.89 649.37L1430.94 686.87L1365.99 649.37L1365.99 574.37zM1495.89 -25.63L1560.85 11.87L1560.85 86.87L1495.89 124.37L1430.94 86.87L1430.94 11.87zM1495.89 199.37L1560.85 236.87L1560.85 311.87L1495.89 349.37L1430.94 311.87L1430.94 236.87zM1560.85 311.87L1625.8 349.37L1625.8 424.37L1560.85 461.87L1495.89 424.37L1495.89 349.37zM1560.85 536.87L1625.8 574.37L1625.8 649.37L1560.85 686.87L1495.89 649.37L1495.89 574.37z" stroke="#03305d" stroke-width="2"></path><path d="M59.41 199.37 a7.5 7.5 0 1 0 15 0 a7.5 7.5 0 1 0 -15 0zM124.36 236.87 a7.5 7.5 0 1 0 15 0 a7.5 7.5 0 1 0 -15 0zM124.36 311.87 a7.5 7.5 0 1 0 15 0 a7.5 7.5 0 1 0 -15 0zM59.41 349.37 a7.5 7.5 0 1 0 15 0 a7.5 7.5 0 1 0 -15 0zM-5.54 311.87 a7.5 7.5 0 1 0 15 0 a7.5 7.5 0 1 0 -15 0zM-5.54 236.87 a7.5 7.5 0 1 0 15 0 a7.5 7.5 0 1 0 -15 0zM189.32 349.37 a7.5 7.5 0 1 0 15 0 a7.5 7.5 0 1 0 -15 0zM189.32 424.37 a7.5 7.5 0 1 0 15 0 a7.5 7.5 0 1 0 -15 0zM124.36 461.87 a7.5 7.5 0 1 0 15 0 a7.5 7.5 0 1 0 -15 0zM59.41 424.37 a7.5 7.5 0 1 0 15 0 a7.5 7.5 0 1 0 -15 0zM189.32 -25.63 a7.5 7.5 0 1 0 15 0 a7.5 7.5 0 1 0 -15 0zM254.27 11.87 a7.5 7.5 0 1 0 15 0 a7.5 7.5 0 1 0 -15 0zM254.27 86.87 a7.5 7.5 0 1 0 15 0 a7.5 7.5 0 1 0 -15 0zM189.32 124.37 a7.5 7.5 0 1 0 15 0 a7.5 7.5 0 1 0 -15 0zM124.36 86.87 a7.5 7.5 0 1 0 15 0 a7.5 7.5 0 1 0 -15 0zM124.36 11.87 a7.5 7.5 0 1 0 15 0 a7.5 7.5 0 1 0 -15 0zM189.32 199.37 a7.5 7.5 0 1 0 15 0 a7.5 7.5 0 1 0 -15 0zM254.27 236.87 a7.5 7.5 0 1 0 15 0 a7.5 7.5 0 1 0 -15 0zM254.27 311.87 a7.5 7.5 0 1 0 15 0 a7.5 7.5 0 1 0 -15 0zM254.27 461.87 a7.5 7.5 0 1 0 15 0 a7.5 7.5 0 1 0 -15 0zM254.27 536.87 a7.5 7.5 0 1 0 15 0 a7.5 7.5 0 1 0 -15 0zM189.32 574.37 a7.5 7.5 0 1 0 15 0 a7.5 7.5 0 1 0 -15 0zM124.36 536.87 a7.5 7.5 0 1 0 15 0 a7.5 7.5 0 1 0 -15 0zM384.18 311.87 a7.5 7.5 0 1 0 15 0 a7.5 7.5 0 1 0 -15 0zM449.13 349.37 a7.5 7.5 0 1 0 15 0 a7.5 7.5 0 1 0 -15 0zM449.13 424.37 a7.5 7.5 0 1 0 15 0 a7.5 7.5 0 1 0 -15 0zM384.18 461.87 a7.5 7.5 0 1 0 15 0 a7.5 7.5 0 1 0 -15 0zM319.23 424.37 a7.5 7.5 0 1 0 15 0 a7.5 7.5 0 1 0 -15 0zM319.23 349.37 a7.5 7.5 0 1 0 15 0 a7.5 7.5 0 1 0 -15 0zM449.13 199.37 a7.5 7.5 0 1 0 15 0 a7.5 7.5 0 1 0 -15 0zM514.09 236.87 a7.5 7.5 0 1 0 15 0 a7.5 7.5 0 1 0 -15 0zM514.09 311.87 a7.5 7.5 0 1 0 15 0 a7.5 7.5 0 1 0 -15 0zM384.18 236.87 a7.5 7.5 0 1 0 15 0 a7.5 7.5 0 1 0 -15 0zM579.04 349.37 a7.5 7.5 0 1 0 15 0 a7.5 7.5 0 1 0 -15 0zM579.04 424.37 a7.5 7.5 0 1 0 15 0 a7.5 7.5 0 1 0 -15 0zM514.09 461.87 a7.5 7.5 0 1 0 15 0 a7.5 7.5 0 1 0 -15 0zM579.04 -25.63 a7.5 7.5 0 1 0 15 0 a7.5 7.5 0 1 0 -15 0zM643.99 11.87 a7.5 7.5 0 1 0 15 0 a7.5 7.5 0 1 0 -15 0zM643.99 86.87 a7.5 7.5 0 1 0 15 0 a7.5 7.5 0 1 0 -15 0zM579.04 124.37 a7.5 7.5 0 1 0 15 0 a7.5 7.5 0 1 0 -15 0zM514.09 86.87 a7.5 7.5 0 1 0 15 0 a7.5 7.5 0 1 0 -15 0zM514.09 11.87 a7.5 7.5 0 1 0 15 0 a7.5 7.5 0 1 0 -15 0zM643.99 461.87 a7.5 7.5 0 1 0 15 0 a7.5 7.5 0 1 0 -15 0zM643.99 536.87 a7.5 7.5 0 1 0 15 0 a7.5 7.5 0 1 0 -15 0zM579.04 574.37 a7.5 7.5 0 1 0 15 0 a7.5 7.5 0 1 0 -15 0zM514.09 536.87 a7.5 7.5 0 1 0 15 0 a7.5 7.5 0 1 0 -15 0zM708.95 -25.63 a7.5 7.5 0 1 0 15 0 a7.5 7.5 0 1 0 -15 0zM773.9 11.87 a7.5 7.5 0 1 0 15 0 a7.5 7.5 0 1 0 -15 0zM773.9 86.87 a7.5 7.5 0 1 0 15 0 a7.5 7.5 0 1 0 -15 0zM708.95 124.37 a7.5 7.5 0 1 0 15 0 a7.5 7.5 0 1 0 -15 0zM773.9 311.87 a7.5 7.5 0 1 0 15 0 a7.5 7.5 0 1 0 -15 0zM838.86 349.37 a7.5 7.5 0 1 0 15 0 a7.5 7.5 0 1 0 -15 0zM838.86 424.37 a7.5 7.5 0 1 0 15 0 a7.5 7.5 0 1 0 -15 0zM773.9 461.87 a7.5 7.5 0 1 0 15 0 a7.5 7.5 0 1 0 -15 0zM708.95 424.37 a7.5 7.5 0 1 0 15 0 a7.5 7.5 0 1 0 -15 0zM708.95 349.37 a7.5 7.5 0 1 0 15 0 a7.5 7.5 0 1 0 -15 0zM773.9 536.87 a7.5 7.5 0 1 0 15 0 a7.5 7.5 0 1 0 -15 0zM708.95 574.37 a7.5 7.5 0 1 0 15 0 a7.5 7.5 0 1 0 -15 0zM838.85 -25.63 a7.5 7.5 0 1 0 15 0 a7.5 7.5 0 1 0 -15 0zM903.81 11.87 a7.5 7.5 0 1 0 15 0 a7.5 7.5 0 1 0 -15 0zM903.81 86.87 a7.5 7.5 0 1 0 15 0 a7.5 7.5 0 1 0 -15 0zM838.85 124.37 a7.5 7.5 0 1 0 15 0 a7.5 7.5 0 1 0 -15 0zM838.85 199.37 a7.5 7.5 0 1 0 15 0 a7.5 7.5 0 1 0 -15 0zM903.81 236.87 a7.5 7.5 0 1 0 15 0 a7.5 7.5 0 1 0 -15 0zM903.81 311.87 a7.5 7.5 0 1 0 15 0 a7.5 7.5 0 1 0 -15 0zM838.85 349.37 a7.5 7.5 0 1 0 15 0 a7.5 7.5 0 1 0 -15 0zM773.9 236.87 a7.5 7.5 0 1 0 15 0 a7.5 7.5 0 1 0 -15 0zM968.76 349.37 a7.5 7.5 0 1 0 15 0 a7.5 7.5 0 1 0 -15 0zM968.76 424.37 a7.5 7.5 0 1 0 15 0 a7.5 7.5 0 1 0 -15 0zM903.81 461.87 a7.5 7.5 0 1 0 15 0 a7.5 7.5 0 1 0 -15 0zM838.85 424.37 a7.5 7.5 0 1 0 15 0 a7.5 7.5 0 1 0 -15 0zM903.81 536.87 a7.5 7.5 0 1 0 15 0 a7.5 7.5 0 1 0 -15 0zM968.76 574.37 a7.5 7.5 0 1 0 15 0 a7.5 7.5 0 1 0 -15 0zM968.76 649.37 a7.5 7.5 0 1 0 15 0 a7.5 7.5 0 1 0 -15 0zM903.81 686.87 a7.5 7.5 0 1 0 15 0 a7.5 7.5 0 1 0 -15 0zM838.85 649.37 a7.5 7.5 0 1 0 15 0 a7.5 7.5 0 1 0 -15 0zM838.85 574.37 a7.5 7.5 0 1 0 15 0 a7.5 7.5 0 1 0 -15 0zM1163.62 311.87 a7.5 7.5 0 1 0 15 0 a7.5 7.5 0 1 0 -15 0zM1228.58 349.37 a7.5 7.5 0 1 0 15 0 a7.5 7.5 0 1 0 -15 0zM1228.58 424.37 a7.5 7.5 0 1 0 15 0 a7.5 7.5 0 1 0 -15 0zM1163.62 461.87 a7.5 7.5 0 1 0 15 0 a7.5 7.5 0 1 0 -15 0zM1098.67 424.37 a7.5 7.5 0 1 0 15 0 a7.5 7.5 0 1 0 -15 0zM1098.67 349.37 a7.5 7.5 0 1 0 15 0 a7.5 7.5 0 1 0 -15 0zM1163.62 536.87 a7.5 7.5 0 1 0 15 0 a7.5 7.5 0 1 0 -15 0zM1098.67 574.37 a7.5 7.5 0 1 0 15 0 a7.5 7.5 0 1 0 -15 0zM1033.72 536.87 a7.5 7.5 0 1 0 15 0 a7.5 7.5 0 1 0 -15 0zM1033.72 461.87 a7.5 7.5 0 1 0 15 0 a7.5 7.5 0 1 0 -15 0zM1228.58 574.37 a7.5 7.5 0 1 0 15 0 a7.5 7.5 0 1 0 -15 0zM1228.58 649.37 a7.5 7.5 0 1 0 15 0 a7.5 7.5 0 1 0 -15 0zM1163.62 686.87 a7.5 7.5 0 1 0 15 0 a7.5 7.5 0 1 0 -15 0zM1098.67 649.37 a7.5 7.5 0 1 0 15 0 a7.5 7.5 0 1 0 -15 0zM1293.53 86.87 a7.5 7.5 0 1 0 15 0 a7.5 7.5 0 1 0 -15 0zM1358.48 124.37 a7.5 7.5 0 1 0 15 0 a7.5 7.5 0 1 0 -15 0zM1358.48 199.37 a7.5 7.5 0 1 0 15 0 a7.5 7.5 0 1 0 -15 0zM1293.53 236.87 a7.5 7.5 0 1 0 15 0 a7.5 7.5 0 1 0 -15 0zM1228.58 199.37 a7.5 7.5 0 1 0 15 0 a7.5 7.5 0 1 0 -15 0zM1228.58 124.37 a7.5 7.5 0 1 0 15 0 a7.5 7.5 0 1 0 -15 0zM1293.53 311.87 a7.5 7.5 0 1 0 15 0 a7.5 7.5 0 1 0 -15 0zM1163.62 236.87 a7.5 7.5 0 1 0 15 0 a7.5 7.5 0 1 0 -15 0zM1423.44 86.87 a7.5 7.5 0 1 0 15 0 a7.5 7.5 0 1 0 -15 0zM1488.39 124.37 a7.5 7.5 0 1 0 15 0 a7.5 7.5 0 1 0 -15 0zM1488.39 199.37 a7.5 7.5 0 1 0 15 0 a7.5 7.5 0 1 0 -15 0zM1423.44 236.87 a7.5 7.5 0 1 0 15 0 a7.5 7.5 0 1 0 -15 0zM1358.49 199.37 a7.5 7.5 0 1 0 15 0 a7.5 7.5 0 1 0 -15 0zM1358.49 124.37 a7.5 7.5 0 1 0 15 0 a7.5 7.5 0 1 0 -15 0zM1423.44 311.87 a7.5 7.5 0 1 0 15 0 a7.5 7.5 0 1 0 -15 0zM1358.49 349.37 a7.5 7.5 0 1 0 15 0 a7.5 7.5 0 1 0 -15 0zM1358.49 424.37 a7.5 7.5 0 1 0 15 0 a7.5 7.5 0 1 0 -15 0zM1423.44 461.87 a7.5 7.5 0 1 0 15 0 a7.5 7.5 0 1 0 -15 0zM1423.44 536.87 a7.5 7.5 0 1 0 15 0 a7.5 7.5 0 1 0 -15 0zM1358.49 574.37 a7.5 7.5 0 1 0 15 0 a7.5 7.5 0 1 0 -15 0zM1293.53 536.87 a7.5 7.5 0 1 0 15 0 a7.5 7.5 0 1 0 -15 0zM1293.53 461.87 a7.5 7.5 0 1 0 15 0 a7.5 7.5 0 1 0 -15 0zM1488.39 574.37 a7.5 7.5 0 1 0 15 0 a7.5 7.5 0 1 0 -15 0zM1488.39 649.37 a7.5 7.5 0 1 0 15 0 a7.5 7.5 0 1 0 -15 0zM1423.44 686.87 a7.5 7.5 0 1 0 15 0 a7.5 7.5 0 1 0 -15 0zM1358.49 649.37 a7.5 7.5 0 1 0 15 0 a7.5 7.5 0 1 0 -15 0zM1488.39 -25.63 a7.5 7.5 0 1 0 15 0 a7.5 7.5 0 1 0 -15 0zM1553.35 11.87 a7.5 7.5 0 1 0 15 0 a7.5 7.5 0 1 0 -15 0zM1553.35 86.87 a7.5 7.5 0 1 0 15 0 a7.5 7.5 0 1 0 -15 0zM1423.44 11.87 a7.5 7.5 0 1 0 15 0 a7.5 7.5 0 1 0 -15 0zM1553.35 236.87 a7.5 7.5 0 1 0 15 0 a7.5 7.5 0 1 0 -15 0zM1553.35 311.87 a7.5 7.5 0 1 0 15 0 a7.5 7.5 0 1 0 -15 0zM1488.39 349.37 a7.5 7.5 0 1 0 15 0 a7.5 7.5 0 1 0 -15 0zM1618.3 349.37 a7.5 7.5 0 1 0 15 0 a7.5 7.5 0 1 0 -15 0zM1618.3 424.37 a7.5 7.5 0 1 0 15 0 a7.5 7.5 0 1 0 -15 0zM1553.35 461.87 a7.5 7.5 0 1 0 15 0 a7.5 7.5 0 1 0 -15 0zM1488.39 424.37 a7.5 7.5 0 1 0 15 0 a7.5 7.5 0 1 0 -15 0zM1553.35 536.87 a7.5 7.5 0 1 0 15 0 a7.5 7.5 0 1 0 -15 0zM1618.3 574.37 a7.5 7.5 0 1 0 15 0 a7.5 7.5 0 1 0 -15 0zM1618.3 649.37 a7.5 7.5 0 1 0 15 0 a7.5 7.5 0 1 0 -15 0zM1553.35 686.87 a7.5 7.5 0 1 0 15 0 a7.5 7.5 0 1 0 -15 0z" fill="#03305d"></path><path d="M19.45 -29.79L62.75 -4.79L62.75 45.21L19.45 70.21L-23.85 45.21L-23.85 -4.79zM19.45 120.21L62.75 145.21L62.75 195.21L19.45 220.21L-23.85 195.21L-23.85 145.21zM62.75 195.21L106.06 220.21L106.06 270.21L62.75 295.21L19.45 270.21L19.45 220.21zM19.45 420.21L62.75 445.21L62.75 495.21L19.45 520.21L-23.85 495.21L-23.85 445.21zM106.06 120.21L149.36 145.21L149.36 195.21L106.06 220.21L62.75 195.21L62.75 145.21zM106.06 270.21L149.36 295.21L149.36 345.21L106.06 370.21L62.75 345.21L62.75 295.21zM149.36 495.21L192.66 520.21L192.66 570.21L149.36 595.21L106.06 570.21L106.06 520.21zM192.66 -29.79L235.96 -4.79L235.96 45.21L192.66 70.21L149.36 45.21L149.36 -4.79zM235.96 495.21L279.26 520.21L279.26 570.21L235.96 595.21L192.66 570.21L192.66 520.21zM279.26 -29.79L322.57 -4.79L322.57 45.21L279.26 70.21L235.96 45.21L235.96 -4.79zM322.57 45.21L365.87 70.21L365.87 120.21L322.57 145.21L279.26 120.21L279.26 70.21zM279.26 120.21L322.57 145.21L322.57 195.21L279.26 220.21L235.96 195.21L235.96 145.21zM279.26 270.21L322.57 295.21L322.57 345.21L279.26 370.21L235.96 345.21L235.96 295.21zM322.57 345.21L365.87 370.21L365.87 420.21L322.57 445.21L279.26 420.21L279.26 370.21zM322.57 495.21L365.87 520.21L365.87 570.21L322.57 595.21L279.26 570.21L279.26 520.21zM365.87 -29.79L409.17 -4.79L409.17 45.21L365.87 70.21L322.57 45.21L322.57 -4.79zM365.87 420.21L409.17 445.21L409.17 495.21L365.87 520.21L322.57 495.21L322.57 445.21zM409.17 495.21L452.48 520.21L452.48 570.21L409.17 595.21L365.87 570.21L365.87 520.21zM452.48 -29.79L495.78 -4.79L495.78 45.21L452.48 70.21L409.17 45.21L409.17 -4.79zM495.78 45.21L539.08 70.21L539.08 120.21L495.78 145.21L452.48 120.21L452.48 70.21zM452.48 420.21L495.78 445.21L495.78 495.21L452.48 520.21L409.17 495.21L409.17 445.21zM495.78 495.21L539.08 520.21L539.08 570.21L495.78 595.21L452.48 570.21L452.48 520.21zM582.38 345.21L625.69 370.21L625.69 420.21L582.38 445.21L539.08 420.21L539.08 370.21zM539.08 420.21L582.38 445.21L582.38 495.21L539.08 520.21L495.78 495.21L495.78 445.21zM582.38 495.21L625.69 520.21L625.69 570.21L582.38 595.21L539.08 570.21L539.08 520.21zM625.69 270.21L668.99 295.21L668.99 345.21L625.69 370.21L582.38 345.21L582.38 295.21zM668.99 345.21L712.29 370.21L712.29 420.21L668.99 445.21L625.69 420.21L625.69 370.21zM625.69 420.21L668.99 445.21L668.99 495.21L625.69 520.21L582.38 495.21L582.38 445.21zM668.99 495.21L712.29 520.21L712.29 570.21L668.99 595.21L625.69 570.21L625.69 520.21zM712.29 -29.79L755.59 -4.79L755.59 45.21L712.29 70.21L668.99 45.21L668.99 -4.79zM755.59 45.21L798.9 70.21L798.9 120.21L755.59 145.21L712.29 120.21L712.29 70.21zM712.29 120.21L755.59 145.21L755.59 195.21L712.29 220.21L668.99 195.21L668.99 145.21zM798.9 270.21L842.2 295.21L842.2 345.21L798.9 370.21L755.59 345.21L755.59 295.21zM928.8 45.21L972.11 70.21L972.11 120.21L928.8 145.21L885.5 120.21L885.5 70.21zM928.8 195.21L972.11 220.21L972.11 270.21L928.8 295.21L885.5 270.21L885.5 220.21zM885.5 270.21L928.8 295.21L928.8 345.21L885.5 370.21L842.2 345.21L842.2 295.21zM928.8 345.21L972.11 370.21L972.11 420.21L928.8 445.21L885.5 420.21L885.5 370.21zM928.8 495.21L972.11 520.21L972.11 570.21L928.8 595.21L885.5 570.21L885.5 520.21zM972.11 -29.79L1015.41 -4.79L1015.41 45.21L972.11 70.21L928.8 45.21L928.8 -4.79zM972.11 120.21L1015.41 145.21L1015.41 195.21L972.11 220.21L928.8 195.21L928.8 145.21zM1015.41 195.21L1058.71 220.21L1058.71 270.21L1015.41 295.21L972.11 270.21L972.11 220.21zM1015.41 495.21L1058.71 520.21L1058.71 570.21L1015.41 595.21L972.11 570.21L972.11 520.21zM1102.01 45.21L1145.32 70.21L1145.32 120.21L1102.01 145.21L1058.71 120.21L1058.71 70.21zM1102.01 345.21L1145.32 370.21L1145.32 420.21L1102.01 445.21L1058.71 420.21L1058.71 370.21zM1145.32 120.21L1188.62 145.21L1188.62 195.21L1145.32 220.21L1102.01 195.21L1102.01 145.21zM1188.62 195.21L1231.92 220.21L1231.92 270.21L1188.62 295.21L1145.32 270.21L1145.32 220.21zM1188.62 345.21L1231.92 370.21L1231.92 420.21L1188.62 445.21L1145.32 420.21L1145.32 370.21zM1231.92 -29.79L1275.22 -4.79L1275.22 45.21L1231.92 70.21L1188.62 45.21L1188.62 -4.79zM1231.92 120.21L1275.22 145.21L1275.22 195.21L1231.92 220.21L1188.62 195.21L1188.62 145.21zM1275.22 195.21L1318.53 220.21L1318.53 270.21L1275.22 295.21L1231.92 270.21L1231.92 220.21zM1318.53 120.21L1361.83 145.21L1361.83 195.21L1318.53 220.21L1275.22 195.21L1275.22 145.21zM1318.53 270.21L1361.83 295.21L1361.83 345.21L1318.53 370.21L1275.22 345.21L1275.22 295.21zM1405.13 -29.79L1448.43 -4.79L1448.43 45.21L1405.13 70.21L1361.83 45.21L1361.83 -4.79zM1448.43 45.21L1491.74 70.21L1491.74 120.21L1448.43 145.21L1405.13 120.21L1405.13 70.21zM1448.43 345.21L1491.74 370.21L1491.74 420.21L1448.43 445.21L1405.13 420.21L1405.13 370.21zM1448.43 495.21L1491.74 520.21L1491.74 570.21L1448.43 595.21L1405.13 570.21L1405.13 520.21z" stroke="rgba(6, 80, 156, 0.93)" stroke-width="2"></path></g><defs><mask id="SvgjsMask1003"><rect width="1440" height="560" fill="#ffffff"></rect></mask></defs></svg>