<svg xmlns="http://www.w3.org/2000/svg" version="1.1" xmlns:xlink="http://www.w3.org/1999/xlink" xmlns:svgjs="http://svgjs.com/svgjs" width="1440" height="560" preserveAspectRatio="none" viewBox="0 0 1440 560"><g mask="url(&quot;#SvgjsMask1013&quot;)" fill="none"><path d="M102.08 309.7L167.04 347.2L167.04 422.2L102.08 459.7L37.13 422.2L37.13 347.2zM361.9 84.7L426.85 122.2L426.85 197.2L361.9 234.7L296.94 197.2L296.94 122.2zM296.94 422.2L361.9 459.7L361.9 534.7L296.94 572.2L231.99 534.7L231.99 459.7zM426.85 422.2L491.81 459.7L491.81 534.7L426.85 572.2L361.9 534.7L361.9 459.7zM751.62 534.7L816.58 572.2L816.58 647.2L751.62 684.7L686.67 647.2L686.67 572.2zM1141.34 84.7L1206.3 122.2L1206.3 197.2L1141.34 234.7L1076.39 197.2L1076.39 122.2zM1141.34 309.7L1206.3 347.2L1206.3 422.2L1141.34 459.7L1076.39 422.2L1076.39 347.2zM1206.3 197.2L1271.25 234.7L1271.25 309.7L1206.3 347.2L1141.34 309.7L1141.34 234.7zM1336.21 197.2L1401.16 234.7L1401.16 309.7L1336.21 347.2L1271.25 309.7L1271.25 234.7zM1336.21 422.2L1401.16 459.7L1401.16 534.7L1336.21 572.2L1271.25 534.7L1271.25 459.7zM1466.11 -27.8L1531.07 9.7L1531.07 84.7L1466.11 122.2L1401.16 84.7L1401.16 9.7zM1466.11 197.2L1531.07 234.7L1531.07 309.7L1466.11 347.2L1401.16 309.7L1401.16 234.7zM1531.07 309.7L1596.02 347.2L1596.02 422.2L1531.07 459.7L1466.11 422.2L1466.11 347.2zM1531.07 534.7L1596.02 572.2L1596.02 647.2L1531.07 684.7L1466.11 647.2L1466.11 572.2z" stroke="#03305d" stroke-width="2"></path><path d="M94.58 309.7 a7.5 7.5 0 1 0 15 0 a7.5 7.5 0 1 0 -15 0zM159.54 347.2 a7.5 7.5 0 1 0 15 0 a7.5 7.5 0 1 0 -15 0zM159.54 422.2 a7.5 7.5 0 1 0 15 0 a7.5 7.5 0 1 0 -15 0zM94.58 459.7 a7.5 7.5 0 1 0 15 0 a7.5 7.5 0 1 0 -15 0zM29.63 422.2 a7.5 7.5 0 1 0 15 0 a7.5 7.5 0 1 0 -15 0zM29.63 347.2 a7.5 7.5 0 1 0 15 0 a7.5 7.5 0 1 0 -15 0zM354.4 84.7 a7.5 7.5 0 1 0 15 0 a7.5 7.5 0 1 0 -15 0zM419.35 122.2 a7.5 7.5 0 1 0 15 0 a7.5 7.5 0 1 0 -15 0zM419.35 197.2 a7.5 7.5 0 1 0 15 0 a7.5 7.5 0 1 0 -15 0zM354.4 234.7 a7.5 7.5 0 1 0 15 0 a7.5 7.5 0 1 0 -15 0zM289.44 197.2 a7.5 7.5 0 1 0 15 0 a7.5 7.5 0 1 0 -15 0zM289.44 122.2 a7.5 7.5 0 1 0 15 0 a7.5 7.5 0 1 0 -15 0zM289.44 422.2 a7.5 7.5 0 1 0 15 0 a7.5 7.5 0 1 0 -15 0zM354.4 459.7 a7.5 7.5 0 1 0 15 0 a7.5 7.5 0 1 0 -15 0zM354.4 534.7 a7.5 7.5 0 1 0 15 0 a7.5 7.5 0 1 0 -15 0zM289.44 572.2 a7.5 7.5 0 1 0 15 0 a7.5 7.5 0 1 0 -15 0zM224.49 534.7 a7.5 7.5 0 1 0 15 0 a7.5 7.5 0 1 0 -15 0zM224.49 459.7 a7.5 7.5 0 1 0 15 0 a7.5 7.5 0 1 0 -15 0zM419.35 422.2 a7.5 7.5 0 1 0 15 0 a7.5 7.5 0 1 0 -15 0zM484.31 459.7 a7.5 7.5 0 1 0 15 0 a7.5 7.5 0 1 0 -15 0zM484.31 534.7 a7.5 7.5 0 1 0 15 0 a7.5 7.5 0 1 0 -15 0zM419.35 572.2 a7.5 7.5 0 1 0 15 0 a7.5 7.5 0 1 0 -15 0zM744.12 534.7 a7.5 7.5 0 1 0 15 0 a7.5 7.5 0 1 0 -15 0zM809.08 572.2 a7.5 7.5 0 1 0 15 0 a7.5 7.5 0 1 0 -15 0zM809.08 647.2 a7.5 7.5 0 1 0 15 0 a7.5 7.5 0 1 0 -15 0zM744.12 684.7 a7.5 7.5 0 1 0 15 0 a7.5 7.5 0 1 0 -15 0zM679.17 647.2 a7.5 7.5 0 1 0 15 0 a7.5 7.5 0 1 0 -15 0zM679.17 572.2 a7.5 7.5 0 1 0 15 0 a7.5 7.5 0 1 0 -15 0zM1133.84 84.7 a7.5 7.5 0 1 0 15 0 a7.5 7.5 0 1 0 -15 0zM1198.8 122.2 a7.5 7.5 0 1 0 15 0 a7.5 7.5 0 1 0 -15 0zM1198.8 197.2 a7.5 7.5 0 1 0 15 0 a7.5 7.5 0 1 0 -15 0zM1133.84 234.7 a7.5 7.5 0 1 0 15 0 a7.5 7.5 0 1 0 -15 0zM1068.89 197.2 a7.5 7.5 0 1 0 15 0 a7.5 7.5 0 1 0 -15 0zM1068.89 122.2 a7.5 7.5 0 1 0 15 0 a7.5 7.5 0 1 0 -15 0zM1133.84 309.7 a7.5 7.5 0 1 0 15 0 a7.5 7.5 0 1 0 -15 0zM1198.8 347.2 a7.5 7.5 0 1 0 15 0 a7.5 7.5 0 1 0 -15 0zM1198.8 422.2 a7.5 7.5 0 1 0 15 0 a7.5 7.5 0 1 0 -15 0zM1133.84 459.7 a7.5 7.5 0 1 0 15 0 a7.5 7.5 0 1 0 -15 0zM1068.89 422.2 a7.5 7.5 0 1 0 15 0 a7.5 7.5 0 1 0 -15 0zM1068.89 347.2 a7.5 7.5 0 1 0 15 0 a7.5 7.5 0 1 0 -15 0zM1263.75 234.7 a7.5 7.5 0 1 0 15 0 a7.5 7.5 0 1 0 -15 0zM1263.75 309.7 a7.5 7.5 0 1 0 15 0 a7.5 7.5 0 1 0 -15 0zM1328.71 197.2 a7.5 7.5 0 1 0 15 0 a7.5 7.5 0 1 0 -15 0zM1393.66 234.7 a7.5 7.5 0 1 0 15 0 a7.5 7.5 0 1 0 -15 0zM1393.66 309.7 a7.5 7.5 0 1 0 15 0 a7.5 7.5 0 1 0 -15 0zM1328.71 347.2 a7.5 7.5 0 1 0 15 0 a7.5 7.5 0 1 0 -15 0zM1328.71 422.2 a7.5 7.5 0 1 0 15 0 a7.5 7.5 0 1 0 -15 0zM1393.66 459.7 a7.5 7.5 0 1 0 15 0 a7.5 7.5 0 1 0 -15 0zM1393.66 534.7 a7.5 7.5 0 1 0 15 0 a7.5 7.5 0 1 0 -15 0zM1328.71 572.2 a7.5 7.5 0 1 0 15 0 a7.5 7.5 0 1 0 -15 0zM1263.75 534.7 a7.5 7.5 0 1 0 15 0 a7.5 7.5 0 1 0 -15 0zM1263.75 459.7 a7.5 7.5 0 1 0 15 0 a7.5 7.5 0 1 0 -15 0zM1458.61 -27.8 a7.5 7.5 0 1 0 15 0 a7.5 7.5 0 1 0 -15 0zM1523.57 9.7 a7.5 7.5 0 1 0 15 0 a7.5 7.5 0 1 0 -15 0zM1523.57 84.7 a7.5 7.5 0 1 0 15 0 a7.5 7.5 0 1 0 -15 0zM1458.61 122.2 a7.5 7.5 0 1 0 15 0 a7.5 7.5 0 1 0 -15 0zM1393.66 84.7 a7.5 7.5 0 1 0 15 0 a7.5 7.5 0 1 0 -15 0zM1393.66 9.7 a7.5 7.5 0 1 0 15 0 a7.5 7.5 0 1 0 -15 0zM1458.61 197.2 a7.5 7.5 0 1 0 15 0 a7.5 7.5 0 1 0 -15 0zM1523.57 234.7 a7.5 7.5 0 1 0 15 0 a7.5 7.5 0 1 0 -15 0zM1523.57 309.7 a7.5 7.5 0 1 0 15 0 a7.5 7.5 0 1 0 -15 0zM1458.61 347.2 a7.5 7.5 0 1 0 15 0 a7.5 7.5 0 1 0 -15 0zM1588.52 347.2 a7.5 7.5 0 1 0 15 0 a7.5 7.5 0 1 0 -15 0zM1588.52 422.2 a7.5 7.5 0 1 0 15 0 a7.5 7.5 0 1 0 -15 0zM1523.57 459.7 a7.5 7.5 0 1 0 15 0 a7.5 7.5 0 1 0 -15 0zM1458.61 422.2 a7.5 7.5 0 1 0 15 0 a7.5 7.5 0 1 0 -15 0zM1523.57 534.7 a7.5 7.5 0 1 0 15 0 a7.5 7.5 0 1 0 -15 0zM1588.52 572.2 a7.5 7.5 0 1 0 15 0 a7.5 7.5 0 1 0 -15 0zM1588.52 647.2 a7.5 7.5 0 1 0 15 0 a7.5 7.5 0 1 0 -15 0zM1523.57 684.7 a7.5 7.5 0 1 0 15 0 a7.5 7.5 0 1 0 -15 0zM1458.61 647.2 a7.5 7.5 0 1 0 15 0 a7.5 7.5 0 1 0 -15 0zM1458.61 572.2 a7.5 7.5 0 1 0 15 0 a7.5 7.5 0 1 0 -15 0z" fill="#03305d"></path><path d="M14.88 -40.67L58.18 -15.67L58.18 34.33L14.88 59.33L-28.42 34.33L-28.42 -15.67zM58.18 34.33L101.48 59.33L101.48 109.33L58.18 134.33L14.88 109.33L14.88 59.33zM14.88 109.33L58.18 134.33L58.18 184.33L14.88 209.33L-28.42 184.33L-28.42 134.33zM58.18 184.33L101.48 209.33L101.48 259.33L58.18 284.33L14.88 259.33L14.88 209.33zM58.18 484.33L101.48 509.33L101.48 559.33L58.18 584.33L14.88 559.33L14.88 509.33zM101.48 -40.67L144.79 -15.67L144.79 34.33L101.48 59.33L58.18 34.33L58.18 -15.67zM144.79 34.33L188.09 59.33L188.09 109.33L144.79 134.33L101.48 109.33L101.48 59.33zM101.48 109.33L144.79 134.33L144.79 184.33L101.48 209.33L58.18 184.33L58.18 134.33zM144.79 184.33L188.09 209.33L188.09 259.33L144.79 284.33L101.48 259.33L101.48 209.33zM101.48 259.33L144.79 284.33L144.79 334.33L101.48 359.33L58.18 334.33L58.18 284.33zM101.48 409.33L144.79 434.33L144.79 484.33L101.48 509.33L58.18 484.33L58.18 434.33zM188.09 409.33L231.39 434.33L231.39 484.33L188.09 509.33L144.79 484.33L144.79 434.33zM231.39 484.33L274.69 509.33L274.69 559.33L231.39 584.33L188.09 559.33L188.09 509.33zM274.69 109.33L318 134.33L318 184.33L274.69 209.33L231.39 184.33L231.39 134.33zM318 334.33L361.3 359.33L361.3 409.33L318 434.33L274.69 409.33L274.69 359.33zM274.69 409.33L318 434.33L318 484.33L274.69 509.33L231.39 484.33L231.39 434.33zM361.3 109.33L404.6 134.33L404.6 184.33L361.3 209.33L318 184.33L318 134.33zM491.21 34.33L534.51 59.33L534.51 109.33L491.21 134.33L447.91 109.33L447.91 59.33zM447.91 109.33L491.21 134.33L491.21 184.33L447.91 209.33L404.6 184.33L404.6 134.33zM491.21 334.33L534.51 359.33L534.51 409.33L491.21 434.33L447.91 409.33L447.91 359.33zM534.51 -40.67L577.81 -15.67L577.81 34.33L534.51 59.33L491.21 34.33L491.21 -15.67zM534.51 409.33L577.81 434.33L577.81 484.33L534.51 509.33L491.21 484.33L491.21 434.33zM621.12 -40.67L664.42 -15.67L664.42 34.33L621.12 59.33L577.81 34.33L577.81 -15.67zM664.42 34.33L707.72 59.33L707.72 109.33L664.42 134.33L621.12 109.33L621.12 59.33zM664.42 184.33L707.72 209.33L707.72 259.33L664.42 284.33L621.12 259.33L621.12 209.33zM664.42 484.33L707.72 509.33L707.72 559.33L664.42 584.33L621.12 559.33L621.12 509.33zM707.72 -40.67L751.02 -15.67L751.02 34.33L707.72 59.33L664.42 34.33L664.42 -15.67zM707.72 109.33L751.02 134.33L751.02 184.33L707.72 209.33L664.42 184.33L664.42 134.33zM707.72 259.33L751.02 284.33L751.02 334.33L707.72 359.33L664.42 334.33L664.42 284.33zM751.02 334.33L794.33 359.33L794.33 409.33L751.02 434.33L707.72 409.33L707.72 359.33zM707.72 409.33L751.02 434.33L751.02 484.33L707.72 509.33L664.42 484.33L664.42 434.33zM794.33 109.33L837.63 134.33L837.63 184.33L794.33 209.33L751.02 184.33L751.02 134.33zM837.63 184.33L880.93 209.33L880.93 259.33L837.63 284.33L794.33 259.33L794.33 209.33zM794.33 259.33L837.63 284.33L837.63 334.33L794.33 359.33L751.02 334.33L751.02 284.33zM837.63 334.33L880.93 359.33L880.93 409.33L837.63 434.33L794.33 409.33L794.33 359.33zM794.33 409.33L837.63 434.33L837.63 484.33L794.33 509.33L751.02 484.33L751.02 434.33zM837.63 484.33L880.93 509.33L880.93 559.33L837.63 584.33L794.33 559.33L794.33 509.33zM880.93 -40.67L924.23 -15.67L924.23 34.33L880.93 59.33L837.63 34.33L837.63 -15.67zM924.23 184.33L967.54 209.33L967.54 259.33L924.23 284.33L880.93 259.33L880.93 209.33zM880.93 259.33L924.23 284.33L924.23 334.33L880.93 359.33L837.63 334.33L837.63 284.33zM924.23 484.33L967.54 509.33L967.54 559.33L924.23 584.33L880.93 559.33L880.93 509.33zM967.54 -40.67L1010.84 -15.67L1010.84 34.33L967.54 59.33L924.23 34.33L924.23 -15.67zM967.54 259.33L1010.84 284.33L1010.84 334.33L967.54 359.33L924.23 334.33L924.23 284.33zM1010.84 484.33L1054.14 509.33L1054.14 559.33L1010.84 584.33L967.54 559.33L967.54 509.33zM1054.14 259.33L1097.44 284.33L1097.44 334.33L1054.14 359.33L1010.84 334.33L1010.84 284.33zM1097.44 334.33L1140.75 359.33L1140.75 409.33L1097.44 434.33L1054.14 409.33L1054.14 359.33zM1140.75 -40.67L1184.05 -15.67L1184.05 34.33L1140.75 59.33L1097.44 34.33L1097.44 -15.67zM1184.05 34.33L1227.35 59.33L1227.35 109.33L1184.05 134.33L1140.75 109.33L1140.75 59.33zM1140.75 109.33L1184.05 134.33L1184.05 184.33L1140.75 209.33L1097.44 184.33L1097.44 134.33zM1184.05 334.33L1227.35 359.33L1227.35 409.33L1184.05 434.33L1140.75 409.33L1140.75 359.33zM1140.75 409.33L1184.05 434.33L1184.05 484.33L1140.75 509.33L1097.44 484.33L1097.44 434.33zM1184.05 484.33L1227.35 509.33L1227.35 559.33L1184.05 584.33L1140.75 559.33L1140.75 509.33zM1270.65 34.33L1313.96 59.33L1313.96 109.33L1270.65 134.33L1227.35 109.33L1227.35 59.33zM1227.35 109.33L1270.65 134.33L1270.65 184.33L1227.35 209.33L1184.05 184.33L1184.05 134.33zM1313.96 -40.67L1357.26 -15.67L1357.26 34.33L1313.96 59.33L1270.65 34.33L1270.65 -15.67zM1313.96 409.33L1357.26 434.33L1357.26 484.33L1313.96 509.33L1270.65 484.33L1270.65 434.33zM1400.56 -40.67L1443.86 -15.67L1443.86 34.33L1400.56 59.33L1357.26 34.33L1357.26 -15.67zM1400.56 259.33L1443.86 284.33L1443.86 334.33L1400.56 359.33L1357.26 334.33L1357.26 284.33zM1400.56 409.33L1443.86 434.33L1443.86 484.33L1400.56 509.33L1357.26 484.33L1357.26 434.33z" stroke="rgba(6, 80, 156, 0.93)" stroke-width="2"></path></g><defs><mask id="SvgjsMask1013"><rect width="1440" height="560" fill="#ffffff"></rect></mask></defs></svg>