<svg xmlns="http://www.w3.org/2000/svg" version="1.1" xmlns:xlink="http://www.w3.org/1999/xlink" xmlns:svgjs="http://svgjs.com/svgjs" width="1440" height="560" preserveAspectRatio="none" viewBox="0 0 1440 560"><g mask="url(&quot;#SvgjsMask1007&quot;)" fill="none"><path d="M264.93 314.52L329.88 352.02L329.88 427.02L264.93 464.52L199.98 427.02L199.98 352.02zM524.75 314.52L589.7 352.02L589.7 427.02L524.75 464.52L459.79 427.02L459.79 352.02zM654.65 314.52L719.61 352.02L719.61 427.02L654.65 464.52L589.7 427.02L589.7 352.02zM784.56 89.52L849.52 127.02L849.52 202.02L784.56 239.52L719.61 202.02L719.61 127.02zM1044.38 539.52L1109.33 577.02L1109.33 652.02L1044.38 689.52L979.42 652.02L979.42 577.02zM1499.05 202.02L1564.01 239.52L1564.01 314.52L1499.05 352.02L1434.1 314.52L1434.1 239.52z" stroke="#03305d" stroke-width="2"></path><path d="M257.43 314.52 a7.5 7.5 0 1 0 15 0 a7.5 7.5 0 1 0 -15 0zM322.38 352.02 a7.5 7.5 0 1 0 15 0 a7.5 7.5 0 1 0 -15 0zM322.38 427.02 a7.5 7.5 0 1 0 15 0 a7.5 7.5 0 1 0 -15 0zM257.43 464.52 a7.5 7.5 0 1 0 15 0 a7.5 7.5 0 1 0 -15 0zM192.48 427.02 a7.5 7.5 0 1 0 15 0 a7.5 7.5 0 1 0 -15 0zM192.48 352.02 a7.5 7.5 0 1 0 15 0 a7.5 7.5 0 1 0 -15 0zM517.25 314.52 a7.5 7.5 0 1 0 15 0 a7.5 7.5 0 1 0 -15 0zM582.2 352.02 a7.5 7.5 0 1 0 15 0 a7.5 7.5 0 1 0 -15 0zM582.2 427.02 a7.5 7.5 0 1 0 15 0 a7.5 7.5 0 1 0 -15 0zM517.25 464.52 a7.5 7.5 0 1 0 15 0 a7.5 7.5 0 1 0 -15 0zM452.29 427.02 a7.5 7.5 0 1 0 15 0 a7.5 7.5 0 1 0 -15 0zM452.29 352.02 a7.5 7.5 0 1 0 15 0 a7.5 7.5 0 1 0 -15 0zM647.15 314.52 a7.5 7.5 0 1 0 15 0 a7.5 7.5 0 1 0 -15 0zM712.11 352.02 a7.5 7.5 0 1 0 15 0 a7.5 7.5 0 1 0 -15 0zM712.11 427.02 a7.5 7.5 0 1 0 15 0 a7.5 7.5 0 1 0 -15 0zM647.15 464.52 a7.5 7.5 0 1 0 15 0 a7.5 7.5 0 1 0 -15 0zM777.06 89.52 a7.5 7.5 0 1 0 15 0 a7.5 7.5 0 1 0 -15 0zM842.02 127.02 a7.5 7.5 0 1 0 15 0 a7.5 7.5 0 1 0 -15 0zM842.02 202.02 a7.5 7.5 0 1 0 15 0 a7.5 7.5 0 1 0 -15 0zM777.06 239.52 a7.5 7.5 0 1 0 15 0 a7.5 7.5 0 1 0 -15 0zM712.11 202.02 a7.5 7.5 0 1 0 15 0 a7.5 7.5 0 1 0 -15 0zM712.11 127.02 a7.5 7.5 0 1 0 15 0 a7.5 7.5 0 1 0 -15 0zM1036.88 539.52 a7.5 7.5 0 1 0 15 0 a7.5 7.5 0 1 0 -15 0zM1101.83 577.02 a7.5 7.5 0 1 0 15 0 a7.5 7.5 0 1 0 -15 0zM1101.83 652.02 a7.5 7.5 0 1 0 15 0 a7.5 7.5 0 1 0 -15 0zM1036.88 689.52 a7.5 7.5 0 1 0 15 0 a7.5 7.5 0 1 0 -15 0zM971.92 652.02 a7.5 7.5 0 1 0 15 0 a7.5 7.5 0 1 0 -15 0zM971.92 577.02 a7.5 7.5 0 1 0 15 0 a7.5 7.5 0 1 0 -15 0zM1491.55 202.02 a7.5 7.5 0 1 0 15 0 a7.5 7.5 0 1 0 -15 0zM1556.51 239.52 a7.5 7.5 0 1 0 15 0 a7.5 7.5 0 1 0 -15 0zM1556.51 314.52 a7.5 7.5 0 1 0 15 0 a7.5 7.5 0 1 0 -15 0zM1491.55 352.02 a7.5 7.5 0 1 0 15 0 a7.5 7.5 0 1 0 -15 0zM1426.6 314.52 a7.5 7.5 0 1 0 15 0 a7.5 7.5 0 1 0 -15 0zM1426.6 239.52 a7.5 7.5 0 1 0 15 0 a7.5 7.5 0 1 0 -15 0z" fill="#03305d"></path><path d="M42.99 -17.47L86.29 7.53L86.29 57.53L42.99 82.53L-0.31 57.53L-0.31 7.53zM129.59 282.53L172.9 307.53L172.9 357.53L129.59 382.53L86.29 357.53L86.29 307.53zM172.9 357.53L216.2 382.53L216.2 432.53L172.9 457.53L129.59 432.53L129.59 382.53zM216.2 132.53L259.5 157.53L259.5 207.53L216.2 232.53L172.9 207.53L172.9 157.53zM216.2 282.53L259.5 307.53L259.5 357.53L216.2 382.53L172.9 357.53L172.9 307.53zM389.41 -17.47L432.71 7.53L432.71 57.53L389.41 82.53L346.11 57.53L346.11 7.53zM389.41 432.53L432.71 457.53L432.71 507.53L389.41 532.53L346.11 507.53L346.11 457.53zM476.02 132.53L519.32 157.53L519.32 207.53L476.02 232.53L432.71 207.53L432.71 157.53zM649.23 -17.47L692.53 7.53L692.53 57.53L649.23 82.53L605.92 57.53L605.92 7.53zM865.74 57.53L909.04 82.53L909.04 132.53L865.74 157.53L822.44 132.53L822.44 82.53zM1038.95 57.53L1082.25 82.53L1082.25 132.53L1038.95 157.53L995.65 132.53L995.65 82.53zM1038.95 207.53L1082.25 232.53L1082.25 282.53L1038.95 307.53L995.65 282.53L995.65 232.53zM995.65 282.53L1038.95 307.53L1038.95 357.53L995.65 382.53L952.34 357.53L952.34 307.53zM1125.55 207.53L1168.86 232.53L1168.86 282.53L1125.55 307.53L1082.25 282.53L1082.25 232.53zM1342.07 -17.47L1385.37 7.53L1385.37 57.53L1342.07 82.53L1298.76 57.53L1298.76 7.53zM1471.97 57.53L1515.28 82.53L1515.28 132.53L1471.97 157.53L1428.67 132.53L1428.67 82.53zM1428.67 132.53L1471.97 157.53L1471.97 207.53L1428.67 232.53L1385.37 207.53L1385.37 157.53z" stroke="rgba(6, 80, 156, 0.93)" stroke-width="2"></path></g><defs><mask id="SvgjsMask1007"><rect width="1440" height="560" fill="#ffffff"></rect></mask></defs></svg>