<svg xmlns="http://www.w3.org/2000/svg" version="1.1" xmlns:xlink="http://www.w3.org/1999/xlink" xmlns:svgjs="http://svgjs.com/svgjs" width="1440" height="560" preserveAspectRatio="none" viewBox="0 0 1440 560"><g mask="url(&quot;#SvgjsMask1005&quot;)" fill="none"><path d="M72.68 331.7L137.64 369.2L137.64 444.2L72.68 481.7L7.73 444.2L7.73 369.2zM202.59 556.7L267.55 594.2L267.55 669.2L202.59 706.7L137.64 669.2L137.64 594.2zM462.41 556.7L527.36 594.2L527.36 669.2L462.41 706.7L397.45 669.2L397.45 594.2zM527.36 219.2L592.31 256.7L592.31 331.7L527.36 369.2L462.41 331.7L462.41 256.7zM527.36 444.2L592.31 481.7L592.31 556.7L527.36 594.2L462.41 556.7L462.41 481.7zM1176.9 -5.8L1241.85 31.7L1241.85 106.7L1176.9 144.2L1111.94 106.7L1111.94 31.7zM1371.76 106.7L1436.71 144.2L1436.71 219.2L1371.76 256.7L1306.81 219.2L1306.81 144.2z" stroke="#03305d" stroke-width="2"></path><path d="M65.18 331.7 a7.5 7.5 0 1 0 15 0 a7.5 7.5 0 1 0 -15 0zM130.14 369.2 a7.5 7.5 0 1 0 15 0 a7.5 7.5 0 1 0 -15 0zM130.14 444.2 a7.5 7.5 0 1 0 15 0 a7.5 7.5 0 1 0 -15 0zM65.18 481.7 a7.5 7.5 0 1 0 15 0 a7.5 7.5 0 1 0 -15 0zM0.23 444.2 a7.5 7.5 0 1 0 15 0 a7.5 7.5 0 1 0 -15 0zM0.23 369.2 a7.5 7.5 0 1 0 15 0 a7.5 7.5 0 1 0 -15 0zM195.09 556.7 a7.5 7.5 0 1 0 15 0 a7.5 7.5 0 1 0 -15 0zM260.05 594.2 a7.5 7.5 0 1 0 15 0 a7.5 7.5 0 1 0 -15 0zM260.05 669.2 a7.5 7.5 0 1 0 15 0 a7.5 7.5 0 1 0 -15 0zM195.09 706.7 a7.5 7.5 0 1 0 15 0 a7.5 7.5 0 1 0 -15 0zM130.14 669.2 a7.5 7.5 0 1 0 15 0 a7.5 7.5 0 1 0 -15 0zM130.14 594.2 a7.5 7.5 0 1 0 15 0 a7.5 7.5 0 1 0 -15 0zM454.91 556.7 a7.5 7.5 0 1 0 15 0 a7.5 7.5 0 1 0 -15 0zM519.86 594.2 a7.5 7.5 0 1 0 15 0 a7.5 7.5 0 1 0 -15 0zM519.86 669.2 a7.5 7.5 0 1 0 15 0 a7.5 7.5 0 1 0 -15 0zM454.91 706.7 a7.5 7.5 0 1 0 15 0 a7.5 7.5 0 1 0 -15 0zM389.95 669.2 a7.5 7.5 0 1 0 15 0 a7.5 7.5 0 1 0 -15 0zM389.95 594.2 a7.5 7.5 0 1 0 15 0 a7.5 7.5 0 1 0 -15 0zM519.86 219.2 a7.5 7.5 0 1 0 15 0 a7.5 7.5 0 1 0 -15 0zM584.81 256.7 a7.5 7.5 0 1 0 15 0 a7.5 7.5 0 1 0 -15 0zM584.81 331.7 a7.5 7.5 0 1 0 15 0 a7.5 7.5 0 1 0 -15 0zM519.86 369.2 a7.5 7.5 0 1 0 15 0 a7.5 7.5 0 1 0 -15 0zM454.91 331.7 a7.5 7.5 0 1 0 15 0 a7.5 7.5 0 1 0 -15 0zM454.91 256.7 a7.5 7.5 0 1 0 15 0 a7.5 7.5 0 1 0 -15 0zM519.86 444.2 a7.5 7.5 0 1 0 15 0 a7.5 7.5 0 1 0 -15 0zM584.81 481.7 a7.5 7.5 0 1 0 15 0 a7.5 7.5 0 1 0 -15 0zM584.81 556.7 a7.5 7.5 0 1 0 15 0 a7.5 7.5 0 1 0 -15 0zM454.91 481.7 a7.5 7.5 0 1 0 15 0 a7.5 7.5 0 1 0 -15 0zM1169.4 -5.8 a7.5 7.5 0 1 0 15 0 a7.5 7.5 0 1 0 -15 0zM1234.35 31.7 a7.5 7.5 0 1 0 15 0 a7.5 7.5 0 1 0 -15 0zM1234.35 106.7 a7.5 7.5 0 1 0 15 0 a7.5 7.5 0 1 0 -15 0zM1169.4 144.2 a7.5 7.5 0 1 0 15 0 a7.5 7.5 0 1 0 -15 0zM1104.44 106.7 a7.5 7.5 0 1 0 15 0 a7.5 7.5 0 1 0 -15 0zM1104.44 31.7 a7.5 7.5 0 1 0 15 0 a7.5 7.5 0 1 0 -15 0zM1364.26 106.7 a7.5 7.5 0 1 0 15 0 a7.5 7.5 0 1 0 -15 0zM1429.21 144.2 a7.5 7.5 0 1 0 15 0 a7.5 7.5 0 1 0 -15 0zM1429.21 219.2 a7.5 7.5 0 1 0 15 0 a7.5 7.5 0 1 0 -15 0zM1364.26 256.7 a7.5 7.5 0 1 0 15 0 a7.5 7.5 0 1 0 -15 0zM1299.31 219.2 a7.5 7.5 0 1 0 15 0 a7.5 7.5 0 1 0 -15 0zM1299.31 144.2 a7.5 7.5 0 1 0 15 0 a7.5 7.5 0 1 0 -15 0z" fill="#03305d"></path><path d="M16.42 -4.08L59.72 20.92L59.72 70.92L16.42 95.92L-26.88 70.92L-26.88 20.92zM16.42 145.92L59.72 170.92L59.72 220.92L16.42 245.92L-26.88 220.92L-26.88 170.92zM59.72 220.92L103.03 245.92L103.03 295.92L59.72 320.92L16.42 295.92L16.42 245.92zM16.42 295.92L59.72 320.92L59.72 370.92L16.42 395.92L-26.88 370.92L-26.88 320.92zM146.33 220.92L189.63 245.92L189.63 295.92L146.33 320.92L103.03 295.92L103.03 245.92zM146.33 370.92L189.63 395.92L189.63 445.92L146.33 470.92L103.03 445.92L103.03 395.92zM103.03 445.92L146.33 470.92L146.33 520.92L103.03 545.92L59.72 520.92L59.72 470.92zM146.33 520.92L189.63 545.92L189.63 595.92L146.33 620.92L103.03 595.92L103.03 545.92zM232.93 70.92L276.24 95.92L276.24 145.92L232.93 170.92L189.63 145.92L189.63 95.92zM189.63 295.92L232.93 320.92L232.93 370.92L189.63 395.92L146.33 370.92L146.33 320.92zM276.24 445.92L319.54 470.92L319.54 520.92L276.24 545.92L232.93 520.92L232.93 470.92zM319.54 520.92L362.84 545.92L362.84 595.92L319.54 620.92L276.24 595.92L276.24 545.92zM362.84 -4.08L406.14 20.92L406.14 70.92L362.84 95.92L319.54 70.92L319.54 20.92zM362.84 445.92L406.14 470.92L406.14 520.92L362.84 545.92L319.54 520.92L319.54 470.92zM536.05 -4.08L579.35 20.92L579.35 70.92L536.05 95.92L492.75 70.92L492.75 20.92zM665.96 220.92L709.26 245.92L709.26 295.92L665.96 320.92L622.65 295.92L622.65 245.92zM622.65 295.92L665.96 320.92L665.96 370.92L622.65 395.92L579.35 370.92L579.35 320.92zM665.96 370.92L709.26 395.92L709.26 445.92L665.96 470.92L622.65 445.92L622.65 395.92zM665.96 520.92L709.26 545.92L709.26 595.92L665.96 620.92L622.65 595.92L622.65 545.92zM709.26 -4.08L752.56 20.92L752.56 70.92L709.26 95.92L665.96 70.92L665.96 20.92zM752.56 70.92L795.87 95.92L795.87 145.92L752.56 170.92L709.26 145.92L709.26 95.92zM709.26 145.92L752.56 170.92L752.56 220.92L709.26 245.92L665.96 220.92L665.96 170.92zM752.56 370.92L795.87 395.92L795.87 445.92L752.56 470.92L709.26 445.92L709.26 395.92zM709.26 445.92L752.56 470.92L752.56 520.92L709.26 545.92L665.96 520.92L665.96 470.92zM795.87 145.92L839.17 170.92L839.17 220.92L795.87 245.92L752.56 220.92L752.56 170.92zM795.87 445.92L839.17 470.92L839.17 520.92L795.87 545.92L752.56 520.92L752.56 470.92zM839.17 520.92L882.47 545.92L882.47 595.92L839.17 620.92L795.87 595.92L795.87 545.92zM882.47 295.92L925.77 320.92L925.77 370.92L882.47 395.92L839.17 370.92L839.17 320.92zM969.08 295.92L1012.38 320.92L1012.38 370.92L969.08 395.92L925.77 370.92L925.77 320.92zM969.08 445.92L1012.38 470.92L1012.38 520.92L969.08 545.92L925.77 520.92L925.77 470.92zM1098.98 220.92L1142.29 245.92L1142.29 295.92L1098.98 320.92L1055.68 295.92L1055.68 245.92zM1055.68 295.92L1098.98 320.92L1098.98 370.92L1055.68 395.92L1012.38 370.92L1012.38 320.92zM1098.98 520.92L1142.29 545.92L1142.29 595.92L1098.98 620.92L1055.68 595.92L1055.68 545.92zM1142.29 -4.08L1185.59 20.92L1185.59 70.92L1142.29 95.92L1098.98 70.92L1098.98 20.92zM1142.29 445.92L1185.59 470.92L1185.59 520.92L1142.29 545.92L1098.98 520.92L1098.98 470.92zM1228.89 -4.08L1272.19 20.92L1272.19 70.92L1228.89 95.92L1185.59 70.92L1185.59 20.92zM1272.19 70.92L1315.5 95.92L1315.5 145.92L1272.19 170.92L1228.89 145.92L1228.89 95.92zM1228.89 145.92L1272.19 170.92L1272.19 220.92L1228.89 245.92L1185.59 220.92L1185.59 170.92zM1228.89 295.92L1272.19 320.92L1272.19 370.92L1228.89 395.92L1185.59 370.92L1185.59 320.92zM1358.8 70.92L1402.1 95.92L1402.1 145.92L1358.8 170.92L1315.5 145.92L1315.5 95.92zM1315.5 145.92L1358.8 170.92L1358.8 220.92L1315.5 245.92L1272.19 220.92L1272.19 170.92zM1315.5 295.92L1358.8 320.92L1358.8 370.92L1315.5 395.92L1272.19 370.92L1272.19 320.92zM1358.8 520.92L1402.1 545.92L1402.1 595.92L1358.8 620.92L1315.5 595.92L1315.5 545.92zM1445.4 70.92L1488.71 95.92L1488.71 145.92L1445.4 170.92L1402.1 145.92L1402.1 95.92zM1445.4 220.92L1488.71 245.92L1488.71 295.92L1445.4 320.92L1402.1 295.92L1402.1 245.92zM1402.1 295.92L1445.4 320.92L1445.4 370.92L1402.1 395.92L1358.8 370.92L1358.8 320.92zM1445.4 370.92L1488.71 395.92L1488.71 445.92L1445.4 470.92L1402.1 445.92L1402.1 395.92zM1402.1 445.92L1445.4 470.92L1445.4 520.92L1402.1 545.92L1358.8 520.92L1358.8 470.92zM1445.4 520.92L1488.71 545.92L1488.71 595.92L1445.4 620.92L1402.1 595.92L1402.1 545.92z" stroke="rgba(6, 80, 156, 0.93)" stroke-width="2"></path></g><defs><mask id="SvgjsMask1005"><rect width="1440" height="560" fill="#ffffff"></rect></mask></defs></svg>