<svg xmlns="http://www.w3.org/2000/svg" version="1.1" xmlns:xlink="http://www.w3.org/1999/xlink" xmlns:svgjs="http://svgjs.com/svgjs" width="1440" height="560" preserveAspectRatio="none" viewBox="0 0 1440 560"><g mask="url(&quot;#SvgjsMask1021&quot;)" fill="none"><path d="M69.37 -36.25L134.32 1.25L134.32 76.25L69.37 113.75L4.42 76.25L4.42 1.25zM394.14 301.25L459.09 338.75L459.09 413.75L394.14 451.25L329.19 413.75L329.19 338.75zM783.86 301.25L848.82 338.75L848.82 413.75L783.86 451.25L718.91 413.75L718.91 338.75zM718.91 413.75L783.86 451.25L783.86 526.25L718.91 563.75L653.95 526.25L653.95 451.25zM783.86 526.25L848.82 563.75L848.82 638.75L783.86 676.25L718.91 638.75L718.91 563.75zM848.81 188.75L913.77 226.25L913.77 301.25L848.81 338.75L783.86 301.25L783.86 226.25zM1303.49 76.25L1368.44 113.75L1368.44 188.75L1303.49 226.25L1238.54 188.75L1238.54 113.75zM1433.4 76.25L1498.35 113.75L1498.35 188.75L1433.4 226.25L1368.45 188.75L1368.45 113.75zM1433.4 526.25L1498.35 563.75L1498.35 638.75L1433.4 676.25L1368.45 638.75L1368.45 563.75z" stroke="#03305d" stroke-width="2"></path><path d="M61.87 -36.25 a7.5 7.5 0 1 0 15 0 a7.5 7.5 0 1 0 -15 0zM126.82 1.25 a7.5 7.5 0 1 0 15 0 a7.5 7.5 0 1 0 -15 0zM126.82 76.25 a7.5 7.5 0 1 0 15 0 a7.5 7.5 0 1 0 -15 0zM61.87 113.75 a7.5 7.5 0 1 0 15 0 a7.5 7.5 0 1 0 -15 0zM-3.08 76.25 a7.5 7.5 0 1 0 15 0 a7.5 7.5 0 1 0 -15 0zM-3.08 1.25 a7.5 7.5 0 1 0 15 0 a7.5 7.5 0 1 0 -15 0zM386.64 301.25 a7.5 7.5 0 1 0 15 0 a7.5 7.5 0 1 0 -15 0zM451.59 338.75 a7.5 7.5 0 1 0 15 0 a7.5 7.5 0 1 0 -15 0zM451.59 413.75 a7.5 7.5 0 1 0 15 0 a7.5 7.5 0 1 0 -15 0zM386.64 451.25 a7.5 7.5 0 1 0 15 0 a7.5 7.5 0 1 0 -15 0zM321.69 413.75 a7.5 7.5 0 1 0 15 0 a7.5 7.5 0 1 0 -15 0zM321.69 338.75 a7.5 7.5 0 1 0 15 0 a7.5 7.5 0 1 0 -15 0zM776.36 301.25 a7.5 7.5 0 1 0 15 0 a7.5 7.5 0 1 0 -15 0zM841.32 338.75 a7.5 7.5 0 1 0 15 0 a7.5 7.5 0 1 0 -15 0zM841.32 413.75 a7.5 7.5 0 1 0 15 0 a7.5 7.5 0 1 0 -15 0zM776.36 451.25 a7.5 7.5 0 1 0 15 0 a7.5 7.5 0 1 0 -15 0zM711.41 413.75 a7.5 7.5 0 1 0 15 0 a7.5 7.5 0 1 0 -15 0zM711.41 338.75 a7.5 7.5 0 1 0 15 0 a7.5 7.5 0 1 0 -15 0zM776.36 526.25 a7.5 7.5 0 1 0 15 0 a7.5 7.5 0 1 0 -15 0zM711.41 563.75 a7.5 7.5 0 1 0 15 0 a7.5 7.5 0 1 0 -15 0zM646.45 526.25 a7.5 7.5 0 1 0 15 0 a7.5 7.5 0 1 0 -15 0zM646.45 451.25 a7.5 7.5 0 1 0 15 0 a7.5 7.5 0 1 0 -15 0zM841.32 563.75 a7.5 7.5 0 1 0 15 0 a7.5 7.5 0 1 0 -15 0zM841.32 638.75 a7.5 7.5 0 1 0 15 0 a7.5 7.5 0 1 0 -15 0zM776.36 676.25 a7.5 7.5 0 1 0 15 0 a7.5 7.5 0 1 0 -15 0zM711.41 638.75 a7.5 7.5 0 1 0 15 0 a7.5 7.5 0 1 0 -15 0zM841.31 188.75 a7.5 7.5 0 1 0 15 0 a7.5 7.5 0 1 0 -15 0zM906.27 226.25 a7.5 7.5 0 1 0 15 0 a7.5 7.5 0 1 0 -15 0zM906.27 301.25 a7.5 7.5 0 1 0 15 0 a7.5 7.5 0 1 0 -15 0zM841.31 338.75 a7.5 7.5 0 1 0 15 0 a7.5 7.5 0 1 0 -15 0zM776.36 226.25 a7.5 7.5 0 1 0 15 0 a7.5 7.5 0 1 0 -15 0zM1295.99 76.25 a7.5 7.5 0 1 0 15 0 a7.5 7.5 0 1 0 -15 0zM1360.94 113.75 a7.5 7.5 0 1 0 15 0 a7.5 7.5 0 1 0 -15 0zM1360.94 188.75 a7.5 7.5 0 1 0 15 0 a7.5 7.5 0 1 0 -15 0zM1295.99 226.25 a7.5 7.5 0 1 0 15 0 a7.5 7.5 0 1 0 -15 0zM1231.04 188.75 a7.5 7.5 0 1 0 15 0 a7.5 7.5 0 1 0 -15 0zM1231.04 113.75 a7.5 7.5 0 1 0 15 0 a7.5 7.5 0 1 0 -15 0zM1425.9 76.25 a7.5 7.5 0 1 0 15 0 a7.5 7.5 0 1 0 -15 0zM1490.85 113.75 a7.5 7.5 0 1 0 15 0 a7.5 7.5 0 1 0 -15 0zM1490.85 188.75 a7.5 7.5 0 1 0 15 0 a7.5 7.5 0 1 0 -15 0zM1425.9 226.25 a7.5 7.5 0 1 0 15 0 a7.5 7.5 0 1 0 -15 0zM1360.95 188.75 a7.5 7.5 0 1 0 15 0 a7.5 7.5 0 1 0 -15 0zM1360.95 113.75 a7.5 7.5 0 1 0 15 0 a7.5 7.5 0 1 0 -15 0zM1425.9 526.25 a7.5 7.5 0 1 0 15 0 a7.5 7.5 0 1 0 -15 0zM1490.85 563.75 a7.5 7.5 0 1 0 15 0 a7.5 7.5 0 1 0 -15 0zM1490.85 638.75 a7.5 7.5 0 1 0 15 0 a7.5 7.5 0 1 0 -15 0zM1425.9 676.25 a7.5 7.5 0 1 0 15 0 a7.5 7.5 0 1 0 -15 0zM1360.95 638.75 a7.5 7.5 0 1 0 15 0 a7.5 7.5 0 1 0 -15 0zM1360.95 563.75 a7.5 7.5 0 1 0 15 0 a7.5 7.5 0 1 0 -15 0z" fill="#03305d"></path><path d="M50.81 187.67L94.12 212.67L94.12 262.67L50.81 287.67L7.51 262.67L7.51 212.67zM224.02 37.67L267.32 62.67L267.32 112.67L224.02 137.67L180.72 112.67L180.72 62.67zM224.02 337.67L267.32 362.67L267.32 412.67L224.02 437.67L180.72 412.67L180.72 362.67zM310.63 337.67L353.93 362.67L353.93 412.67L310.63 437.67L267.32 412.67L267.32 362.67zM353.93 -37.33L397.23 -12.33L397.23 37.67L353.93 62.67L310.63 37.67L310.63 -12.33zM483.84 337.67L527.14 362.67L527.14 412.67L483.84 437.67L440.54 412.67L440.54 362.67zM440.54 412.67L483.84 437.67L483.84 487.67L440.54 512.67L397.23 487.67L397.23 437.67zM570.44 187.67L613.75 212.67L613.75 262.67L570.44 287.67L527.14 262.67L527.14 212.67zM613.75 112.67L657.05 137.67L657.05 187.67L613.75 212.67L570.44 187.67L570.44 137.67zM700.35 112.67L743.65 137.67L743.65 187.67L700.35 212.67L657.05 187.67L657.05 137.67zM700.35 412.67L743.65 437.67L743.65 487.67L700.35 512.67L657.05 487.67L657.05 437.67zM830.26 337.67L873.56 362.67L873.56 412.67L830.26 437.67L786.96 412.67L786.96 362.67zM916.86 487.67L960.17 512.67L960.17 562.67L916.86 587.67L873.56 562.67L873.56 512.67zM1003.47 187.67L1046.77 212.67L1046.77 262.67L1003.47 287.67L960.17 262.67L960.17 212.67zM1003.47 487.67L1046.77 512.67L1046.77 562.67L1003.47 587.67L960.17 562.67L960.17 512.67zM1046.77 -37.33L1090.07 -12.33L1090.07 37.67L1046.77 62.67L1003.47 37.67L1003.47 -12.33zM1090.07 37.67L1133.38 62.67L1133.38 112.67L1090.07 137.67L1046.77 112.67L1046.77 62.67zM1090.07 187.67L1133.38 212.67L1133.38 262.67L1090.07 287.67L1046.77 262.67L1046.77 212.67zM1046.77 262.67L1090.07 287.67L1090.07 337.67L1046.77 362.67L1003.47 337.67L1003.47 287.67zM1133.38 412.67L1176.68 437.67L1176.68 487.67L1133.38 512.67L1090.07 487.67L1090.07 437.67zM1176.68 487.67L1219.98 512.67L1219.98 562.67L1176.68 587.67L1133.38 562.67L1133.38 512.67zM1263.28 37.67L1306.59 62.67L1306.59 112.67L1263.28 137.67L1219.98 112.67L1219.98 62.67zM1349.89 337.67L1393.19 362.67L1393.19 412.67L1349.89 437.67L1306.59 412.67L1306.59 362.67zM1306.59 412.67L1349.89 437.67L1349.89 487.67L1306.59 512.67L1263.28 487.67L1263.28 437.67zM1349.89 487.67L1393.19 512.67L1393.19 562.67L1349.89 587.67L1306.59 562.67L1306.59 512.67z" stroke="rgba(6, 80, 156, 0.93)" stroke-width="2"></path></g><defs><mask id="SvgjsMask1021"><rect width="1440" height="560" fill="#ffffff"></rect></mask></defs></svg>