<svg id="visual" viewBox="0 0 960 540" width="960" height="540" xmlns="http://www.w3.org/2000/svg" xmlns:xlink="http://www.w3.org/1999/xlink" version="1.1"><path d="M0 132L22.8 138.3C45.7 144.7 91.3 157.3 137 169.2C182.7 181 228.3 192 274 187.2C319.7 182.3 365.3 161.7 411.2 160.2C457 158.7 503 176.3 548.8 176C594.7 175.7 640.3 157.3 686 150C731.7 142.7 777.3 146.3 823 153C868.7 159.7 914.3 169.3 937.2 174.2L960 179L960 0L937.2 0C914.3 0 868.7 0 823 0C777.3 0 731.7 0 686 0C640.3 0 594.7 0 548.8 0C503 0 457 0 411.2 0C365.3 0 319.7 0 274 0C228.3 0 182.7 0 137 0C91.3 0 45.7 0 22.8 0L0 0Z" fill="#7669fa"></path><path d="M0 124L22.8 122.2C45.7 120.3 91.3 116.7 137 121.8C182.7 127 228.3 141 274 150C319.7 159 365.3 163 411.2 154.7C457 146.3 503 125.7 548.8 123.3C594.7 121 640.3 137 686 138.7C731.7 140.3 777.3 127.7 823 118.2C868.7 108.7 914.3 102.3 937.2 99.2L960 96L960 0L937.2 0C914.3 0 868.7 0 823 0C777.3 0 731.7 0 686 0C640.3 0 594.7 0 548.8 0C503 0 457 0 411.2 0C365.3 0 319.7 0 274 0C228.3 0 182.7 0 137 0C91.3 0 45.7 0 22.8 0L0 0Z" fill="#5a58d3"></path><path d="M0 102L22.8 106C45.7 110 91.3 118 137 119C182.7 120 228.3 114 274 106.8C319.7 99.7 365.3 91.3 411.2 86.5C457 81.7 503 80.3 548.8 86.8C594.7 93.3 640.3 107.7 686 111.8C731.7 116 777.3 110 823 103.8C868.7 97.7 914.3 91.3 937.2 88.2L960 85L960 0L937.2 0C914.3 0 868.7 0 823 0C777.3 0 731.7 0 686 0C640.3 0 594.7 0 548.8 0C503 0 457 0 411.2 0C365.3 0 319.7 0 274 0C228.3 0 182.7 0 137 0C91.3 0 45.7 0 22.8 0L0 0Z" fill="#4047ad"></path><path d="M0 61L22.8 64.8C45.7 68.7 91.3 76.3 137 75.2C182.7 74 228.3 64 274 63.5C319.7 63 365.3 72 411.2 72.7C457 73.3 503 65.7 548.8 69C594.7 72.3 640.3 86.7 686 93.3C731.7 100 777.3 99 823 99.3C868.7 99.7 914.3 101.3 937.2 102.2L960 103L960 0L937.2 0C914.3 0 868.7 0 823 0C777.3 0 731.7 0 686 0C640.3 0 594.7 0 548.8 0C503 0 457 0 411.2 0C365.3 0 319.7 0 274 0C228.3 0 182.7 0 137 0C91.3 0 45.7 0 22.8 0L0 0Z" fill="#293688"></path><path d="M0 37L22.8 41.3C45.7 45.7 91.3 54.3 137 54C182.7 53.7 228.3 44.3 274 42.5C319.7 40.7 365.3 46.3 411.2 50.3C457 54.3 503 56.7 548.8 58.3C594.7 60 640.3 61 686 59.8C731.7 58.7 777.3 55.3 823 50C868.7 44.7 914.3 37.3 937.2 33.7L960 30L960 0L937.2 0C914.3 0 868.7 0 823 0C777.3 0 731.7 0 686 0C640.3 0 594.7 0 548.8 0C503 0 457 0 411.2 0C365.3 0 319.7 0 274 0C228.3 0 182.7 0 137 0C91.3 0 45.7 0 22.8 0L0 0Z" fill="#152664"></path></svg>