<svg id="visual" viewBox="0 0 960 540" width="960" height="540" xmlns="http://www.w3.org/2000/svg" xmlns:xlink="http://www.w3.org/1999/xlink" version="1.1"><path d="M0 170L22.8 177.3C45.7 184.7 91.3 199.3 137 201.5C182.7 203.7 228.3 193.3 274 176.2C319.7 159 365.3 135 411.2 138.2C457 141.3 503 171.7 548.8 173.7C594.7 175.7 640.3 149.3 686 144.3C731.7 139.3 777.3 155.7 823 162.2C868.7 168.7 914.3 165.3 937.2 163.7L960 162L960 0L937.2 0C914.3 0 868.7 0 823 0C777.3 0 731.7 0 686 0C640.3 0 594.7 0 548.8 0C503 0 457 0 411.2 0C365.3 0 319.7 0 274 0C228.3 0 182.7 0 137 0C91.3 0 45.7 0 22.8 0L0 0Z" fill="#7669fa"></path><path d="M0 150L22.8 148.8C45.7 147.7 91.3 145.3 137 136.5C182.7 127.7 228.3 112.3 274 113C319.7 113.7 365.3 130.3 411.2 143C457 155.7 503 164.3 548.8 163.5C594.7 162.7 640.3 152.3 686 138.3C731.7 124.3 777.3 106.7 823 101.5C868.7 96.3 914.3 103.7 937.2 107.3L960 111L960 0L937.2 0C914.3 0 868.7 0 823 0C777.3 0 731.7 0 686 0C640.3 0 594.7 0 548.8 0C503 0 457 0 411.2 0C365.3 0 319.7 0 274 0C228.3 0 182.7 0 137 0C91.3 0 45.7 0 22.8 0L0 0Z" fill="#5a58d3"></path><path d="M0 66L22.8 77.3C45.7 88.7 91.3 111.3 137 116.5C182.7 121.7 228.3 109.3 274 101.8C319.7 94.3 365.3 91.7 411.2 95.3C457 99 503 109 548.8 110.5C594.7 112 640.3 105 686 103.2C731.7 101.3 777.3 104.7 823 99.2C868.7 93.7 914.3 79.3 937.2 72.2L960 65L960 0L937.2 0C914.3 0 868.7 0 823 0C777.3 0 731.7 0 686 0C640.3 0 594.7 0 548.8 0C503 0 457 0 411.2 0C365.3 0 319.7 0 274 0C228.3 0 182.7 0 137 0C91.3 0 45.7 0 22.8 0L0 0Z" fill="#4047ad"></path><path d="M0 92L22.8 92.5C45.7 93 91.3 94 137 86.7C182.7 79.3 228.3 63.7 274 63.2C319.7 62.7 365.3 77.3 411.2 86C457 94.7 503 97.3 548.8 95.8C594.7 94.3 640.3 88.7 686 83.2C731.7 77.7 777.3 72.3 823 71.7C868.7 71 914.3 75 937.2 77L960 79L960 0L937.2 0C914.3 0 868.7 0 823 0C777.3 0 731.7 0 686 0C640.3 0 594.7 0 548.8 0C503 0 457 0 411.2 0C365.3 0 319.7 0 274 0C228.3 0 182.7 0 137 0C91.3 0 45.7 0 22.8 0L0 0Z" fill="#293688"></path><path d="M0 55L22.8 52.2C45.7 49.3 91.3 43.7 137 42.8C182.7 42 228.3 46 274 47.8C319.7 49.7 365.3 49.3 411.2 50.8C457 52.3 503 55.7 548.8 52.3C594.7 49 640.3 39 686 38.8C731.7 38.7 777.3 48.3 823 47.3C868.7 46.3 914.3 34.7 937.2 28.8L960 23L960 0L937.2 0C914.3 0 868.7 0 823 0C777.3 0 731.7 0 686 0C640.3 0 594.7 0 548.8 0C503 0 457 0 411.2 0C365.3 0 319.7 0 274 0C228.3 0 182.7 0 137 0C91.3 0 45.7 0 22.8 0L0 0Z" fill="#152664"></path></svg>