<svg id="visual" viewBox="0 0 960 540" width="960" height="540" xmlns="http://www.w3.org/2000/svg" xmlns:xlink="http://www.w3.org/1999/xlink" version="1.1"><path d="M0 124L22.8 127C45.7 130 91.3 136 137 148.3C182.7 160.7 228.3 179.3 274 184.8C319.7 190.3 365.3 182.7 411.2 175.8C457 169 503 163 548.8 167.3C594.7 171.7 640.3 186.3 686 184.3C731.7 182.3 777.3 163.7 823 149.8C868.7 136 914.3 127 937.2 122.5L960 118L960 0L937.2 0C914.3 0 868.7 0 823 0C777.3 0 731.7 0 686 0C640.3 0 594.7 0 548.8 0C503 0 457 0 411.2 0C365.3 0 319.7 0 274 0C228.3 0 182.7 0 137 0C91.3 0 45.7 0 22.8 0L0 0Z" fill="#7669fa"></path><path d="M0 175L22.8 164C45.7 153 91.3 131 137 129C182.7 127 228.3 145 274 153.7C319.7 162.3 365.3 161.7 411.2 159.2C457 156.7 503 152.3 548.8 143.3C594.7 134.3 640.3 120.7 686 114.3C731.7 108 777.3 109 823 109.5C868.7 110 914.3 110 937.2 110L960 110L960 0L937.2 0C914.3 0 868.7 0 823 0C777.3 0 731.7 0 686 0C640.3 0 594.7 0 548.8 0C503 0 457 0 411.2 0C365.3 0 319.7 0 274 0C228.3 0 182.7 0 137 0C91.3 0 45.7 0 22.8 0L0 0Z" fill="#5a58d3"></path><path d="M0 96L22.8 100C45.7 104 91.3 112 137 110.7C182.7 109.3 228.3 98.7 274 101.3C319.7 104 365.3 120 411.2 121.2C457 122.3 503 108.7 548.8 102.8C594.7 97 640.3 99 686 95.7C731.7 92.3 777.3 83.7 823 89.7C868.7 95.7 914.3 116.3 937.2 126.7L960 137L960 0L937.2 0C914.3 0 868.7 0 823 0C777.3 0 731.7 0 686 0C640.3 0 594.7 0 548.8 0C503 0 457 0 411.2 0C365.3 0 319.7 0 274 0C228.3 0 182.7 0 137 0C91.3 0 45.7 0 22.8 0L0 0Z" fill="#4047ad"></path><path d="M0 89L22.8 90.5C45.7 92 91.3 95 137 91.2C182.7 87.3 228.3 76.7 274 67.8C319.7 59 365.3 52 411.2 58.2C457 64.3 503 83.7 548.8 88C594.7 92.3 640.3 81.7 686 74.3C731.7 67 777.3 63 823 62.7C868.7 62.3 914.3 65.7 937.2 67.3L960 69L960 0L937.2 0C914.3 0 868.7 0 823 0C777.3 0 731.7 0 686 0C640.3 0 594.7 0 548.8 0C503 0 457 0 411.2 0C365.3 0 319.7 0 274 0C228.3 0 182.7 0 137 0C91.3 0 45.7 0 22.8 0L0 0Z" fill="#293688"></path><path d="M0 35L22.8 38.5C45.7 42 91.3 49 137 49.3C182.7 49.7 228.3 43.3 274 41.2C319.7 39 365.3 41 411.2 44.5C457 48 503 53 548.8 55.8C594.7 58.7 640.3 59.3 686 56.3C731.7 53.3 777.3 46.7 823 45.5C868.7 44.3 914.3 48.7 937.2 50.8L960 53L960 0L937.2 0C914.3 0 868.7 0 823 0C777.3 0 731.7 0 686 0C640.3 0 594.7 0 548.8 0C503 0 457 0 411.2 0C365.3 0 319.7 0 274 0C228.3 0 182.7 0 137 0C91.3 0 45.7 0 22.8 0L0 0Z" fill="#152664"></path></svg>