<svg id="visual" viewBox="0 0 960 540" width="960" height="540" xmlns="http://www.w3.org/2000/svg" xmlns:xlink="http://www.w3.org/1999/xlink" version="1.1"><path d="M0 360L40 369.5C80 379 160 398 240 404C320 410 400 403 480 402.8C560 402.7 640 409.3 720 406.2C800 403 880 390 920 383.5L960 377L960 541L920 541C880 541 800 541 720 541C640 541 560 541 480 541C400 541 320 541 240 541C160 541 80 541 40 541L0 541Z" fill="#7669fa"></path><path d="M0 393L40 395.5C80 398 160 403 240 399.5C320 396 400 384 480 381.5C560 379 640 386 720 390.5C800 395 880 397 920 398L960 399L960 541L920 541C880 541 800 541 720 541C640 541 560 541 480 541C400 541 320 541 240 541C160 541 80 541 40 541L0 541Z" fill="#5a58d3"></path><path d="M0 424L40 423.7C80 423.3 160 422.7 240 423.5C320 424.3 400 426.7 480 427.8C560 429 640 429 720 432.5C800 436 880 443 920 446.5L960 450L960 541L920 541C880 541 800 541 720 541C640 541 560 541 480 541C400 541 320 541 240 541C160 541 80 541 40 541L0 541Z" fill="#4047ad"></path><path d="M0 474L40 469.3C80 464.7 160 455.3 240 451.2C320 447 400 448 480 450.2C560 452.3 640 455.7 720 462.2C800 468.7 880 478.3 920 483.2L960 488L960 541L920 541C880 541 800 541 720 541C640 541 560 541 480 541C400 541 320 541 240 541C160 541 80 541 40 541L0 541Z" fill="#293688"></path><path d="M0 502L40 502C80 502 160 502 240 500.7C320 499.3 400 496.7 480 496.3C560 496 640 498 720 499.3C800 500.7 880 501.3 920 501.7L960 502L960 541L920 541C880 541 800 541 720 541C640 541 560 541 480 541C400 541 320 541 240 541C160 541 80 541 40 541L0 541Z" fill="#152664"></path></svg>