<?xml version="1.0" standalone="no"?>
<svg xmlns:xlink="http://www.w3.org/1999/xlink" id="wave" style="transform:rotate(0deg); transition: 0.3s" viewBox="0 0 1440 490" version="1.1" xmlns="http://www.w3.org/2000/svg"><defs><linearGradient id="sw-gradient-0" x1="0" x2="0" y1="1" y2="0"><stop stop-color="rgba(243, 106, 62, 1)" offset="0%"/><stop stop-color="rgba(255, 179, 11, 1)" offset="100%"/></linearGradient></defs><path style="transform:translate(0, 0px); opacity:1" fill="url(#sw-gradient-0)" d="M0,147L26.7,171.5C53.3,196,107,245,160,253.2C213.3,261,267,229,320,179.7C373.3,131,427,65,480,65.3C533.3,65,587,131,640,179.7C693.3,229,747,261,800,302.2C853.3,343,907,392,960,383.8C1013.3,376,1067,310,1120,236.8C1173.3,163,1227,82,1280,81.7C1333.3,82,1387,163,1440,212.3C1493.3,261,1547,278,1600,285.8C1653.3,294,1707,294,1760,253.2C1813.3,212,1867,131,1920,106.2C1973.3,82,2027,114,2080,163.3C2133.3,212,2187,278,2240,253.2C2293.3,229,2347,114,2400,122.5C2453.3,131,2507,261,2560,269.5C2613.3,278,2667,163,2720,122.5C2773.3,82,2827,114,2880,114.3C2933.3,114,2987,82,3040,57.2C3093.3,33,3147,16,3200,57.2C3253.3,98,3307,196,3360,204.2C3413.3,212,3467,131,3520,89.8C3573.3,49,3627,49,3680,98C3733.3,147,3787,245,3813,294L3840,343L3840,490L3813.3,490C3786.7,490,3733,490,3680,490C3626.7,490,3573,490,3520,490C3466.7,490,3413,490,3360,490C3306.7,490,3253,490,3200,490C3146.7,490,3093,490,3040,490C2986.7,490,2933,490,2880,490C2826.7,490,2773,490,2720,490C2666.7,490,2613,490,2560,490C2506.7,490,2453,490,2400,490C2346.7,490,2293,490,2240,490C2186.7,490,2133,490,2080,490C2026.7,490,1973,490,1920,490C1866.7,490,1813,490,1760,490C1706.7,490,1653,490,1600,490C1546.7,490,1493,490,1440,490C1386.7,490,1333,490,1280,490C1226.7,490,1173,490,1120,490C1066.7,490,1013,490,960,490C906.7,490,853,490,800,490C746.7,490,693,490,640,490C586.7,490,533,490,480,490C426.7,490,373,490,320,490C266.7,490,213,490,160,490C106.7,490,53,490,27,490L0,490Z"/><defs><linearGradient id="sw-gradient-1" x1="0" x2="0" y1="1" y2="0"><stop stop-color="rgba(243, 106, 62, 1)" offset="0%"/><stop stop-color="rgba(255, 179, 11, 1)" offset="100%"/></linearGradient></defs><path style="transform:translate(0, 50px); opacity:0.9" fill="url(#sw-gradient-1)" d="M0,245L26.7,236.8C53.3,229,107,212,160,228.7C213.3,245,267,294,320,310.3C373.3,327,427,310,480,285.8C533.3,261,587,229,640,236.8C693.3,245,747,294,800,302.2C853.3,310,907,278,960,253.2C1013.3,229,1067,212,1120,212.3C1173.3,212,1227,229,1280,236.8C1333.3,245,1387,245,1440,277.7C1493.3,310,1547,376,1600,334.8C1653.3,294,1707,147,1760,89.8C1813.3,33,1867,65,1920,89.8C1973.3,114,2027,131,2080,138.8C2133.3,147,2187,147,2240,130.7C2293.3,114,2347,82,2400,122.5C2453.3,163,2507,278,2560,294C2613.3,310,2667,229,2720,179.7C2773.3,131,2827,114,2880,106.2C2933.3,98,2987,98,3040,114.3C3093.3,131,3147,163,3200,155.2C3253.3,147,3307,98,3360,89.8C3413.3,82,3467,114,3520,138.8C3573.3,163,3627,180,3680,220.5C3733.3,261,3787,327,3813,359.3L3840,392L3840,490L3813.3,490C3786.7,490,3733,490,3680,490C3626.7,490,3573,490,3520,490C3466.7,490,3413,490,3360,490C3306.7,490,3253,490,3200,490C3146.7,490,3093,490,3040,490C2986.7,490,2933,490,2880,490C2826.7,490,2773,490,2720,490C2666.7,490,2613,490,2560,490C2506.7,490,2453,490,2400,490C2346.7,490,2293,490,2240,490C2186.7,490,2133,490,2080,490C2026.7,490,1973,490,1920,490C1866.7,490,1813,490,1760,490C1706.7,490,1653,490,1600,490C1546.7,490,1493,490,1440,490C1386.7,490,1333,490,1280,490C1226.7,490,1173,490,1120,490C1066.7,490,1013,490,960,490C906.7,490,853,490,800,490C746.7,490,693,490,640,490C586.7,490,533,490,480,490C426.7,490,373,490,320,490C266.7,490,213,490,160,490C106.7,490,53,490,27,490L0,490Z"/></svg>