<?xml version="1.0" standalone="no"?>
<svg xmlns:xlink="http://www.w3.org/1999/xlink" id="wave" style="transform:rotate(0deg); transition: 0.3s" viewBox="0 0 1440 490" version="1.1" xmlns="http://www.w3.org/2000/svg"><defs><linearGradient id="sw-gradient-0" x1="0" x2="0" y1="1" y2="0"><stop stop-color="rgba(243, 106, 62, 1)" offset="0%"/><stop stop-color="rgba(255, 179, 11, 1)" offset="100%"/></linearGradient></defs><path style="transform:translate(0, 0px); opacity:1" fill="url(#sw-gradient-0)" d="M0,98L26.7,81.7C53.3,65,107,33,160,24.5C213.3,16,267,33,320,49C373.3,65,427,82,480,73.5C533.3,65,587,33,640,24.5C693.3,16,747,33,800,89.8C853.3,147,907,245,960,277.7C1013.3,310,1067,278,1120,253.2C1173.3,229,1227,212,1280,212.3C1333.3,212,1387,229,1440,253.2C1493.3,278,1547,310,1600,310.3C1653.3,310,1707,278,1760,236.8C1813.3,196,1867,147,1920,179.7C1973.3,212,2027,327,2080,334.8C2133.3,343,2187,245,2240,228.7C2293.3,212,2347,278,2400,261.3C2453.3,245,2507,147,2560,122.5C2613.3,98,2667,147,2720,155.2C2773.3,163,2827,131,2880,138.8C2933.3,147,2987,196,3040,236.8C3093.3,278,3147,310,3200,277.7C3253.3,245,3307,147,3360,130.7C3413.3,114,3467,180,3520,236.8C3573.3,294,3627,343,3680,302.2C3733.3,261,3787,131,3813,65.3L3840,0L3840,490L3813.3,490C3786.7,490,3733,490,3680,490C3626.7,490,3573,490,3520,490C3466.7,490,3413,490,3360,490C3306.7,490,3253,490,3200,490C3146.7,490,3093,490,3040,490C2986.7,490,2933,490,2880,490C2826.7,490,2773,490,2720,490C2666.7,490,2613,490,2560,490C2506.7,490,2453,490,2400,490C2346.7,490,2293,490,2240,490C2186.7,490,2133,490,2080,490C2026.7,490,1973,490,1920,490C1866.7,490,1813,490,1760,490C1706.7,490,1653,490,1600,490C1546.7,490,1493,490,1440,490C1386.7,490,1333,490,1280,490C1226.7,490,1173,490,1120,490C1066.7,490,1013,490,960,490C906.7,490,853,490,800,490C746.7,490,693,490,640,490C586.7,490,533,490,480,490C426.7,490,373,490,320,490C266.7,490,213,490,160,490C106.7,490,53,490,27,490L0,490Z"/><defs><linearGradient id="sw-gradient-1" x1="0" x2="0" y1="1" y2="0"><stop stop-color="rgba(243, 106, 62, 1)" offset="0%"/><stop stop-color="rgba(255, 179, 11, 1)" offset="100%"/></linearGradient></defs><path style="transform:translate(0, 50px); opacity:0.9" fill="url(#sw-gradient-1)" d="M0,98L26.7,155.2C53.3,212,107,327,160,359.3C213.3,392,267,343,320,294C373.3,245,427,196,480,187.8C533.3,180,587,212,640,212.3C693.3,212,747,180,800,212.3C853.3,245,907,343,960,359.3C1013.3,376,1067,310,1120,245C1173.3,180,1227,114,1280,106.2C1333.3,98,1387,147,1440,138.8C1493.3,131,1547,65,1600,57.2C1653.3,49,1707,98,1760,163.3C1813.3,229,1867,310,1920,351.2C1973.3,392,2027,392,2080,359.3C2133.3,327,2187,261,2240,220.5C2293.3,180,2347,163,2400,196C2453.3,229,2507,310,2560,318.5C2613.3,327,2667,261,2720,220.5C2773.3,180,2827,163,2880,130.7C2933.3,98,2987,49,3040,65.3C3093.3,82,3147,163,3200,163.3C3253.3,163,3307,82,3360,73.5C3413.3,65,3467,131,3520,147C3573.3,163,3627,131,3680,163.3C3733.3,196,3787,294,3813,343L3840,392L3840,490L3813.3,490C3786.7,490,3733,490,3680,490C3626.7,490,3573,490,3520,490C3466.7,490,3413,490,3360,490C3306.7,490,3253,490,3200,490C3146.7,490,3093,490,3040,490C2986.7,490,2933,490,2880,490C2826.7,490,2773,490,2720,490C2666.7,490,2613,490,2560,490C2506.7,490,2453,490,2400,490C2346.7,490,2293,490,2240,490C2186.7,490,2133,490,2080,490C2026.7,490,1973,490,1920,490C1866.7,490,1813,490,1760,490C1706.7,490,1653,490,1600,490C1546.7,490,1493,490,1440,490C1386.7,490,1333,490,1280,490C1226.7,490,1173,490,1120,490C1066.7,490,1013,490,960,490C906.7,490,853,490,800,490C746.7,490,693,490,640,490C586.7,490,533,490,480,490C426.7,490,373,490,320,490C266.7,490,213,490,160,490C106.7,490,53,490,27,490L0,490Z"/></svg>