<?xml version="1.0" standalone="no"?>
<svg xmlns:xlink="http://www.w3.org/1999/xlink" id="wave" style="transform:rotate(0deg); transition: 0.3s" viewBox="0 0 1440 490" version="1.1" xmlns="http://www.w3.org/2000/svg"><defs><linearGradient id="sw-gradient-0" x1="0" x2="0" y1="1" y2="0"><stop stop-color="rgba(243, 106, 62, 1)" offset="0%"/><stop stop-color="rgba(255, 179, 11, 1)" offset="100%"/></linearGradient></defs><path style="transform:translate(0, 0px); opacity:1" fill="url(#sw-gradient-0)" d="M0,0L26.7,57.2C53.3,114,107,229,160,294C213.3,359,267,376,320,343C373.3,310,427,229,480,196C533.3,163,587,180,640,196C693.3,212,747,229,800,220.5C853.3,212,907,180,960,138.8C1013.3,98,1067,49,1120,49C1173.3,49,1227,98,1280,147C1333.3,196,1387,245,1440,220.5C1493.3,196,1547,98,1600,114.3C1653.3,131,1707,261,1760,310.3C1813.3,359,1867,327,1920,294C1973.3,261,2027,229,2080,196C2133.3,163,2187,131,2240,98C2293.3,65,2347,33,2400,24.5C2453.3,16,2507,33,2560,40.8C2613.3,49,2667,49,2720,106.2C2773.3,163,2827,278,2880,318.5C2933.3,359,2987,327,3040,302.2C3093.3,278,3147,261,3200,261.3C3253.3,261,3307,278,3360,310.3C3413.3,343,3467,392,3520,416.5C3573.3,441,3627,441,3680,416.5C3733.3,392,3787,343,3813,318.5L3840,294L3840,490L3813.3,490C3786.7,490,3733,490,3680,490C3626.7,490,3573,490,3520,490C3466.7,490,3413,490,3360,490C3306.7,490,3253,490,3200,490C3146.7,490,3093,490,3040,490C2986.7,490,2933,490,2880,490C2826.7,490,2773,490,2720,490C2666.7,490,2613,490,2560,490C2506.7,490,2453,490,2400,490C2346.7,490,2293,490,2240,490C2186.7,490,2133,490,2080,490C2026.7,490,1973,490,1920,490C1866.7,490,1813,490,1760,490C1706.7,490,1653,490,1600,490C1546.7,490,1493,490,1440,490C1386.7,490,1333,490,1280,490C1226.7,490,1173,490,1120,490C1066.7,490,1013,490,960,490C906.7,490,853,490,800,490C746.7,490,693,490,640,490C586.7,490,533,490,480,490C426.7,490,373,490,320,490C266.7,490,213,490,160,490C106.7,490,53,490,27,490L0,490Z"/><defs><linearGradient id="sw-gradient-1" x1="0" x2="0" y1="1" y2="0"><stop stop-color="rgba(243, 106, 62, 1)" offset="0%"/><stop stop-color="rgba(255, 179, 11, 1)" offset="100%"/></linearGradient></defs><path style="transform:translate(0, 50px); opacity:0.9" fill="url(#sw-gradient-1)" d="M0,98L26.7,147C53.3,196,107,294,160,302.2C213.3,310,267,229,320,212.3C373.3,196,427,245,480,245C533.3,245,587,196,640,212.3C693.3,229,747,310,800,359.3C853.3,408,907,425,960,416.5C1013.3,408,1067,376,1120,359.3C1173.3,343,1227,343,1280,318.5C1333.3,294,1387,245,1440,220.5C1493.3,196,1547,196,1600,171.5C1653.3,147,1707,98,1760,89.8C1813.3,82,1867,114,1920,147C1973.3,180,2027,212,2080,196C2133.3,180,2187,114,2240,114.3C2293.3,114,2347,180,2400,228.7C2453.3,278,2507,310,2560,310.3C2613.3,310,2667,278,2720,261.3C2773.3,245,2827,245,2880,212.3C2933.3,180,2987,114,3040,73.5C3093.3,33,3147,16,3200,57.2C3253.3,98,3307,196,3360,261.3C3413.3,327,3467,359,3520,326.7C3573.3,294,3627,196,3680,155.2C3733.3,114,3787,131,3813,138.8L3840,147L3840,490L3813.3,490C3786.7,490,3733,490,3680,490C3626.7,490,3573,490,3520,490C3466.7,490,3413,490,3360,490C3306.7,490,3253,490,3200,490C3146.7,490,3093,490,3040,490C2986.7,490,2933,490,2880,490C2826.7,490,2773,490,2720,490C2666.7,490,2613,490,2560,490C2506.7,490,2453,490,2400,490C2346.7,490,2293,490,2240,490C2186.7,490,2133,490,2080,490C2026.7,490,1973,490,1920,490C1866.7,490,1813,490,1760,490C1706.7,490,1653,490,1600,490C1546.7,490,1493,490,1440,490C1386.7,490,1333,490,1280,490C1226.7,490,1173,490,1120,490C1066.7,490,1013,490,960,490C906.7,490,853,490,800,490C746.7,490,693,490,640,490C586.7,490,533,490,480,490C426.7,490,373,490,320,490C266.7,490,213,490,160,490C106.7,490,53,490,27,490L0,490Z"/></svg>