<?xml version="1.0" standalone="no"?>
<svg xmlns:xlink="http://www.w3.org/1999/xlink" id="wave" style="transform:rotate(0deg); transition: 0.3s" viewBox="0 0 1440 490" version="1.1" xmlns="http://www.w3.org/2000/svg"><defs><linearGradient id="sw-gradient-0" x1="0" x2="0" y1="1" y2="0"><stop stop-color="rgba(243, 106, 62, 1)" offset="0%"/><stop stop-color="rgba(255, 179, 11, 1)" offset="100%"/></linearGradient></defs><path style="transform:translate(0, 0px); opacity:1" fill="url(#sw-gradient-0)" d="M0,196L26.7,236.8C53.3,278,107,359,160,343C213.3,327,267,212,320,204.2C373.3,196,427,294,480,294C533.3,294,587,196,640,196C693.3,196,747,294,800,326.7C853.3,359,907,327,960,334.8C1013.3,343,1067,392,1120,367.5C1173.3,343,1227,245,1280,171.5C1333.3,98,1387,49,1440,98C1493.3,147,1547,294,1600,302.2C1653.3,310,1707,180,1760,122.5C1813.3,65,1867,82,1920,106.2C1973.3,131,2027,163,2080,220.5C2133.3,278,2187,359,2240,392C2293.3,425,2347,408,2400,351.2C2453.3,294,2507,196,2560,138.8C2613.3,82,2667,65,2720,49C2773.3,33,2827,16,2880,73.5C2933.3,131,2987,261,3040,285.8C3093.3,310,3147,229,3200,196C3253.3,163,3307,180,3360,171.5C3413.3,163,3467,131,3520,147C3573.3,163,3627,229,3680,277.7C3733.3,327,3787,359,3813,375.7L3840,392L3840,490L3813.3,490C3786.7,490,3733,490,3680,490C3626.7,490,3573,490,3520,490C3466.7,490,3413,490,3360,490C3306.7,490,3253,490,3200,490C3146.7,490,3093,490,3040,490C2986.7,490,2933,490,2880,490C2826.7,490,2773,490,2720,490C2666.7,490,2613,490,2560,490C2506.7,490,2453,490,2400,490C2346.7,490,2293,490,2240,490C2186.7,490,2133,490,2080,490C2026.7,490,1973,490,1920,490C1866.7,490,1813,490,1760,490C1706.7,490,1653,490,1600,490C1546.7,490,1493,490,1440,490C1386.7,490,1333,490,1280,490C1226.7,490,1173,490,1120,490C1066.7,490,1013,490,960,490C906.7,490,853,490,800,490C746.7,490,693,490,640,490C586.7,490,533,490,480,490C426.7,490,373,490,320,490C266.7,490,213,490,160,490C106.7,490,53,490,27,490L0,490Z"/><defs><linearGradient id="sw-gradient-1" x1="0" x2="0" y1="1" y2="0"><stop stop-color="rgba(243, 106, 62, 1)" offset="0%"/><stop stop-color="rgba(255, 179, 11, 1)" offset="100%"/></linearGradient></defs><path style="transform:translate(0, 50px); opacity:0.9" fill="url(#sw-gradient-1)" d="M0,245L26.7,204.2C53.3,163,107,82,160,98C213.3,114,267,229,320,253.2C373.3,278,427,212,480,204.2C533.3,196,587,245,640,253.2C693.3,261,747,229,800,204.2C853.3,180,907,163,960,155.2C1013.3,147,1067,147,1120,155.2C1173.3,163,1227,180,1280,163.3C1333.3,147,1387,98,1440,106.2C1493.3,114,1547,180,1600,236.8C1653.3,294,1707,343,1760,375.7C1813.3,408,1867,425,1920,432.8C1973.3,441,2027,441,2080,432.8C2133.3,425,2187,408,2240,367.5C2293.3,327,2347,261,2400,212.3C2453.3,163,2507,131,2560,130.7C2613.3,131,2667,163,2720,155.2C2773.3,147,2827,98,2880,106.2C2933.3,114,2987,180,3040,179.7C3093.3,180,3147,114,3200,81.7C3253.3,49,3307,49,3360,65.3C3413.3,82,3467,114,3520,171.5C3573.3,229,3627,310,3680,359.3C3733.3,408,3787,425,3813,432.8L3840,441L3840,490L3813.3,490C3786.7,490,3733,490,3680,490C3626.7,490,3573,490,3520,490C3466.7,490,3413,490,3360,490C3306.7,490,3253,490,3200,490C3146.7,490,3093,490,3040,490C2986.7,490,2933,490,2880,490C2826.7,490,2773,490,2720,490C2666.7,490,2613,490,2560,490C2506.7,490,2453,490,2400,490C2346.7,490,2293,490,2240,490C2186.7,490,2133,490,2080,490C2026.7,490,1973,490,1920,490C1866.7,490,1813,490,1760,490C1706.7,490,1653,490,1600,490C1546.7,490,1493,490,1440,490C1386.7,490,1333,490,1280,490C1226.7,490,1173,490,1120,490C1066.7,490,1013,490,960,490C906.7,490,853,490,800,490C746.7,490,693,490,640,490C586.7,490,533,490,480,490C426.7,490,373,490,320,490C266.7,490,213,490,160,490C106.7,490,53,490,27,490L0,490Z"/></svg>