<svg id="visual" viewBox="0 0 900 600" width="900" height="600" xmlns="http://www.w3.org/2000/svg" xmlns:xlink="http://www.w3.org/1999/xlink" version="1.1"><rect x="0" y="0" width="900" height="600" fill="#002233"></rect><path d="M0 395L21.5 397.7C43 400.3 86 405.7 128.8 425.3C171.7 445 214.3 479 257.2 492.3C300 505.7 343 498.3 385.8 475.5C428.7 452.7 471.3 414.3 514.2 408.2C557 402 600 428 642.8 440.7C685.7 453.3 728.3 452.7 771.2 455.7C814 458.7 857 465.3 878.5 468.7L900 472L900 601L878.5 601C857 601 814 601 771.2 601C728.3 601 685.7 601 642.8 601C600 601 557 601 514.2 601C471.3 601 428.7 601 385.8 601C343 601 300 601 257.2 601C214.3 601 171.7 601 128.8 601C86 601 43 601 21.5 601L0 601Z" fill="#0066FF" stroke-linecap="round" stroke-linejoin="miter"></path></svg>