<svg xmlns="http://www.w3.org/2000/svg" version="1.1" xmlns:xlink="http://www.w3.org/1999/xlink" xmlns:svgjs="http://svgjs.com/svgjs" width="1440" height="560" preserveAspectRatio="none" viewBox="0 0 1440 560"><g mask="url(&quot;#SvgjsMask1000&quot;)" fill="none"><rect width="1440" height="560" x="0" y="0" fill="#0e2a47"></rect><path d="M843.59 129.06a36.53 36.53 0 1 0 44.84-57.69z" fill="#e73635"></path><path d="M343.98 378.09 a0.82 0.82 0 1 0 1.64 0 a0.82 0.82 0 1 0 -1.64 0z" fill="#d3b714"></path><path d="M901.49 366.41 a40.04 40.04 0 1 0 80.08 0 a40.04 40.04 0 1 0 -80.08 0z" fill="#d3b714"></path><path d="M51.1 270.62a10.9 10.9 0 1 0 3.75-21.47z" fill="#d3b714"></path><path d="M728.43 496.62 a1.37 1.37 0 1 0 2.74 0 a1.37 1.37 0 1 0 -2.74 0z" fill="#037b0b"></path><path d="M42.77 469.23 a29.45 29.45 0 1 0 58.9 0 a29.45 29.45 0 1 0 -58.9 0z" fill="#d3b714"></path><path d="M-26.85 409.2 a47.47 47.47 0 1 0 94.94 0 a47.47 47.47 0 1 0 -94.94 0z" stroke="#d3b714"></path><path d="M1308.65 483.67L1319.05 483.67L1319.05 494.07L1308.65 494.07z" stroke="#d3b714"></path><path d="M1413.07 121.47a13.54 13.54 0 1 0 0.36 27.07z" fill="#d3b714"></path><path d="M74.46 296.92L128.65 296.92L128.65 351.11L74.46 351.11z" stroke="#037b0b"></path><path d="M28.15 428.25a9.92 9.92 0 1 0-13.49-14.55z" stroke="#d3b714"></path><path d="M765.36 205.14a13.74 13.74 0 1 0-24.99 11.42z" fill="#037b0b"></path><path d="M1301.24 210.17L1316.99 210.17L1316.99 225.92L1301.24 225.92z" stroke="#d3b714"></path><path d="M931.57 25.55a32.58 32.58 0 1 0 50.2 41.54z" stroke="#d3b714"></path><path d="M718.08 91.18a6.25 6.25 0 1 0 9.27 8.39z" fill="#d3b714"></path><path d="M717.98 268.14 a38.53 38.53 0 1 0 77.06 0 a38.53 38.53 0 1 0 -77.06 0z" fill="#d3b714"></path><path d="M596.72 128.11 a27.09 27.09 0 1 0 54.18 0 a27.09 27.09 0 1 0 -54.18 0z" stroke="#037b0b"></path><path d="M1101.18 392.95L1151.23 392.95L1151.23 410.91L1101.18 410.91z" stroke="#e73635"></path><path d="M1341.73 493.06L1376.85 493.06L1376.85 531.09L1341.73 531.09z" fill="#037b0b"></path><path d="M826.37 307.03 a45.43 45.43 0 1 0 90.86 0 a45.43 45.43 0 1 0 -90.86 0z" stroke="#d3b714"></path><path d="M1266.43 287.61L1291.99 287.61L1291.99 313.17L1266.43 313.17z" fill="#d3b714"></path><path d="M707.32 525.79 a34.03 34.03 0 1 0 68.06 0 a34.03 34.03 0 1 0 -68.06 0z" stroke="#037b0b"></path><path d="M693.49 423.29 a42.87 42.87 0 1 0 85.74 0 a42.87 42.87 0 1 0 -85.74 0z" stroke="#037b0b"></path><path d="M108.26 104.16 a28.25 28.25 0 1 0 56.5 0 a28.25 28.25 0 1 0 -56.5 0z" fill="#e73635"></path><path d="M596.46 427.2a51.18 51.18 0 1 0 64.02 79.87z" fill="#d3b714"></path><path d="M942.13 154.52 a18.96 18.96 0 1 0 37.92 0 a18.96 18.96 0 1 0 -37.92 0z" fill="#d3b714"></path><path d="M571.27 72.68L580.18 72.68L580.18 117.13L571.27 117.13z" fill="#e73635"></path><path d="M610.04 528.96L646.9 528.96L646.9 565.82L610.04 565.82z" stroke="#e73635"></path><path d="M1383.17 480.49L1401.8 480.49L1401.8 501.73L1383.17 501.73z" fill="#e73635"></path><path d="M591.56 270.93L608.55 270.93L608.55 323.39L591.56 323.39z" fill="#d3b714"></path><path d="M603.44 542.66L651.44 542.66L651.44 590.66L603.44 590.66z" stroke="#037b0b"></path><path d="M57.17 324.6L109.87 324.6L109.87 377.3L57.17 377.3z" stroke="#e73635"></path><path d="M286.03 56.48L302.64 56.48L302.64 92.52L286.03 92.52z" stroke="#037b0b"></path></g><defs><mask id="SvgjsMask1000"><rect width="1440" height="560" fill="#ffffff"></rect></mask></defs></svg>