<svg xmlns="http://www.w3.org/2000/svg" version="1.1" xmlns:xlink="http://www.w3.org/1999/xlink" xmlns:svgjs="http://svgjs.com/svgjs" width="1440" height="560" preserveAspectRatio="none" viewBox="0 0 1440 560"><g mask="url(&quot;#SvgjsMask1000&quot;)" fill="none"><rect width="1440" height="560" x="0" y="0" fill="#0e2a47"></rect><path d="M575.62 524.94L623.92 524.94L623.92 573.24L575.62 573.24z" fill="#037b0b"></path><path d="M482.82 139.1L523.16 139.1L523.16 179.44L482.82 179.44z" fill="#e73635"></path><path d="M1304.35 232.32L1307.95 232.32L1307.95 265.33L1304.35 265.33z" fill="#037b0b"></path><path d="M1279.34 381.03 a1.74 1.74 0 1 0 3.48 0 a1.74 1.74 0 1 0 -3.48 0z" stroke="#d3b714"></path><path d="M1305.04 199.09L1318.79 199.09L1318.79 229.22L1305.04 229.22z" stroke="#e73635"></path><path d="M1090.92 298.1L1140.21 298.1L1140.21 347.39L1090.92 347.39z" fill="#037b0b"></path><path d="M150.96 543.08L178.03 543.08L178.03 570.15L150.96 570.15z" stroke="#d3b714"></path><path d="M1200.2 96.79L1217.36 96.79L1217.36 113.95L1200.2 113.95z" fill="#037b0b"></path><path d="M-13.54 217.64 a42.89 42.89 0 1 0 85.78 0 a42.89 42.89 0 1 0 -85.78 0z" fill="#e73635"></path><path d="M1323.56 515.19 a33.88 33.88 0 1 0 67.76 0 a33.88 33.88 0 1 0 -67.76 0z" fill="#037b0b"></path><path d="M892.65 164.01a47.53 47.53 0 1 0-65.2-69.17z" fill="#d3b714"></path><path d="M154.73 449.65L202.6 449.65L202.6 497.52L154.73 497.52z" fill="#e73635"></path><path d="M1207.05 351.89L1258.42 351.89L1258.42 403.26L1207.05 403.26z" fill="#037b0b"></path><path d="M53.18 73.82a49.06 49.06 0 1 0 73.85-64.61z" stroke="#037b0b"></path><path d="M1276.43 114.44a47.18 47.18 0 1 0 89.14 30.97z" fill="#037b0b"></path><path d="M657.83 163.39L682.93 163.39L682.93 188.49L657.83 188.49z" fill="#e73635"></path><path d="M493.75 493.51a28.92 28.92 0 1 0 3.4 57.74z" fill="#e73635"></path><path d="M183.41 23.95a19.96 19.96 0 1 0-1.02 39.9z" fill="#e73635"></path><path d="M918.57 238.85L964.56 238.85L964.56 284.84L918.57 284.84z" stroke="#e73635"></path><path d="M29.16 202.57L71.56 202.57L71.56 244.97L29.16 244.97z" stroke="#e73635"></path><path d="M1307.04 506.73L1361.41 506.73L1361.41 561.1L1307.04 561.1z" fill="#037b0b"></path><path d="M928.64 200.74a5.97 5.97 0 1 0 11.92 0.52z" fill="#d3b714"></path><path d="M1151.11 435.54 a34.62 34.62 0 1 0 69.24 0 a34.62 34.62 0 1 0 -69.24 0z" fill="#d3b714"></path><path d="M182.8 233.61 a0.09 0.09 0 1 0 0.18 0 a0.09 0.09 0 1 0 -0.18 0z" stroke="#037b0b"></path><path d="M729.02 85.7 a54.12 54.12 0 1 0 108.24 0 a54.12 54.12 0 1 0 -108.24 0z" stroke="#037b0b"></path><path d="M764.25 392.56L768.64 392.56L768.64 396.01L764.25 396.01z" stroke="#e73635"></path><path d="M359.08 14.94L411.39 14.94L411.39 65.26L359.08 65.26z" stroke="#037b0b"></path><path d="M752.87 164.46L766.17 164.46L766.17 177.76L752.87 177.76z" stroke="#037b0b"></path><path d="M1151.63 260.23 a36.53 36.53 0 1 0 73.06 0 a36.53 36.53 0 1 0 -73.06 0z" stroke="#037b0b"></path><path d="M109.08 88.56a17.82 17.82 0 1 0-17.47 31.07z" fill="#d3b714"></path><path d="M1282.17 586.85a38.72 38.72 0 1 0 26.78-72.66z" stroke="#d3b714"></path><path d="M877.34 81.28a49.88 49.88 0 1 0 57.27 81.68z" fill="#037b0b"></path><path d="M663.5 317.54L681.61 317.54L681.61 335.65L663.5 335.65z" stroke="#e73635"></path></g><defs><mask id="SvgjsMask1000"><rect width="1440" height="560" fill="#ffffff"></rect></mask></defs></svg>