<svg xmlns="http://www.w3.org/2000/svg" version="1.1" xmlns:xlink="http://www.w3.org/1999/xlink" xmlns:svgjs="http://svgjs.com/svgjs" width="1440" height="560" preserveAspectRatio="none" viewBox="0 0 1440 560"><g mask="url(&quot;#SvgjsMask1007&quot;)" fill="none"><rect width="1440" height="560" x="0" y="0" fill="#0e2a47"></rect><path d="M391.62 129.49L440.72 129.49L440.72 178.59L391.62 178.59z" fill="#037b0b"></path><path d="M772.66 359.29a19.7 19.7 0 1 0-33.09-21.38z" fill="#037b0b"></path><path d="M1338.44 501.85L1357.73 501.85L1357.73 502.28L1338.44 502.28z" stroke="#d3b714"></path><path d="M50.98 486.94a18.99 18.99 0 1 0 9.64-36.73z" stroke="#037b0b"></path><path d="M52.3 237.94 a17.53 17.53 0 1 0 35.06 0 a17.53 17.53 0 1 0 -35.06 0z" fill="#037b0b"></path><path d="M1334.66 228.78L1381.38 228.78L1381.38 245.77L1334.66 245.77z" fill="#d3b714"></path><path d="M1168.98 363.98 a1.21 1.21 0 1 0 2.42 0 a1.21 1.21 0 1 0 -2.42 0z" stroke="#e73635"></path><path d="M153.37 170.61 a3.6 3.6 0 1 0 7.2 0 a3.6 3.6 0 1 0 -7.2 0z" fill="#037b0b"></path><path d="M74.82 225.56L89.09 225.56L89.09 239.83L74.82 239.83z" stroke="#e73635"></path><path d="M754.65 121.69 a25.31 25.31 0 1 0 50.62 0 a25.31 25.31 0 1 0 -50.62 0z" stroke="#d3b714"></path><path d="M467.84 510.61L471.76 510.61L471.76 520.33L467.84 520.33z" fill="#e73635"></path><path d="M896.88 382.63 a40.8 40.8 0 1 0 81.6 0 a40.8 40.8 0 1 0 -81.6 0z" fill="#e73635"></path><path d="M984.53 204.84L997.32 204.84L997.32 217.63L984.53 217.63z" fill="#037b0b"></path><path d="M453.98 363.28a1.89 1.89 0 1 0-2.71-2.64z" fill="#d3b714"></path><path d="M873.18 486.93a41.46 41.46 0 1 0-51.9 64.68z" fill="#e73635"></path><path d="M503.52 172.65 a6.53 6.53 0 1 0 13.06 0 a6.53 6.53 0 1 0 -13.06 0z" fill="#d3b714"></path><path d="M1192.71 377.6 a16.31 16.31 0 1 0 32.62 0 a16.31 16.31 0 1 0 -32.62 0z" stroke="#037b0b"></path><path d="M1135.37 314.5L1161 314.5L1161 340.13L1135.37 340.13z" stroke="#e73635"></path><path d="M556.09 234.8 a22.23 22.23 0 1 0 44.46 0 a22.23 22.23 0 1 0 -44.46 0z" fill="#d3b714"></path><path d="M457.38 388.82L497.34 388.82L497.34 428.78L457.38 428.78z" fill="#037b0b"></path><path d="M1071.66 379.5L1073.89 379.5L1073.89 400.24L1071.66 400.24z" stroke="#d3b714"></path><path d="M935.9 182.4 a20.55 20.55 0 1 0 41.1 0 a20.55 20.55 0 1 0 -41.1 0z" stroke="#037b0b"></path><path d="M590.75 295.21a39.11 39.11 0 1 0-65.24 43.16z" fill="#037b0b"></path><path d="M1230.99 237.73L1255.99 237.73L1255.99 260.53L1230.99 260.53z" fill="#d3b714"></path><path d="M1036.77 327.23 a30.58 30.58 0 1 0 61.16 0 a30.58 30.58 0 1 0 -61.16 0z" stroke="#037b0b"></path><path d="M1444.86 185.14a24.81 24.81 0 1 0-21.06-44.93z" stroke="#e73635"></path><path d="M201.06 38.76L215.88 38.76L215.88 53.58L201.06 53.58z" fill="#037b0b"></path><path d="M1009.6 252.32L1034.37 252.32L1034.37 285.28L1009.6 285.28z" fill="#e73635"></path><path d="M1246.35 359.13L1286.61 359.13L1286.61 399.39L1246.35 399.39z" stroke="#037b0b"></path><path d="M1380.92 479.54 a26.41 26.41 0 1 0 52.82 0 a26.41 26.41 0 1 0 -52.82 0z" stroke="#e73635"></path><path d="M325.29 452.98 a10.47 10.47 0 1 0 20.94 0 a10.47 10.47 0 1 0 -20.94 0z" fill="#e73635"></path><path d="M168.08 550.49a45.73 45.73 0 1 0 91.46 0.46z" fill="#e73635"></path><path d="M1425.36 104.44a8.1 8.1 0 1 0-11.75-11.15z" fill="#e73635"></path></g><defs><mask id="SvgjsMask1007"><rect width="1440" height="560" fill="#ffffff"></rect></mask></defs></svg>