<svg xmlns="http://www.w3.org/2000/svg" version="1.1" xmlns:xlink="http://www.w3.org/1999/xlink" xmlns:svgjs="http://svgjs.com/svgjs" width="1440" height="560" preserveAspectRatio="none" viewBox="0 0 1440 560"><g mask="url(&quot;#SvgjsMask1026&quot;)" fill="none"><rect width="1440" height="560" x="0" y="0" fill="#0e2a47"></rect><path d="M450.24 90.89a1.73 1.73 0 1 0-3.25-1.17z" fill="#e73635"></path><path d="M1315.65 560.08a3.63 3.63 0 1 0 6.82-2.48z" fill="#d3b714"></path><path d="M389.88 35.59L423.06 35.59L423.06 68.77L389.88 68.77z" stroke="#037b0b"></path><path d="M612.5 58.84L626.12 58.84L626.12 72.46L612.5 72.46z" stroke="#d3b714"></path><path d="M779.18 203.14L782.97 203.14L782.97 231.16L779.18 231.16z" stroke="#d3b714"></path><path d="M1083.78 545.6L1107.47 545.6L1107.47 569.29L1083.78 569.29z" stroke="#037b0b"></path><path d="M1276.54 552.03L1301.13 552.03L1301.13 595.86L1276.54 595.86z" fill="#037b0b"></path><path d="M147.24 331.76L174.44 331.76L174.44 358.96L147.24 358.96z" fill="#d3b714"></path><path d="M1324.26 130.06a51.09 51.09 0 1 0 99.12-24.78z" stroke="#037b0b"></path><path d="M220.32-2.44a49.58 49.58 0 1 0 46.59 87.53z" fill="#d3b714"></path><path d="M1186.25 31.23a20.56 20.56 0 1 0-27.77 30.32z" fill="#d3b714"></path><path d="M1170.02 77.93L1195.1 77.93L1195.1 103.01L1170.02 103.01z" fill="#e73635"></path><path d="M163.42 365.75L203.29 365.75L203.29 405.62L163.42 405.62z" fill="#e73635"></path><path d="M1249.94 390.58a49.89 49.89 0 1 0 22.01-97.32z" fill="#037b0b"></path><path d="M355.77 288.11L405 288.11L405 337.34L355.77 337.34z" fill="#037b0b"></path><path d="M605.8 90.22 a43.11 43.11 0 1 0 86.22 0 a43.11 43.11 0 1 0 -86.22 0z" stroke="#e73635"></path><path d="M507.69 2.12a49.09 49.09 0 1 0-97.98 6.31z" stroke="#037b0b"></path><path d="M360.02 448.98L379.54 448.98L379.54 488.72L360.02 488.72z" stroke="#d3b714"></path><path d="M845.12 269.02 a14.76 14.76 0 1 0 29.52 0 a14.76 14.76 0 1 0 -29.52 0z" fill="#037b0b"></path><path d="M946.8 175.03a16.12 16.12 0 1 0 31.7-5.84z" fill="#037b0b"></path><path d="M895.88 236.03L916.89 236.03L916.89 253.81L895.88 253.81z" fill="#d3b714"></path><path d="M681.97 153.56L683.87 153.56L683.87 154.52L681.97 154.52z" fill="#037b0b"></path><path d="M1357.01 144.87L1385.78 144.87L1385.78 167.14L1357.01 167.14z" fill="#037b0b"></path><path d="M686.54 389.03L702.77 389.03L702.77 405.26L686.54 405.26z" stroke="#e73635"></path><path d="M58.91-6.25a45.36 45.36 0 1 0-82.71 37.27z" fill="#d3b714"></path><path d="M40.26 89.71L62 89.71L62 122.58L40.26 122.58z" fill="#037b0b"></path><path d="M210.97 106.32a42.64 42.64 0 1 0 83.37 17.95z" stroke="#d3b714"></path><path d="M1305.82 217.26L1329.45 217.26L1329.45 257.95L1305.82 257.95z" fill="#e73635"></path><path d="M1007.56 419.16L1025.87 419.16L1025.87 437.47L1007.56 437.47z" fill="#037b0b"></path><path d="M36.1 180.06 a1.96 1.96 0 1 0 3.92 0 a1.96 1.96 0 1 0 -3.92 0z" fill="#e73635"></path><path d="M872.31 333.38L883.41 333.38L883.41 333.75L872.31 333.75z" fill="#d3b714"></path><path d="M873.17 315.76a23.93 23.93 0 1 0 35 32.64z" fill="#e73635"></path><path d="M176.1 47.61a40.95 40.95 0 1 0 41.12-70.82z" stroke="#d3b714"></path></g><defs><mask id="SvgjsMask1026"><rect width="1440" height="560" fill="#ffffff"></rect></mask></defs></svg>