<svg xmlns="http://www.w3.org/2000/svg" version="1.1" xmlns:xlink="http://www.w3.org/1999/xlink" xmlns:svgjs="http://svgjs.com/svgjs" width="1440" height="560" preserveAspectRatio="none" viewBox="0 0 1440 560"><g mask="url(&quot;#SvgjsMask1016&quot;)" fill="none"><rect width="1440" height="560" x="0" y="0" fill="#0e2a47"></rect><path d="M513.66 508.8a36.15 36.15 0 1 0-27.98-66.67z" fill="#d3b714"></path><path d="M755.54 211.53L797.12 211.53L797.12 259.25L755.54 259.25z" stroke="#e73635"></path><path d="M497.59 114.75L541.87 114.75L541.87 157.81L497.59 157.81z" fill="#e73635"></path><path d="M110.04 78.96a27.93 27.93 0 1 0-7.93-55.29z" stroke="#e73635"></path><path d="M834.85 493.8 a35.25 35.25 0 1 0 70.5 0 a35.25 35.25 0 1 0 -70.5 0z" stroke="#037b0b"></path><path d="M542.97 372.92a4.17 4.17 0 1 0 1.38-8.23z" stroke="#d3b714"></path><path d="M469.31 257.78a34.27 34.27 0 1 0 9.61-67.86z" fill="#037b0b"></path><path d="M1032.64 322.92a41.12 41.12 0 1 0-75.81-31.88z" stroke="#037b0b"></path><path d="M112.99 516.2a53.42 53.42 0 1 0-45.93-96.46z" fill="#d3b714"></path><path d="M12.6 134.72 a28.81 28.81 0 1 0 57.62 0 a28.81 28.81 0 1 0 -57.62 0z" stroke="#037b0b"></path><path d="M461.95 488.39a4.07 4.07 0 1 0-5.37 6.11z" fill="#037b0b"></path><path d="M1273.35 459.08L1304.36 459.08L1304.36 483.79L1273.35 483.79z" stroke="#037b0b"></path><path d="M1303.84 51.57L1325.93 51.57L1325.93 73.66L1303.84 73.66z" stroke="#037b0b"></path><path d="M1165.78 170.88L1193.48 170.88L1193.48 198.58L1165.78 198.58z" fill="#037b0b"></path><path d="M777.35 396.21L833.14 396.21L833.14 452L777.35 452z" fill="#037b0b"></path><path d="M1151.94 197.65L1154.62 197.65L1154.62 211.82L1151.94 211.82z" fill="#d3b714"></path><path d="M289.24 36.8L323.02 36.8L323.02 75.16L289.24 75.16z" stroke="#037b0b"></path><path d="M1186.96 42.89L1210.57 42.89L1210.57 66.5L1186.96 66.5z" stroke="#e73635"></path><path d="M687 128.31 a15.8 15.8 0 1 0 31.6 0 a15.8 15.8 0 1 0 -31.6 0z" fill="#d3b714"></path><path d="M1196.39 285.2a8.52 8.52 0 1 0-15.78-6.42z" fill="#037b0b"></path><path d="M308.27 36.48L315.95 36.48L315.95 44.16L308.27 44.16z" fill="#e73635"></path><path d="M357.96 518.49L395.33 518.49L395.33 555.86L357.96 555.86z" fill="#037b0b"></path><path d="M110.15 199.99 a49.53 49.53 0 1 0 99.06 0 a49.53 49.53 0 1 0 -99.06 0z" stroke="#037b0b"></path><path d="M1411.8 157.32L1467.28 157.32L1467.28 185.77L1411.8 185.77z" stroke="#e73635"></path><path d="M453.91 145.17L475.02 145.17L475.02 175.45L453.91 175.45z" stroke="#d3b714"></path><path d="M1360.42 209.41a4.31 4.31 0 1 0 7.08 4.91z" stroke="#e73635"></path><path d="M1025.49 320.68L1072.39 320.68L1072.39 367.58L1025.49 367.58z" fill="#037b0b"></path><path d="M1392.23 395.42 a16.2 16.2 0 1 0 32.4 0 a16.2 16.2 0 1 0 -32.4 0z" fill="#037b0b"></path><path d="M1085.99 269.62a5.7 5.7 0 1 0 9.94-5.6z" stroke="#037b0b"></path><path d="M949.96 2.86a46.38 46.38 0 1 0-72.92 57.33z" fill="#d3b714"></path><path d="M406.08 307.52a29.36 29.36 0 1 0 49.5 31.6z" stroke="#037b0b"></path><path d="M1236.4 175.09 a17.21 17.21 0 1 0 34.42 0 a17.21 17.21 0 1 0 -34.42 0z" stroke="#e73635"></path><path d="M1396.57 395.68 a3.14 3.14 0 1 0 6.28 0 a3.14 3.14 0 1 0 -6.28 0z" stroke="#037b0b"></path></g><defs><mask id="SvgjsMask1016"><rect width="1440" height="560" fill="#ffffff"></rect></mask></defs></svg>