<svg xmlns="http://www.w3.org/2000/svg" version="1.1" xmlns:xlink="http://www.w3.org/1999/xlink" xmlns:svgjs="http://svgjs.com/svgjs" width="1440" height="560" preserveAspectRatio="none" viewBox="0 0 1440 560"><g mask="url(&quot;#SvgjsMask1012&quot;)" fill="none"><rect width="1440" height="560" x="0" y="0" fill="#0e2a47"></rect><path d="M685.54 300.3 a20.82 20.82 0 1 0 41.64 0 a20.82 20.82 0 1 0 -41.64 0z" fill="#e73635"></path><path d="M823.57 249.51 a25.77 25.77 0 1 0 51.54 0 a25.77 25.77 0 1 0 -51.54 0z" fill="#d3b714"></path><path d="M1111.11 495.11 a13.44 13.44 0 1 0 26.88 0 a13.44 13.44 0 1 0 -26.88 0z" stroke="#037b0b"></path><path d="M552.15 440.01L576.02 440.01L576.02 470.33L552.15 470.33z" fill="#e73635"></path><path d="M778.08 379.98 a23.49 23.49 0 1 0 46.98 0 a23.49 23.49 0 1 0 -46.98 0z" fill="#e73635"></path><path d="M1354.13 192.75L1387.37 192.75L1387.37 225.99L1354.13 225.99z" fill="#037b0b"></path><path d="M566.91 556.53 a54.48 54.48 0 1 0 108.96 0 a54.48 54.48 0 1 0 -108.96 0z" fill="#037b0b"></path><path d="M-28.11 136.46 a42.23 42.23 0 1 0 84.46 0 a42.23 42.23 0 1 0 -84.46 0z" fill="#037b0b"></path><path d="M351.81 536.5L352.52 536.5L352.52 537.21L351.81 537.21z" stroke="#e73635"></path><path d="M375.6 555.67a45.77 45.77 0 1 0 57.92-70.89z" stroke="#037b0b"></path><path d="M1080.98 389.95a27.31 27.31 0 1 0 52.2-16.06z" stroke="#d3b714"></path><path d="M792.66 365.94L846.26 365.94L846.26 419.54L792.66 419.54z" fill="#e73635"></path><path d="M124.77 250.31L129.72 250.31L129.72 253.02L124.77 253.02z" stroke="#037b0b"></path><path d="M868.02 454.31a41.56 41.56 0 1 0-63.22 53.97z" stroke="#d3b714"></path><path d="M833.8 522.82 a15.65 15.65 0 1 0 31.3 0 a15.65 15.65 0 1 0 -31.3 0z" stroke="#037b0b"></path><path d="M171.71 166.15L176.43 166.15L176.43 170.87L171.71 170.87z" stroke="#037b0b"></path><path d="M1038.02 202.22L1078.31 202.22L1078.31 242.51L1038.02 242.51z" stroke="#037b0b"></path><path d="M167.2 241L217.31 241L217.31 291.11L167.2 291.11z" stroke="#e73635"></path><path d="M864.51 116.5L919.64 116.5L919.64 148.78L864.51 148.78z" stroke="#d3b714"></path><path d="M508.83 464.91L546.41 464.91L546.41 515.05L508.83 515.05z" fill="#d3b714"></path><path d="M1000.98 436.8L1004 436.8L1004 439.82L1000.98 439.82z" fill="#d3b714"></path><path d="M902.9 421.85 a10.05 10.05 0 1 0 20.1 0 a10.05 10.05 0 1 0 -20.1 0z" stroke="#e73635"></path><path d="M1415.12 398.47L1430.14 398.47L1430.14 413.49L1415.12 413.49z" stroke="#037b0b"></path><path d="M366.29 447.6a24.06 24.06 0 1 0 47.94-4.16z" stroke="#d3b714"></path><path d="M1067.87 336.25 a17.41 17.41 0 1 0 34.82 0 a17.41 17.41 0 1 0 -34.82 0z" fill="#037b0b"></path><path d="M171.2 265.65 a24.09 24.09 0 1 0 48.18 0 a24.09 24.09 0 1 0 -48.18 0z" fill="#d3b714"></path><path d="M516.47 257.05L539.75 257.05L539.75 280.33L516.47 280.33z" fill="#037b0b"></path><path d="M1031.9 413.33L1075.21 413.33L1075.21 456.64L1031.9 456.64z" stroke="#e73635"></path><path d="M1406.08 157.91L1441.59 157.91L1441.59 191L1406.08 191z" stroke="#037b0b"></path><path d="M749.8 332.1 a2.93 2.93 0 1 0 5.86 0 a2.93 2.93 0 1 0 -5.86 0z" stroke="#e73635"></path><path d="M1106.06 342.39a41.91 41.91 0 1 0 80.48-23.4z" fill="#e73635"></path><path d="M262.72 261.44a44.54 44.54 0 1 0-73.19 50.8z" fill="#e73635"></path><path d="M449.01 529.89a30.81 30.81 0 1 0 17.98 58.94z" fill="#037b0b"></path></g><defs><mask id="SvgjsMask1012"><rect width="1440" height="560" fill="#ffffff"></rect></mask></defs></svg>