<svg xmlns="http://www.w3.org/2000/svg" version="1.1" xmlns:xlink="http://www.w3.org/1999/xlink" xmlns:svgjs="http://svgjs.com/svgjs" width="1440" height="560" preserveAspectRatio="none" viewBox="0 0 1440 560"><g mask="url(&quot;#SvgjsMask1003&quot;)" fill="none"><rect width="1440" height="560" x="0" y="0" fill="#0e2a47"></rect><path d="M576 255.83 a22.36 22.36 0 1 0 44.72 0 a22.36 22.36 0 1 0 -44.72 0z" stroke="#d3b714"></path><path d="M1062.38 329.57a30.11 30.11 0 1 0-60.15-2.91z" fill="#e73635"></path><path d="M1440.12 312.25a40.2 40.2 0 1 0-70.86 37.99z" stroke="#e73635"></path><path d="M1291.46 451.63L1293.76 451.63L1293.76 453.93L1291.46 453.93z" stroke="#e73635"></path><path d="M590.08 203.08 a3.61 3.61 0 1 0 7.22 0 a3.61 3.61 0 1 0 -7.22 0z" stroke="#037b0b"></path><path d="M193.56 432.98 a3.69 3.69 0 1 0 7.38 0 a3.69 3.69 0 1 0 -7.38 0z" fill="#e73635"></path><path d="M1180.34 342.13a37.91 37.91 0 1 0-69.94 29.29z" fill="#d3b714"></path><path d="M695.94 463.58 a50.3 50.3 0 1 0 100.6 0 a50.3 50.3 0 1 0 -100.6 0z" stroke="#e73635"></path><path d="M451.9 208.84L507.34 208.84L507.34 241.5L451.9 241.5z" fill="#e73635"></path><path d="M1062.66 88.68a9.79 9.79 0 1 0-19.3 3.35z" fill="#e73635"></path><path d="M784.61 45.8L819.35 45.8L819.35 80.54L784.61 80.54z" stroke="#d3b714"></path><path d="M1288.24 156.95L1307.1 156.95L1307.1 175.81L1288.24 175.81z" fill="#037b0b"></path><path d="M341.64 142.21 a14.65 14.65 0 1 0 29.3 0 a14.65 14.65 0 1 0 -29.3 0z" stroke="#e73635"></path><path d="M664.29 544.49L671.64 544.49L671.64 566.3L664.29 566.3z" fill="#e73635"></path><path d="M139.64 489.85a40.38 40.38 0 1 0-33.73 73.38z" stroke="#e73635"></path><path d="M1297.38 107.56 a5.94 5.94 0 1 0 11.88 0 a5.94 5.94 0 1 0 -11.88 0z" stroke="#d3b714"></path><path d="M799.03 212.3L804.7 212.3L804.7 220.06L799.03 220.06z" stroke="#e73635"></path><path d="M385.65 110.09L429.79 110.09L429.79 132.2L385.65 132.2z" fill="#037b0b"></path><path d="M876.93 511.79L903.06 511.79L903.06 537.92L876.93 537.92z" stroke="#037b0b"></path><path d="M244.23 515.06L280.12 515.06L280.12 550.95L244.23 550.95z" stroke="#e73635"></path><path d="M218.73 433.22L254.03 433.22L254.03 468.52L218.73 468.52z" fill="#d3b714"></path><path d="M189.17 402.01L201.09 402.01L201.09 419.21L189.17 419.21z" fill="#e73635"></path><path d="M903.05 125.95L943.7 125.95L943.7 166.6L903.05 166.6z" fill="#037b0b"></path><path d="M284.65 378.33L328.95 378.33L328.95 422.63L284.65 422.63z" stroke="#037b0b"></path><path d="M1005.44 13.25 a13.24 13.24 0 1 0 26.48 0 a13.24 13.24 0 1 0 -26.48 0z" fill="#e73635"></path><path d="M936.51 177.19 a4.5 4.5 0 1 0 9 0 a4.5 4.5 0 1 0 -9 0z" stroke="#037b0b"></path><path d="M193.5 510.13L234.92 510.13L234.92 539.82L193.5 539.82z" fill="#037b0b"></path><path d="M527.95 134.31 a32.96 32.96 0 1 0 65.92 0 a32.96 32.96 0 1 0 -65.92 0z" fill="#037b0b"></path><path d="M366.32 119.2L393.72 119.2L393.72 130.9L366.32 130.9z" stroke="#037b0b"></path><path d="M586.64 464.17a40 40 0 1 0-73.17 32.35z" fill="#d3b714"></path><path d="M475.03 20.96 a2.05 2.05 0 1 0 4.1 0 a2.05 2.05 0 1 0 -4.1 0z" fill="#d3b714"></path><path d="M1240.71 241.66L1270.83 241.66L1270.83 271.78L1240.71 271.78z" stroke="#037b0b"></path><path d="M157.24 533.3L207.06 533.3L207.06 573.08L157.24 573.08z" stroke="#e73635"></path></g><defs><mask id="SvgjsMask1003"><rect width="1440" height="560" fill="#ffffff"></rect></mask></defs></svg>