<svg xmlns="http://www.w3.org/2000/svg" version="1.1" xmlns:xlink="http://www.w3.org/1999/xlink" xmlns:svgjs="http://svgjs.com/svgjs" width="1440" height="560" preserveAspectRatio="none" viewBox="0 0 1440 560"><g mask="url(&quot;#SvgjsMask1000&quot;)" fill="none"><rect width="1440" height="560" x="0" y="0" fill="#0e2a47"></rect><path d="M127.18 42.06L192.14 79.56L192.14 154.56L127.18 192.06L62.23 154.56L62.23 79.56zM62.23 154.56L127.18 192.06L127.18 267.06L62.23 304.56L-2.72 267.06L-2.72 192.06zM127.18 267.06L192.14 304.56L192.14 379.56L127.18 417.06L62.23 379.56L62.23 304.56zM192.14 -70.44L257.09 -32.94L257.09 42.06L192.14 79.56L127.18 42.06L127.18 -32.94zM192.14 154.56L257.09 192.06L257.09 267.06L192.14 304.56L127.18 267.06L127.18 192.06zM387 42.06L451.95 79.56L451.95 154.56L387 192.06L322.05 154.56L322.05 79.56zM322.05 379.56L387 417.06L387 492.06L322.05 529.56L257.09 492.06L257.09 417.06zM451.95 -70.44L516.91 -32.94L516.91 42.06L451.95 79.56L387 42.06L387 -32.94zM516.91 42.06L581.86 79.56L581.86 154.56L516.91 192.06L451.95 154.56L451.95 79.56zM451.95 379.56L516.91 417.06L516.91 492.06L451.95 529.56L387 492.06L387 417.06zM581.86 -70.44L646.81 -32.94L646.81 42.06L581.86 79.56L516.91 42.06L516.91 -32.94zM581.86 154.56L646.81 192.06L646.81 267.06L581.86 304.56L516.91 267.06L516.91 192.06zM646.81 492.06L711.77 529.56L711.77 604.56L646.81 642.06L581.86 604.56L581.86 529.56zM711.77 -70.44L776.72 -32.94L776.72 42.06L711.77 79.56L646.81 42.06L646.81 -32.94zM776.72 267.06L841.68 304.56L841.68 379.56L776.72 417.06L711.77 379.56L711.77 304.56zM776.72 492.06L841.68 529.56L841.68 604.56L776.72 642.06L711.77 604.56L711.77 529.56zM841.67 -70.44L906.63 -32.94L906.63 42.06L841.67 79.56L776.72 42.06L776.72 -32.94zM841.67 154.56L906.63 192.06L906.63 267.06L841.67 304.56L776.72 267.06L776.72 192.06zM841.67 379.56L906.63 417.06L906.63 492.06L841.67 529.56L776.72 492.06L776.72 417.06zM906.63 492.06L971.58 529.56L971.58 604.56L906.63 642.06L841.67 604.56L841.67 529.56zM1036.54 267.06L1101.49 304.56L1101.49 379.56L1036.54 417.06L971.58 379.56L971.58 304.56zM971.58 379.56L1036.54 417.06L1036.54 492.06L971.58 529.56L906.63 492.06L906.63 417.06zM1166.44 42.06L1231.4 79.56L1231.4 154.56L1166.44 192.06L1101.49 154.56L1101.49 79.56zM1166.44 267.06L1231.4 304.56L1231.4 379.56L1166.44 417.06L1101.49 379.56L1101.49 304.56zM1231.4 -70.44L1296.35 -32.94L1296.35 42.06L1231.4 79.56L1166.44 42.06L1166.44 -32.94zM1296.35 42.06L1361.3 79.56L1361.3 154.56L1296.35 192.06L1231.4 154.56L1231.4 79.56zM1231.4 379.56L1296.35 417.06L1296.35 492.06L1231.4 529.56L1166.44 492.06L1166.44 417.06zM1296.35 492.06L1361.3 529.56L1361.3 604.56L1296.35 642.06L1231.4 604.56L1231.4 529.56zM1361.31 -70.44L1426.26 -32.94L1426.26 42.06L1361.31 79.56L1296.35 42.06L1296.35 -32.94zM1426.26 42.06L1491.21 79.56L1491.21 154.56L1426.26 192.06L1361.31 154.56L1361.31 79.56zM1361.31 154.56L1426.26 192.06L1426.26 267.06L1361.31 304.56L1296.35 267.06L1296.35 192.06zM1361.31 379.56L1426.26 417.06L1426.26 492.06L1361.31 529.56L1296.35 492.06L1296.35 417.06zM1491.21 -70.44L1556.17 -32.94L1556.17 42.06L1491.21 79.56L1426.26 42.06L1426.26 -32.94zM1491.21 154.56L1556.17 192.06L1556.17 267.06L1491.21 304.56L1426.26 267.06L1426.26 192.06zM1556.17 267.06L1621.12 304.56L1621.12 379.56L1556.17 417.06L1491.21 379.56L1491.21 304.56zM1491.21 379.56L1556.17 417.06L1556.17 492.06L1491.21 529.56L1426.26 492.06L1426.26 417.06zM1556.17 492.06L1621.12 529.56L1621.12 604.56L1556.17 642.06L1491.21 604.56L1491.21 529.56z" stroke="#03305d" stroke-width="2"></path><path d="M119.68 42.06 a7.5 7.5 0 1 0 15 0 a7.5 7.5 0 1 0 -15 0zM184.64 79.56 a7.5 7.5 0 1 0 15 0 a7.5 7.5 0 1 0 -15 0zM184.64 154.56 a7.5 7.5 0 1 0 15 0 a7.5 7.5 0 1 0 -15 0zM119.68 192.06 a7.5 7.5 0 1 0 15 0 a7.5 7.5 0 1 0 -15 0zM54.73 154.56 a7.5 7.5 0 1 0 15 0 a7.5 7.5 0 1 0 -15 0zM54.73 79.56 a7.5 7.5 0 1 0 15 0 a7.5 7.5 0 1 0 -15 0zM119.68 267.06 a7.5 7.5 0 1 0 15 0 a7.5 7.5 0 1 0 -15 0zM54.73 304.56 a7.5 7.5 0 1 0 15 0 a7.5 7.5 0 1 0 -15 0zM-10.22 267.06 a7.5 7.5 0 1 0 15 0 a7.5 7.5 0 1 0 -15 0zM-10.22 192.06 a7.5 7.5 0 1 0 15 0 a7.5 7.5 0 1 0 -15 0zM184.64 304.56 a7.5 7.5 0 1 0 15 0 a7.5 7.5 0 1 0 -15 0zM184.64 379.56 a7.5 7.5 0 1 0 15 0 a7.5 7.5 0 1 0 -15 0zM119.68 417.06 a7.5 7.5 0 1 0 15 0 a7.5 7.5 0 1 0 -15 0zM54.73 379.56 a7.5 7.5 0 1 0 15 0 a7.5 7.5 0 1 0 -15 0zM184.64 -70.44 a7.5 7.5 0 1 0 15 0 a7.5 7.5 0 1 0 -15 0zM249.59 -32.94 a7.5 7.5 0 1 0 15 0 a7.5 7.5 0 1 0 -15 0zM249.59 42.06 a7.5 7.5 0 1 0 15 0 a7.5 7.5 0 1 0 -15 0zM119.68 -32.94 a7.5 7.5 0 1 0 15 0 a7.5 7.5 0 1 0 -15 0zM249.59 192.06 a7.5 7.5 0 1 0 15 0 a7.5 7.5 0 1 0 -15 0zM249.59 267.06 a7.5 7.5 0 1 0 15 0 a7.5 7.5 0 1 0 -15 0zM379.5 42.06 a7.5 7.5 0 1 0 15 0 a7.5 7.5 0 1 0 -15 0zM444.45 79.56 a7.5 7.5 0 1 0 15 0 a7.5 7.5 0 1 0 -15 0zM444.45 154.56 a7.5 7.5 0 1 0 15 0 a7.5 7.5 0 1 0 -15 0zM379.5 192.06 a7.5 7.5 0 1 0 15 0 a7.5 7.5 0 1 0 -15 0zM314.55 154.56 a7.5 7.5 0 1 0 15 0 a7.5 7.5 0 1 0 -15 0zM314.55 79.56 a7.5 7.5 0 1 0 15 0 a7.5 7.5 0 1 0 -15 0zM314.55 379.56 a7.5 7.5 0 1 0 15 0 a7.5 7.5 0 1 0 -15 0zM379.5 417.06 a7.5 7.5 0 1 0 15 0 a7.5 7.5 0 1 0 -15 0zM379.5 492.06 a7.5 7.5 0 1 0 15 0 a7.5 7.5 0 1 0 -15 0zM314.55 529.56 a7.5 7.5 0 1 0 15 0 a7.5 7.5 0 1 0 -15 0zM249.59 492.06 a7.5 7.5 0 1 0 15 0 a7.5 7.5 0 1 0 -15 0zM249.59 417.06 a7.5 7.5 0 1 0 15 0 a7.5 7.5 0 1 0 -15 0zM444.45 -70.44 a7.5 7.5 0 1 0 15 0 a7.5 7.5 0 1 0 -15 0zM509.41 -32.94 a7.5 7.5 0 1 0 15 0 a7.5 7.5 0 1 0 -15 0zM509.41 42.06 a7.5 7.5 0 1 0 15 0 a7.5 7.5 0 1 0 -15 0zM379.5 -32.94 a7.5 7.5 0 1 0 15 0 a7.5 7.5 0 1 0 -15 0zM574.36 79.56 a7.5 7.5 0 1 0 15 0 a7.5 7.5 0 1 0 -15 0zM574.36 154.56 a7.5 7.5 0 1 0 15 0 a7.5 7.5 0 1 0 -15 0zM509.41 192.06 a7.5 7.5 0 1 0 15 0 a7.5 7.5 0 1 0 -15 0zM444.45 379.56 a7.5 7.5 0 1 0 15 0 a7.5 7.5 0 1 0 -15 0zM509.41 417.06 a7.5 7.5 0 1 0 15 0 a7.5 7.5 0 1 0 -15 0zM509.41 492.06 a7.5 7.5 0 1 0 15 0 a7.5 7.5 0 1 0 -15 0zM444.45 529.56 a7.5 7.5 0 1 0 15 0 a7.5 7.5 0 1 0 -15 0zM574.36 -70.44 a7.5 7.5 0 1 0 15 0 a7.5 7.5 0 1 0 -15 0zM639.31 -32.94 a7.5 7.5 0 1 0 15 0 a7.5 7.5 0 1 0 -15 0zM639.31 42.06 a7.5 7.5 0 1 0 15 0 a7.5 7.5 0 1 0 -15 0zM639.31 192.06 a7.5 7.5 0 1 0 15 0 a7.5 7.5 0 1 0 -15 0zM639.31 267.06 a7.5 7.5 0 1 0 15 0 a7.5 7.5 0 1 0 -15 0zM574.36 304.56 a7.5 7.5 0 1 0 15 0 a7.5 7.5 0 1 0 -15 0zM509.41 267.06 a7.5 7.5 0 1 0 15 0 a7.5 7.5 0 1 0 -15 0zM639.31 492.06 a7.5 7.5 0 1 0 15 0 a7.5 7.5 0 1 0 -15 0zM704.27 529.56 a7.5 7.5 0 1 0 15 0 a7.5 7.5 0 1 0 -15 0zM704.27 604.56 a7.5 7.5 0 1 0 15 0 a7.5 7.5 0 1 0 -15 0zM639.31 642.06 a7.5 7.5 0 1 0 15 0 a7.5 7.5 0 1 0 -15 0zM574.36 604.56 a7.5 7.5 0 1 0 15 0 a7.5 7.5 0 1 0 -15 0zM574.36 529.56 a7.5 7.5 0 1 0 15 0 a7.5 7.5 0 1 0 -15 0zM704.27 -70.44 a7.5 7.5 0 1 0 15 0 a7.5 7.5 0 1 0 -15 0zM769.22 -32.94 a7.5 7.5 0 1 0 15 0 a7.5 7.5 0 1 0 -15 0zM769.22 42.06 a7.5 7.5 0 1 0 15 0 a7.5 7.5 0 1 0 -15 0zM704.27 79.56 a7.5 7.5 0 1 0 15 0 a7.5 7.5 0 1 0 -15 0zM769.22 267.06 a7.5 7.5 0 1 0 15 0 a7.5 7.5 0 1 0 -15 0zM834.18 304.56 a7.5 7.5 0 1 0 15 0 a7.5 7.5 0 1 0 -15 0zM834.18 379.56 a7.5 7.5 0 1 0 15 0 a7.5 7.5 0 1 0 -15 0zM769.22 417.06 a7.5 7.5 0 1 0 15 0 a7.5 7.5 0 1 0 -15 0zM704.27 379.56 a7.5 7.5 0 1 0 15 0 a7.5 7.5 0 1 0 -15 0zM704.27 304.56 a7.5 7.5 0 1 0 15 0 a7.5 7.5 0 1 0 -15 0zM769.22 492.06 a7.5 7.5 0 1 0 15 0 a7.5 7.5 0 1 0 -15 0zM834.18 529.56 a7.5 7.5 0 1 0 15 0 a7.5 7.5 0 1 0 -15 0zM834.18 604.56 a7.5 7.5 0 1 0 15 0 a7.5 7.5 0 1 0 -15 0zM769.22 642.06 a7.5 7.5 0 1 0 15 0 a7.5 7.5 0 1 0 -15 0zM834.17 -70.44 a7.5 7.5 0 1 0 15 0 a7.5 7.5 0 1 0 -15 0zM899.13 -32.94 a7.5 7.5 0 1 0 15 0 a7.5 7.5 0 1 0 -15 0zM899.13 42.06 a7.5 7.5 0 1 0 15 0 a7.5 7.5 0 1 0 -15 0zM834.17 79.56 a7.5 7.5 0 1 0 15 0 a7.5 7.5 0 1 0 -15 0zM834.17 154.56 a7.5 7.5 0 1 0 15 0 a7.5 7.5 0 1 0 -15 0zM899.13 192.06 a7.5 7.5 0 1 0 15 0 a7.5 7.5 0 1 0 -15 0zM899.13 267.06 a7.5 7.5 0 1 0 15 0 a7.5 7.5 0 1 0 -15 0zM834.17 304.56 a7.5 7.5 0 1 0 15 0 a7.5 7.5 0 1 0 -15 0zM769.22 192.06 a7.5 7.5 0 1 0 15 0 a7.5 7.5 0 1 0 -15 0zM834.17 379.56 a7.5 7.5 0 1 0 15 0 a7.5 7.5 0 1 0 -15 0zM899.13 417.06 a7.5 7.5 0 1 0 15 0 a7.5 7.5 0 1 0 -15 0zM899.13 492.06 a7.5 7.5 0 1 0 15 0 a7.5 7.5 0 1 0 -15 0zM834.17 529.56 a7.5 7.5 0 1 0 15 0 a7.5 7.5 0 1 0 -15 0zM964.08 529.56 a7.5 7.5 0 1 0 15 0 a7.5 7.5 0 1 0 -15 0zM964.08 604.56 a7.5 7.5 0 1 0 15 0 a7.5 7.5 0 1 0 -15 0zM899.13 642.06 a7.5 7.5 0 1 0 15 0 a7.5 7.5 0 1 0 -15 0zM834.17 604.56 a7.5 7.5 0 1 0 15 0 a7.5 7.5 0 1 0 -15 0zM1029.04 267.06 a7.5 7.5 0 1 0 15 0 a7.5 7.5 0 1 0 -15 0zM1093.99 304.56 a7.5 7.5 0 1 0 15 0 a7.5 7.5 0 1 0 -15 0zM1093.99 379.56 a7.5 7.5 0 1 0 15 0 a7.5 7.5 0 1 0 -15 0zM1029.04 417.06 a7.5 7.5 0 1 0 15 0 a7.5 7.5 0 1 0 -15 0zM964.08 379.56 a7.5 7.5 0 1 0 15 0 a7.5 7.5 0 1 0 -15 0zM964.08 304.56 a7.5 7.5 0 1 0 15 0 a7.5 7.5 0 1 0 -15 0zM1029.04 492.06 a7.5 7.5 0 1 0 15 0 a7.5 7.5 0 1 0 -15 0zM1158.94 42.06 a7.5 7.5 0 1 0 15 0 a7.5 7.5 0 1 0 -15 0zM1223.9 79.56 a7.5 7.5 0 1 0 15 0 a7.5 7.5 0 1 0 -15 0zM1223.9 154.56 a7.5 7.5 0 1 0 15 0 a7.5 7.5 0 1 0 -15 0zM1158.94 192.06 a7.5 7.5 0 1 0 15 0 a7.5 7.5 0 1 0 -15 0zM1093.99 154.56 a7.5 7.5 0 1 0 15 0 a7.5 7.5 0 1 0 -15 0zM1093.99 79.56 a7.5 7.5 0 1 0 15 0 a7.5 7.5 0 1 0 -15 0zM1158.94 267.06 a7.5 7.5 0 1 0 15 0 a7.5 7.5 0 1 0 -15 0zM1223.9 304.56 a7.5 7.5 0 1 0 15 0 a7.5 7.5 0 1 0 -15 0zM1223.9 379.56 a7.5 7.5 0 1 0 15 0 a7.5 7.5 0 1 0 -15 0zM1158.94 417.06 a7.5 7.5 0 1 0 15 0 a7.5 7.5 0 1 0 -15 0zM1223.9 -70.44 a7.5 7.5 0 1 0 15 0 a7.5 7.5 0 1 0 -15 0zM1288.85 -32.94 a7.5 7.5 0 1 0 15 0 a7.5 7.5 0 1 0 -15 0zM1288.85 42.06 a7.5 7.5 0 1 0 15 0 a7.5 7.5 0 1 0 -15 0zM1158.94 -32.94 a7.5 7.5 0 1 0 15 0 a7.5 7.5 0 1 0 -15 0zM1353.8 79.56 a7.5 7.5 0 1 0 15 0 a7.5 7.5 0 1 0 -15 0zM1353.8 154.56 a7.5 7.5 0 1 0 15 0 a7.5 7.5 0 1 0 -15 0zM1288.85 192.06 a7.5 7.5 0 1 0 15 0 a7.5 7.5 0 1 0 -15 0zM1288.85 417.06 a7.5 7.5 0 1 0 15 0 a7.5 7.5 0 1 0 -15 0zM1288.85 492.06 a7.5 7.5 0 1 0 15 0 a7.5 7.5 0 1 0 -15 0zM1223.9 529.56 a7.5 7.5 0 1 0 15 0 a7.5 7.5 0 1 0 -15 0zM1158.94 492.06 a7.5 7.5 0 1 0 15 0 a7.5 7.5 0 1 0 -15 0zM1353.8 529.56 a7.5 7.5 0 1 0 15 0 a7.5 7.5 0 1 0 -15 0zM1353.8 604.56 a7.5 7.5 0 1 0 15 0 a7.5 7.5 0 1 0 -15 0zM1288.85 642.06 a7.5 7.5 0 1 0 15 0 a7.5 7.5 0 1 0 -15 0zM1223.9 604.56 a7.5 7.5 0 1 0 15 0 a7.5 7.5 0 1 0 -15 0zM1353.81 -70.44 a7.5 7.5 0 1 0 15 0 a7.5 7.5 0 1 0 -15 0zM1418.76 -32.94 a7.5 7.5 0 1 0 15 0 a7.5 7.5 0 1 0 -15 0zM1418.76 42.06 a7.5 7.5 0 1 0 15 0 a7.5 7.5 0 1 0 -15 0zM1353.81 79.56 a7.5 7.5 0 1 0 15 0 a7.5 7.5 0 1 0 -15 0zM1483.71 79.56 a7.5 7.5 0 1 0 15 0 a7.5 7.5 0 1 0 -15 0zM1483.71 154.56 a7.5 7.5 0 1 0 15 0 a7.5 7.5 0 1 0 -15 0zM1418.76 192.06 a7.5 7.5 0 1 0 15 0 a7.5 7.5 0 1 0 -15 0zM1353.81 154.56 a7.5 7.5 0 1 0 15 0 a7.5 7.5 0 1 0 -15 0zM1418.76 267.06 a7.5 7.5 0 1 0 15 0 a7.5 7.5 0 1 0 -15 0zM1353.81 304.56 a7.5 7.5 0 1 0 15 0 a7.5 7.5 0 1 0 -15 0zM1288.85 267.06 a7.5 7.5 0 1 0 15 0 a7.5 7.5 0 1 0 -15 0zM1353.81 379.56 a7.5 7.5 0 1 0 15 0 a7.5 7.5 0 1 0 -15 0zM1418.76 417.06 a7.5 7.5 0 1 0 15 0 a7.5 7.5 0 1 0 -15 0zM1418.76 492.06 a7.5 7.5 0 1 0 15 0 a7.5 7.5 0 1 0 -15 0zM1353.81 529.56 a7.5 7.5 0 1 0 15 0 a7.5 7.5 0 1 0 -15 0zM1483.71 -70.44 a7.5 7.5 0 1 0 15 0 a7.5 7.5 0 1 0 -15 0zM1548.67 -32.94 a7.5 7.5 0 1 0 15 0 a7.5 7.5 0 1 0 -15 0zM1548.67 42.06 a7.5 7.5 0 1 0 15 0 a7.5 7.5 0 1 0 -15 0zM1548.67 192.06 a7.5 7.5 0 1 0 15 0 a7.5 7.5 0 1 0 -15 0zM1548.67 267.06 a7.5 7.5 0 1 0 15 0 a7.5 7.5 0 1 0 -15 0zM1483.71 304.56 a7.5 7.5 0 1 0 15 0 a7.5 7.5 0 1 0 -15 0zM1613.62 304.56 a7.5 7.5 0 1 0 15 0 a7.5 7.5 0 1 0 -15 0zM1613.62 379.56 a7.5 7.5 0 1 0 15 0 a7.5 7.5 0 1 0 -15 0zM1548.67 417.06 a7.5 7.5 0 1 0 15 0 a7.5 7.5 0 1 0 -15 0zM1483.71 379.56 a7.5 7.5 0 1 0 15 0 a7.5 7.5 0 1 0 -15 0zM1548.67 492.06 a7.5 7.5 0 1 0 15 0 a7.5 7.5 0 1 0 -15 0zM1483.71 529.56 a7.5 7.5 0 1 0 15 0 a7.5 7.5 0 1 0 -15 0zM1613.62 529.56 a7.5 7.5 0 1 0 15 0 a7.5 7.5 0 1 0 -15 0zM1613.62 604.56 a7.5 7.5 0 1 0 15 0 a7.5 7.5 0 1 0 -15 0zM1548.67 642.06 a7.5 7.5 0 1 0 15 0 a7.5 7.5 0 1 0 -15 0zM1483.71 604.56 a7.5 7.5 0 1 0 15 0 a7.5 7.5 0 1 0 -15 0z" fill="#03305d"></path><path d="M52 73L95.31 98L95.31 148L52 173L8.7 148L8.7 98zM52 223L95.31 248L95.31 298L52 323L8.7 298L8.7 248zM8.7 298L52 323L52 373L8.7 398L-34.6 373L-34.6 323zM95.31 -2L138.61 23L138.61 73L95.31 98L52 73L52 23zM138.61 73L181.91 98L181.91 148L138.61 173L95.31 148L95.31 98zM95.31 148L138.61 173L138.61 223L95.31 248L52 223L52 173zM138.61 223L181.91 248L181.91 298L138.61 323L95.31 298L95.31 248zM138.61 373L181.91 398L181.91 448L138.61 473L95.31 448L95.31 398zM225.21 73L268.51 98L268.51 148L225.21 173L181.91 148L181.91 98zM225.21 223L268.51 248L268.51 298L225.21 323L181.91 298L181.91 248zM268.51 -2L311.82 23L311.82 73L268.51 98L225.21 73L225.21 23zM268.51 298L311.82 323L311.82 373L268.51 398L225.21 373L225.21 323zM311.82 523L355.12 548L355.12 598L311.82 623L268.51 598L268.51 548zM398.42 223L441.73 248L441.73 298L398.42 323L355.12 298L355.12 248zM398.42 523L441.73 548L441.73 598L398.42 623L355.12 598L355.12 548zM441.73 -2L485.03 23L485.03 73L441.73 98L398.42 73L398.42 23zM485.03 373L528.33 398L528.33 448L485.03 473L441.73 448L441.73 398zM441.73 448L485.03 473L485.03 523L441.73 548L398.42 523L398.42 473zM528.33 -2L571.63 23L571.63 73L528.33 98L485.03 73L485.03 23zM528.33 148L571.63 173L571.63 223L528.33 248L485.03 223L485.03 173zM571.63 223L614.94 248L614.94 298L571.63 323L528.33 298L528.33 248zM571.63 373L614.94 398L614.94 448L571.63 473L528.33 448L528.33 398zM528.33 448L571.63 473L571.63 523L528.33 548L485.03 523L485.03 473zM571.63 523L614.94 548L614.94 598L571.63 623L528.33 598L528.33 548zM614.94 -2L658.24 23L658.24 73L614.94 98L571.63 73L571.63 23zM658.24 223L701.54 248L701.54 298L658.24 323L614.94 298L614.94 248zM658.24 523L701.54 548L701.54 598L658.24 623L614.94 598L614.94 548zM744.84 73L788.15 98L788.15 148L744.84 173L701.54 148L701.54 98zM744.84 523L788.15 548L788.15 598L744.84 623L701.54 598L701.54 548zM788.15 -2L831.45 23L831.45 73L788.15 98L744.84 73L744.84 23zM831.45 73L874.75 98L874.75 148L831.45 173L788.15 148L788.15 98zM788.15 148L831.45 173L831.45 223L788.15 248L744.84 223L744.84 173zM788.15 448L831.45 473L831.45 523L788.15 548L744.84 523L744.84 473zM874.75 -2L918.05 23L918.05 73L874.75 98L831.45 73L831.45 23zM918.05 73L961.36 98L961.36 148L918.05 173L874.75 148L874.75 98zM918.05 223L961.36 248L961.36 298L918.05 323L874.75 298L874.75 248zM874.75 298L918.05 323L918.05 373L874.75 398L831.45 373L831.45 323zM918.05 523L961.36 548L961.36 598L918.05 623L874.75 598L874.75 548zM1004.66 223L1047.96 248L1047.96 298L1004.66 323L961.36 298L961.36 248zM961.36 298L1004.66 323L1004.66 373L961.36 398L918.05 373L918.05 323zM1004.66 373L1047.96 398L1047.96 448L1004.66 473L961.36 448L961.36 398zM961.36 448L1004.66 473L1004.66 523L961.36 548L918.05 523L918.05 473zM1004.66 523L1047.96 548L1047.96 598L1004.66 623L961.36 598L961.36 548zM1091.26 73L1134.57 98L1134.57 148L1091.26 173L1047.96 148L1047.96 98zM1047.96 148L1091.26 173L1091.26 223L1047.96 248L1004.66 223L1004.66 173zM1091.26 523L1134.57 548L1134.57 598L1091.26 623L1047.96 598L1047.96 548zM1177.87 223L1221.17 248L1221.17 298L1177.87 323L1134.57 298L1134.57 248zM1134.57 298L1177.87 323L1177.87 373L1134.57 398L1091.26 373L1091.26 323zM1177.87 373L1221.17 398L1221.17 448L1177.87 473L1134.57 448L1134.57 398zM1177.87 523L1221.17 548L1221.17 598L1177.87 623L1134.57 598L1134.57 548zM1221.17 -2L1264.47 23L1264.47 73L1221.17 98L1177.87 73L1177.87 23zM1264.47 373L1307.78 398L1307.78 448L1264.47 473L1221.17 448L1221.17 398zM1307.78 148L1351.08 173L1351.08 223L1307.78 248L1264.47 223L1264.47 173zM1351.08 223L1394.38 248L1394.38 298L1351.08 323L1307.78 298L1307.78 248zM1307.78 298L1351.08 323L1351.08 373L1307.78 398L1264.47 373L1264.47 323zM1437.68 223L1480.99 248L1480.99 298L1437.68 323L1394.38 298L1394.38 248zM1394.38 298L1437.68 323L1437.68 373L1394.38 398L1351.08 373L1351.08 323zM1437.68 373L1480.99 398L1480.99 448L1437.68 473L1394.38 448L1394.38 398z" stroke="rgba(6, 80, 156, 0.93)" stroke-width="2"></path></g><defs><mask id="SvgjsMask1000"><rect width="1440" height="560" fill="#ffffff"></rect></mask></defs></svg>