<svg xmlns="http://www.w3.org/2000/svg" version="1.1" xmlns:xlink="http://www.w3.org/1999/xlink" xmlns:svgjs="http://svgjs.com/svgjs" width="1440" height="560" preserveAspectRatio="none" viewBox="0 0 1440 560"><g mask="url(&quot;#SvgjsMask1018&quot;)" fill="none"><rect width="1440" height="560" x="0" y="0" fill="#0e2a47"></rect><path d="M-58.65 412.43L-58.65 412.43" stroke="#132e65" stroke-width="1.5"></path><path d="M-58.65 412.43L-70.12 519.12" stroke="#132e65" stroke-width="1.5"></path><path d="M-58.65 412.43L65.36 511.8" stroke="#132e65" stroke-width="1.5"></path><path d="M-58.65 412.43L101.14 384.57" stroke="#132e65" stroke-width="1.5"></path><path d="M-58.65 412.43L-52.47 656.56" stroke="#132e65" stroke-width="1.5"></path><path d="M-58.65 412.43L202.41 404.62" stroke="#132e65" stroke-width="1.5"></path><path d="M-70.12 519.12L-70.12 519.12" stroke="#132e65" stroke-width="1.5"></path><path d="M-70.12 519.12L65.36 511.8" stroke="#132e65" stroke-width="1.5"></path><path d="M-70.12 519.12L-52.47 656.56" stroke="#132e65" stroke-width="1.5"></path><path d="M-70.12 519.12L75.38 663.92" stroke="#132e65" stroke-width="1.5"></path><path d="M-70.12 519.12L101.14 384.57" stroke="#132e65" stroke-width="1.5"></path><path d="M-52.47 656.56L-52.47 656.56" stroke="#132e65" stroke-width="1.5"></path><path d="M-52.47 656.56L75.38 663.92" stroke="#132e65" stroke-width="1.5"></path><path d="M-52.47 656.56L65.36 511.8" stroke="#132e65" stroke-width="1.5"></path><path d="M101.14 384.57L101.14 384.57" stroke="#132e65" stroke-width="1.5"></path><path d="M101.14 384.57L202.41 404.62" stroke="#132e65" stroke-width="1.5"></path><path d="M65.36 511.8L65.36 511.8" stroke="#132e65" stroke-width="1.5"></path><path d="M65.36 511.8L188.27 548.24" stroke="#132e65" stroke-width="1.5"></path><path d="M65.36 511.8L101.14 384.57" stroke="#132e65" stroke-width="1.5"></path><path d="M65.36 511.8L75.38 663.92" stroke="#132e65" stroke-width="1.5"></path><path d="M65.36 511.8L202.41 404.62" stroke="#132e65" stroke-width="1.5"></path><path d="M75.38 663.92L75.38 663.92" stroke="#132e65" stroke-width="1.5"></path><path d="M75.38 663.92L221.11 650.23" stroke="#132e65" stroke-width="1.5"></path><path d="M202.41 404.62L202.41 404.62" stroke="#132e65" stroke-width="1.5"></path><path d="M202.41 404.62L188.27 548.24" stroke="#132e65" stroke-width="1.5"></path><path d="M202.41 404.62L404.3 401.98" stroke="#132e65" stroke-width="1.5"></path><path d="M202.41 404.62L393.73 543.24" stroke="#132e65" stroke-width="1.5"></path><path d="M188.27 548.24L188.27 548.24" stroke="#132e65" stroke-width="1.5"></path><path d="M188.27 548.24L221.11 650.23" stroke="#132e65" stroke-width="1.5"></path><path d="M188.27 548.24L75.38 663.92" stroke="#132e65" stroke-width="1.5"></path><path d="M188.27 548.24L101.14 384.57" stroke="#132e65" stroke-width="1.5"></path><path d="M188.27 548.24L393.73 543.24" stroke="#132e65" stroke-width="1.5"></path><path d="M221.11 650.23L221.11 650.23" stroke="#132e65" stroke-width="1.5"></path><path d="M221.11 650.23L360.17 681.55" stroke="#132e65" stroke-width="1.5"></path><path d="M221.11 650.23L393.73 543.24" stroke="#132e65" stroke-width="1.5"></path><path d="M221.11 650.23L65.36 511.8" stroke="#132e65" stroke-width="1.5"></path><path d="M221.11 650.23L202.41 404.62" stroke="#132e65" stroke-width="1.5"></path><path d="M404.3 401.98L404.3 401.98" stroke="#132e65" stroke-width="1.5"></path><path d="M404.3 401.98L503.48 405.2" stroke="#132e65" stroke-width="1.5"></path><path d="M404.3 401.98L393.73 543.24" stroke="#132e65" stroke-width="1.5"></path><path d="M404.3 401.98L560.83 522.84" stroke="#132e65" stroke-width="1.5"></path><path d="M404.3 401.98L188.27 548.24" stroke="#132e65" stroke-width="1.5"></path><path d="M404.3 401.98L675.39 407.8" stroke="#132e65" stroke-width="1.5"></path><path d="M393.73 543.24L393.73 543.24" stroke="#132e65" stroke-width="1.5"></path><path d="M393.73 543.24L360.17 681.55" stroke="#132e65" stroke-width="1.5"></path><path d="M393.73 543.24L560.83 522.84" stroke="#132e65" stroke-width="1.5"></path><path d="M393.73 543.24L501.18 682.95" stroke="#132e65" stroke-width="1.5"></path><path d="M360.17 681.55L360.17 681.55" stroke="#132e65" stroke-width="1.5"></path><path d="M360.17 681.55L501.18 682.95" stroke="#132e65" stroke-width="1.5"></path><path d="M360.17 681.55L188.27 548.24" stroke="#132e65" stroke-width="1.5"></path><path d="M360.17 681.55L560.83 522.84" stroke="#132e65" stroke-width="1.5"></path><path d="M360.17 681.55L404.3 401.98" stroke="#132e65" stroke-width="1.5"></path><path d="M503.48 405.2L503.48 405.2" stroke="#132e65" stroke-width="1.5"></path><path d="M503.48 405.2L560.83 522.84" stroke="#132e65" stroke-width="1.5"></path><path d="M503.48 405.2L675.39 407.8" stroke="#132e65" stroke-width="1.5"></path><path d="M503.48 405.2L393.73 543.24" stroke="#132e65" stroke-width="1.5"></path><path d="M560.83 522.84L560.83 522.84" stroke="#132e65" stroke-width="1.5"></path><path d="M560.83 522.84L677.52 520.67" stroke="#132e65" stroke-width="1.5"></path><path d="M560.83 522.84L675.39 407.8" stroke="#132e65" stroke-width="1.5"></path><path d="M560.83 522.84L501.18 682.95" stroke="#132e65" stroke-width="1.5"></path><path d="M501.18 682.95L501.18 682.95" stroke="#132e65" stroke-width="1.5"></path><path d="M501.18 682.95L690.8 711.82" stroke="#132e65" stroke-width="1.5"></path><path d="M704.79 223.35L704.79 223.35" stroke="#132e65" stroke-width="1.5"></path><path d="M704.79 223.35L787.97 262.01" stroke="#132e65" stroke-width="1.5"></path><path d="M704.79 223.35L675.39 407.8" stroke="#132e65" stroke-width="1.5"></path><path d="M704.79 223.35L792.58 401.13" stroke="#132e65" stroke-width="1.5"></path><path d="M675.39 407.8L675.39 407.8" stroke="#132e65" stroke-width="1.5"></path><path d="M675.39 407.8L677.52 520.67" stroke="#132e65" stroke-width="1.5"></path><path d="M675.39 407.8L792.58 401.13" stroke="#132e65" stroke-width="1.5"></path><path d="M675.39 407.8L804.5 494.35" stroke="#132e65" stroke-width="1.5"></path><path d="M677.52 520.67L677.52 520.67" stroke="#132e65" stroke-width="1.5"></path><path d="M677.52 520.67L804.5 494.35" stroke="#132e65" stroke-width="1.5"></path><path d="M677.52 520.67L792.58 401.13" stroke="#132e65" stroke-width="1.5"></path><path d="M690.8 711.82L690.8 711.82" stroke="#132e65" stroke-width="1.5"></path><path d="M690.8 711.82L821.42 670.05" stroke="#132e65" stroke-width="1.5"></path><path d="M690.8 711.82L677.52 520.67" stroke="#132e65" stroke-width="1.5"></path><path d="M690.8 711.82L560.83 522.84" stroke="#132e65" stroke-width="1.5"></path><path d="M690.8 711.82L804.5 494.35" stroke="#132e65" stroke-width="1.5"></path><path d="M690.8 711.82L675.39 407.8" stroke="#132e65" stroke-width="1.5"></path><path d="M787.97 262.01L787.97 262.01" stroke="#132e65" stroke-width="1.5"></path><path d="M787.97 262.01L792.58 401.13" stroke="#132e65" stroke-width="1.5"></path><path d="M787.97 262.01L965.1 215.91" stroke="#132e65" stroke-width="1.5"></path><path d="M787.97 262.01L675.39 407.8" stroke="#132e65" stroke-width="1.5"></path><path d="M787.97 262.01L804.5 494.35" stroke="#132e65" stroke-width="1.5"></path><path d="M787.97 262.01L964.69 99.12" stroke="#132e65" stroke-width="1.5"></path><path d="M792.58 401.13L792.58 401.13" stroke="#132e65" stroke-width="1.5"></path><path d="M792.58 401.13L804.5 494.35" stroke="#132e65" stroke-width="1.5"></path><path d="M804.5 494.35L804.5 494.35" stroke="#132e65" stroke-width="1.5"></path><path d="M804.5 494.35L821.42 670.05" stroke="#132e65" stroke-width="1.5"></path><path d="M821.42 670.05L821.42 670.05" stroke="#132e65" stroke-width="1.5"></path><path d="M952.69 -83.44L952.69 -83.44" stroke="#132e65" stroke-width="1.5"></path><path d="M952.69 -83.44L1124.98 -73.29" stroke="#132e65" stroke-width="1.5"></path><path d="M952.69 -83.44L964.69 99.12" stroke="#132e65" stroke-width="1.5"></path><path d="M952.69 -83.44L1137.92 68.65" stroke="#132e65" stroke-width="1.5"></path><path d="M952.69 -83.44L1248.47 -69.31" stroke="#132e65" stroke-width="1.5"></path><path d="M952.69 -83.44L965.1 215.91" stroke="#132e65" stroke-width="1.5"></path><path d="M964.69 99.12L964.69 99.12" stroke="#132e65" stroke-width="1.5"></path><path d="M964.69 99.12L965.1 215.91" stroke="#132e65" stroke-width="1.5"></path><path d="M964.69 99.12L1137.92 68.65" stroke="#132e65" stroke-width="1.5"></path><path d="M965.1 215.91L965.1 215.91" stroke="#132e65" stroke-width="1.5"></path><path d="M965.1 215.91L1131.39 201.91" stroke="#132e65" stroke-width="1.5"></path><path d="M965.1 215.91L996.23 401.95" stroke="#132e65" stroke-width="1.5"></path><path d="M965.1 215.91L1090.47 371.68" stroke="#132e65" stroke-width="1.5"></path><path d="M965.1 215.91L1137.92 68.65" stroke="#132e65" stroke-width="1.5"></path><path d="M996.23 401.95L996.23 401.95" stroke="#132e65" stroke-width="1.5"></path><path d="M996.23 401.95L1090.47 371.68" stroke="#132e65" stroke-width="1.5"></path><path d="M996.23 401.95L975.93 548.34" stroke="#132e65" stroke-width="1.5"></path><path d="M996.23 401.95L792.58 401.13" stroke="#132e65" stroke-width="1.5"></path><path d="M996.23 401.95L804.5 494.35" stroke="#132e65" stroke-width="1.5"></path><path d="M996.23 401.95L1131.39 201.91" stroke="#132e65" stroke-width="1.5"></path><path d="M975.93 548.34L975.93 548.34" stroke="#132e65" stroke-width="1.5"></path><path d="M975.93 548.34L1000.79 683.66" stroke="#132e65" stroke-width="1.5"></path><path d="M975.93 548.34L804.5 494.35" stroke="#132e65" stroke-width="1.5"></path><path d="M975.93 548.34L821.42 670.05" stroke="#132e65" stroke-width="1.5"></path><path d="M975.93 548.34L1154.8 650.85" stroke="#132e65" stroke-width="1.5"></path><path d="M1000.79 683.66L1000.79 683.66" stroke="#132e65" stroke-width="1.5"></path><path d="M1000.79 683.66L1154.8 650.85" stroke="#132e65" stroke-width="1.5"></path><path d="M1000.79 683.66L821.42 670.05" stroke="#132e65" stroke-width="1.5"></path><path d="M1124.98 -73.29L1124.98 -73.29" stroke="#132e65" stroke-width="1.5"></path><path d="M1124.98 -73.29L1248.47 -69.31" stroke="#132e65" stroke-width="1.5"></path><path d="M1124.98 -73.29L1137.92 68.65" stroke="#132e65" stroke-width="1.5"></path><path d="M1137.92 68.65L1137.92 68.65" stroke="#132e65" stroke-width="1.5"></path><path d="M1137.92 68.65L1131.39 201.91" stroke="#132e65" stroke-width="1.5"></path><path d="M1137.92 68.65L1309.13 63.79" stroke="#132e65" stroke-width="1.5"></path><path d="M1131.39 201.91L1131.39 201.91" stroke="#132e65" stroke-width="1.5"></path><path d="M1131.39 201.91L1263.94 261.44" stroke="#132e65" stroke-width="1.5"></path><path d="M1131.39 201.91L1090.47 371.68" stroke="#132e65" stroke-width="1.5"></path><path d="M1090.47 371.68L1090.47 371.68" stroke="#132e65" stroke-width="1.5"></path><path d="M1154.8 650.85L1154.8 650.85" stroke="#132e65" stroke-width="1.5"></path><path d="M1154.8 650.85L1272.08 709.98" stroke="#132e65" stroke-width="1.5"></path><path d="M1154.8 650.85L1276.26 532.83" stroke="#132e65" stroke-width="1.5"></path><path d="M1248.47 -69.31L1248.47 -69.31" stroke="#132e65" stroke-width="1.5"></path><path d="M1248.47 -69.31L1309.13 63.79" stroke="#132e65" stroke-width="1.5"></path><path d="M1248.47 -69.31L1137.92 68.65" stroke="#132e65" stroke-width="1.5"></path><path d="M1248.47 -69.31L1400.65 108.53" stroke="#132e65" stroke-width="1.5"></path><path d="M1309.13 63.79L1309.13 63.79" stroke="#132e65" stroke-width="1.5"></path><path d="M1309.13 63.79L1400.65 108.53" stroke="#132e65" stroke-width="1.5"></path><path d="M1309.13 63.79L1263.94 261.44" stroke="#132e65" stroke-width="1.5"></path><path d="M1309.13 63.79L1131.39 201.91" stroke="#132e65" stroke-width="1.5"></path><path d="M1309.13 63.79L1124.98 -73.29" stroke="#132e65" stroke-width="1.5"></path><path d="M1263.94 261.44L1263.94 261.44" stroke="#132e65" stroke-width="1.5"></path><path d="M1263.94 261.44L1284.47 408.07" stroke="#132e65" stroke-width="1.5"></path><path d="M1263.94 261.44L1394.34 375.66" stroke="#132e65" stroke-width="1.5"></path><path d="M1284.47 408.07L1284.47 408.07" stroke="#132e65" stroke-width="1.5"></path><path d="M1284.47 408.07L1394.34 375.66" stroke="#132e65" stroke-width="1.5"></path><path d="M1284.47 408.07L1276.26 532.83" stroke="#132e65" stroke-width="1.5"></path><path d="M1284.47 408.07L1387.9 495.68" stroke="#132e65" stroke-width="1.5"></path><path d="M1276.26 532.83L1276.26 532.83" stroke="#132e65" stroke-width="1.5"></path><path d="M1276.26 532.83L1387.9 495.68" stroke="#132e65" stroke-width="1.5"></path><path d="M1276.26 532.83L1272.08 709.98" stroke="#132e65" stroke-width="1.5"></path><path d="M1276.26 532.83L1394.34 375.66" stroke="#132e65" stroke-width="1.5"></path><path d="M1276.26 532.83L1397.98 703.89" stroke="#132e65" stroke-width="1.5"></path><path d="M1272.08 709.98L1272.08 709.98" stroke="#132e65" stroke-width="1.5"></path><path d="M1272.08 709.98L1397.98 703.89" stroke="#132e65" stroke-width="1.5"></path><path d="M1400.65 108.53L1400.65 108.53" stroke="#132e65" stroke-width="1.5"></path><path d="M1400.65 108.53L1455.26 253.27" stroke="#132e65" stroke-width="1.5"></path><path d="M1455.26 253.27L1455.26 253.27" stroke="#132e65" stroke-width="1.5"></path><path d="M1455.26 253.27L1568.57 195.91" stroke="#132e65" stroke-width="1.5"></path><path d="M1455.26 253.27L1394.34 375.66" stroke="#132e65" stroke-width="1.5"></path><path d="M1455.26 253.27L1553.13 349.49" stroke="#132e65" stroke-width="1.5"></path><path d="M1394.34 375.66L1394.34 375.66" stroke="#132e65" stroke-width="1.5"></path><path d="M1394.34 375.66L1387.9 495.68" stroke="#132e65" stroke-width="1.5"></path><path d="M1387.9 495.68L1387.9 495.68" stroke="#132e65" stroke-width="1.5"></path><path d="M1387.9 495.68L1397.98 703.89" stroke="#132e65" stroke-width="1.5"></path><path d="M1387.9 495.68L1553.13 349.49" stroke="#132e65" stroke-width="1.5"></path><path d="M1397.98 703.89L1397.98 703.89" stroke="#132e65" stroke-width="1.5"></path><path d="M1579.81 -87.53L1579.81 -87.53" stroke="#132e65" stroke-width="1.5"></path><path d="M1579.81 -87.53L1585.61 62.09" stroke="#132e65" stroke-width="1.5"></path><path d="M1579.81 -87.53L1400.65 108.53" stroke="#132e65" stroke-width="1.5"></path><path d="M1579.81 -87.53L1568.57 195.91" stroke="#132e65" stroke-width="1.5"></path><path d="M1579.81 -87.53L1309.13 63.79" stroke="#132e65" stroke-width="1.5"></path><path d="M1579.81 -87.53L1248.47 -69.31" stroke="#132e65" stroke-width="1.5"></path><path d="M1585.61 62.09L1585.61 62.09" stroke="#132e65" stroke-width="1.5"></path><path d="M1585.61 62.09L1568.57 195.91" stroke="#132e65" stroke-width="1.5"></path><path d="M1585.61 62.09L1400.65 108.53" stroke="#132e65" stroke-width="1.5"></path><path d="M1585.61 62.09L1455.26 253.27" stroke="#132e65" stroke-width="1.5"></path><path d="M1568.57 195.91L1568.57 195.91" stroke="#132e65" stroke-width="1.5"></path><path d="M1553.13 349.49L1553.13 349.49" stroke="#132e65" stroke-width="1.5"></path><path d="M1553.13 349.49L1568.57 195.91" stroke="#132e65" stroke-width="1.5"></path><path d="M1553.13 349.49L1394.34 375.66" stroke="#132e65" stroke-width="1.5"></path><path d="M1602.5 650.97L1602.5 650.97" stroke="#132e65" stroke-width="1.5"></path><path d="M1602.5 650.97L1397.98 703.89" stroke="#132e65" stroke-width="1.5"></path><path d="M1602.5 650.97L1387.9 495.68" stroke="#132e65" stroke-width="1.5"></path><circle r="5" cx="-58.65" cy="412.43" fill="#132e65"></circle><circle r="5" cx="-70.12" cy="519.12" fill="#132e65"></circle><circle r="5" cx="-52.47" cy="656.56" fill="#132e65"></circle><circle r="5" cx="101.14" cy="384.57" fill="#132e65"></circle><circle r="5" cx="65.36" cy="511.8" fill="#132e65"></circle><circle r="5" cx="75.38" cy="663.92" fill="#132e65"></circle><circle r="5" cx="202.41" cy="404.62" fill="#132e65"></circle><circle r="5" cx="188.27" cy="548.24" fill="#132e65"></circle><circle r="5" cx="221.11" cy="650.23" fill="#132e65"></circle><circle r="5" cx="404.3" cy="401.98" fill="#132e65"></circle><circle r="5" cx="393.73" cy="543.24" fill="#132e65"></circle><circle r="5" cx="360.17" cy="681.55" fill="#132e65"></circle><circle r="5" cx="503.48" cy="405.2" fill="#132e65"></circle><circle r="5" cx="560.83" cy="522.84" fill="#132e65"></circle><circle r="5" cx="501.18" cy="682.95" fill="#132e65"></circle><circle r="5" cx="704.79" cy="223.35" fill="#132e65"></circle><circle r="5" cx="675.39" cy="407.8" fill="#132e65"></circle><circle r="5" cx="677.52" cy="520.67" fill="#132e65"></circle><circle r="5" cx="690.8" cy="711.82" fill="#132e65"></circle><circle r="5" cx="787.97" cy="262.01" fill="#132e65"></circle><circle r="5" cx="792.58" cy="401.13" fill="#132e65"></circle><circle r="5" cx="804.5" cy="494.35" fill="#132e65"></circle><circle r="5" cx="821.42" cy="670.05" fill="#132e65"></circle><circle r="5" cx="952.69" cy="-83.44" fill="#132e65"></circle><circle r="5" cx="964.69" cy="99.12" fill="#132e65"></circle><circle r="5" cx="965.1" cy="215.91" fill="#132e65"></circle><circle r="5" cx="996.23" cy="401.95" fill="#132e65"></circle><circle r="5" cx="975.93" cy="548.34" fill="#132e65"></circle><circle r="5" cx="1000.79" cy="683.66" fill="#132e65"></circle><circle r="5" cx="1124.98" cy="-73.29" fill="#132e65"></circle><circle r="5" cx="1137.92" cy="68.65" fill="#132e65"></circle><circle r="5" cx="1131.39" cy="201.91" fill="#132e65"></circle><circle r="5" cx="1090.47" cy="371.68" fill="#132e65"></circle><circle r="5" cx="1154.8" cy="650.85" fill="#132e65"></circle><circle r="5" cx="1248.47" cy="-69.31" fill="#132e65"></circle><circle r="5" cx="1309.13" cy="63.79" fill="#132e65"></circle><circle r="5" cx="1263.94" cy="261.44" fill="#132e65"></circle><circle r="5" cx="1284.47" cy="408.07" fill="#132e65"></circle><circle r="5" cx="1276.26" cy="532.83" fill="#132e65"></circle><circle r="5" cx="1272.08" cy="709.98" fill="#132e65"></circle><circle r="5" cx="1400.65" cy="108.53" fill="#132e65"></circle><circle r="5" cx="1455.26" cy="253.27" fill="#132e65"></circle><circle r="5" cx="1394.34" cy="375.66" fill="#132e65"></circle><circle r="5" cx="1387.9" cy="495.68" fill="#132e65"></circle><circle r="5" cx="1397.98" cy="703.89" fill="#132e65"></circle><circle r="5" cx="1579.81" cy="-87.53" fill="#132e65"></circle><circle r="5" cx="1585.61" cy="62.09" fill="#132e65"></circle><circle r="5" cx="1568.57" cy="195.91" fill="#132e65"></circle><circle r="5" cx="1553.13" cy="349.49" fill="#132e65"></circle><circle r="5" cx="1602.5" cy="650.97" fill="#132e65"></circle><path d="M248.24 677.93L248.24 677.93" stroke="hsl(228.5, 77.2%, 51.5%)" stroke-width="1.5"></path><path d="M248.24 677.93L393.06 640.29" stroke="hsl(228.5, 77.2%, 51.5%)" stroke-width="1.5"></path><path d="M248.24 677.93L367.3 538.47" stroke="hsl(228.5, 77.2%, 51.5%)" stroke-width="1.5"></path><path d="M248.24 677.93L58.73 679.89" stroke="hsl(228.5, 77.2%, 51.5%)" stroke-width="1.5"></path><path d="M248.24 677.93L197.17 490.72" stroke="hsl(228.5, 77.2%, 51.5%)" stroke-width="1.5"></path><path d="M393.06 640.29L393.06 640.29" stroke="hsl(228.5, 77.2%, 51.5%)" stroke-width="1.5"></path><path d="M393.06 640.29L367.3 538.47" stroke="hsl(228.5, 77.2%, 51.5%)" stroke-width="1.5"></path><path d="M393.06 640.29L506.3 680.92" stroke="hsl(228.5, 77.2%, 51.5%)" stroke-width="1.5"></path><path d="M506.3 680.92L506.3 680.92" stroke="hsl(228.5, 77.2%, 51.5%)" stroke-width="1.5"></path><path d="M506.3 680.92L549.34 549.56" stroke="hsl(228.5, 77.2%, 51.5%)" stroke-width="1.5"></path><path d="M814.39 665.07L814.39 665.07" stroke="hsl(228.5, 77.2%, 51.5%)" stroke-width="1.5"></path><path d="M814.39 665.07L819.91 550.75" stroke="hsl(228.5, 77.2%, 51.5%)" stroke-width="1.5"></path><path d="M1430.86 217.68L1430.86 217.68" stroke="hsl(228.5, 77.2%, 51.5%)" stroke-width="1.5"></path><path d="M1430.86 217.68L1398.64 70.59" stroke="hsl(228.5, 77.2%, 51.5%)" stroke-width="1.5"></path><path d="M1430.86 217.68L1580.15 194.23" stroke="hsl(228.5, 77.2%, 51.5%)" stroke-width="1.5"></path><path d="M1611.57 -102.02L1611.57 -102.02" stroke="hsl(228.5, 77.2%, 51.5%)" stroke-width="1.5"></path><path d="M1611.57 -102.02L1443.01 -42.83" stroke="hsl(228.5, 77.2%, 51.5%)" stroke-width="1.5"></path><path d="M1611.57 -102.02L1398.64 70.59" stroke="hsl(228.5, 77.2%, 51.5%)" stroke-width="1.5"></path><path d="M1611.57 -102.02L1580.15 194.23" stroke="hsl(228.5, 77.2%, 51.5%)" stroke-width="1.5"></path><path d="M1586.5 365.56L1586.5 365.56" stroke="hsl(228.5, 77.2%, 51.5%)" stroke-width="1.5"></path><path d="M1586.5 365.56L1444.78 393.1" stroke="hsl(228.5, 77.2%, 51.5%)" stroke-width="1.5"></path><path d="M-37.73 534.25L-37.73 534.25" stroke="hsl(228.5, 77.2%, 51.5%)" stroke-width="1.5"></path><path d="M-37.73 534.25L64.08 495.45" stroke="hsl(228.5, 77.2%, 51.5%)" stroke-width="1.5"></path><path d="M-37.73 534.25L58.73 679.89" stroke="hsl(228.5, 77.2%, 51.5%)" stroke-width="1.5"></path><path d="M-37.73 534.25L197.17 490.72" stroke="hsl(228.5, 77.2%, 51.5%)" stroke-width="1.5"></path><path d="M-37.73 534.25L248.24 677.93" stroke="hsl(228.5, 77.2%, 51.5%)" stroke-width="1.5"></path><path d="M-37.73 534.25L367.3 538.47" stroke="hsl(228.5, 77.2%, 51.5%)" stroke-width="1.5"></path><path d="M64.08 495.45L64.08 495.45" stroke="hsl(228.5, 77.2%, 51.5%)" stroke-width="1.5"></path><path d="M64.08 495.45L197.17 490.72" stroke="hsl(228.5, 77.2%, 51.5%)" stroke-width="1.5"></path><path d="M64.08 495.45L58.73 679.89" stroke="hsl(228.5, 77.2%, 51.5%)" stroke-width="1.5"></path><path d="M64.08 495.45L248.24 677.93" stroke="hsl(228.5, 77.2%, 51.5%)" stroke-width="1.5"></path><path d="M64.08 495.45L367.3 538.47" stroke="hsl(228.5, 77.2%, 51.5%)" stroke-width="1.5"></path><path d="M58.73 679.89L58.73 679.89" stroke="hsl(228.5, 77.2%, 51.5%)" stroke-width="1.5"></path><path d="M58.73 679.89L197.17 490.72" stroke="hsl(228.5, 77.2%, 51.5%)" stroke-width="1.5"></path><path d="M58.73 679.89L393.06 640.29" stroke="hsl(228.5, 77.2%, 51.5%)" stroke-width="1.5"></path><path d="M58.73 679.89L367.3 538.47" stroke="hsl(228.5, 77.2%, 51.5%)" stroke-width="1.5"></path><path d="M197.17 490.72L197.17 490.72" stroke="hsl(228.5, 77.2%, 51.5%)" stroke-width="1.5"></path><path d="M197.17 490.72L367.3 538.47" stroke="hsl(228.5, 77.2%, 51.5%)" stroke-width="1.5"></path><path d="M367.3 538.47L367.3 538.47" stroke="hsl(228.5, 77.2%, 51.5%)" stroke-width="1.5"></path><path d="M537.62 400.87L537.62 400.87" stroke="hsl(228.5, 77.2%, 51.5%)" stroke-width="1.5"></path><path d="M537.62 400.87L549.34 549.56" stroke="hsl(228.5, 77.2%, 51.5%)" stroke-width="1.5"></path><path d="M537.62 400.87L654.66 510.64" stroke="hsl(228.5, 77.2%, 51.5%)" stroke-width="1.5"></path><path d="M537.62 400.87L367.3 538.47" stroke="hsl(228.5, 77.2%, 51.5%)" stroke-width="1.5"></path><path d="M537.62 400.87L393.06 640.29" stroke="hsl(228.5, 77.2%, 51.5%)" stroke-width="1.5"></path><path d="M537.62 400.87L506.3 680.92" stroke="hsl(228.5, 77.2%, 51.5%)" stroke-width="1.5"></path><path d="M549.34 549.56L549.34 549.56" stroke="hsl(228.5, 77.2%, 51.5%)" stroke-width="1.5"></path><path d="M549.34 549.56L654.66 510.64" stroke="hsl(228.5, 77.2%, 51.5%)" stroke-width="1.5"></path><path d="M654.66 510.64L654.66 510.64" stroke="hsl(228.5, 77.2%, 51.5%)" stroke-width="1.5"></path><path d="M654.66 510.64L819.91 550.75" stroke="hsl(228.5, 77.2%, 51.5%)" stroke-width="1.5"></path><path d="M654.66 510.64L706.77 708.47" stroke="hsl(228.5, 77.2%, 51.5%)" stroke-width="1.5"></path><path d="M654.66 510.64L826.03 374.69" stroke="hsl(228.5, 77.2%, 51.5%)" stroke-width="1.5"></path><path d="M654.66 510.64L814.39 665.07" stroke="hsl(228.5, 77.2%, 51.5%)" stroke-width="1.5"></path><path d="M706.77 708.47L706.77 708.47" stroke="hsl(228.5, 77.2%, 51.5%)" stroke-width="1.5"></path><path d="M706.77 708.47L814.39 665.07" stroke="hsl(228.5, 77.2%, 51.5%)" stroke-width="1.5"></path><path d="M706.77 708.47L819.91 550.75" stroke="hsl(228.5, 77.2%, 51.5%)" stroke-width="1.5"></path><path d="M706.77 708.47L506.3 680.92" stroke="hsl(228.5, 77.2%, 51.5%)" stroke-width="1.5"></path><path d="M826.03 374.69L826.03 374.69" stroke="hsl(228.5, 77.2%, 51.5%)" stroke-width="1.5"></path><path d="M826.03 374.69L943.68 352.09" stroke="hsl(228.5, 77.2%, 51.5%)" stroke-width="1.5"></path><path d="M826.03 374.69L819.91 550.75" stroke="hsl(228.5, 77.2%, 51.5%)" stroke-width="1.5"></path><path d="M819.91 550.75L819.91 550.75" stroke="hsl(228.5, 77.2%, 51.5%)" stroke-width="1.5"></path><path d="M819.91 550.75L999.95 519.11" stroke="hsl(228.5, 77.2%, 51.5%)" stroke-width="1.5"></path><path d="M943.68 352.09L943.68 352.09" stroke="hsl(228.5, 77.2%, 51.5%)" stroke-width="1.5"></path><path d="M943.68 352.09L999.95 519.11" stroke="hsl(228.5, 77.2%, 51.5%)" stroke-width="1.5"></path><path d="M999.95 519.11L999.95 519.11" stroke="hsl(228.5, 77.2%, 51.5%)" stroke-width="1.5"></path><path d="M999.95 519.11L1120.08 535.04" stroke="hsl(228.5, 77.2%, 51.5%)" stroke-width="1.5"></path><path d="M1156.44 95.51L1156.44 95.51" stroke="hsl(228.5, 77.2%, 51.5%)" stroke-width="1.5"></path><path d="M1156.44 95.51L1243.95 201.86" stroke="hsl(228.5, 77.2%, 51.5%)" stroke-width="1.5"></path><path d="M1156.44 95.51L1096.01 242.66" stroke="hsl(228.5, 77.2%, 51.5%)" stroke-width="1.5"></path><path d="M1156.44 95.51L1294.46 -92.89" stroke="hsl(228.5, 77.2%, 51.5%)" stroke-width="1.5"></path><path d="M1156.44 95.51L1398.64 70.59" stroke="hsl(228.5, 77.2%, 51.5%)" stroke-width="1.5"></path><path d="M1156.44 95.51L1121.77 367.95" stroke="hsl(228.5, 77.2%, 51.5%)" stroke-width="1.5"></path><path d="M1156.44 95.51L1430.86 217.68" stroke="hsl(228.5, 77.2%, 51.5%)" stroke-width="1.5"></path><path d="M1096.01 242.66L1096.01 242.66" stroke="hsl(228.5, 77.2%, 51.5%)" stroke-width="1.5"></path><path d="M1096.01 242.66L1121.77 367.95" stroke="hsl(228.5, 77.2%, 51.5%)" stroke-width="1.5"></path><path d="M1096.01 242.66L1243.95 201.86" stroke="hsl(228.5, 77.2%, 51.5%)" stroke-width="1.5"></path><path d="M1096.01 242.66L943.68 352.09" stroke="hsl(228.5, 77.2%, 51.5%)" stroke-width="1.5"></path><path d="M1121.77 367.95L1121.77 367.95" stroke="hsl(228.5, 77.2%, 51.5%)" stroke-width="1.5"></path><path d="M1121.77 367.95L1268.74 396.87" stroke="hsl(228.5, 77.2%, 51.5%)" stroke-width="1.5"></path><path d="M1121.77 367.95L1120.08 535.04" stroke="hsl(228.5, 77.2%, 51.5%)" stroke-width="1.5"></path><path d="M1121.77 367.95L943.68 352.09" stroke="hsl(228.5, 77.2%, 51.5%)" stroke-width="1.5"></path><path d="M1121.77 367.95L999.95 519.11" stroke="hsl(228.5, 77.2%, 51.5%)" stroke-width="1.5"></path><path d="M1121.77 367.95L1243.95 201.86" stroke="hsl(228.5, 77.2%, 51.5%)" stroke-width="1.5"></path><path d="M1120.08 535.04L1120.08 535.04" stroke="hsl(228.5, 77.2%, 51.5%)" stroke-width="1.5"></path><path d="M1120.08 535.04L1257.41 534.29" stroke="hsl(228.5, 77.2%, 51.5%)" stroke-width="1.5"></path><path d="M1120.08 535.04L1123.61 705.98" stroke="hsl(228.5, 77.2%, 51.5%)" stroke-width="1.5"></path><path d="M1123.61 705.98L1123.61 705.98" stroke="hsl(228.5, 77.2%, 51.5%)" stroke-width="1.5"></path><path d="M1123.61 705.98L1279.47 700.25" stroke="hsl(228.5, 77.2%, 51.5%)" stroke-width="1.5"></path><path d="M1123.61 705.98L1257.41 534.29" stroke="hsl(228.5, 77.2%, 51.5%)" stroke-width="1.5"></path><path d="M1123.61 705.98L999.95 519.11" stroke="hsl(228.5, 77.2%, 51.5%)" stroke-width="1.5"></path><path d="M1123.61 705.98L814.39 665.07" stroke="hsl(228.5, 77.2%, 51.5%)" stroke-width="1.5"></path><path d="M1294.46 -92.89L1294.46 -92.89" stroke="hsl(228.5, 77.2%, 51.5%)" stroke-width="1.5"></path><path d="M1294.46 -92.89L1443.01 -42.83" stroke="hsl(228.5, 77.2%, 51.5%)" stroke-width="1.5"></path><path d="M1294.46 -92.89L1398.64 70.59" stroke="hsl(228.5, 77.2%, 51.5%)" stroke-width="1.5"></path><path d="M1243.95 201.86L1243.95 201.86" stroke="hsl(228.5, 77.2%, 51.5%)" stroke-width="1.5"></path><path d="M1268.74 396.87L1268.74 396.87" stroke="hsl(228.5, 77.2%, 51.5%)" stroke-width="1.5"></path><path d="M1268.74 396.87L1257.41 534.29" stroke="hsl(228.5, 77.2%, 51.5%)" stroke-width="1.5"></path><path d="M1268.74 396.87L1444.78 393.1" stroke="hsl(228.5, 77.2%, 51.5%)" stroke-width="1.5"></path><path d="M1268.74 396.87L1243.95 201.86" stroke="hsl(228.5, 77.2%, 51.5%)" stroke-width="1.5"></path><path d="M1268.74 396.87L1427.41 521.25" stroke="hsl(228.5, 77.2%, 51.5%)" stroke-width="1.5"></path><path d="M1268.74 396.87L1120.08 535.04" stroke="hsl(228.5, 77.2%, 51.5%)" stroke-width="1.5"></path><path d="M1257.41 534.29L1257.41 534.29" stroke="hsl(228.5, 77.2%, 51.5%)" stroke-width="1.5"></path><path d="M1257.41 534.29L1279.47 700.25" stroke="hsl(228.5, 77.2%, 51.5%)" stroke-width="1.5"></path><path d="M1257.41 534.29L1427.41 521.25" stroke="hsl(228.5, 77.2%, 51.5%)" stroke-width="1.5"></path><path d="M1257.41 534.29L1121.77 367.95" stroke="hsl(228.5, 77.2%, 51.5%)" stroke-width="1.5"></path><path d="M1279.47 700.25L1279.47 700.25" stroke="hsl(228.5, 77.2%, 51.5%)" stroke-width="1.5"></path><path d="M1279.47 700.25L1460.79 710.34" stroke="hsl(228.5, 77.2%, 51.5%)" stroke-width="1.5"></path><path d="M1443.01 -42.83L1443.01 -42.83" stroke="hsl(228.5, 77.2%, 51.5%)" stroke-width="1.5"></path><path d="M1443.01 -42.83L1398.64 70.59" stroke="hsl(228.5, 77.2%, 51.5%)" stroke-width="1.5"></path><path d="M1398.64 70.59L1398.64 70.59" stroke="hsl(228.5, 77.2%, 51.5%)" stroke-width="1.5"></path><path d="M1398.64 70.59L1243.95 201.86" stroke="hsl(228.5, 77.2%, 51.5%)" stroke-width="1.5"></path><path d="M1444.78 393.1L1444.78 393.1" stroke="hsl(228.5, 77.2%, 51.5%)" stroke-width="1.5"></path><path d="M1444.78 393.1L1427.41 521.25" stroke="hsl(228.5, 77.2%, 51.5%)" stroke-width="1.5"></path><path d="M1444.78 393.1L1430.86 217.68" stroke="hsl(228.5, 77.2%, 51.5%)" stroke-width="1.5"></path><path d="M1444.78 393.1L1581.46 561.09" stroke="hsl(228.5, 77.2%, 51.5%)" stroke-width="1.5"></path><path d="M1444.78 393.1L1257.41 534.29" stroke="hsl(228.5, 77.2%, 51.5%)" stroke-width="1.5"></path><path d="M1427.41 521.25L1427.41 521.25" stroke="hsl(228.5, 77.2%, 51.5%)" stroke-width="1.5"></path><path d="M1427.41 521.25L1581.46 561.09" stroke="hsl(228.5, 77.2%, 51.5%)" stroke-width="1.5"></path><path d="M1427.41 521.25L1460.79 710.34" stroke="hsl(228.5, 77.2%, 51.5%)" stroke-width="1.5"></path><path d="M1460.79 710.34L1460.79 710.34" stroke="hsl(228.5, 77.2%, 51.5%)" stroke-width="1.5"></path><path d="M1460.79 710.34L1598.8 678.66" stroke="hsl(228.5, 77.2%, 51.5%)" stroke-width="1.5"></path><path d="M1460.79 710.34L1581.46 561.09" stroke="hsl(228.5, 77.2%, 51.5%)" stroke-width="1.5"></path><path d="M1460.79 710.34L1257.41 534.29" stroke="hsl(228.5, 77.2%, 51.5%)" stroke-width="1.5"></path><path d="M1580.15 194.23L1580.15 194.23" stroke="hsl(228.5, 77.2%, 51.5%)" stroke-width="1.5"></path><path d="M1580.15 194.23L1586.5 365.56" stroke="hsl(228.5, 77.2%, 51.5%)" stroke-width="1.5"></path><path d="M1580.15 194.23L1398.64 70.59" stroke="hsl(228.5, 77.2%, 51.5%)" stroke-width="1.5"></path><path d="M1580.15 194.23L1444.78 393.1" stroke="hsl(228.5, 77.2%, 51.5%)" stroke-width="1.5"></path><path d="M1581.46 561.09L1581.46 561.09" stroke="hsl(228.5, 77.2%, 51.5%)" stroke-width="1.5"></path><path d="M1581.46 561.09L1598.8 678.66" stroke="hsl(228.5, 77.2%, 51.5%)" stroke-width="1.5"></path><path d="M1581.46 561.09L1586.5 365.56" stroke="hsl(228.5, 77.2%, 51.5%)" stroke-width="1.5"></path><path d="M1598.8 678.66L1598.8 678.66" stroke="hsl(228.5, 77.2%, 51.5%)" stroke-width="1.5"></path><circle r="25" cx="248.24" cy="677.93" fill="url(#SvgjsRadialGradient1019)"></circle><circle r="25" cx="393.06" cy="640.29" fill="url(#SvgjsRadialGradient1019)"></circle><circle r="25" cx="506.3" cy="680.92" fill="url(#SvgjsRadialGradient1019)"></circle><circle r="25" cx="814.39" cy="665.07" fill="url(#SvgjsRadialGradient1019)"></circle><circle r="25" cx="1430.86" cy="217.68" fill="url(#SvgjsRadialGradient1019)"></circle><circle r="25" cx="1611.57" cy="-102.02" fill="url(#SvgjsRadialGradient1019)"></circle><circle r="25" cx="1586.5" cy="365.56" fill="url(#SvgjsRadialGradient1019)"></circle><circle r="5" cx="-37.73" cy="534.25" fill="#8b9ad9"></circle><circle r="5" cx="64.08" cy="495.45" fill="#8b9ad9"></circle><circle r="5" cx="58.73" cy="679.89" fill="#8b9ad9"></circle><circle r="5" cx="197.17" cy="490.72" fill="#8b9ad9"></circle><circle r="5" cx="367.3" cy="538.47" fill="#8b9ad9"></circle><circle r="5" cx="537.62" cy="400.87" fill="#8b9ad9"></circle><circle r="5" cx="549.34" cy="549.56" fill="#8b9ad9"></circle><circle r="5" cx="654.66" cy="510.64" fill="#8b9ad9"></circle><circle r="5" cx="706.77" cy="708.47" fill="#8b9ad9"></circle><circle r="5" cx="826.03" cy="374.69" fill="#8b9ad9"></circle><circle r="5" cx="819.91" cy="550.75" fill="#8b9ad9"></circle><circle r="5" cx="943.68" cy="352.09" fill="#8b9ad9"></circle><circle r="5" cx="999.95" cy="519.11" fill="#8b9ad9"></circle><circle r="5" cx="1156.44" cy="95.51" fill="#8b9ad9"></circle><circle r="5" cx="1096.01" cy="242.66" fill="#8b9ad9"></circle><circle r="5" cx="1121.77" cy="367.95" fill="#8b9ad9"></circle><circle r="5" cx="1120.08" cy="535.04" fill="#8b9ad9"></circle><circle r="5" cx="1123.61" cy="705.98" fill="#8b9ad9"></circle><circle r="5" cx="1294.46" cy="-92.89" fill="#8b9ad9"></circle><circle r="5" cx="1243.95" cy="201.86" fill="#8b9ad9"></circle><circle r="5" cx="1268.74" cy="396.87" fill="#8b9ad9"></circle><circle r="5" cx="1257.41" cy="534.29" fill="#8b9ad9"></circle><circle r="5" cx="1279.47" cy="700.25" fill="#8b9ad9"></circle><circle r="5" cx="1443.01" cy="-42.83" fill="#8b9ad9"></circle><circle r="5" cx="1398.64" cy="70.59" fill="#8b9ad9"></circle><circle r="5" cx="1444.78" cy="393.1" fill="#8b9ad9"></circle><circle r="5" cx="1427.41" cy="521.25" fill="#8b9ad9"></circle><circle r="5" cx="1460.79" cy="710.34" fill="#8b9ad9"></circle><circle r="5" cx="1580.15" cy="194.23" fill="#8b9ad9"></circle><circle r="5" cx="1581.46" cy="561.09" fill="#8b9ad9"></circle><circle r="5" cx="1598.8" cy="678.66" fill="#8b9ad9"></circle></g><defs><mask id="SvgjsMask1018"><rect width="1440" height="560" fill="#ffffff"></rect></mask><radialGradient id="SvgjsRadialGradient1019"><stop stop-color="#ffffff" offset="0.1"></stop><stop stop-color="#1735b3" offset="0.2"></stop><stop stop-color="rgba(23, 53, 179, 0)" offset="1"></stop></radialGradient></defs></svg>