<svg xmlns="http://www.w3.org/2000/svg" version="1.1" xmlns:xlink="http://www.w3.org/1999/xlink" xmlns:svgjs="http://svgjs.com/svgjs" width="1440" height="560" preserveAspectRatio="none" viewBox="0 0 1440 560"><g mask="url(&quot;#SvgjsMask1000&quot;)" fill="none"><rect width="1440" height="560" x="0" y="0" fill="#0e2a47"></rect><path d="M-66.98 347.45L-66.98 347.45" stroke="#132e65" stroke-width="1.5"></path><path d="M-66.98 347.45L68.61 407.02" stroke="#132e65" stroke-width="1.5"></path><path d="M-66.98 347.45L-88.39 531.46" stroke="#132e65" stroke-width="1.5"></path><path d="M-88.39 531.46L-88.39 531.46" stroke="#132e65" stroke-width="1.5"></path><path d="M-88.39 531.46L-90.58 637.92" stroke="#132e65" stroke-width="1.5"></path><path d="M-88.39 531.46L42.38 562.44" stroke="#132e65" stroke-width="1.5"></path><path d="M-88.39 531.46L68.61 407.02" stroke="#132e65" stroke-width="1.5"></path><path d="M-88.39 531.46L93.12 683.81" stroke="#132e65" stroke-width="1.5"></path><path d="M-88.39 531.46L189.97 554.95" stroke="#132e65" stroke-width="1.5"></path><path d="M-90.58 637.92L-90.58 637.92" stroke="#132e65" stroke-width="1.5"></path><path d="M-90.58 637.92L42.38 562.44" stroke="#132e65" stroke-width="1.5"></path><path d="M-90.58 637.92L93.12 683.81" stroke="#132e65" stroke-width="1.5"></path><path d="M-90.58 637.92L188.99 645.21" stroke="#132e65" stroke-width="1.5"></path><path d="M-90.58 637.92L68.61 407.02" stroke="#132e65" stroke-width="1.5"></path><path d="M68.61 407.02L68.61 407.02" stroke="#132e65" stroke-width="1.5"></path><path d="M68.61 407.02L42.38 562.44" stroke="#132e65" stroke-width="1.5"></path><path d="M42.38 562.44L42.38 562.44" stroke="#132e65" stroke-width="1.5"></path><path d="M42.38 562.44L93.12 683.81" stroke="#132e65" stroke-width="1.5"></path><path d="M42.38 562.44L189.97 554.95" stroke="#132e65" stroke-width="1.5"></path><path d="M93.12 683.81L93.12 683.81" stroke="#132e65" stroke-width="1.5"></path><path d="M93.12 683.81L188.99 645.21" stroke="#132e65" stroke-width="1.5"></path><path d="M93.12 683.81L189.97 554.95" stroke="#132e65" stroke-width="1.5"></path><path d="M222.28 363.94L222.28 363.94" stroke="#132e65" stroke-width="1.5"></path><path d="M222.28 363.94L351.94 369.01" stroke="#132e65" stroke-width="1.5"></path><path d="M189.97 554.95L189.97 554.95" stroke="#132e65" stroke-width="1.5"></path><path d="M189.97 554.95L188.99 645.21" stroke="#132e65" stroke-width="1.5"></path><path d="M189.97 554.95L68.61 407.02" stroke="#132e65" stroke-width="1.5"></path><path d="M188.99 645.21L188.99 645.21" stroke="#132e65" stroke-width="1.5"></path><path d="M188.99 645.21L346.37 683.91" stroke="#132e65" stroke-width="1.5"></path><path d="M188.99 645.21L42.38 562.44" stroke="#132e65" stroke-width="1.5"></path><path d="M188.99 645.21L399.94 538.52" stroke="#132e65" stroke-width="1.5"></path><path d="M188.99 645.21L68.61 407.02" stroke="#132e65" stroke-width="1.5"></path><path d="M351.94 369.01L351.94 369.01" stroke="#132e65" stroke-width="1.5"></path><path d="M351.94 369.01L399.94 538.52" stroke="#132e65" stroke-width="1.5"></path><path d="M351.94 369.01L541.74 384.22" stroke="#132e65" stroke-width="1.5"></path><path d="M351.94 369.01L516 490.52" stroke="#132e65" stroke-width="1.5"></path><path d="M351.94 369.01L189.97 554.95" stroke="#132e65" stroke-width="1.5"></path><path d="M351.94 369.01L68.61 407.02" stroke="#132e65" stroke-width="1.5"></path><path d="M399.94 538.52L399.94 538.52" stroke="#132e65" stroke-width="1.5"></path><path d="M399.94 538.52L516 490.52" stroke="#132e65" stroke-width="1.5"></path><path d="M399.94 538.52L346.37 683.91" stroke="#132e65" stroke-width="1.5"></path><path d="M399.94 538.52L501.55 704.22" stroke="#132e65" stroke-width="1.5"></path><path d="M346.37 683.91L346.37 683.91" stroke="#132e65" stroke-width="1.5"></path><path d="M346.37 683.91L501.55 704.22" stroke="#132e65" stroke-width="1.5"></path><path d="M346.37 683.91L189.97 554.95" stroke="#132e65" stroke-width="1.5"></path><path d="M346.37 683.91L93.12 683.81" stroke="#132e65" stroke-width="1.5"></path><path d="M541.74 384.22L541.74 384.22" stroke="#132e65" stroke-width="1.5"></path><path d="M541.74 384.22L516 490.52" stroke="#132e65" stroke-width="1.5"></path><path d="M541.74 384.22L705.1 397.97" stroke="#132e65" stroke-width="1.5"></path><path d="M541.74 384.22L640.07 232.58" stroke="#132e65" stroke-width="1.5"></path><path d="M516 490.52L516 490.52" stroke="#132e65" stroke-width="1.5"></path><path d="M516 490.52L700.35 561.55" stroke="#132e65" stroke-width="1.5"></path><path d="M501.55 704.22L501.55 704.22" stroke="#132e65" stroke-width="1.5"></path><path d="M501.55 704.22L687.96 693.51" stroke="#132e65" stroke-width="1.5"></path><path d="M501.55 704.22L516 490.52" stroke="#132e65" stroke-width="1.5"></path><path d="M640.07 232.58L640.07 232.58" stroke="#132e65" stroke-width="1.5"></path><path d="M640.07 232.58L807.84 225.17" stroke="#132e65" stroke-width="1.5"></path><path d="M640.07 232.58L705.1 397.97" stroke="#132e65" stroke-width="1.5"></path><path d="M705.1 397.97L705.1 397.97" stroke="#132e65" stroke-width="1.5"></path><path d="M705.1 397.97L854.79 401.81" stroke="#132e65" stroke-width="1.5"></path><path d="M705.1 397.97L700.35 561.55" stroke="#132e65" stroke-width="1.5"></path><path d="M700.35 561.55L700.35 561.55" stroke="#132e65" stroke-width="1.5"></path><path d="M700.35 561.55L687.96 693.51" stroke="#132e65" stroke-width="1.5"></path><path d="M700.35 561.55L835.01 553.03" stroke="#132e65" stroke-width="1.5"></path><path d="M687.96 693.51L687.96 693.51" stroke="#132e65" stroke-width="1.5"></path><path d="M687.96 693.51L805.18 680.52" stroke="#132e65" stroke-width="1.5"></path><path d="M687.96 693.51L835.01 553.03" stroke="#132e65" stroke-width="1.5"></path><path d="M807.84 225.17L807.84 225.17" stroke="#132e65" stroke-width="1.5"></path><path d="M807.84 225.17L954.71 200.95" stroke="#132e65" stroke-width="1.5"></path><path d="M807.84 225.17L854.79 401.81" stroke="#132e65" stroke-width="1.5"></path><path d="M854.79 401.81L854.79 401.81" stroke="#132e65" stroke-width="1.5"></path><path d="M854.79 401.81L992.15 337.66" stroke="#132e65" stroke-width="1.5"></path><path d="M854.79 401.81L835.01 553.03" stroke="#132e65" stroke-width="1.5"></path><path d="M835.01 553.03L835.01 553.03" stroke="#132e65" stroke-width="1.5"></path><path d="M835.01 553.03L805.18 680.52" stroke="#132e65" stroke-width="1.5"></path><path d="M835.01 553.03L984.04 533.46" stroke="#132e65" stroke-width="1.5"></path><path d="M835.01 553.03L952.21 710.57" stroke="#132e65" stroke-width="1.5"></path><path d="M805.18 680.52L805.18 680.52" stroke="#132e65" stroke-width="1.5"></path><path d="M805.18 680.52L952.21 710.57" stroke="#132e65" stroke-width="1.5"></path><path d="M986.94 -59.64L986.94 -59.64" stroke="#132e65" stroke-width="1.5"></path><path d="M986.94 -59.64L959.72 43.8" stroke="#132e65" stroke-width="1.5"></path><path d="M986.94 -59.64L1088.85 -111.43" stroke="#132e65" stroke-width="1.5"></path><path d="M986.94 -59.64L954.71 200.95" stroke="#132e65" stroke-width="1.5"></path><path d="M986.94 -59.64L1310.66 -66.88" stroke="#132e65" stroke-width="1.5"></path><path d="M986.94 -59.64L807.84 225.17" stroke="#132e65" stroke-width="1.5"></path><path d="M986.94 -59.64L1157.98 241.44" stroke="#132e65" stroke-width="1.5"></path><path d="M959.72 43.8L959.72 43.8" stroke="#132e65" stroke-width="1.5"></path><path d="M959.72 43.8L954.71 200.95" stroke="#132e65" stroke-width="1.5"></path><path d="M959.72 43.8L1088.85 -111.43" stroke="#132e65" stroke-width="1.5"></path><path d="M959.72 43.8L807.84 225.17" stroke="#132e65" stroke-width="1.5"></path><path d="M959.72 43.8L1157.98 241.44" stroke="#132e65" stroke-width="1.5"></path><path d="M959.72 43.8L992.15 337.66" stroke="#132e65" stroke-width="1.5"></path><path d="M954.71 200.95L954.71 200.95" stroke="#132e65" stroke-width="1.5"></path><path d="M954.71 200.95L992.15 337.66" stroke="#132e65" stroke-width="1.5"></path><path d="M992.15 337.66L992.15 337.66" stroke="#132e65" stroke-width="1.5"></path><path d="M992.15 337.66L1157.98 241.44" stroke="#132e65" stroke-width="1.5"></path><path d="M992.15 337.66L984.04 533.46" stroke="#132e65" stroke-width="1.5"></path><path d="M992.15 337.66L1114.85 497.16" stroke="#132e65" stroke-width="1.5"></path><path d="M992.15 337.66L807.84 225.17" stroke="#132e65" stroke-width="1.5"></path><path d="M984.04 533.46L984.04 533.46" stroke="#132e65" stroke-width="1.5"></path><path d="M984.04 533.46L1114.85 497.16" stroke="#132e65" stroke-width="1.5"></path><path d="M952.21 710.57L952.21 710.57" stroke="#132e65" stroke-width="1.5"></path><path d="M952.21 710.57L984.04 533.46" stroke="#132e65" stroke-width="1.5"></path><path d="M952.21 710.57L1125.45 647.36" stroke="#132e65" stroke-width="1.5"></path><path d="M1088.85 -111.43L1088.85 -111.43" stroke="#132e65" stroke-width="1.5"></path><path d="M1088.85 -111.43L1310.66 -66.88" stroke="#132e65" stroke-width="1.5"></path><path d="M1088.85 -111.43L954.71 200.95" stroke="#132e65" stroke-width="1.5"></path><path d="M1088.85 -111.43L1157.98 241.44" stroke="#132e65" stroke-width="1.5"></path><path d="M1088.85 -111.43L1416.9 64.86" stroke="#132e65" stroke-width="1.5"></path><path d="M1157.98 241.44L1157.98 241.44" stroke="#132e65" stroke-width="1.5"></path><path d="M1157.98 241.44L954.71 200.95" stroke="#132e65" stroke-width="1.5"></path><path d="M1157.98 241.44L1309.3 390.41" stroke="#132e65" stroke-width="1.5"></path><path d="M1157.98 241.44L1114.85 497.16" stroke="#132e65" stroke-width="1.5"></path><path d="M1114.85 497.16L1114.85 497.16" stroke="#132e65" stroke-width="1.5"></path><path d="M1114.85 497.16L1125.45 647.36" stroke="#132e65" stroke-width="1.5"></path><path d="M1114.85 497.16L1311.44 543.63" stroke="#132e65" stroke-width="1.5"></path><path d="M1125.45 647.36L1125.45 647.36" stroke="#132e65" stroke-width="1.5"></path><path d="M1125.45 647.36L1254.81 689.48" stroke="#132e65" stroke-width="1.5"></path><path d="M1125.45 647.36L984.04 533.46" stroke="#132e65" stroke-width="1.5"></path><path d="M1310.66 -66.88L1310.66 -66.88" stroke="#132e65" stroke-width="1.5"></path><path d="M1310.66 -66.88L1416.9 64.86" stroke="#132e65" stroke-width="1.5"></path><path d="M1310.66 -66.88L1555.79 -98.06" stroke="#132e65" stroke-width="1.5"></path><path d="M1310.66 -66.88L1553.36 75.42" stroke="#132e65" stroke-width="1.5"></path><path d="M1310.66 -66.88L1456.04 191.62" stroke="#132e65" stroke-width="1.5"></path><path d="M1309.3 390.41L1309.3 390.41" stroke="#132e65" stroke-width="1.5"></path><path d="M1309.3 390.41L1417.39 368.92" stroke="#132e65" stroke-width="1.5"></path><path d="M1309.3 390.41L1311.44 543.63" stroke="#132e65" stroke-width="1.5"></path><path d="M1311.44 543.63L1311.44 543.63" stroke="#132e65" stroke-width="1.5"></path><path d="M1311.44 543.63L1454.9 524.7" stroke="#132e65" stroke-width="1.5"></path><path d="M1254.81 689.48L1254.81 689.48" stroke="#132e65" stroke-width="1.5"></path><path d="M1254.81 689.48L1396.73 712.25" stroke="#132e65" stroke-width="1.5"></path><path d="M1254.81 689.48L1311.44 543.63" stroke="#132e65" stroke-width="1.5"></path><path d="M1254.81 689.48L1114.85 497.16" stroke="#132e65" stroke-width="1.5"></path><path d="M1254.81 689.48L1454.9 524.7" stroke="#132e65" stroke-width="1.5"></path><path d="M1254.81 689.48L952.21 710.57" stroke="#132e65" stroke-width="1.5"></path><path d="M1416.9 64.86L1416.9 64.86" stroke="#132e65" stroke-width="1.5"></path><path d="M1416.9 64.86L1456.04 191.62" stroke="#132e65" stroke-width="1.5"></path><path d="M1416.9 64.86L1553.36 75.42" stroke="#132e65" stroke-width="1.5"></path><path d="M1416.9 64.86L1555.79 -98.06" stroke="#132e65" stroke-width="1.5"></path><path d="M1416.9 64.86L1417.39 368.92" stroke="#132e65" stroke-width="1.5"></path><path d="M1456.04 191.62L1456.04 191.62" stroke="#132e65" stroke-width="1.5"></path><path d="M1456.04 191.62L1553.36 75.42" stroke="#132e65" stroke-width="1.5"></path><path d="M1417.39 368.92L1417.39 368.92" stroke="#132e65" stroke-width="1.5"></path><path d="M1417.39 368.92L1542.42 379.61" stroke="#132e65" stroke-width="1.5"></path><path d="M1417.39 368.92L1454.9 524.7" stroke="#132e65" stroke-width="1.5"></path><path d="M1454.9 524.7L1454.9 524.7" stroke="#132e65" stroke-width="1.5"></path><path d="M1454.9 524.7L1545.97 540.65" stroke="#132e65" stroke-width="1.5"></path><path d="M1396.73 712.25L1396.73 712.25" stroke="#132e65" stroke-width="1.5"></path><path d="M1396.73 712.25L1311.44 543.63" stroke="#132e65" stroke-width="1.5"></path><path d="M1555.79 -98.06L1555.79 -98.06" stroke="#132e65" stroke-width="1.5"></path><path d="M1555.79 -98.06L1553.36 75.42" stroke="#132e65" stroke-width="1.5"></path><path d="M1553.36 75.42L1553.36 75.42" stroke="#132e65" stroke-width="1.5"></path><path d="M1553.36 75.42L1542.42 379.61" stroke="#132e65" stroke-width="1.5"></path><path d="M1553.36 75.42L1417.39 368.92" stroke="#132e65" stroke-width="1.5"></path><path d="M1542.42 379.61L1542.42 379.61" stroke="#132e65" stroke-width="1.5"></path><path d="M1542.42 379.61L1545.97 540.65" stroke="#132e65" stroke-width="1.5"></path><path d="M1542.42 379.61L1454.9 524.7" stroke="#132e65" stroke-width="1.5"></path><path d="M1545.97 540.65L1545.97 540.65" stroke="#132e65" stroke-width="1.5"></path><path d="M1545.97 540.65L1599 695.29" stroke="#132e65" stroke-width="1.5"></path><path d="M1545.97 540.65L1417.39 368.92" stroke="#132e65" stroke-width="1.5"></path><path d="M1599 695.29L1599 695.29" stroke="#132e65" stroke-width="1.5"></path><path d="M1599 695.29L1396.73 712.25" stroke="#132e65" stroke-width="1.5"></path><path d="M1599 695.29L1454.9 524.7" stroke="#132e65" stroke-width="1.5"></path><path d="M1599 695.29L1542.42 379.61" stroke="#132e65" stroke-width="1.5"></path><path d="M1599 695.29L1311.44 543.63" stroke="#132e65" stroke-width="1.5"></path><path d="M1599 695.29L1254.81 689.48" stroke="#132e65" stroke-width="1.5"></path><circle r="5" cx="-66.98" cy="347.45" fill="#132e65"></circle><circle r="5" cx="-88.39" cy="531.46" fill="#132e65"></circle><circle r="5" cx="-90.58" cy="637.92" fill="#132e65"></circle><circle r="5" cx="68.61" cy="407.02" fill="#132e65"></circle><circle r="5" cx="42.38" cy="562.44" fill="#132e65"></circle><circle r="5" cx="93.12" cy="683.81" fill="#132e65"></circle><circle r="5" cx="222.28" cy="363.94" fill="#132e65"></circle><circle r="5" cx="189.97" cy="554.95" fill="#132e65"></circle><circle r="5" cx="188.99" cy="645.21" fill="#132e65"></circle><circle r="5" cx="351.94" cy="369.01" fill="#132e65"></circle><circle r="5" cx="399.94" cy="538.52" fill="#132e65"></circle><circle r="5" cx="346.37" cy="683.91" fill="#132e65"></circle><circle r="5" cx="541.74" cy="384.22" fill="#132e65"></circle><circle r="5" cx="516" cy="490.52" fill="#132e65"></circle><circle r="5" cx="501.55" cy="704.22" fill="#132e65"></circle><circle r="5" cx="640.07" cy="232.58" fill="#132e65"></circle><circle r="5" cx="705.1" cy="397.97" fill="#132e65"></circle><circle r="5" cx="700.35" cy="561.55" fill="#132e65"></circle><circle r="5" cx="687.96" cy="693.51" fill="#132e65"></circle><circle r="5" cx="807.84" cy="225.17" fill="#132e65"></circle><circle r="5" cx="854.79" cy="401.81" fill="#132e65"></circle><circle r="5" cx="835.01" cy="553.03" fill="#132e65"></circle><circle r="5" cx="805.18" cy="680.52" fill="#132e65"></circle><circle r="5" cx="986.94" cy="-59.64" fill="#132e65"></circle><circle r="5" cx="959.72" cy="43.8" fill="#132e65"></circle><circle r="5" cx="954.71" cy="200.95" fill="#132e65"></circle><circle r="5" cx="992.15" cy="337.66" fill="#132e65"></circle><circle r="5" cx="984.04" cy="533.46" fill="#132e65"></circle><circle r="5" cx="952.21" cy="710.57" fill="#132e65"></circle><circle r="5" cx="1088.85" cy="-111.43" fill="#132e65"></circle><circle r="5" cx="1157.98" cy="241.44" fill="#132e65"></circle><circle r="5" cx="1114.85" cy="497.16" fill="#132e65"></circle><circle r="5" cx="1125.45" cy="647.36" fill="#132e65"></circle><circle r="5" cx="1310.66" cy="-66.88" fill="#132e65"></circle><circle r="5" cx="1309.3" cy="390.41" fill="#132e65"></circle><circle r="5" cx="1311.44" cy="543.63" fill="#132e65"></circle><circle r="5" cx="1254.81" cy="689.48" fill="#132e65"></circle><circle r="5" cx="1416.9" cy="64.86" fill="#132e65"></circle><circle r="5" cx="1456.04" cy="191.62" fill="#132e65"></circle><circle r="5" cx="1417.39" cy="368.92" fill="#132e65"></circle><circle r="5" cx="1454.9" cy="524.7" fill="#132e65"></circle><circle r="5" cx="1396.73" cy="712.25" fill="#132e65"></circle><circle r="5" cx="1555.79" cy="-98.06" fill="#132e65"></circle><circle r="5" cx="1553.36" cy="75.42" fill="#132e65"></circle><circle r="5" cx="1542.42" cy="379.61" fill="#132e65"></circle><circle r="5" cx="1545.97" cy="540.65" fill="#132e65"></circle><circle r="5" cx="1599" cy="695.29" fill="#132e65"></circle><path d="M391.2 660.33L391.2 660.33" stroke="hsl(228.5, 77.2%, 51.5%)" stroke-width="1.5"></path><path d="M391.2 660.33L509.56 644.56" stroke="hsl(228.5, 77.2%, 51.5%)" stroke-width="1.5"></path><path d="M391.2 660.33L410.47 512.86" stroke="hsl(228.5, 77.2%, 51.5%)" stroke-width="1.5"></path><path d="M796.42 391.61L796.42 391.61" stroke="hsl(228.5, 77.2%, 51.5%)" stroke-width="1.5"></path><path d="M796.42 391.61L708.23 394.3" stroke="hsl(228.5, 77.2%, 51.5%)" stroke-width="1.5"></path><path d="M796.42 391.61L796.55 494.95" stroke="hsl(228.5, 77.2%, 51.5%)" stroke-width="1.5"></path><path d="M796.42 391.61L690.83 519.42" stroke="hsl(228.5, 77.2%, 51.5%)" stroke-width="1.5"></path><path d="M796.42 391.61L965.97 377.81" stroke="hsl(228.5, 77.2%, 51.5%)" stroke-width="1.5"></path><path d="M796.42 391.61L982.24 510.45" stroke="hsl(228.5, 77.2%, 51.5%)" stroke-width="1.5"></path><path d="M796.55 494.95L796.55 494.95" stroke="hsl(228.5, 77.2%, 51.5%)" stroke-width="1.5"></path><path d="M796.55 494.95L690.83 519.42" stroke="hsl(228.5, 77.2%, 51.5%)" stroke-width="1.5"></path><path d="M796.55 494.95L708.23 394.3" stroke="hsl(228.5, 77.2%, 51.5%)" stroke-width="1.5"></path><path d="M796.55 494.95L982.24 510.45" stroke="hsl(228.5, 77.2%, 51.5%)" stroke-width="1.5"></path><path d="M796.55 494.95L965.97 377.81" stroke="hsl(228.5, 77.2%, 51.5%)" stroke-width="1.5"></path><path d="M796.55 494.95L835.93 702.77" stroke="hsl(228.5, 77.2%, 51.5%)" stroke-width="1.5"></path><path d="M965.97 377.81L965.97 377.81" stroke="hsl(228.5, 77.2%, 51.5%)" stroke-width="1.5"></path><path d="M965.97 377.81L982.24 510.45" stroke="hsl(228.5, 77.2%, 51.5%)" stroke-width="1.5"></path><path d="M965.97 377.81L1119.04 398.97" stroke="hsl(228.5, 77.2%, 51.5%)" stroke-width="1.5"></path><path d="M1295.83 371.65L1295.83 371.65" stroke="hsl(228.5, 77.2%, 51.5%)" stroke-width="1.5"></path><path d="M1295.83 371.65L1278.79 256.36" stroke="hsl(228.5, 77.2%, 51.5%)" stroke-width="1.5"></path><path d="M1295.83 371.65L1405.22 253.04" stroke="hsl(228.5, 77.2%, 51.5%)" stroke-width="1.5"></path><path d="M1295.83 371.65L1240.93 530" stroke="hsl(228.5, 77.2%, 51.5%)" stroke-width="1.5"></path><path d="M1295.83 371.65L1119.04 398.97" stroke="hsl(228.5, 77.2%, 51.5%)" stroke-width="1.5"></path><path d="M1295.83 371.65L1447.66 529.79" stroke="hsl(228.5, 77.2%, 51.5%)" stroke-width="1.5"></path><path d="M1295.83 371.65L1133.12 527.12" stroke="hsl(228.5, 77.2%, 51.5%)" stroke-width="1.5"></path><path d="M-110.24 532.77L-110.24 532.77" stroke="hsl(228.5, 77.2%, 51.5%)" stroke-width="1.5"></path><path d="M-110.24 532.77L-86.5 657.58" stroke="hsl(228.5, 77.2%, 51.5%)" stroke-width="1.5"></path><path d="M-110.24 532.77L106.73 519.13" stroke="hsl(228.5, 77.2%, 51.5%)" stroke-width="1.5"></path><path d="M-86.5 657.58L-86.5 657.58" stroke="hsl(228.5, 77.2%, 51.5%)" stroke-width="1.5"></path><path d="M-86.5 657.58L54.09 685.88" stroke="hsl(228.5, 77.2%, 51.5%)" stroke-width="1.5"></path><path d="M-86.5 657.58L106.73 519.13" stroke="hsl(228.5, 77.2%, 51.5%)" stroke-width="1.5"></path><path d="M-86.5 657.58L193.96 704.46" stroke="hsl(228.5, 77.2%, 51.5%)" stroke-width="1.5"></path><path d="M-86.5 657.58L262.42 522.13" stroke="hsl(228.5, 77.2%, 51.5%)" stroke-width="1.5"></path><path d="M-86.5 657.58L391.2 660.33" stroke="hsl(228.5, 77.2%, 51.5%)" stroke-width="1.5"></path><path d="M106.73 519.13L106.73 519.13" stroke="hsl(228.5, 77.2%, 51.5%)" stroke-width="1.5"></path><path d="M106.73 519.13L262.42 522.13" stroke="hsl(228.5, 77.2%, 51.5%)" stroke-width="1.5"></path><path d="M106.73 519.13L54.09 685.88" stroke="hsl(228.5, 77.2%, 51.5%)" stroke-width="1.5"></path><path d="M106.73 519.13L193.96 704.46" stroke="hsl(228.5, 77.2%, 51.5%)" stroke-width="1.5"></path><path d="M54.09 685.88L54.09 685.88" stroke="hsl(228.5, 77.2%, 51.5%)" stroke-width="1.5"></path><path d="M54.09 685.88L193.96 704.46" stroke="hsl(228.5, 77.2%, 51.5%)" stroke-width="1.5"></path><path d="M54.09 685.88L-110.24 532.77" stroke="hsl(228.5, 77.2%, 51.5%)" stroke-width="1.5"></path><path d="M262.42 522.13L262.42 522.13" stroke="hsl(228.5, 77.2%, 51.5%)" stroke-width="1.5"></path><path d="M262.42 522.13L410.47 512.86" stroke="hsl(228.5, 77.2%, 51.5%)" stroke-width="1.5"></path><path d="M262.42 522.13L391.2 660.33" stroke="hsl(228.5, 77.2%, 51.5%)" stroke-width="1.5"></path><path d="M193.96 704.46L193.96 704.46" stroke="hsl(228.5, 77.2%, 51.5%)" stroke-width="1.5"></path><path d="M193.96 704.46L262.42 522.13" stroke="hsl(228.5, 77.2%, 51.5%)" stroke-width="1.5"></path><path d="M410.47 512.86L410.47 512.86" stroke="hsl(228.5, 77.2%, 51.5%)" stroke-width="1.5"></path><path d="M410.47 512.86L497.36 512.51" stroke="hsl(228.5, 77.2%, 51.5%)" stroke-width="1.5"></path><path d="M410.47 512.86L509.56 644.56" stroke="hsl(228.5, 77.2%, 51.5%)" stroke-width="1.5"></path><path d="M497.36 512.51L497.36 512.51" stroke="hsl(228.5, 77.2%, 51.5%)" stroke-width="1.5"></path><path d="M497.36 512.51L509.56 644.56" stroke="hsl(228.5, 77.2%, 51.5%)" stroke-width="1.5"></path><path d="M497.36 512.51L391.2 660.33" stroke="hsl(228.5, 77.2%, 51.5%)" stroke-width="1.5"></path><path d="M497.36 512.51L690.83 519.42" stroke="hsl(228.5, 77.2%, 51.5%)" stroke-width="1.5"></path><path d="M497.36 512.51L262.42 522.13" stroke="hsl(228.5, 77.2%, 51.5%)" stroke-width="1.5"></path><path d="M497.36 512.51L708.23 394.3" stroke="hsl(228.5, 77.2%, 51.5%)" stroke-width="1.5"></path><path d="M509.56 644.56L509.56 644.56" stroke="hsl(228.5, 77.2%, 51.5%)" stroke-width="1.5"></path><path d="M509.56 644.56L688.08 683.44" stroke="hsl(228.5, 77.2%, 51.5%)" stroke-width="1.5"></path><path d="M509.56 644.56L690.83 519.42" stroke="hsl(228.5, 77.2%, 51.5%)" stroke-width="1.5"></path><path d="M708.23 394.3L708.23 394.3" stroke="hsl(228.5, 77.2%, 51.5%)" stroke-width="1.5"></path><path d="M708.23 394.3L690.83 519.42" stroke="hsl(228.5, 77.2%, 51.5%)" stroke-width="1.5"></path><path d="M690.83 519.42L690.83 519.42" stroke="hsl(228.5, 77.2%, 51.5%)" stroke-width="1.5"></path><path d="M690.83 519.42L688.08 683.44" stroke="hsl(228.5, 77.2%, 51.5%)" stroke-width="1.5"></path><path d="M688.08 683.44L688.08 683.44" stroke="hsl(228.5, 77.2%, 51.5%)" stroke-width="1.5"></path><path d="M688.08 683.44L835.93 702.77" stroke="hsl(228.5, 77.2%, 51.5%)" stroke-width="1.5"></path><path d="M835.93 702.77L835.93 702.77" stroke="hsl(228.5, 77.2%, 51.5%)" stroke-width="1.5"></path><path d="M835.93 702.77L690.83 519.42" stroke="hsl(228.5, 77.2%, 51.5%)" stroke-width="1.5"></path><path d="M982.24 510.45L982.24 510.45" stroke="hsl(228.5, 77.2%, 51.5%)" stroke-width="1.5"></path><path d="M982.24 510.45L1133.12 527.12" stroke="hsl(228.5, 77.2%, 51.5%)" stroke-width="1.5"></path><path d="M982.24 510.45L1119.04 398.97" stroke="hsl(228.5, 77.2%, 51.5%)" stroke-width="1.5"></path><path d="M982.24 510.45L1112.23 642.32" stroke="hsl(228.5, 77.2%, 51.5%)" stroke-width="1.5"></path><path d="M1159.58 72.64L1159.58 72.64" stroke="hsl(228.5, 77.2%, 51.5%)" stroke-width="1.5"></path><path d="M1159.58 72.64L1243.12 86.31" stroke="hsl(228.5, 77.2%, 51.5%)" stroke-width="1.5"></path><path d="M1159.58 72.64L1279.67 -46.47" stroke="hsl(228.5, 77.2%, 51.5%)" stroke-width="1.5"></path><path d="M1097.88 243.1L1097.88 243.1" stroke="hsl(228.5, 77.2%, 51.5%)" stroke-width="1.5"></path><path d="M1097.88 243.1L1119.04 398.97" stroke="hsl(228.5, 77.2%, 51.5%)" stroke-width="1.5"></path><path d="M1097.88 243.1L1159.58 72.64" stroke="hsl(228.5, 77.2%, 51.5%)" stroke-width="1.5"></path><path d="M1097.88 243.1L1278.79 256.36" stroke="hsl(228.5, 77.2%, 51.5%)" stroke-width="1.5"></path><path d="M1097.88 243.1L965.97 377.81" stroke="hsl(228.5, 77.2%, 51.5%)" stroke-width="1.5"></path><path d="M1097.88 243.1L1243.12 86.31" stroke="hsl(228.5, 77.2%, 51.5%)" stroke-width="1.5"></path><path d="M1097.88 243.1L1295.83 371.65" stroke="hsl(228.5, 77.2%, 51.5%)" stroke-width="1.5"></path><path d="M1119.04 398.97L1119.04 398.97" stroke="hsl(228.5, 77.2%, 51.5%)" stroke-width="1.5"></path><path d="M1119.04 398.97L1133.12 527.12" stroke="hsl(228.5, 77.2%, 51.5%)" stroke-width="1.5"></path><path d="M1133.12 527.12L1133.12 527.12" stroke="hsl(228.5, 77.2%, 51.5%)" stroke-width="1.5"></path><path d="M1133.12 527.12L1240.93 530" stroke="hsl(228.5, 77.2%, 51.5%)" stroke-width="1.5"></path><path d="M1133.12 527.12L1112.23 642.32" stroke="hsl(228.5, 77.2%, 51.5%)" stroke-width="1.5"></path><path d="M1112.23 642.32L1112.23 642.32" stroke="hsl(228.5, 77.2%, 51.5%)" stroke-width="1.5"></path><path d="M1112.23 642.32L1245.78 644.44" stroke="hsl(228.5, 77.2%, 51.5%)" stroke-width="1.5"></path><path d="M1112.23 642.32L1240.93 530" stroke="hsl(228.5, 77.2%, 51.5%)" stroke-width="1.5"></path><path d="M1279.67 -46.47L1279.67 -46.47" stroke="hsl(228.5, 77.2%, 51.5%)" stroke-width="1.5"></path><path d="M1279.67 -46.47L1243.12 86.31" stroke="hsl(228.5, 77.2%, 51.5%)" stroke-width="1.5"></path><path d="M1279.67 -46.47L1403.89 107.49" stroke="hsl(228.5, 77.2%, 51.5%)" stroke-width="1.5"></path><path d="M1279.67 -46.47L1278.79 256.36" stroke="hsl(228.5, 77.2%, 51.5%)" stroke-width="1.5"></path><path d="M1279.67 -46.47L1592.42 -82.23" stroke="hsl(228.5, 77.2%, 51.5%)" stroke-width="1.5"></path><path d="M1279.67 -46.47L1569.56 96.22" stroke="hsl(228.5, 77.2%, 51.5%)" stroke-width="1.5"></path><path d="M1243.12 86.31L1243.12 86.31" stroke="hsl(228.5, 77.2%, 51.5%)" stroke-width="1.5"></path><path d="M1278.79 256.36L1278.79 256.36" stroke="hsl(228.5, 77.2%, 51.5%)" stroke-width="1.5"></path><path d="M1278.79 256.36L1405.22 253.04" stroke="hsl(228.5, 77.2%, 51.5%)" stroke-width="1.5"></path><path d="M1278.79 256.36L1243.12 86.31" stroke="hsl(228.5, 77.2%, 51.5%)" stroke-width="1.5"></path><path d="M1278.79 256.36L1403.89 107.49" stroke="hsl(228.5, 77.2%, 51.5%)" stroke-width="1.5"></path><path d="M1278.79 256.36L1119.04 398.97" stroke="hsl(228.5, 77.2%, 51.5%)" stroke-width="1.5"></path><path d="M1240.93 530L1240.93 530" stroke="hsl(228.5, 77.2%, 51.5%)" stroke-width="1.5"></path><path d="M1240.93 530L1245.78 644.44" stroke="hsl(228.5, 77.2%, 51.5%)" stroke-width="1.5"></path><path d="M1245.78 644.44L1245.78 644.44" stroke="hsl(228.5, 77.2%, 51.5%)" stroke-width="1.5"></path><path d="M1245.78 644.44L1390.99 672.19" stroke="hsl(228.5, 77.2%, 51.5%)" stroke-width="1.5"></path><path d="M1245.78 644.44L1133.12 527.12" stroke="hsl(228.5, 77.2%, 51.5%)" stroke-width="1.5"></path><path d="M1245.78 644.44L1447.66 529.79" stroke="hsl(228.5, 77.2%, 51.5%)" stroke-width="1.5"></path><path d="M1403.89 107.49L1403.89 107.49" stroke="hsl(228.5, 77.2%, 51.5%)" stroke-width="1.5"></path><path d="M1403.89 107.49L1405.22 253.04" stroke="hsl(228.5, 77.2%, 51.5%)" stroke-width="1.5"></path><path d="M1403.89 107.49L1243.12 86.31" stroke="hsl(228.5, 77.2%, 51.5%)" stroke-width="1.5"></path><path d="M1405.22 253.04L1405.22 253.04" stroke="hsl(228.5, 77.2%, 51.5%)" stroke-width="1.5"></path><path d="M1405.22 253.04L1602.27 337.8" stroke="hsl(228.5, 77.2%, 51.5%)" stroke-width="1.5"></path><path d="M1405.22 253.04L1569.56 96.22" stroke="hsl(228.5, 77.2%, 51.5%)" stroke-width="1.5"></path><path d="M1447.66 529.79L1447.66 529.79" stroke="hsl(228.5, 77.2%, 51.5%)" stroke-width="1.5"></path><path d="M1447.66 529.79L1551.85 495.11" stroke="hsl(228.5, 77.2%, 51.5%)" stroke-width="1.5"></path><path d="M1447.66 529.79L1390.99 672.19" stroke="hsl(228.5, 77.2%, 51.5%)" stroke-width="1.5"></path><path d="M1447.66 529.79L1240.93 530" stroke="hsl(228.5, 77.2%, 51.5%)" stroke-width="1.5"></path><path d="M1447.66 529.79L1586.95 688.46" stroke="hsl(228.5, 77.2%, 51.5%)" stroke-width="1.5"></path><path d="M1390.99 672.19L1390.99 672.19" stroke="hsl(228.5, 77.2%, 51.5%)" stroke-width="1.5"></path><path d="M1390.99 672.19L1586.95 688.46" stroke="hsl(228.5, 77.2%, 51.5%)" stroke-width="1.5"></path><path d="M1592.42 -82.23L1592.42 -82.23" stroke="hsl(228.5, 77.2%, 51.5%)" stroke-width="1.5"></path><path d="M1592.42 -82.23L1569.56 96.22" stroke="hsl(228.5, 77.2%, 51.5%)" stroke-width="1.5"></path><path d="M1592.42 -82.23L1403.89 107.49" stroke="hsl(228.5, 77.2%, 51.5%)" stroke-width="1.5"></path><path d="M1592.42 -82.23L1405.22 253.04" stroke="hsl(228.5, 77.2%, 51.5%)" stroke-width="1.5"></path><path d="M1592.42 -82.23L1243.12 86.31" stroke="hsl(228.5, 77.2%, 51.5%)" stroke-width="1.5"></path><path d="M1592.42 -82.23L1602.27 337.8" stroke="hsl(228.5, 77.2%, 51.5%)" stroke-width="1.5"></path><path d="M1569.56 96.22L1569.56 96.22" stroke="hsl(228.5, 77.2%, 51.5%)" stroke-width="1.5"></path><path d="M1569.56 96.22L1403.89 107.49" stroke="hsl(228.5, 77.2%, 51.5%)" stroke-width="1.5"></path><path d="M1569.56 96.22L1602.27 337.8" stroke="hsl(228.5, 77.2%, 51.5%)" stroke-width="1.5"></path><path d="M1602.27 337.8L1602.27 337.8" stroke="hsl(228.5, 77.2%, 51.5%)" stroke-width="1.5"></path><path d="M1602.27 337.8L1551.85 495.11" stroke="hsl(228.5, 77.2%, 51.5%)" stroke-width="1.5"></path><path d="M1602.27 337.8L1447.66 529.79" stroke="hsl(228.5, 77.2%, 51.5%)" stroke-width="1.5"></path><path d="M1602.27 337.8L1403.89 107.49" stroke="hsl(228.5, 77.2%, 51.5%)" stroke-width="1.5"></path><path d="M1551.85 495.11L1551.85 495.11" stroke="hsl(228.5, 77.2%, 51.5%)" stroke-width="1.5"></path><path d="M1551.85 495.11L1586.95 688.46" stroke="hsl(228.5, 77.2%, 51.5%)" stroke-width="1.5"></path><path d="M1551.85 495.11L1390.99 672.19" stroke="hsl(228.5, 77.2%, 51.5%)" stroke-width="1.5"></path><path d="M1551.85 495.11L1405.22 253.04" stroke="hsl(228.5, 77.2%, 51.5%)" stroke-width="1.5"></path><path d="M1586.95 688.46L1586.95 688.46" stroke="hsl(228.5, 77.2%, 51.5%)" stroke-width="1.5"></path><path d="M1586.95 688.46L1245.78 644.44" stroke="hsl(228.5, 77.2%, 51.5%)" stroke-width="1.5"></path><path d="M1586.95 688.46L1602.27 337.8" stroke="hsl(228.5, 77.2%, 51.5%)" stroke-width="1.5"></path><path d="M1586.95 688.46L1240.93 530" stroke="hsl(228.5, 77.2%, 51.5%)" stroke-width="1.5"></path><circle r="25" cx="391.2" cy="660.33" fill="url(#SvgjsRadialGradient1001)"></circle><circle r="25" cx="796.42" cy="391.61" fill="url(#SvgjsRadialGradient1001)"></circle><circle r="25" cx="796.55" cy="494.95" fill="url(#SvgjsRadialGradient1001)"></circle><circle r="25" cx="965.97" cy="377.81" fill="url(#SvgjsRadialGradient1001)"></circle><circle r="25" cx="1295.83" cy="371.65" fill="url(#SvgjsRadialGradient1001)"></circle><circle r="5" cx="-110.24" cy="532.77" fill="#8b9ad9"></circle><circle r="5" cx="-86.5" cy="657.58" fill="#8b9ad9"></circle><circle r="5" cx="106.73" cy="519.13" fill="#8b9ad9"></circle><circle r="5" cx="54.09" cy="685.88" fill="#8b9ad9"></circle><circle r="5" cx="262.42" cy="522.13" fill="#8b9ad9"></circle><circle r="5" cx="193.96" cy="704.46" fill="#8b9ad9"></circle><circle r="5" cx="410.47" cy="512.86" fill="#8b9ad9"></circle><circle r="5" cx="497.36" cy="512.51" fill="#8b9ad9"></circle><circle r="5" cx="509.56" cy="644.56" fill="#8b9ad9"></circle><circle r="5" cx="708.23" cy="394.3" fill="#8b9ad9"></circle><circle r="5" cx="690.83" cy="519.42" fill="#8b9ad9"></circle><circle r="5" cx="688.08" cy="683.44" fill="#8b9ad9"></circle><circle r="5" cx="835.93" cy="702.77" fill="#8b9ad9"></circle><circle r="5" cx="982.24" cy="510.45" fill="#8b9ad9"></circle><circle r="5" cx="1159.58" cy="72.64" fill="#8b9ad9"></circle><circle r="5" cx="1097.88" cy="243.1" fill="#8b9ad9"></circle><circle r="5" cx="1119.04" cy="398.97" fill="#8b9ad9"></circle><circle r="5" cx="1133.12" cy="527.12" fill="#8b9ad9"></circle><circle r="5" cx="1112.23" cy="642.32" fill="#8b9ad9"></circle><circle r="5" cx="1279.67" cy="-46.47" fill="#8b9ad9"></circle><circle r="5" cx="1243.12" cy="86.31" fill="#8b9ad9"></circle><circle r="5" cx="1278.79" cy="256.36" fill="#8b9ad9"></circle><circle r="5" cx="1240.93" cy="530" fill="#8b9ad9"></circle><circle r="5" cx="1245.78" cy="644.44" fill="#8b9ad9"></circle><circle r="5" cx="1403.89" cy="107.49" fill="#8b9ad9"></circle><circle r="5" cx="1405.22" cy="253.04" fill="#8b9ad9"></circle><circle r="5" cx="1447.66" cy="529.79" fill="#8b9ad9"></circle><circle r="5" cx="1390.99" cy="672.19" fill="#8b9ad9"></circle><circle r="5" cx="1592.42" cy="-82.23" fill="#8b9ad9"></circle><circle r="5" cx="1569.56" cy="96.22" fill="#8b9ad9"></circle><circle r="5" cx="1602.27" cy="337.8" fill="#8b9ad9"></circle><circle r="5" cx="1551.85" cy="495.11" fill="#8b9ad9"></circle><circle r="5" cx="1586.95" cy="688.46" fill="#8b9ad9"></circle></g><defs><mask id="SvgjsMask1000"><rect width="1440" height="560" fill="#ffffff"></rect></mask><radialGradient id="SvgjsRadialGradient1001"><stop stop-color="#ffffff" offset="0.1"></stop><stop stop-color="#1735b3" offset="0.2"></stop><stop stop-color="rgba(23, 53, 179, 0)" offset="1"></stop></radialGradient></defs></svg>