<svg xmlns="http://www.w3.org/2000/svg" version="1.1" xmlns:xlink="http://www.w3.org/1999/xlink" xmlns:svgjs="http://svgjs.com/svgjs" width="1440" height="560" preserveAspectRatio="none" viewBox="0 0 1440 560"><g mask="url(&quot;#SvgjsMask1006&quot;)" fill="none"><rect width="1440" height="560" x="0" y="0" fill="#0e2a47"></rect><path d="M-59.75 340.63L-59.75 340.63" stroke="#132e65" stroke-width="1.5"></path><path d="M-59.75 340.63L67.74 369.04" stroke="#132e65" stroke-width="1.5"></path><path d="M-59.75 340.63L-50.36 512.01" stroke="#132e65" stroke-width="1.5"></path><path d="M-59.75 340.63L86.81 499" stroke="#132e65" stroke-width="1.5"></path><path d="M-59.75 340.63L212.22 393.86" stroke="#132e65" stroke-width="1.5"></path><path d="M-59.75 340.63L-38.58 680.17" stroke="#132e65" stroke-width="1.5"></path><path d="M-59.75 340.63L244.15 499.84" stroke="#132e65" stroke-width="1.5"></path><path d="M-50.36 512.01L-50.36 512.01" stroke="#132e65" stroke-width="1.5"></path><path d="M-50.36 512.01L86.81 499" stroke="#132e65" stroke-width="1.5"></path><path d="M-50.36 512.01L-38.58 680.17" stroke="#132e65" stroke-width="1.5"></path><path d="M-50.36 512.01L67.74 369.04" stroke="#132e65" stroke-width="1.5"></path><path d="M-50.36 512.01L72 710.47" stroke="#132e65" stroke-width="1.5"></path><path d="M-38.58 680.17L-38.58 680.17" stroke="#132e65" stroke-width="1.5"></path><path d="M-38.58 680.17L72 710.47" stroke="#132e65" stroke-width="1.5"></path><path d="M-38.58 680.17L86.81 499" stroke="#132e65" stroke-width="1.5"></path><path d="M67.74 369.04L67.74 369.04" stroke="#132e65" stroke-width="1.5"></path><path d="M67.74 369.04L86.81 499" stroke="#132e65" stroke-width="1.5"></path><path d="M86.81 499L86.81 499" stroke="#132e65" stroke-width="1.5"></path><path d="M86.81 499L244.15 499.84" stroke="#132e65" stroke-width="1.5"></path><path d="M86.81 499L212.22 393.86" stroke="#132e65" stroke-width="1.5"></path><path d="M72 710.47L72 710.47" stroke="#132e65" stroke-width="1.5"></path><path d="M72 710.47L194.06 678.55" stroke="#132e65" stroke-width="1.5"></path><path d="M212.22 393.86L212.22 393.86" stroke="#132e65" stroke-width="1.5"></path><path d="M212.22 393.86L244.15 499.84" stroke="#132e65" stroke-width="1.5"></path><path d="M212.22 393.86L67.74 369.04" stroke="#132e65" stroke-width="1.5"></path><path d="M212.22 393.86L355.2 490.87" stroke="#132e65" stroke-width="1.5"></path><path d="M212.22 393.86L410.7 355.4" stroke="#132e65" stroke-width="1.5"></path><path d="M244.15 499.84L244.15 499.84" stroke="#132e65" stroke-width="1.5"></path><path d="M244.15 499.84L355.2 490.87" stroke="#132e65" stroke-width="1.5"></path><path d="M194.06 678.55L194.06 678.55" stroke="#132e65" stroke-width="1.5"></path><path d="M194.06 678.55L244.15 499.84" stroke="#132e65" stroke-width="1.5"></path><path d="M410.7 355.4L410.7 355.4" stroke="#132e65" stroke-width="1.5"></path><path d="M410.7 355.4L540.38 338.02" stroke="#132e65" stroke-width="1.5"></path><path d="M410.7 355.4L355.2 490.87" stroke="#132e65" stroke-width="1.5"></path><path d="M355.2 490.87L355.2 490.87" stroke="#132e65" stroke-width="1.5"></path><path d="M355.2 490.87L516.71 527.85" stroke="#132e65" stroke-width="1.5"></path><path d="M355.2 490.87L387.31 678.57" stroke="#132e65" stroke-width="1.5"></path><path d="M387.31 678.57L387.31 678.57" stroke="#132e65" stroke-width="1.5"></path><path d="M387.31 678.57L507.55 645.15" stroke="#132e65" stroke-width="1.5"></path><path d="M387.31 678.57L194.06 678.55" stroke="#132e65" stroke-width="1.5"></path><path d="M540.38 338.02L540.38 338.02" stroke="#132e65" stroke-width="1.5"></path><path d="M540.38 338.02L644.22 390.02" stroke="#132e65" stroke-width="1.5"></path><path d="M540.38 338.02L694.73 236.86" stroke="#132e65" stroke-width="1.5"></path><path d="M540.38 338.02L516.71 527.85" stroke="#132e65" stroke-width="1.5"></path><path d="M540.38 338.02L355.2 490.87" stroke="#132e65" stroke-width="1.5"></path><path d="M516.71 527.85L516.71 527.85" stroke="#132e65" stroke-width="1.5"></path><path d="M516.71 527.85L507.55 645.15" stroke="#132e65" stroke-width="1.5"></path><path d="M507.55 645.15L507.55 645.15" stroke="#132e65" stroke-width="1.5"></path><path d="M507.55 645.15L661.54 709.68" stroke="#132e65" stroke-width="1.5"></path><path d="M694.73 236.86L694.73 236.86" stroke="#132e65" stroke-width="1.5"></path><path d="M694.73 236.86L827.38 254.4" stroke="#132e65" stroke-width="1.5"></path><path d="M694.73 236.86L644.22 390.02" stroke="#132e65" stroke-width="1.5"></path><path d="M644.22 390.02L644.22 390.02" stroke="#132e65" stroke-width="1.5"></path><path d="M644.22 390.02L516.71 527.85" stroke="#132e65" stroke-width="1.5"></path><path d="M661.54 709.68L661.54 709.68" stroke="#132e65" stroke-width="1.5"></path><path d="M661.54 709.68L854.85 682.57" stroke="#132e65" stroke-width="1.5"></path><path d="M661.54 709.68L516.71 527.85" stroke="#132e65" stroke-width="1.5"></path><path d="M827.38 254.4L827.38 254.4" stroke="#132e65" stroke-width="1.5"></path><path d="M827.38 254.4L972.57 226.57" stroke="#132e65" stroke-width="1.5"></path><path d="M827.38 254.4L837.29 404.04" stroke="#132e65" stroke-width="1.5"></path><path d="M827.38 254.4L946.23 102.95" stroke="#132e65" stroke-width="1.5"></path><path d="M827.38 254.4L958.04 407.21" stroke="#132e65" stroke-width="1.5"></path><path d="M827.38 254.4L644.22 390.02" stroke="#132e65" stroke-width="1.5"></path><path d="M837.29 404.04L837.29 404.04" stroke="#132e65" stroke-width="1.5"></path><path d="M837.29 404.04L958.04 407.21" stroke="#132e65" stroke-width="1.5"></path><path d="M837.29 404.04L969.33 488.83" stroke="#132e65" stroke-width="1.5"></path><path d="M837.29 404.04L858.79 560.16" stroke="#132e65" stroke-width="1.5"></path><path d="M837.29 404.04L644.22 390.02" stroke="#132e65" stroke-width="1.5"></path><path d="M858.79 560.16L858.79 560.16" stroke="#132e65" stroke-width="1.5"></path><path d="M858.79 560.16L854.85 682.57" stroke="#132e65" stroke-width="1.5"></path><path d="M858.79 560.16L969.33 488.83" stroke="#132e65" stroke-width="1.5"></path><path d="M858.79 560.16L980.58 689.03" stroke="#132e65" stroke-width="1.5"></path><path d="M858.79 560.16L958.04 407.21" stroke="#132e65" stroke-width="1.5"></path><path d="M858.79 560.16L661.54 709.68" stroke="#132e65" stroke-width="1.5"></path><path d="M854.85 682.57L854.85 682.57" stroke="#132e65" stroke-width="1.5"></path><path d="M854.85 682.57L980.58 689.03" stroke="#132e65" stroke-width="1.5"></path><path d="M1012.47 -64.66L1012.47 -64.66" stroke="#132e65" stroke-width="1.5"></path><path d="M1012.47 -64.66L1096.74 -56.21" stroke="#132e65" stroke-width="1.5"></path><path d="M946.23 102.95L946.23 102.95" stroke="#132e65" stroke-width="1.5"></path><path d="M946.23 102.95L972.57 226.57" stroke="#132e65" stroke-width="1.5"></path><path d="M972.57 226.57L972.57 226.57" stroke="#132e65" stroke-width="1.5"></path><path d="M972.57 226.57L1104.06 216.99" stroke="#132e65" stroke-width="1.5"></path><path d="M972.57 226.57L958.04 407.21" stroke="#132e65" stroke-width="1.5"></path><path d="M972.57 226.57L1123.36 106.53" stroke="#132e65" stroke-width="1.5"></path><path d="M958.04 407.21L958.04 407.21" stroke="#132e65" stroke-width="1.5"></path><path d="M958.04 407.21L969.33 488.83" stroke="#132e65" stroke-width="1.5"></path><path d="M958.04 407.21L1146.16 379.42" stroke="#132e65" stroke-width="1.5"></path><path d="M969.33 488.83L969.33 488.83" stroke="#132e65" stroke-width="1.5"></path><path d="M969.33 488.83L1161.46 514.24" stroke="#132e65" stroke-width="1.5"></path><path d="M969.33 488.83L980.58 689.03" stroke="#132e65" stroke-width="1.5"></path><path d="M980.58 689.03L980.58 689.03" stroke="#132e65" stroke-width="1.5"></path><path d="M980.58 689.03L1155.72 700.87" stroke="#132e65" stroke-width="1.5"></path><path d="M1096.74 -56.21L1096.74 -56.21" stroke="#132e65" stroke-width="1.5"></path><path d="M1096.74 -56.21L1123.36 106.53" stroke="#132e65" stroke-width="1.5"></path><path d="M1096.74 -56.21L1261.31 -89.22" stroke="#132e65" stroke-width="1.5"></path><path d="M1096.74 -56.21L1275.46 41.3" stroke="#132e65" stroke-width="1.5"></path><path d="M1096.74 -56.21L946.23 102.95" stroke="#132e65" stroke-width="1.5"></path><path d="M1096.74 -56.21L1104.06 216.99" stroke="#132e65" stroke-width="1.5"></path><path d="M1123.36 106.53L1123.36 106.53" stroke="#132e65" stroke-width="1.5"></path><path d="M1123.36 106.53L1104.06 216.99" stroke="#132e65" stroke-width="1.5"></path><path d="M1123.36 106.53L1275.46 41.3" stroke="#132e65" stroke-width="1.5"></path><path d="M1123.36 106.53L946.23 102.95" stroke="#132e65" stroke-width="1.5"></path><path d="M1123.36 106.53L1012.47 -64.66" stroke="#132e65" stroke-width="1.5"></path><path d="M1104.06 216.99L1104.06 216.99" stroke="#132e65" stroke-width="1.5"></path><path d="M1104.06 216.99L1146.16 379.42" stroke="#132e65" stroke-width="1.5"></path><path d="M1104.06 216.99L946.23 102.95" stroke="#132e65" stroke-width="1.5"></path><path d="M1104.06 216.99L1311.98 237.05" stroke="#132e65" stroke-width="1.5"></path><path d="M1146.16 379.42L1146.16 379.42" stroke="#132e65" stroke-width="1.5"></path><path d="M1146.16 379.42L1161.46 514.24" stroke="#132e65" stroke-width="1.5"></path><path d="M1146.16 379.42L1309.67 392.84" stroke="#132e65" stroke-width="1.5"></path><path d="M1146.16 379.42L969.33 488.83" stroke="#132e65" stroke-width="1.5"></path><path d="M1146.16 379.42L1311.98 237.05" stroke="#132e65" stroke-width="1.5"></path><path d="M1161.46 514.24L1161.46 514.24" stroke="#132e65" stroke-width="1.5"></path><path d="M1161.46 514.24L1308.58 545.98" stroke="#132e65" stroke-width="1.5"></path><path d="M1155.72 700.87L1155.72 700.87" stroke="#132e65" stroke-width="1.5"></path><path d="M1155.72 700.87L1252.28 689.6" stroke="#132e65" stroke-width="1.5"></path><path d="M1155.72 700.87L1161.46 514.24" stroke="#132e65" stroke-width="1.5"></path><path d="M1155.72 700.87L1308.58 545.98" stroke="#132e65" stroke-width="1.5"></path><path d="M1155.72 700.87L1420.72 693.65" stroke="#132e65" stroke-width="1.5"></path><path d="M1155.72 700.87L969.33 488.83" stroke="#132e65" stroke-width="1.5"></path><path d="M1261.31 -89.22L1261.31 -89.22" stroke="#132e65" stroke-width="1.5"></path><path d="M1261.31 -89.22L1275.46 41.3" stroke="#132e65" stroke-width="1.5"></path><path d="M1261.31 -89.22L1424.82 -87.38" stroke="#132e65" stroke-width="1.5"></path><path d="M1261.31 -89.22L1123.36 106.53" stroke="#132e65" stroke-width="1.5"></path><path d="M1275.46 41.3L1275.46 41.3" stroke="#132e65" stroke-width="1.5"></path><path d="M1275.46 41.3L1442.7 87.34" stroke="#132e65" stroke-width="1.5"></path><path d="M1311.98 237.05L1311.98 237.05" stroke="#132e65" stroke-width="1.5"></path><path d="M1311.98 237.05L1447.57 241.44" stroke="#132e65" stroke-width="1.5"></path><path d="M1311.98 237.05L1394.04 357.55" stroke="#132e65" stroke-width="1.5"></path><path d="M1311.98 237.05L1309.67 392.84" stroke="#132e65" stroke-width="1.5"></path><path d="M1311.98 237.05L1442.7 87.34" stroke="#132e65" stroke-width="1.5"></path><path d="M1309.67 392.84L1309.67 392.84" stroke="#132e65" stroke-width="1.5"></path><path d="M1309.67 392.84L1394.04 357.55" stroke="#132e65" stroke-width="1.5"></path><path d="M1309.67 392.84L1308.58 545.98" stroke="#132e65" stroke-width="1.5"></path><path d="M1309.67 392.84L1161.46 514.24" stroke="#132e65" stroke-width="1.5"></path><path d="M1308.58 545.98L1308.58 545.98" stroke="#132e65" stroke-width="1.5"></path><path d="M1308.58 545.98L1431.74 554.32" stroke="#132e65" stroke-width="1.5"></path><path d="M1252.28 689.6L1252.28 689.6" stroke="#132e65" stroke-width="1.5"></path><path d="M1252.28 689.6L1308.58 545.98" stroke="#132e65" stroke-width="1.5"></path><path d="M1252.28 689.6L1420.72 693.65" stroke="#132e65" stroke-width="1.5"></path><path d="M1252.28 689.6L1161.46 514.24" stroke="#132e65" stroke-width="1.5"></path><path d="M1252.28 689.6L1431.74 554.32" stroke="#132e65" stroke-width="1.5"></path><path d="M1252.28 689.6L980.58 689.03" stroke="#132e65" stroke-width="1.5"></path><path d="M1424.82 -87.38L1424.82 -87.38" stroke="#132e65" stroke-width="1.5"></path><path d="M1424.82 -87.38L1572.94 -76.36" stroke="#132e65" stroke-width="1.5"></path><path d="M1424.82 -87.38L1442.7 87.34" stroke="#132e65" stroke-width="1.5"></path><path d="M1442.7 87.34L1442.7 87.34" stroke="#132e65" stroke-width="1.5"></path><path d="M1442.7 87.34L1542.09 68.91" stroke="#132e65" stroke-width="1.5"></path><path d="M1442.7 87.34L1447.57 241.44" stroke="#132e65" stroke-width="1.5"></path><path d="M1442.7 87.34L1566.42 190" stroke="#132e65" stroke-width="1.5"></path><path d="M1447.57 241.44L1447.57 241.44" stroke="#132e65" stroke-width="1.5"></path><path d="M1447.57 241.44L1394.04 357.55" stroke="#132e65" stroke-width="1.5"></path><path d="M1447.57 241.44L1566.42 190" stroke="#132e65" stroke-width="1.5"></path><path d="M1447.57 241.44L1561.7 401.22" stroke="#132e65" stroke-width="1.5"></path><path d="M1394.04 357.55L1394.04 357.55" stroke="#132e65" stroke-width="1.5"></path><path d="M1431.74 554.32L1431.74 554.32" stroke="#132e65" stroke-width="1.5"></path><path d="M1431.74 554.32L1554.28 517" stroke="#132e65" stroke-width="1.5"></path><path d="M1431.74 554.32L1420.72 693.65" stroke="#132e65" stroke-width="1.5"></path><path d="M1431.74 554.32L1564.41 668.57" stroke="#132e65" stroke-width="1.5"></path><path d="M1420.72 693.65L1420.72 693.65" stroke="#132e65" stroke-width="1.5"></path><path d="M1420.72 693.65L1564.41 668.57" stroke="#132e65" stroke-width="1.5"></path><path d="M1572.94 -76.36L1572.94 -76.36" stroke="#132e65" stroke-width="1.5"></path><path d="M1572.94 -76.36L1542.09 68.91" stroke="#132e65" stroke-width="1.5"></path><path d="M1572.94 -76.36L1442.7 87.34" stroke="#132e65" stroke-width="1.5"></path><path d="M1572.94 -76.36L1566.42 190" stroke="#132e65" stroke-width="1.5"></path><path d="M1542.09 68.91L1542.09 68.91" stroke="#132e65" stroke-width="1.5"></path><path d="M1542.09 68.91L1566.42 190" stroke="#132e65" stroke-width="1.5"></path><path d="M1566.42 190L1566.42 190" stroke="#132e65" stroke-width="1.5"></path><path d="M1561.7 401.22L1561.7 401.22" stroke="#132e65" stroke-width="1.5"></path><path d="M1561.7 401.22L1554.28 517" stroke="#132e65" stroke-width="1.5"></path><path d="M1561.7 401.22L1394.04 357.55" stroke="#132e65" stroke-width="1.5"></path><path d="M1554.28 517L1554.28 517" stroke="#132e65" stroke-width="1.5"></path><path d="M1554.28 517L1564.41 668.57" stroke="#132e65" stroke-width="1.5"></path><path d="M1554.28 517L1420.72 693.65" stroke="#132e65" stroke-width="1.5"></path><path d="M1564.41 668.57L1564.41 668.57" stroke="#132e65" stroke-width="1.5"></path><path d="M1564.41 668.57L1561.7 401.22" stroke="#132e65" stroke-width="1.5"></path><circle r="5" cx="-59.75" cy="340.63" fill="#132e65"></circle><circle r="5" cx="-50.36" cy="512.01" fill="#132e65"></circle><circle r="5" cx="-38.58" cy="680.17" fill="#132e65"></circle><circle r="5" cx="67.74" cy="369.04" fill="#132e65"></circle><circle r="5" cx="86.81" cy="499" fill="#132e65"></circle><circle r="5" cx="72" cy="710.47" fill="#132e65"></circle><circle r="5" cx="212.22" cy="393.86" fill="#132e65"></circle><circle r="5" cx="244.15" cy="499.84" fill="#132e65"></circle><circle r="5" cx="194.06" cy="678.55" fill="#132e65"></circle><circle r="5" cx="410.7" cy="355.4" fill="#132e65"></circle><circle r="5" cx="355.2" cy="490.87" fill="#132e65"></circle><circle r="5" cx="387.31" cy="678.57" fill="#132e65"></circle><circle r="5" cx="540.38" cy="338.02" fill="#132e65"></circle><circle r="5" cx="516.71" cy="527.85" fill="#132e65"></circle><circle r="5" cx="507.55" cy="645.15" fill="#132e65"></circle><circle r="5" cx="694.73" cy="236.86" fill="#132e65"></circle><circle r="5" cx="644.22" cy="390.02" fill="#132e65"></circle><circle r="5" cx="661.54" cy="709.68" fill="#132e65"></circle><circle r="5" cx="827.38" cy="254.4" fill="#132e65"></circle><circle r="5" cx="837.29" cy="404.04" fill="#132e65"></circle><circle r="5" cx="858.79" cy="560.16" fill="#132e65"></circle><circle r="5" cx="854.85" cy="682.57" fill="#132e65"></circle><circle r="5" cx="1012.47" cy="-64.66" fill="#132e65"></circle><circle r="5" cx="946.23" cy="102.95" fill="#132e65"></circle><circle r="5" cx="972.57" cy="226.57" fill="#132e65"></circle><circle r="5" cx="958.04" cy="407.21" fill="#132e65"></circle><circle r="5" cx="969.33" cy="488.83" fill="#132e65"></circle><circle r="5" cx="980.58" cy="689.03" fill="#132e65"></circle><circle r="5" cx="1096.74" cy="-56.21" fill="#132e65"></circle><circle r="5" cx="1123.36" cy="106.53" fill="#132e65"></circle><circle r="5" cx="1104.06" cy="216.99" fill="#132e65"></circle><circle r="5" cx="1146.16" cy="379.42" fill="#132e65"></circle><circle r="5" cx="1161.46" cy="514.24" fill="#132e65"></circle><circle r="5" cx="1155.72" cy="700.87" fill="#132e65"></circle><circle r="5" cx="1261.31" cy="-89.22" fill="#132e65"></circle><circle r="5" cx="1275.46" cy="41.3" fill="#132e65"></circle><circle r="5" cx="1311.98" cy="237.05" fill="#132e65"></circle><circle r="5" cx="1309.67" cy="392.84" fill="#132e65"></circle><circle r="5" cx="1308.58" cy="545.98" fill="#132e65"></circle><circle r="5" cx="1252.28" cy="689.6" fill="#132e65"></circle><circle r="5" cx="1424.82" cy="-87.38" fill="#132e65"></circle><circle r="5" cx="1442.7" cy="87.34" fill="#132e65"></circle><circle r="5" cx="1447.57" cy="241.44" fill="#132e65"></circle><circle r="5" cx="1394.04" cy="357.55" fill="#132e65"></circle><circle r="5" cx="1431.74" cy="554.32" fill="#132e65"></circle><circle r="5" cx="1420.72" cy="693.65" fill="#132e65"></circle><circle r="5" cx="1572.94" cy="-76.36" fill="#132e65"></circle><circle r="5" cx="1542.09" cy="68.91" fill="#132e65"></circle><circle r="5" cx="1566.42" cy="190" fill="#132e65"></circle><circle r="5" cx="1561.7" cy="401.22" fill="#132e65"></circle><circle r="5" cx="1554.28" cy="517" fill="#132e65"></circle><circle r="5" cx="1564.41" cy="668.57" fill="#132e65"></circle><path d="M-39.6 509.77L-39.6 509.77" stroke="hsl(228.5, 77.2%, 51.5%)" stroke-width="1.5"></path><path d="M-39.6 509.77L51 520.31" stroke="hsl(228.5, 77.2%, 51.5%)" stroke-width="1.5"></path><path d="M-39.6 509.77L-55.4 687.97" stroke="hsl(228.5, 77.2%, 51.5%)" stroke-width="1.5"></path><path d="M-39.6 509.77L69.58 693.34" stroke="hsl(228.5, 77.2%, 51.5%)" stroke-width="1.5"></path><path d="M830.6 488.63L830.6 488.63" stroke="hsl(228.5, 77.2%, 51.5%)" stroke-width="1.5"></path><path d="M830.6 488.63L802.56 389.7" stroke="hsl(228.5, 77.2%, 51.5%)" stroke-width="1.5"></path><path d="M830.6 488.63L703.52 540.35" stroke="hsl(228.5, 77.2%, 51.5%)" stroke-width="1.5"></path><path d="M1010.58 240.64L1010.58 240.64" stroke="hsl(228.5, 77.2%, 51.5%)" stroke-width="1.5"></path><path d="M1010.58 240.64L1098.68 222.05" stroke="hsl(228.5, 77.2%, 51.5%)" stroke-width="1.5"></path><path d="M1010.58 240.64L969.17 374.79" stroke="hsl(228.5, 77.2%, 51.5%)" stroke-width="1.5"></path><path d="M1010.58 240.64L1095.83 410.99" stroke="hsl(228.5, 77.2%, 51.5%)" stroke-width="1.5"></path><path d="M1010.58 240.64L802.56 389.7" stroke="hsl(228.5, 77.2%, 51.5%)" stroke-width="1.5"></path><path d="M1010.58 240.64L998.44 517.74" stroke="hsl(228.5, 77.2%, 51.5%)" stroke-width="1.5"></path><path d="M1098.68 222.05L1098.68 222.05" stroke="hsl(228.5, 77.2%, 51.5%)" stroke-width="1.5"></path><path d="M1098.68 222.05L1095.83 410.99" stroke="hsl(228.5, 77.2%, 51.5%)" stroke-width="1.5"></path><path d="M1098.68 222.05L969.17 374.79" stroke="hsl(228.5, 77.2%, 51.5%)" stroke-width="1.5"></path><path d="M1245.98 -39.99L1245.98 -39.99" stroke="hsl(228.5, 77.2%, 51.5%)" stroke-width="1.5"></path><path d="M1245.98 -39.99L1295.27 95.85" stroke="hsl(228.5, 77.2%, 51.5%)" stroke-width="1.5"></path><path d="M1245.98 -39.99L1401.05 70.76" stroke="hsl(228.5, 77.2%, 51.5%)" stroke-width="1.5"></path><path d="M1245.98 -39.99L1456.83 -61.33" stroke="hsl(228.5, 77.2%, 51.5%)" stroke-width="1.5"></path><path d="M1245.98 -39.99L1098.68 222.05" stroke="hsl(228.5, 77.2%, 51.5%)" stroke-width="1.5"></path><path d="M1245.98 -39.99L1541.35 89.03" stroke="hsl(228.5, 77.2%, 51.5%)" stroke-width="1.5"></path><path d="M1245.98 -39.99L1604.64 -97.29" stroke="hsl(228.5, 77.2%, 51.5%)" stroke-width="1.5"></path><path d="M1264.92 639.86L1264.92 639.86" stroke="hsl(228.5, 77.2%, 51.5%)" stroke-width="1.5"></path><path d="M1264.92 639.86L1290.66 550.36" stroke="hsl(228.5, 77.2%, 51.5%)" stroke-width="1.5"></path><path d="M1541.35 89.03L1541.35 89.03" stroke="hsl(228.5, 77.2%, 51.5%)" stroke-width="1.5"></path><path d="M1541.35 89.03L1401.05 70.76" stroke="hsl(228.5, 77.2%, 51.5%)" stroke-width="1.5"></path><path d="M1541.35 89.03L1456.83 -61.33" stroke="hsl(228.5, 77.2%, 51.5%)" stroke-width="1.5"></path><path d="M1541.35 89.03L1604.64 -97.29" stroke="hsl(228.5, 77.2%, 51.5%)" stroke-width="1.5"></path><path d="M1541.35 89.03L1295.27 95.85" stroke="hsl(228.5, 77.2%, 51.5%)" stroke-width="1.5"></path><path d="M1541.35 89.03L1555.81 394.94" stroke="hsl(228.5, 77.2%, 51.5%)" stroke-width="1.5"></path><path d="M-55.4 687.97L-55.4 687.97" stroke="hsl(228.5, 77.2%, 51.5%)" stroke-width="1.5"></path><path d="M-55.4 687.97L69.58 693.34" stroke="hsl(228.5, 77.2%, 51.5%)" stroke-width="1.5"></path><path d="M-55.4 687.97L51 520.31" stroke="hsl(228.5, 77.2%, 51.5%)" stroke-width="1.5"></path><path d="M-55.4 687.97L229.57 656.88" stroke="hsl(228.5, 77.2%, 51.5%)" stroke-width="1.5"></path><path d="M51 520.31L51 520.31" stroke="hsl(228.5, 77.2%, 51.5%)" stroke-width="1.5"></path><path d="M51 520.31L216.29 549.35" stroke="hsl(228.5, 77.2%, 51.5%)" stroke-width="1.5"></path><path d="M51 520.31L69.58 693.34" stroke="hsl(228.5, 77.2%, 51.5%)" stroke-width="1.5"></path><path d="M69.58 693.34L69.58 693.34" stroke="hsl(228.5, 77.2%, 51.5%)" stroke-width="1.5"></path><path d="M69.58 693.34L229.57 656.88" stroke="hsl(228.5, 77.2%, 51.5%)" stroke-width="1.5"></path><path d="M69.58 693.34L216.29 549.35" stroke="hsl(228.5, 77.2%, 51.5%)" stroke-width="1.5"></path><path d="M216.29 549.35L216.29 549.35" stroke="hsl(228.5, 77.2%, 51.5%)" stroke-width="1.5"></path><path d="M216.29 549.35L229.57 656.88" stroke="hsl(228.5, 77.2%, 51.5%)" stroke-width="1.5"></path><path d="M216.29 549.35L341.9 509.7" stroke="hsl(228.5, 77.2%, 51.5%)" stroke-width="1.5"></path><path d="M229.57 656.88L229.57 656.88" stroke="hsl(228.5, 77.2%, 51.5%)" stroke-width="1.5"></path><path d="M229.57 656.88L402.6 637.55" stroke="hsl(228.5, 77.2%, 51.5%)" stroke-width="1.5"></path><path d="M229.57 656.88L341.9 509.7" stroke="hsl(228.5, 77.2%, 51.5%)" stroke-width="1.5"></path><path d="M341.9 509.7L341.9 509.7" stroke="hsl(228.5, 77.2%, 51.5%)" stroke-width="1.5"></path><path d="M341.9 509.7L402.6 637.55" stroke="hsl(228.5, 77.2%, 51.5%)" stroke-width="1.5"></path><path d="M341.9 509.7L515.78 554.81" stroke="hsl(228.5, 77.2%, 51.5%)" stroke-width="1.5"></path><path d="M402.6 637.55L402.6 637.55" stroke="hsl(228.5, 77.2%, 51.5%)" stroke-width="1.5"></path><path d="M402.6 637.55L521.63 667.7" stroke="hsl(228.5, 77.2%, 51.5%)" stroke-width="1.5"></path><path d="M402.6 637.55L515.78 554.81" stroke="hsl(228.5, 77.2%, 51.5%)" stroke-width="1.5"></path><path d="M515.78 554.81L515.78 554.81" stroke="hsl(228.5, 77.2%, 51.5%)" stroke-width="1.5"></path><path d="M515.78 554.81L521.63 667.7" stroke="hsl(228.5, 77.2%, 51.5%)" stroke-width="1.5"></path><path d="M515.78 554.81L703.52 540.35" stroke="hsl(228.5, 77.2%, 51.5%)" stroke-width="1.5"></path><path d="M521.63 667.7L521.63 667.7" stroke="hsl(228.5, 77.2%, 51.5%)" stroke-width="1.5"></path><path d="M521.63 667.7L703.52 540.35" stroke="hsl(228.5, 77.2%, 51.5%)" stroke-width="1.5"></path><path d="M521.63 667.7L341.9 509.7" stroke="hsl(228.5, 77.2%, 51.5%)" stroke-width="1.5"></path><path d="M521.63 667.7L229.57 656.88" stroke="hsl(228.5, 77.2%, 51.5%)" stroke-width="1.5"></path><path d="M521.63 667.7L699.9 404.66" stroke="hsl(228.5, 77.2%, 51.5%)" stroke-width="1.5"></path><path d="M699.9 404.66L699.9 404.66" stroke="hsl(228.5, 77.2%, 51.5%)" stroke-width="1.5"></path><path d="M699.9 404.66L802.56 389.7" stroke="hsl(228.5, 77.2%, 51.5%)" stroke-width="1.5"></path><path d="M699.9 404.66L703.52 540.35" stroke="hsl(228.5, 77.2%, 51.5%)" stroke-width="1.5"></path><path d="M703.52 540.35L703.52 540.35" stroke="hsl(228.5, 77.2%, 51.5%)" stroke-width="1.5"></path><path d="M703.52 540.35L802.56 389.7" stroke="hsl(228.5, 77.2%, 51.5%)" stroke-width="1.5"></path><path d="M703.52 540.35L998.44 517.74" stroke="hsl(228.5, 77.2%, 51.5%)" stroke-width="1.5"></path><path d="M802.56 389.7L802.56 389.7" stroke="hsl(228.5, 77.2%, 51.5%)" stroke-width="1.5"></path><path d="M802.56 389.7L969.17 374.79" stroke="hsl(228.5, 77.2%, 51.5%)" stroke-width="1.5"></path><path d="M802.56 389.7L998.44 517.74" stroke="hsl(228.5, 77.2%, 51.5%)" stroke-width="1.5"></path><path d="M969.17 374.79L969.17 374.79" stroke="hsl(228.5, 77.2%, 51.5%)" stroke-width="1.5"></path><path d="M969.17 374.79L1095.83 410.99" stroke="hsl(228.5, 77.2%, 51.5%)" stroke-width="1.5"></path><path d="M969.17 374.79L998.44 517.74" stroke="hsl(228.5, 77.2%, 51.5%)" stroke-width="1.5"></path><path d="M998.44 517.74L998.44 517.74" stroke="hsl(228.5, 77.2%, 51.5%)" stroke-width="1.5"></path><path d="M998.44 517.74L1095.83 410.99" stroke="hsl(228.5, 77.2%, 51.5%)" stroke-width="1.5"></path><path d="M998.44 517.74L1144.14 540.85" stroke="hsl(228.5, 77.2%, 51.5%)" stroke-width="1.5"></path><path d="M998.44 517.74L1000.32 675.41" stroke="hsl(228.5, 77.2%, 51.5%)" stroke-width="1.5"></path><path d="M998.44 517.74L830.6 488.63" stroke="hsl(228.5, 77.2%, 51.5%)" stroke-width="1.5"></path><path d="M1000.32 675.41L1000.32 675.41" stroke="hsl(228.5, 77.2%, 51.5%)" stroke-width="1.5"></path><path d="M1000.32 675.41L1112.01 654.47" stroke="hsl(228.5, 77.2%, 51.5%)" stroke-width="1.5"></path><path d="M1000.32 675.41L1144.14 540.85" stroke="hsl(228.5, 77.2%, 51.5%)" stroke-width="1.5"></path><path d="M1000.32 675.41L830.6 488.63" stroke="hsl(228.5, 77.2%, 51.5%)" stroke-width="1.5"></path><path d="M1000.32 675.41L1264.92 639.86" stroke="hsl(228.5, 77.2%, 51.5%)" stroke-width="1.5"></path><path d="M1000.32 675.41L1095.83 410.99" stroke="hsl(228.5, 77.2%, 51.5%)" stroke-width="1.5"></path><path d="M1095.83 410.99L1095.83 410.99" stroke="hsl(228.5, 77.2%, 51.5%)" stroke-width="1.5"></path><path d="M1144.14 540.85L1144.14 540.85" stroke="hsl(228.5, 77.2%, 51.5%)" stroke-width="1.5"></path><path d="M1144.14 540.85L1112.01 654.47" stroke="hsl(228.5, 77.2%, 51.5%)" stroke-width="1.5"></path><path d="M1144.14 540.85L1095.83 410.99" stroke="hsl(228.5, 77.2%, 51.5%)" stroke-width="1.5"></path><path d="M1144.14 540.85L1290.66 550.36" stroke="hsl(228.5, 77.2%, 51.5%)" stroke-width="1.5"></path><path d="M1144.14 540.85L1264.92 639.86" stroke="hsl(228.5, 77.2%, 51.5%)" stroke-width="1.5"></path><path d="M1112.01 654.47L1112.01 654.47" stroke="hsl(228.5, 77.2%, 51.5%)" stroke-width="1.5"></path><path d="M1112.01 654.47L1264.92 639.86" stroke="hsl(228.5, 77.2%, 51.5%)" stroke-width="1.5"></path><path d="M1295.27 95.85L1295.27 95.85" stroke="hsl(228.5, 77.2%, 51.5%)" stroke-width="1.5"></path><path d="M1295.27 95.85L1401.05 70.76" stroke="hsl(228.5, 77.2%, 51.5%)" stroke-width="1.5"></path><path d="M1295.27 95.85L1456.83 -61.33" stroke="hsl(228.5, 77.2%, 51.5%)" stroke-width="1.5"></path><path d="M1305.06 409.14L1305.06 409.14" stroke="hsl(228.5, 77.2%, 51.5%)" stroke-width="1.5"></path><path d="M1305.06 409.14L1437.73 411.65" stroke="hsl(228.5, 77.2%, 51.5%)" stroke-width="1.5"></path><path d="M1305.06 409.14L1290.66 550.36" stroke="hsl(228.5, 77.2%, 51.5%)" stroke-width="1.5"></path><path d="M1305.06 409.14L1439 497.42" stroke="hsl(228.5, 77.2%, 51.5%)" stroke-width="1.5"></path><path d="M1305.06 409.14L1144.14 540.85" stroke="hsl(228.5, 77.2%, 51.5%)" stroke-width="1.5"></path><path d="M1290.66 550.36L1290.66 550.36" stroke="hsl(228.5, 77.2%, 51.5%)" stroke-width="1.5"></path><path d="M1456.83 -61.33L1456.83 -61.33" stroke="hsl(228.5, 77.2%, 51.5%)" stroke-width="1.5"></path><path d="M1456.83 -61.33L1401.05 70.76" stroke="hsl(228.5, 77.2%, 51.5%)" stroke-width="1.5"></path><path d="M1456.83 -61.33L1604.64 -97.29" stroke="hsl(228.5, 77.2%, 51.5%)" stroke-width="1.5"></path><path d="M1401.05 70.76L1401.05 70.76" stroke="hsl(228.5, 77.2%, 51.5%)" stroke-width="1.5"></path><path d="M1437.73 411.65L1437.73 411.65" stroke="hsl(228.5, 77.2%, 51.5%)" stroke-width="1.5"></path><path d="M1437.73 411.65L1439 497.42" stroke="hsl(228.5, 77.2%, 51.5%)" stroke-width="1.5"></path><path d="M1437.73 411.65L1555.81 394.94" stroke="hsl(228.5, 77.2%, 51.5%)" stroke-width="1.5"></path><path d="M1439 497.42L1439 497.42" stroke="hsl(228.5, 77.2%, 51.5%)" stroke-width="1.5"></path><path d="M1439 497.42L1555.81 394.94" stroke="hsl(228.5, 77.2%, 51.5%)" stroke-width="1.5"></path><path d="M1439 497.42L1290.66 550.36" stroke="hsl(228.5, 77.2%, 51.5%)" stroke-width="1.5"></path><path d="M1453.43 672.24L1453.43 672.24" stroke="hsl(228.5, 77.2%, 51.5%)" stroke-width="1.5"></path><path d="M1453.43 672.24L1611.04 663.02" stroke="hsl(228.5, 77.2%, 51.5%)" stroke-width="1.5"></path><path d="M1453.43 672.24L1439 497.42" stroke="hsl(228.5, 77.2%, 51.5%)" stroke-width="1.5"></path><path d="M1453.43 672.24L1264.92 639.86" stroke="hsl(228.5, 77.2%, 51.5%)" stroke-width="1.5"></path><path d="M1604.64 -97.29L1604.64 -97.29" stroke="hsl(228.5, 77.2%, 51.5%)" stroke-width="1.5"></path><path d="M1604.64 -97.29L1401.05 70.76" stroke="hsl(228.5, 77.2%, 51.5%)" stroke-width="1.5"></path><path d="M1555.81 394.94L1555.81 394.94" stroke="hsl(228.5, 77.2%, 51.5%)" stroke-width="1.5"></path><path d="M1611.04 663.02L1611.04 663.02" stroke="hsl(228.5, 77.2%, 51.5%)" stroke-width="1.5"></path><path d="M1611.04 663.02L1439 497.42" stroke="hsl(228.5, 77.2%, 51.5%)" stroke-width="1.5"></path><path d="M1611.04 663.02L1555.81 394.94" stroke="hsl(228.5, 77.2%, 51.5%)" stroke-width="1.5"></path><path d="M1611.04 663.02L1437.73 411.65" stroke="hsl(228.5, 77.2%, 51.5%)" stroke-width="1.5"></path><circle r="25" cx="-39.6" cy="509.77" fill="url(#SvgjsRadialGradient1007)"></circle><circle r="25" cx="830.6" cy="488.63" fill="url(#SvgjsRadialGradient1007)"></circle><circle r="25" cx="1010.58" cy="240.64" fill="url(#SvgjsRadialGradient1007)"></circle><circle r="25" cx="1098.68" cy="222.05" fill="url(#SvgjsRadialGradient1007)"></circle><circle r="25" cx="1245.98" cy="-39.99" fill="url(#SvgjsRadialGradient1007)"></circle><circle r="25" cx="1264.92" cy="639.86" fill="url(#SvgjsRadialGradient1007)"></circle><circle r="25" cx="1541.35" cy="89.03" fill="url(#SvgjsRadialGradient1007)"></circle><circle r="5" cx="-55.4" cy="687.97" fill="#8b9ad9"></circle><circle r="5" cx="51" cy="520.31" fill="#8b9ad9"></circle><circle r="5" cx="69.58" cy="693.34" fill="#8b9ad9"></circle><circle r="5" cx="216.29" cy="549.35" fill="#8b9ad9"></circle><circle r="5" cx="229.57" cy="656.88" fill="#8b9ad9"></circle><circle r="5" cx="341.9" cy="509.7" fill="#8b9ad9"></circle><circle r="5" cx="402.6" cy="637.55" fill="#8b9ad9"></circle><circle r="5" cx="515.78" cy="554.81" fill="#8b9ad9"></circle><circle r="5" cx="521.63" cy="667.7" fill="#8b9ad9"></circle><circle r="5" cx="699.9" cy="404.66" fill="#8b9ad9"></circle><circle r="5" cx="703.52" cy="540.35" fill="#8b9ad9"></circle><circle r="5" cx="802.56" cy="389.7" fill="#8b9ad9"></circle><circle r="5" cx="969.17" cy="374.79" fill="#8b9ad9"></circle><circle r="5" cx="998.44" cy="517.74" fill="#8b9ad9"></circle><circle r="5" cx="1000.32" cy="675.41" fill="#8b9ad9"></circle><circle r="5" cx="1095.83" cy="410.99" fill="#8b9ad9"></circle><circle r="5" cx="1144.14" cy="540.85" fill="#8b9ad9"></circle><circle r="5" cx="1112.01" cy="654.47" fill="#8b9ad9"></circle><circle r="5" cx="1295.27" cy="95.85" fill="#8b9ad9"></circle><circle r="5" cx="1305.06" cy="409.14" fill="#8b9ad9"></circle><circle r="5" cx="1290.66" cy="550.36" fill="#8b9ad9"></circle><circle r="5" cx="1456.83" cy="-61.33" fill="#8b9ad9"></circle><circle r="5" cx="1401.05" cy="70.76" fill="#8b9ad9"></circle><circle r="5" cx="1437.73" cy="411.65" fill="#8b9ad9"></circle><circle r="5" cx="1439" cy="497.42" fill="#8b9ad9"></circle><circle r="5" cx="1453.43" cy="672.24" fill="#8b9ad9"></circle><circle r="5" cx="1604.64" cy="-97.29" fill="#8b9ad9"></circle><circle r="5" cx="1555.81" cy="394.94" fill="#8b9ad9"></circle><circle r="5" cx="1611.04" cy="663.02" fill="#8b9ad9"></circle></g><defs><mask id="SvgjsMask1006"><rect width="1440" height="560" fill="#ffffff"></rect></mask><radialGradient id="SvgjsRadialGradient1007"><stop stop-color="#ffffff" offset="0.1"></stop><stop stop-color="#1735b3" offset="0.2"></stop><stop stop-color="rgba(23, 53, 179, 0)" offset="1"></stop></radialGradient></defs></svg>