<svg xmlns="http://www.w3.org/2000/svg" version="1.1" xmlns:xlink="http://www.w3.org/1999/xlink" xmlns:svgjs="http://svgjs.com/svgjs" width="1440" height="560" preserveAspectRatio="none" viewBox="0 0 1440 560"><g mask="url(&quot;#SvgjsMask1032&quot;)" fill="none"><rect width="1440" height="560" x="0" y="0" fill="#0e2a47"></rect><path d="M-65.94 377.2L-65.94 377.2" stroke="#132e65" stroke-width="1.5"></path><path d="M-65.94 377.2L-39.16 541.04" stroke="#132e65" stroke-width="1.5"></path><path d="M-65.94 377.2L110.08 399.31" stroke="#132e65" stroke-width="1.5"></path><path d="M-65.94 377.2L100.9 545.56" stroke="#132e65" stroke-width="1.5"></path><path d="M-65.94 377.2L229.88 353.57" stroke="#132e65" stroke-width="1.5"></path><path d="M-39.16 541.04L-39.16 541.04" stroke="#132e65" stroke-width="1.5"></path><path d="M-39.16 541.04L100.9 545.56" stroke="#132e65" stroke-width="1.5"></path><path d="M-39.16 541.04L60.69 657.08" stroke="#132e65" stroke-width="1.5"></path><path d="M-39.16 541.04L110.08 399.31" stroke="#132e65" stroke-width="1.5"></path><path d="M-39.16 541.04L235.73 547.06" stroke="#132e65" stroke-width="1.5"></path><path d="M-39.16 541.04L194.33 687" stroke="#132e65" stroke-width="1.5"></path><path d="M110.08 399.31L110.08 399.31" stroke="#132e65" stroke-width="1.5"></path><path d="M110.08 399.31L229.88 353.57" stroke="#132e65" stroke-width="1.5"></path><path d="M100.9 545.56L100.9 545.56" stroke="#132e65" stroke-width="1.5"></path><path d="M100.9 545.56L60.69 657.08" stroke="#132e65" stroke-width="1.5"></path><path d="M100.9 545.56L235.73 547.06" stroke="#132e65" stroke-width="1.5"></path><path d="M100.9 545.56L110.08 399.31" stroke="#132e65" stroke-width="1.5"></path><path d="M60.69 657.08L60.69 657.08" stroke="#132e65" stroke-width="1.5"></path><path d="M60.69 657.08L194.33 687" stroke="#132e65" stroke-width="1.5"></path><path d="M229.88 353.57L229.88 353.57" stroke="#132e65" stroke-width="1.5"></path><path d="M229.88 353.57L411.54 376.26" stroke="#132e65" stroke-width="1.5"></path><path d="M235.73 547.06L235.73 547.06" stroke="#132e65" stroke-width="1.5"></path><path d="M235.73 547.06L351.82 502" stroke="#132e65" stroke-width="1.5"></path><path d="M235.73 547.06L194.33 687" stroke="#132e65" stroke-width="1.5"></path><path d="M235.73 547.06L372.55 679" stroke="#132e65" stroke-width="1.5"></path><path d="M235.73 547.06L229.88 353.57" stroke="#132e65" stroke-width="1.5"></path><path d="M235.73 547.06L110.08 399.31" stroke="#132e65" stroke-width="1.5"></path><path d="M194.33 687L194.33 687" stroke="#132e65" stroke-width="1.5"></path><path d="M194.33 687L100.9 545.56" stroke="#132e65" stroke-width="1.5"></path><path d="M411.54 376.26L411.54 376.26" stroke="#132e65" stroke-width="1.5"></path><path d="M411.54 376.26L539.4 362.61" stroke="#132e65" stroke-width="1.5"></path><path d="M411.54 376.26L351.82 502" stroke="#132e65" stroke-width="1.5"></path><path d="M351.82 502L351.82 502" stroke="#132e65" stroke-width="1.5"></path><path d="M372.55 679L372.55 679" stroke="#132e65" stroke-width="1.5"></path><path d="M372.55 679L542.95 708.87" stroke="#132e65" stroke-width="1.5"></path><path d="M372.55 679L351.82 502" stroke="#132e65" stroke-width="1.5"></path><path d="M372.55 679L194.33 687" stroke="#132e65" stroke-width="1.5"></path><path d="M539.4 362.61L539.4 362.61" stroke="#132e65" stroke-width="1.5"></path><path d="M539.4 362.61L661.21 387.18" stroke="#132e65" stroke-width="1.5"></path><path d="M539.4 362.61L487.88 525.41" stroke="#132e65" stroke-width="1.5"></path><path d="M487.88 525.41L487.88 525.41" stroke="#132e65" stroke-width="1.5"></path><path d="M487.88 525.41L351.82 502" stroke="#132e65" stroke-width="1.5"></path><path d="M487.88 525.41L411.54 376.26" stroke="#132e65" stroke-width="1.5"></path><path d="M542.95 708.87L542.95 708.87" stroke="#132e65" stroke-width="1.5"></path><path d="M542.95 708.87L652.21 641.39" stroke="#132e65" stroke-width="1.5"></path><path d="M671.89 242.45L671.89 242.45" stroke="#132e65" stroke-width="1.5"></path><path d="M671.89 242.45L661.21 387.18" stroke="#132e65" stroke-width="1.5"></path><path d="M671.89 242.45L824.59 206.64" stroke="#132e65" stroke-width="1.5"></path><path d="M671.89 242.45L801.88 351.31" stroke="#132e65" stroke-width="1.5"></path><path d="M671.89 242.45L539.4 362.61" stroke="#132e65" stroke-width="1.5"></path><path d="M671.89 242.45L846.92 109" stroke="#132e65" stroke-width="1.5"></path><path d="M671.89 242.45L671.44 490.36" stroke="#132e65" stroke-width="1.5"></path><path d="M661.21 387.18L661.21 387.18" stroke="#132e65" stroke-width="1.5"></path><path d="M661.21 387.18L671.44 490.36" stroke="#132e65" stroke-width="1.5"></path><path d="M671.44 490.36L671.44 490.36" stroke="#132e65" stroke-width="1.5"></path><path d="M671.44 490.36L652.21 641.39" stroke="#132e65" stroke-width="1.5"></path><path d="M671.44 490.36L851.55 495.58" stroke="#132e65" stroke-width="1.5"></path><path d="M671.44 490.36L539.4 362.61" stroke="#132e65" stroke-width="1.5"></path><path d="M652.21 641.39L652.21 641.39" stroke="#132e65" stroke-width="1.5"></path><path d="M652.21 641.39L487.88 525.41" stroke="#132e65" stroke-width="1.5"></path><path d="M846.92 109L846.92 109" stroke="#132e65" stroke-width="1.5"></path><path d="M846.92 109L824.59 206.64" stroke="#132e65" stroke-width="1.5"></path><path d="M846.92 109L999.45 107.72" stroke="#132e65" stroke-width="1.5"></path><path d="M846.92 109L1010.53 204.67" stroke="#132e65" stroke-width="1.5"></path><path d="M846.92 109L801.88 351.31" stroke="#132e65" stroke-width="1.5"></path><path d="M846.92 109L997.2 -87.59" stroke="#132e65" stroke-width="1.5"></path><path d="M824.59 206.64L824.59 206.64" stroke="#132e65" stroke-width="1.5"></path><path d="M824.59 206.64L801.88 351.31" stroke="#132e65" stroke-width="1.5"></path><path d="M824.59 206.64L1010.53 204.67" stroke="#132e65" stroke-width="1.5"></path><path d="M824.59 206.64L999.45 107.72" stroke="#132e65" stroke-width="1.5"></path><path d="M801.88 351.31L801.88 351.31" stroke="#132e65" stroke-width="1.5"></path><path d="M801.88 351.31L661.21 387.18" stroke="#132e65" stroke-width="1.5"></path><path d="M801.88 351.31L851.55 495.58" stroke="#132e65" stroke-width="1.5"></path><path d="M851.55 495.58L851.55 495.58" stroke="#132e65" stroke-width="1.5"></path><path d="M851.55 495.58L948.45 495.43" stroke="#132e65" stroke-width="1.5"></path><path d="M861.44 695.7L861.44 695.7" stroke="#132e65" stroke-width="1.5"></path><path d="M861.44 695.7L948.19 676.09" stroke="#132e65" stroke-width="1.5"></path><path d="M861.44 695.7L851.55 495.58" stroke="#132e65" stroke-width="1.5"></path><path d="M861.44 695.7L652.21 641.39" stroke="#132e65" stroke-width="1.5"></path><path d="M861.44 695.7L948.45 495.43" stroke="#132e65" stroke-width="1.5"></path><path d="M861.44 695.7L1117.11 678.8" stroke="#132e65" stroke-width="1.5"></path><path d="M997.2 -87.59L997.2 -87.59" stroke="#132e65" stroke-width="1.5"></path><path d="M997.2 -87.59L1094.71 -89.09" stroke="#132e65" stroke-width="1.5"></path><path d="M997.2 -87.59L999.45 107.72" stroke="#132e65" stroke-width="1.5"></path><path d="M997.2 -87.59L1120.91 96.05" stroke="#132e65" stroke-width="1.5"></path><path d="M997.2 -87.59L1010.53 204.67" stroke="#132e65" stroke-width="1.5"></path><path d="M997.2 -87.59L1292.11 -53.26" stroke="#132e65" stroke-width="1.5"></path><path d="M999.45 107.72L999.45 107.72" stroke="#132e65" stroke-width="1.5"></path><path d="M999.45 107.72L1010.53 204.67" stroke="#132e65" stroke-width="1.5"></path><path d="M999.45 107.72L1120.91 96.05" stroke="#132e65" stroke-width="1.5"></path><path d="M1010.53 204.67L1010.53 204.67" stroke="#132e65" stroke-width="1.5"></path><path d="M1010.53 204.67L1120.91 96.05" stroke="#132e65" stroke-width="1.5"></path><path d="M1010.53 204.67L1007.32 390.25" stroke="#132e65" stroke-width="1.5"></path><path d="M1010.53 204.67L1148.32 372.4" stroke="#132e65" stroke-width="1.5"></path><path d="M1007.32 390.25L1007.32 390.25" stroke="#132e65" stroke-width="1.5"></path><path d="M1007.32 390.25L948.45 495.43" stroke="#132e65" stroke-width="1.5"></path><path d="M1007.32 390.25L1148.32 372.4" stroke="#132e65" stroke-width="1.5"></path><path d="M1007.32 390.25L851.55 495.58" stroke="#132e65" stroke-width="1.5"></path><path d="M948.45 495.43L948.45 495.43" stroke="#132e65" stroke-width="1.5"></path><path d="M948.45 495.43L948.19 676.09" stroke="#132e65" stroke-width="1.5"></path><path d="M948.19 676.09L948.19 676.09" stroke="#132e65" stroke-width="1.5"></path><path d="M948.19 676.09L1117.11 678.8" stroke="#132e65" stroke-width="1.5"></path><path d="M1094.71 -89.09L1094.71 -89.09" stroke="#132e65" stroke-width="1.5"></path><path d="M1094.71 -89.09L1120.91 96.05" stroke="#132e65" stroke-width="1.5"></path><path d="M1120.91 96.05L1120.91 96.05" stroke="#132e65" stroke-width="1.5"></path><path d="M1120.91 96.05L1275.12 92.5" stroke="#132e65" stroke-width="1.5"></path><path d="M1120.91 96.05L1269.2 202.99" stroke="#132e65" stroke-width="1.5"></path><path d="M1148.32 372.4L1148.32 372.4" stroke="#132e65" stroke-width="1.5"></path><path d="M1148.32 372.4L1266.17 371.79" stroke="#132e65" stroke-width="1.5"></path><path d="M1148.32 372.4L1160.7 511.72" stroke="#132e65" stroke-width="1.5"></path><path d="M1148.32 372.4L1269.2 202.99" stroke="#132e65" stroke-width="1.5"></path><path d="M1148.32 372.4L1298.75 527.46" stroke="#132e65" stroke-width="1.5"></path><path d="M1160.7 511.72L1160.7 511.72" stroke="#132e65" stroke-width="1.5"></path><path d="M1160.7 511.72L1298.75 527.46" stroke="#132e65" stroke-width="1.5"></path><path d="M1160.7 511.72L1117.11 678.8" stroke="#132e65" stroke-width="1.5"></path><path d="M1160.7 511.72L1266.17 371.79" stroke="#132e65" stroke-width="1.5"></path><path d="M1160.7 511.72L1007.32 390.25" stroke="#132e65" stroke-width="1.5"></path><path d="M1160.7 511.72L1297.06 671.65" stroke="#132e65" stroke-width="1.5"></path><path d="M1117.11 678.8L1117.11 678.8" stroke="#132e65" stroke-width="1.5"></path><path d="M1117.11 678.8L1297.06 671.65" stroke="#132e65" stroke-width="1.5"></path><path d="M1117.11 678.8L1298.75 527.46" stroke="#132e65" stroke-width="1.5"></path><path d="M1292.11 -53.26L1292.11 -53.26" stroke="#132e65" stroke-width="1.5"></path><path d="M1292.11 -53.26L1389.27 -106.26" stroke="#132e65" stroke-width="1.5"></path><path d="M1292.11 -53.26L1275.12 92.5" stroke="#132e65" stroke-width="1.5"></path><path d="M1292.11 -53.26L1094.71 -89.09" stroke="#132e65" stroke-width="1.5"></path><path d="M1292.11 -53.26L1120.91 96.05" stroke="#132e65" stroke-width="1.5"></path><path d="M1292.11 -53.26L1269.2 202.99" stroke="#132e65" stroke-width="1.5"></path><path d="M1275.12 92.5L1275.12 92.5" stroke="#132e65" stroke-width="1.5"></path><path d="M1275.12 92.5L1269.2 202.99" stroke="#132e65" stroke-width="1.5"></path><path d="M1275.12 92.5L1397.81 203.91" stroke="#132e65" stroke-width="1.5"></path><path d="M1269.2 202.99L1269.2 202.99" stroke="#132e65" stroke-width="1.5"></path><path d="M1269.2 202.99L1397.81 203.91" stroke="#132e65" stroke-width="1.5"></path><path d="M1266.17 371.79L1266.17 371.79" stroke="#132e65" stroke-width="1.5"></path><path d="M1266.17 371.79L1404.87 352.85" stroke="#132e65" stroke-width="1.5"></path><path d="M1266.17 371.79L1298.75 527.46" stroke="#132e65" stroke-width="1.5"></path><path d="M1266.17 371.79L1269.2 202.99" stroke="#132e65" stroke-width="1.5"></path><path d="M1298.75 527.46L1298.75 527.46" stroke="#132e65" stroke-width="1.5"></path><path d="M1298.75 527.46L1398.6 548.62" stroke="#132e65" stroke-width="1.5"></path><path d="M1298.75 527.46L1297.06 671.65" stroke="#132e65" stroke-width="1.5"></path><path d="M1298.75 527.46L1450.46 660.13" stroke="#132e65" stroke-width="1.5"></path><path d="M1297.06 671.65L1297.06 671.65" stroke="#132e65" stroke-width="1.5"></path><path d="M1297.06 671.65L1450.46 660.13" stroke="#132e65" stroke-width="1.5"></path><path d="M1389.27 -106.26L1389.27 -106.26" stroke="#132e65" stroke-width="1.5"></path><path d="M1389.27 -106.26L1552.26 -77.21" stroke="#132e65" stroke-width="1.5"></path><path d="M1389.27 -106.26L1275.12 92.5" stroke="#132e65" stroke-width="1.5"></path><path d="M1389.27 -106.26L1565.86 94.9" stroke="#132e65" stroke-width="1.5"></path><path d="M1389.27 -106.26L1094.71 -89.09" stroke="#132e65" stroke-width="1.5"></path><path d="M1397.81 203.91L1397.81 203.91" stroke="#132e65" stroke-width="1.5"></path><path d="M1397.81 203.91L1404.87 352.85" stroke="#132e65" stroke-width="1.5"></path><path d="M1397.81 203.91L1559.92 253.54" stroke="#132e65" stroke-width="1.5"></path><path d="M1404.87 352.85L1404.87 352.85" stroke="#132e65" stroke-width="1.5"></path><path d="M1404.87 352.85L1559.92 253.54" stroke="#132e65" stroke-width="1.5"></path><path d="M1398.6 548.62L1398.6 548.62" stroke="#132e65" stroke-width="1.5"></path><path d="M1450.46 660.13L1450.46 660.13" stroke="#132e65" stroke-width="1.5"></path><path d="M1450.46 660.13L1559.2 669.93" stroke="#132e65" stroke-width="1.5"></path><path d="M1450.46 660.13L1398.6 548.62" stroke="#132e65" stroke-width="1.5"></path><path d="M1450.46 660.13L1568.77 495.49" stroke="#132e65" stroke-width="1.5"></path><path d="M1450.46 660.13L1404.87 352.85" stroke="#132e65" stroke-width="1.5"></path><path d="M1552.26 -77.21L1552.26 -77.21" stroke="#132e65" stroke-width="1.5"></path><path d="M1552.26 -77.21L1565.86 94.9" stroke="#132e65" stroke-width="1.5"></path><path d="M1552.26 -77.21L1292.11 -53.26" stroke="#132e65" stroke-width="1.5"></path><path d="M1552.26 -77.21L1397.81 203.91" stroke="#132e65" stroke-width="1.5"></path><path d="M1552.26 -77.21L1275.12 92.5" stroke="#132e65" stroke-width="1.5"></path><path d="M1552.26 -77.21L1559.92 253.54" stroke="#132e65" stroke-width="1.5"></path><path d="M1565.86 94.9L1565.86 94.9" stroke="#132e65" stroke-width="1.5"></path><path d="M1565.86 94.9L1559.92 253.54" stroke="#132e65" stroke-width="1.5"></path><path d="M1565.86 94.9L1397.81 203.91" stroke="#132e65" stroke-width="1.5"></path><path d="M1559.92 253.54L1559.92 253.54" stroke="#132e65" stroke-width="1.5"></path><path d="M1559.92 253.54L1602 352.05" stroke="#132e65" stroke-width="1.5"></path><path d="M1559.92 253.54L1568.77 495.49" stroke="#132e65" stroke-width="1.5"></path><path d="M1559.92 253.54L1269.2 202.99" stroke="#132e65" stroke-width="1.5"></path><path d="M1602 352.05L1602 352.05" stroke="#132e65" stroke-width="1.5"></path><path d="M1602 352.05L1568.77 495.49" stroke="#132e65" stroke-width="1.5"></path><path d="M1602 352.05L1404.87 352.85" stroke="#132e65" stroke-width="1.5"></path><path d="M1602 352.05L1397.81 203.91" stroke="#132e65" stroke-width="1.5"></path><path d="M1602 352.05L1565.86 94.9" stroke="#132e65" stroke-width="1.5"></path><path d="M1602 352.05L1398.6 548.62" stroke="#132e65" stroke-width="1.5"></path><path d="M1568.77 495.49L1568.77 495.49" stroke="#132e65" stroke-width="1.5"></path><path d="M1568.77 495.49L1559.2 669.93" stroke="#132e65" stroke-width="1.5"></path><path d="M1559.2 669.93L1559.2 669.93" stroke="#132e65" stroke-width="1.5"></path><circle r="5" cx="-65.94" cy="377.2" fill="#132e65"></circle><circle r="5" cx="-39.16" cy="541.04" fill="#132e65"></circle><circle r="5" cx="110.08" cy="399.31" fill="#132e65"></circle><circle r="5" cx="100.9" cy="545.56" fill="#132e65"></circle><circle r="5" cx="60.69" cy="657.08" fill="#132e65"></circle><circle r="5" cx="229.88" cy="353.57" fill="#132e65"></circle><circle r="5" cx="235.73" cy="547.06" fill="#132e65"></circle><circle r="5" cx="194.33" cy="687" fill="#132e65"></circle><circle r="5" cx="411.54" cy="376.26" fill="#132e65"></circle><circle r="5" cx="351.82" cy="502" fill="#132e65"></circle><circle r="5" cx="372.55" cy="679" fill="#132e65"></circle><circle r="5" cx="539.4" cy="362.61" fill="#132e65"></circle><circle r="5" cx="487.88" cy="525.41" fill="#132e65"></circle><circle r="5" cx="542.95" cy="708.87" fill="#132e65"></circle><circle r="5" cx="671.89" cy="242.45" fill="#132e65"></circle><circle r="5" cx="661.21" cy="387.18" fill="#132e65"></circle><circle r="5" cx="671.44" cy="490.36" fill="#132e65"></circle><circle r="5" cx="652.21" cy="641.39" fill="#132e65"></circle><circle r="5" cx="846.92" cy="109" fill="#132e65"></circle><circle r="5" cx="824.59" cy="206.64" fill="#132e65"></circle><circle r="5" cx="801.88" cy="351.31" fill="#132e65"></circle><circle r="5" cx="851.55" cy="495.58" fill="#132e65"></circle><circle r="5" cx="861.44" cy="695.7" fill="#132e65"></circle><circle r="5" cx="997.2" cy="-87.59" fill="#132e65"></circle><circle r="5" cx="999.45" cy="107.72" fill="#132e65"></circle><circle r="5" cx="1010.53" cy="204.67" fill="#132e65"></circle><circle r="5" cx="1007.32" cy="390.25" fill="#132e65"></circle><circle r="5" cx="948.45" cy="495.43" fill="#132e65"></circle><circle r="5" cx="948.19" cy="676.09" fill="#132e65"></circle><circle r="5" cx="1094.71" cy="-89.09" fill="#132e65"></circle><circle r="5" cx="1120.91" cy="96.05" fill="#132e65"></circle><circle r="5" cx="1148.32" cy="372.4" fill="#132e65"></circle><circle r="5" cx="1160.7" cy="511.72" fill="#132e65"></circle><circle r="5" cx="1117.11" cy="678.8" fill="#132e65"></circle><circle r="5" cx="1292.11" cy="-53.26" fill="#132e65"></circle><circle r="5" cx="1275.12" cy="92.5" fill="#132e65"></circle><circle r="5" cx="1269.2" cy="202.99" fill="#132e65"></circle><circle r="5" cx="1266.17" cy="371.79" fill="#132e65"></circle><circle r="5" cx="1298.75" cy="527.46" fill="#132e65"></circle><circle r="5" cx="1297.06" cy="671.65" fill="#132e65"></circle><circle r="5" cx="1389.27" cy="-106.26" fill="#132e65"></circle><circle r="5" cx="1397.81" cy="203.91" fill="#132e65"></circle><circle r="5" cx="1404.87" cy="352.85" fill="#132e65"></circle><circle r="5" cx="1398.6" cy="548.62" fill="#132e65"></circle><circle r="5" cx="1450.46" cy="660.13" fill="#132e65"></circle><circle r="5" cx="1552.26" cy="-77.21" fill="#132e65"></circle><circle r="5" cx="1565.86" cy="94.9" fill="#132e65"></circle><circle r="5" cx="1559.92" cy="253.54" fill="#132e65"></circle><circle r="5" cx="1602" cy="352.05" fill="#132e65"></circle><circle r="5" cx="1568.77" cy="495.49" fill="#132e65"></circle><circle r="5" cx="1559.2" cy="669.93" fill="#132e65"></circle><path d="M-96.94 553.28L-96.94 553.28" stroke="hsl(228.5, 77.2%, 51.5%)" stroke-width="1.5"></path><path d="M-96.94 553.28L-83.26 683.92" stroke="hsl(228.5, 77.2%, 51.5%)" stroke-width="1.5"></path><path d="M-96.94 553.28L44.23 665.14" stroke="hsl(228.5, 77.2%, 51.5%)" stroke-width="1.5"></path><path d="M-96.94 553.28L188.4 493.83" stroke="hsl(228.5, 77.2%, 51.5%)" stroke-width="1.5"></path><path d="M44.23 665.14L44.23 665.14" stroke="hsl(228.5, 77.2%, 51.5%)" stroke-width="1.5"></path><path d="M44.23 665.14L-83.26 683.92" stroke="hsl(228.5, 77.2%, 51.5%)" stroke-width="1.5"></path><path d="M44.23 665.14L223 671.76" stroke="hsl(228.5, 77.2%, 51.5%)" stroke-width="1.5"></path><path d="M393.64 531.8L393.64 531.8" stroke="hsl(228.5, 77.2%, 51.5%)" stroke-width="1.5"></path><path d="M393.64 531.8L505.22 553.88" stroke="hsl(228.5, 77.2%, 51.5%)" stroke-width="1.5"></path><path d="M393.64 531.8L377.77 702.18" stroke="hsl(228.5, 77.2%, 51.5%)" stroke-width="1.5"></path><path d="M516.05 404.14L516.05 404.14" stroke="hsl(228.5, 77.2%, 51.5%)" stroke-width="1.5"></path><path d="M516.05 404.14L643.38 382.79" stroke="hsl(228.5, 77.2%, 51.5%)" stroke-width="1.5"></path><path d="M516.05 404.14L505.22 553.88" stroke="hsl(228.5, 77.2%, 51.5%)" stroke-width="1.5"></path><path d="M516.05 404.14L393.64 531.8" stroke="hsl(228.5, 77.2%, 51.5%)" stroke-width="1.5"></path><path d="M516.05 404.14L664.55 557.05" stroke="hsl(228.5, 77.2%, 51.5%)" stroke-width="1.5"></path><path d="M516.05 404.14L637.54 640.39" stroke="hsl(228.5, 77.2%, 51.5%)" stroke-width="1.5"></path><path d="M505.22 553.88L505.22 553.88" stroke="hsl(228.5, 77.2%, 51.5%)" stroke-width="1.5"></path><path d="M505.22 553.88L553.14 670.78" stroke="hsl(228.5, 77.2%, 51.5%)" stroke-width="1.5"></path><path d="M505.22 553.88L637.54 640.39" stroke="hsl(228.5, 77.2%, 51.5%)" stroke-width="1.5"></path><path d="M505.22 553.88L664.55 557.05" stroke="hsl(228.5, 77.2%, 51.5%)" stroke-width="1.5"></path><path d="M854.48 668.09L854.48 668.09" stroke="hsl(228.5, 77.2%, 51.5%)" stroke-width="1.5"></path><path d="M854.48 668.09L981.29 662.85" stroke="hsl(228.5, 77.2%, 51.5%)" stroke-width="1.5"></path><path d="M854.48 668.09L637.54 640.39" stroke="hsl(228.5, 77.2%, 51.5%)" stroke-width="1.5"></path><path d="M1140.12 85.74L1140.12 85.74" stroke="hsl(228.5, 77.2%, 51.5%)" stroke-width="1.5"></path><path d="M1140.12 85.74L1100.49 203.56" stroke="hsl(228.5, 77.2%, 51.5%)" stroke-width="1.5"></path><path d="M1140.12 85.74L1289.01 78.35" stroke="hsl(228.5, 77.2%, 51.5%)" stroke-width="1.5"></path><path d="M1140.12 85.74L1244.45 224.14" stroke="hsl(228.5, 77.2%, 51.5%)" stroke-width="1.5"></path><path d="M1140.12 85.74L1284.42 -95.51" stroke="hsl(228.5, 77.2%, 51.5%)" stroke-width="1.5"></path><path d="M1100.49 203.56L1100.49 203.56" stroke="hsl(228.5, 77.2%, 51.5%)" stroke-width="1.5"></path><path d="M1100.49 203.56L1244.45 224.14" stroke="hsl(228.5, 77.2%, 51.5%)" stroke-width="1.5"></path><path d="M1100.49 203.56L1101.36 383.7" stroke="hsl(228.5, 77.2%, 51.5%)" stroke-width="1.5"></path><path d="M1101.36 383.7L1101.36 383.7" stroke="hsl(228.5, 77.2%, 51.5%)" stroke-width="1.5"></path><path d="M1101.36 383.7L1001.04 386.37" stroke="hsl(228.5, 77.2%, 51.5%)" stroke-width="1.5"></path><path d="M1101.36 383.7L994.59 492.16" stroke="hsl(228.5, 77.2%, 51.5%)" stroke-width="1.5"></path><path d="M1101.36 383.7L1151.26 539.31" stroke="hsl(228.5, 77.2%, 51.5%)" stroke-width="1.5"></path><path d="M1101.36 383.7L1268.37 359.1" stroke="hsl(228.5, 77.2%, 51.5%)" stroke-width="1.5"></path><path d="M1274.13 555.59L1274.13 555.59" stroke="hsl(228.5, 77.2%, 51.5%)" stroke-width="1.5"></path><path d="M1274.13 555.59L1245.09 662.59" stroke="hsl(228.5, 77.2%, 51.5%)" stroke-width="1.5"></path><path d="M1401.87 505.59L1401.87 505.59" stroke="hsl(228.5, 77.2%, 51.5%)" stroke-width="1.5"></path><path d="M1401.87 505.59L1447.34 386.31" stroke="hsl(228.5, 77.2%, 51.5%)" stroke-width="1.5"></path><path d="M1401.87 505.59L1274.13 555.59" stroke="hsl(228.5, 77.2%, 51.5%)" stroke-width="1.5"></path><path d="M1401.87 505.59L1547.23 523.65" stroke="hsl(228.5, 77.2%, 51.5%)" stroke-width="1.5"></path><path d="M1577.91 -37.55L1577.91 -37.55" stroke="hsl(228.5, 77.2%, 51.5%)" stroke-width="1.5"></path><path d="M1577.91 -37.55L1580.53 58.71" stroke="hsl(228.5, 77.2%, 51.5%)" stroke-width="1.5"></path><path d="M1577.91 -37.55L1436.02 -50.78" stroke="hsl(228.5, 77.2%, 51.5%)" stroke-width="1.5"></path><path d="M1577.91 -37.55L1453 103.38" stroke="hsl(228.5, 77.2%, 51.5%)" stroke-width="1.5"></path><path d="M1598.4 392.51L1598.4 392.51" stroke="hsl(228.5, 77.2%, 51.5%)" stroke-width="1.5"></path><path d="M1598.4 392.51L1547.23 523.65" stroke="hsl(228.5, 77.2%, 51.5%)" stroke-width="1.5"></path><path d="M1598.4 392.51L1447.34 386.31" stroke="hsl(228.5, 77.2%, 51.5%)" stroke-width="1.5"></path><path d="M1598.4 392.51L1545.48 231.08" stroke="hsl(228.5, 77.2%, 51.5%)" stroke-width="1.5"></path><path d="M-83.26 683.92L-83.26 683.92" stroke="hsl(228.5, 77.2%, 51.5%)" stroke-width="1.5"></path><path d="M-83.26 683.92L223 671.76" stroke="hsl(228.5, 77.2%, 51.5%)" stroke-width="1.5"></path><path d="M-83.26 683.92L188.4 493.83" stroke="hsl(228.5, 77.2%, 51.5%)" stroke-width="1.5"></path><path d="M-83.26 683.92L377.77 702.18" stroke="hsl(228.5, 77.2%, 51.5%)" stroke-width="1.5"></path><path d="M188.4 493.83L188.4 493.83" stroke="hsl(228.5, 77.2%, 51.5%)" stroke-width="1.5"></path><path d="M188.4 493.83L223 671.76" stroke="hsl(228.5, 77.2%, 51.5%)" stroke-width="1.5"></path><path d="M188.4 493.83L393.64 531.8" stroke="hsl(228.5, 77.2%, 51.5%)" stroke-width="1.5"></path><path d="M188.4 493.83L44.23 665.14" stroke="hsl(228.5, 77.2%, 51.5%)" stroke-width="1.5"></path><path d="M188.4 493.83L377.77 702.18" stroke="hsl(228.5, 77.2%, 51.5%)" stroke-width="1.5"></path><path d="M223 671.76L223 671.76" stroke="hsl(228.5, 77.2%, 51.5%)" stroke-width="1.5"></path><path d="M223 671.76L377.77 702.18" stroke="hsl(228.5, 77.2%, 51.5%)" stroke-width="1.5"></path><path d="M223 671.76L393.64 531.8" stroke="hsl(228.5, 77.2%, 51.5%)" stroke-width="1.5"></path><path d="M377.77 702.18L377.77 702.18" stroke="hsl(228.5, 77.2%, 51.5%)" stroke-width="1.5"></path><path d="M377.77 702.18L553.14 670.78" stroke="hsl(228.5, 77.2%, 51.5%)" stroke-width="1.5"></path><path d="M553.14 670.78L553.14 670.78" stroke="hsl(228.5, 77.2%, 51.5%)" stroke-width="1.5"></path><path d="M553.14 670.78L637.54 640.39" stroke="hsl(228.5, 77.2%, 51.5%)" stroke-width="1.5"></path><path d="M553.14 670.78L664.55 557.05" stroke="hsl(228.5, 77.2%, 51.5%)" stroke-width="1.5"></path><path d="M643.38 382.79L643.38 382.79" stroke="hsl(228.5, 77.2%, 51.5%)" stroke-width="1.5"></path><path d="M643.38 382.79L800.51 342.83" stroke="hsl(228.5, 77.2%, 51.5%)" stroke-width="1.5"></path><path d="M643.38 382.79L664.55 557.05" stroke="hsl(228.5, 77.2%, 51.5%)" stroke-width="1.5"></path><path d="M643.38 382.79L505.22 553.88" stroke="hsl(228.5, 77.2%, 51.5%)" stroke-width="1.5"></path><path d="M643.38 382.79L637.54 640.39" stroke="hsl(228.5, 77.2%, 51.5%)" stroke-width="1.5"></path><path d="M664.55 557.05L664.55 557.05" stroke="hsl(228.5, 77.2%, 51.5%)" stroke-width="1.5"></path><path d="M664.55 557.05L637.54 640.39" stroke="hsl(228.5, 77.2%, 51.5%)" stroke-width="1.5"></path><path d="M637.54 640.39L637.54 640.39" stroke="hsl(228.5, 77.2%, 51.5%)" stroke-width="1.5"></path><path d="M800.51 342.83L800.51 342.83" stroke="hsl(228.5, 77.2%, 51.5%)" stroke-width="1.5"></path><path d="M800.51 342.83L1001.04 386.37" stroke="hsl(228.5, 77.2%, 51.5%)" stroke-width="1.5"></path><path d="M800.51 342.83L994.59 492.16" stroke="hsl(228.5, 77.2%, 51.5%)" stroke-width="1.5"></path><path d="M800.51 342.83L664.55 557.05" stroke="hsl(228.5, 77.2%, 51.5%)" stroke-width="1.5"></path><path d="M800.51 342.83L516.05 404.14" stroke="hsl(228.5, 77.2%, 51.5%)" stroke-width="1.5"></path><path d="M1001.04 386.37L1001.04 386.37" stroke="hsl(228.5, 77.2%, 51.5%)" stroke-width="1.5"></path><path d="M1001.04 386.37L994.59 492.16" stroke="hsl(228.5, 77.2%, 51.5%)" stroke-width="1.5"></path><path d="M1001.04 386.37L1100.49 203.56" stroke="hsl(228.5, 77.2%, 51.5%)" stroke-width="1.5"></path><path d="M1001.04 386.37L1151.26 539.31" stroke="hsl(228.5, 77.2%, 51.5%)" stroke-width="1.5"></path><path d="M994.59 492.16L994.59 492.16" stroke="hsl(228.5, 77.2%, 51.5%)" stroke-width="1.5"></path><path d="M994.59 492.16L1151.26 539.31" stroke="hsl(228.5, 77.2%, 51.5%)" stroke-width="1.5"></path><path d="M994.59 492.16L981.29 662.85" stroke="hsl(228.5, 77.2%, 51.5%)" stroke-width="1.5"></path><path d="M981.29 662.85L981.29 662.85" stroke="hsl(228.5, 77.2%, 51.5%)" stroke-width="1.5"></path><path d="M1151.26 539.31L1151.26 539.31" stroke="hsl(228.5, 77.2%, 51.5%)" stroke-width="1.5"></path><path d="M1151.26 539.31L1274.13 555.59" stroke="hsl(228.5, 77.2%, 51.5%)" stroke-width="1.5"></path><path d="M1151.26 539.31L1245.09 662.59" stroke="hsl(228.5, 77.2%, 51.5%)" stroke-width="1.5"></path><path d="M1151.26 539.31L1157.66 697.99" stroke="hsl(228.5, 77.2%, 51.5%)" stroke-width="1.5"></path><path d="M1157.66 697.99L1157.66 697.99" stroke="hsl(228.5, 77.2%, 51.5%)" stroke-width="1.5"></path><path d="M1157.66 697.99L1245.09 662.59" stroke="hsl(228.5, 77.2%, 51.5%)" stroke-width="1.5"></path><path d="M1157.66 697.99L981.29 662.85" stroke="hsl(228.5, 77.2%, 51.5%)" stroke-width="1.5"></path><path d="M1157.66 697.99L1274.13 555.59" stroke="hsl(228.5, 77.2%, 51.5%)" stroke-width="1.5"></path><path d="M1157.66 697.99L1396.29 697.64" stroke="hsl(228.5, 77.2%, 51.5%)" stroke-width="1.5"></path><path d="M1157.66 697.99L994.59 492.16" stroke="hsl(228.5, 77.2%, 51.5%)" stroke-width="1.5"></path><path d="M1284.42 -95.51L1284.42 -95.51" stroke="hsl(228.5, 77.2%, 51.5%)" stroke-width="1.5"></path><path d="M1284.42 -95.51L1436.02 -50.78" stroke="hsl(228.5, 77.2%, 51.5%)" stroke-width="1.5"></path><path d="M1284.42 -95.51L1289.01 78.35" stroke="hsl(228.5, 77.2%, 51.5%)" stroke-width="1.5"></path><path d="M1284.42 -95.51L1453 103.38" stroke="hsl(228.5, 77.2%, 51.5%)" stroke-width="1.5"></path><path d="M1289.01 78.35L1289.01 78.35" stroke="hsl(228.5, 77.2%, 51.5%)" stroke-width="1.5"></path><path d="M1289.01 78.35L1244.45 224.14" stroke="hsl(228.5, 77.2%, 51.5%)" stroke-width="1.5"></path><path d="M1289.01 78.35L1453 103.38" stroke="hsl(228.5, 77.2%, 51.5%)" stroke-width="1.5"></path><path d="M1289.01 78.35L1436.02 -50.78" stroke="hsl(228.5, 77.2%, 51.5%)" stroke-width="1.5"></path><path d="M1244.45 224.14L1244.45 224.14" stroke="hsl(228.5, 77.2%, 51.5%)" stroke-width="1.5"></path><path d="M1244.45 224.14L1268.37 359.1" stroke="hsl(228.5, 77.2%, 51.5%)" stroke-width="1.5"></path><path d="M1244.45 224.14L1101.36 383.7" stroke="hsl(228.5, 77.2%, 51.5%)" stroke-width="1.5"></path><path d="M1244.45 224.14L1453 103.38" stroke="hsl(228.5, 77.2%, 51.5%)" stroke-width="1.5"></path><path d="M1268.37 359.1L1268.37 359.1" stroke="hsl(228.5, 77.2%, 51.5%)" stroke-width="1.5"></path><path d="M1268.37 359.1L1447.34 386.31" stroke="hsl(228.5, 77.2%, 51.5%)" stroke-width="1.5"></path><path d="M1268.37 359.1L1274.13 555.59" stroke="hsl(228.5, 77.2%, 51.5%)" stroke-width="1.5"></path><path d="M1245.09 662.59L1245.09 662.59" stroke="hsl(228.5, 77.2%, 51.5%)" stroke-width="1.5"></path><path d="M1245.09 662.59L1396.29 697.64" stroke="hsl(228.5, 77.2%, 51.5%)" stroke-width="1.5"></path><path d="M1245.09 662.59L1401.87 505.59" stroke="hsl(228.5, 77.2%, 51.5%)" stroke-width="1.5"></path><path d="M1245.09 662.59L981.29 662.85" stroke="hsl(228.5, 77.2%, 51.5%)" stroke-width="1.5"></path><path d="M1436.02 -50.78L1436.02 -50.78" stroke="hsl(228.5, 77.2%, 51.5%)" stroke-width="1.5"></path><path d="M1436.02 -50.78L1453 103.38" stroke="hsl(228.5, 77.2%, 51.5%)" stroke-width="1.5"></path><path d="M1436.02 -50.78L1580.53 58.71" stroke="hsl(228.5, 77.2%, 51.5%)" stroke-width="1.5"></path><path d="M1453 103.38L1453 103.38" stroke="hsl(228.5, 77.2%, 51.5%)" stroke-width="1.5"></path><path d="M1453 103.38L1580.53 58.71" stroke="hsl(228.5, 77.2%, 51.5%)" stroke-width="1.5"></path><path d="M1453 103.38L1545.48 231.08" stroke="hsl(228.5, 77.2%, 51.5%)" stroke-width="1.5"></path><path d="M1447.34 386.31L1447.34 386.31" stroke="hsl(228.5, 77.2%, 51.5%)" stroke-width="1.5"></path><path d="M1447.34 386.31L1547.23 523.65" stroke="hsl(228.5, 77.2%, 51.5%)" stroke-width="1.5"></path><path d="M1447.34 386.31L1545.48 231.08" stroke="hsl(228.5, 77.2%, 51.5%)" stroke-width="1.5"></path><path d="M1447.34 386.31L1274.13 555.59" stroke="hsl(228.5, 77.2%, 51.5%)" stroke-width="1.5"></path><path d="M1396.29 697.64L1396.29 697.64" stroke="hsl(228.5, 77.2%, 51.5%)" stroke-width="1.5"></path><path d="M1396.29 697.64L1548.62 680.03" stroke="hsl(228.5, 77.2%, 51.5%)" stroke-width="1.5"></path><path d="M1396.29 697.64L1274.13 555.59" stroke="hsl(228.5, 77.2%, 51.5%)" stroke-width="1.5"></path><path d="M1580.53 58.71L1580.53 58.71" stroke="hsl(228.5, 77.2%, 51.5%)" stroke-width="1.5"></path><path d="M1580.53 58.71L1545.48 231.08" stroke="hsl(228.5, 77.2%, 51.5%)" stroke-width="1.5"></path><path d="M1580.53 58.71L1289.01 78.35" stroke="hsl(228.5, 77.2%, 51.5%)" stroke-width="1.5"></path><path d="M1545.48 231.08L1545.48 231.08" stroke="hsl(228.5, 77.2%, 51.5%)" stroke-width="1.5"></path><path d="M1547.23 523.65L1547.23 523.65" stroke="hsl(228.5, 77.2%, 51.5%)" stroke-width="1.5"></path><path d="M1547.23 523.65L1548.62 680.03" stroke="hsl(228.5, 77.2%, 51.5%)" stroke-width="1.5"></path><path d="M1548.62 680.03L1548.62 680.03" stroke="hsl(228.5, 77.2%, 51.5%)" stroke-width="1.5"></path><path d="M1548.62 680.03L1401.87 505.59" stroke="hsl(228.5, 77.2%, 51.5%)" stroke-width="1.5"></path><circle r="25" cx="-96.94" cy="553.28" fill="url(#SvgjsRadialGradient1033)"></circle><circle r="25" cx="44.23" cy="665.14" fill="url(#SvgjsRadialGradient1033)"></circle><circle r="25" cx="393.64" cy="531.8" fill="url(#SvgjsRadialGradient1033)"></circle><circle r="25" cx="516.05" cy="404.14" fill="url(#SvgjsRadialGradient1033)"></circle><circle r="25" cx="505.22" cy="553.88" fill="url(#SvgjsRadialGradient1033)"></circle><circle r="25" cx="854.48" cy="668.09" fill="url(#SvgjsRadialGradient1033)"></circle><circle r="25" cx="1140.12" cy="85.74" fill="url(#SvgjsRadialGradient1033)"></circle><circle r="25" cx="1100.49" cy="203.56" fill="url(#SvgjsRadialGradient1033)"></circle><circle r="25" cx="1101.36" cy="383.7" fill="url(#SvgjsRadialGradient1033)"></circle><circle r="25" cx="1274.13" cy="555.59" fill="url(#SvgjsRadialGradient1033)"></circle><circle r="25" cx="1401.87" cy="505.59" fill="url(#SvgjsRadialGradient1033)"></circle><circle r="25" cx="1577.91" cy="-37.55" fill="url(#SvgjsRadialGradient1033)"></circle><circle r="25" cx="1598.4" cy="392.51" fill="url(#SvgjsRadialGradient1033)"></circle><circle r="5" cx="-83.26" cy="683.92" fill="#8b9ad9"></circle><circle r="5" cx="188.4" cy="493.83" fill="#8b9ad9"></circle><circle r="5" cx="223" cy="671.76" fill="#8b9ad9"></circle><circle r="5" cx="377.77" cy="702.18" fill="#8b9ad9"></circle><circle r="5" cx="553.14" cy="670.78" fill="#8b9ad9"></circle><circle r="5" cx="643.38" cy="382.79" fill="#8b9ad9"></circle><circle r="5" cx="664.55" cy="557.05" fill="#8b9ad9"></circle><circle r="5" cx="637.54" cy="640.39" fill="#8b9ad9"></circle><circle r="5" cx="800.51" cy="342.83" fill="#8b9ad9"></circle><circle r="5" cx="1001.04" cy="386.37" fill="#8b9ad9"></circle><circle r="5" cx="994.59" cy="492.16" fill="#8b9ad9"></circle><circle r="5" cx="981.29" cy="662.85" fill="#8b9ad9"></circle><circle r="5" cx="1151.26" cy="539.31" fill="#8b9ad9"></circle><circle r="5" cx="1157.66" cy="697.99" fill="#8b9ad9"></circle><circle r="5" cx="1284.42" cy="-95.51" fill="#8b9ad9"></circle><circle r="5" cx="1289.01" cy="78.35" fill="#8b9ad9"></circle><circle r="5" cx="1244.45" cy="224.14" fill="#8b9ad9"></circle><circle r="5" cx="1268.37" cy="359.1" fill="#8b9ad9"></circle><circle r="5" cx="1245.09" cy="662.59" fill="#8b9ad9"></circle><circle r="5" cx="1436.02" cy="-50.78" fill="#8b9ad9"></circle><circle r="5" cx="1453" cy="103.38" fill="#8b9ad9"></circle><circle r="5" cx="1447.34" cy="386.31" fill="#8b9ad9"></circle><circle r="5" cx="1396.29" cy="697.64" fill="#8b9ad9"></circle><circle r="5" cx="1580.53" cy="58.71" fill="#8b9ad9"></circle><circle r="5" cx="1545.48" cy="231.08" fill="#8b9ad9"></circle><circle r="5" cx="1547.23" cy="523.65" fill="#8b9ad9"></circle><circle r="5" cx="1548.62" cy="680.03" fill="#8b9ad9"></circle></g><defs><mask id="SvgjsMask1032"><rect width="1440" height="560" fill="#ffffff"></rect></mask><radialGradient id="SvgjsRadialGradient1033"><stop stop-color="#ffffff" offset="0.1"></stop><stop stop-color="#1735b3" offset="0.2"></stop><stop stop-color="rgba(23, 53, 179, 0)" offset="1"></stop></radialGradient></defs></svg>