<svg xmlns="http://www.w3.org/2000/svg" version="1.1" xmlns:xlink="http://www.w3.org/1999/xlink" xmlns:svgjs="http://svgjs.com/svgjs" width="1440" height="560" preserveAspectRatio="none" viewBox="0 0 1440 560"><g mask="url(&quot;#SvgjsMask1008&quot;)" fill="none"><rect width="1440" height="560" x="0" y="0" fill="#0e2a47"></rect><path d="M-40.48 345.54L-40.48 345.54" stroke="#132e65" stroke-width="1.5"></path><path d="M-40.48 345.54L50.31 365.26" stroke="#132e65" stroke-width="1.5"></path><path d="M-40.48 345.54L-55.45 540.28" stroke="#132e65" stroke-width="1.5"></path><path d="M-40.48 345.54L75.89 514.94" stroke="#132e65" stroke-width="1.5"></path><path d="M-40.48 345.54L209.94 376.15" stroke="#132e65" stroke-width="1.5"></path><path d="M-55.45 540.28L-55.45 540.28" stroke="#132e65" stroke-width="1.5"></path><path d="M-55.45 540.28L75.89 514.94" stroke="#132e65" stroke-width="1.5"></path><path d="M-55.45 540.28L51.86 638.51" stroke="#132e65" stroke-width="1.5"></path><path d="M-55.45 540.28L-63.38 711.76" stroke="#132e65" stroke-width="1.5"></path><path d="M-55.45 540.28L50.31 365.26" stroke="#132e65" stroke-width="1.5"></path><path d="M-63.38 711.76L-63.38 711.76" stroke="#132e65" stroke-width="1.5"></path><path d="M-63.38 711.76L51.86 638.51" stroke="#132e65" stroke-width="1.5"></path><path d="M50.31 365.26L50.31 365.26" stroke="#132e65" stroke-width="1.5"></path><path d="M50.31 365.26L75.89 514.94" stroke="#132e65" stroke-width="1.5"></path><path d="M50.31 365.26L209.94 376.15" stroke="#132e65" stroke-width="1.5"></path><path d="M50.31 365.26L192.36 560.26" stroke="#132e65" stroke-width="1.5"></path><path d="M75.89 514.94L75.89 514.94" stroke="#132e65" stroke-width="1.5"></path><path d="M75.89 514.94L192.36 560.26" stroke="#132e65" stroke-width="1.5"></path><path d="M75.89 514.94L51.86 638.51" stroke="#132e65" stroke-width="1.5"></path><path d="M51.86 638.51L51.86 638.51" stroke="#132e65" stroke-width="1.5"></path><path d="M51.86 638.51L192.36 560.26" stroke="#132e65" stroke-width="1.5"></path><path d="M209.94 376.15L209.94 376.15" stroke="#132e65" stroke-width="1.5"></path><path d="M209.94 376.15L192.36 560.26" stroke="#132e65" stroke-width="1.5"></path><path d="M209.94 376.15L401.77 360.65" stroke="#132e65" stroke-width="1.5"></path><path d="M209.94 376.15L75.89 514.94" stroke="#132e65" stroke-width="1.5"></path><path d="M209.94 376.15L373.28 558.21" stroke="#132e65" stroke-width="1.5"></path><path d="M192.36 560.26L192.36 560.26" stroke="#132e65" stroke-width="1.5"></path><path d="M218.82 701.15L218.82 701.15" stroke="#132e65" stroke-width="1.5"></path><path d="M218.82 701.15L192.36 560.26" stroke="#132e65" stroke-width="1.5"></path><path d="M218.82 701.15L383.99 695.81" stroke="#132e65" stroke-width="1.5"></path><path d="M218.82 701.15L51.86 638.51" stroke="#132e65" stroke-width="1.5"></path><path d="M218.82 701.15L373.28 558.21" stroke="#132e65" stroke-width="1.5"></path><path d="M218.82 701.15L75.89 514.94" stroke="#132e65" stroke-width="1.5"></path><path d="M401.77 360.65L401.77 360.65" stroke="#132e65" stroke-width="1.5"></path><path d="M401.77 360.65L548.26 340.77" stroke="#132e65" stroke-width="1.5"></path><path d="M401.77 360.65L373.28 558.21" stroke="#132e65" stroke-width="1.5"></path><path d="M401.77 360.65L540.57 530.18" stroke="#132e65" stroke-width="1.5"></path><path d="M373.28 558.21L373.28 558.21" stroke="#132e65" stroke-width="1.5"></path><path d="M373.28 558.21L383.99 695.81" stroke="#132e65" stroke-width="1.5"></path><path d="M373.28 558.21L540.57 530.18" stroke="#132e65" stroke-width="1.5"></path><path d="M383.99 695.81L383.99 695.81" stroke="#132e65" stroke-width="1.5"></path><path d="M383.99 695.81L535.5 676.59" stroke="#132e65" stroke-width="1.5"></path><path d="M383.99 695.81L540.57 530.18" stroke="#132e65" stroke-width="1.5"></path><path d="M383.99 695.81L192.36 560.26" stroke="#132e65" stroke-width="1.5"></path><path d="M383.99 695.81L652.87 560.8" stroke="#132e65" stroke-width="1.5"></path><path d="M548.26 340.77L548.26 340.77" stroke="#132e65" stroke-width="1.5"></path><path d="M548.26 340.77L705.03 390.94" stroke="#132e65" stroke-width="1.5"></path><path d="M548.26 340.77L540.57 530.18" stroke="#132e65" stroke-width="1.5"></path><path d="M548.26 340.77L695.78 204.32" stroke="#132e65" stroke-width="1.5"></path><path d="M548.26 340.77L652.87 560.8" stroke="#132e65" stroke-width="1.5"></path><path d="M540.57 530.18L540.57 530.18" stroke="#132e65" stroke-width="1.5"></path><path d="M540.57 530.18L652.87 560.8" stroke="#132e65" stroke-width="1.5"></path><path d="M540.57 530.18L535.5 676.59" stroke="#132e65" stroke-width="1.5"></path><path d="M535.5 676.59L535.5 676.59" stroke="#132e65" stroke-width="1.5"></path><path d="M695.78 204.32L695.78 204.32" stroke="#132e65" stroke-width="1.5"></path><path d="M695.78 204.32L810.91 245.28" stroke="#132e65" stroke-width="1.5"></path><path d="M695.78 204.32L705.03 390.94" stroke="#132e65" stroke-width="1.5"></path><path d="M695.78 204.32L810.18 363.54" stroke="#132e65" stroke-width="1.5"></path><path d="M695.78 204.32L852.58 73" stroke="#132e65" stroke-width="1.5"></path><path d="M695.78 204.32L995.21 188.38" stroke="#132e65" stroke-width="1.5"></path><path d="M705.03 390.94L705.03 390.94" stroke="#132e65" stroke-width="1.5"></path><path d="M705.03 390.94L810.18 363.54" stroke="#132e65" stroke-width="1.5"></path><path d="M705.03 390.94L652.87 560.8" stroke="#132e65" stroke-width="1.5"></path><path d="M705.03 390.94L810.91 245.28" stroke="#132e65" stroke-width="1.5"></path><path d="M705.03 390.94L851.34 506.75" stroke="#132e65" stroke-width="1.5"></path><path d="M652.87 560.8L652.87 560.8" stroke="#132e65" stroke-width="1.5"></path><path d="M652.87 560.8L535.5 676.59" stroke="#132e65" stroke-width="1.5"></path><path d="M652.87 560.8L851.34 506.75" stroke="#132e65" stroke-width="1.5"></path><path d="M652.87 560.8L818.04 688.66" stroke="#132e65" stroke-width="1.5"></path><path d="M852.58 73L852.58 73" stroke="#132e65" stroke-width="1.5"></path><path d="M852.58 73L975.02 43.82" stroke="#132e65" stroke-width="1.5"></path><path d="M852.58 73L810.91 245.28" stroke="#132e65" stroke-width="1.5"></path><path d="M852.58 73L995.21 188.38" stroke="#132e65" stroke-width="1.5"></path><path d="M852.58 73L1011.36 -59.35" stroke="#132e65" stroke-width="1.5"></path><path d="M810.91 245.28L810.91 245.28" stroke="#132e65" stroke-width="1.5"></path><path d="M810.91 245.28L810.18 363.54" stroke="#132e65" stroke-width="1.5"></path><path d="M810.91 245.28L995.21 188.38" stroke="#132e65" stroke-width="1.5"></path><path d="M810.18 363.54L810.18 363.54" stroke="#132e65" stroke-width="1.5"></path><path d="M810.18 363.54L851.34 506.75" stroke="#132e65" stroke-width="1.5"></path><path d="M810.18 363.54L652.87 560.8" stroke="#132e65" stroke-width="1.5"></path><path d="M810.18 363.54L995.21 188.38" stroke="#132e65" stroke-width="1.5"></path><path d="M851.34 506.75L851.34 506.75" stroke="#132e65" stroke-width="1.5"></path><path d="M851.34 506.75L1005.83 548.27" stroke="#132e65" stroke-width="1.5"></path><path d="M851.34 506.75L818.04 688.66" stroke="#132e65" stroke-width="1.5"></path><path d="M818.04 688.66L818.04 688.66" stroke="#132e65" stroke-width="1.5"></path><path d="M818.04 688.66L1008.27 672.61" stroke="#132e65" stroke-width="1.5"></path><path d="M1011.36 -59.35L1011.36 -59.35" stroke="#132e65" stroke-width="1.5"></path><path d="M1011.36 -59.35L975.02 43.82" stroke="#132e65" stroke-width="1.5"></path><path d="M1011.36 -59.35L1143.68 -65.72" stroke="#132e65" stroke-width="1.5"></path><path d="M1011.36 -59.35L1106.91 74.07" stroke="#132e65" stroke-width="1.5"></path><path d="M975.02 43.82L975.02 43.82" stroke="#132e65" stroke-width="1.5"></path><path d="M975.02 43.82L1106.91 74.07" stroke="#132e65" stroke-width="1.5"></path><path d="M975.02 43.82L995.21 188.38" stroke="#132e65" stroke-width="1.5"></path><path d="M975.02 43.82L1143.68 -65.72" stroke="#132e65" stroke-width="1.5"></path><path d="M995.21 188.38L995.21 188.38" stroke="#132e65" stroke-width="1.5"></path><path d="M995.21 188.38L1136.88 261.49" stroke="#132e65" stroke-width="1.5"></path><path d="M995.21 188.38L1106.91 74.07" stroke="#132e65" stroke-width="1.5"></path><path d="M1005.83 548.27L1005.83 548.27" stroke="#132e65" stroke-width="1.5"></path><path d="M1005.83 548.27L1126.79 549.28" stroke="#132e65" stroke-width="1.5"></path><path d="M1005.83 548.27L1008.27 672.61" stroke="#132e65" stroke-width="1.5"></path><path d="M1008.27 672.61L1008.27 672.61" stroke="#132e65" stroke-width="1.5"></path><path d="M1008.27 672.61L1099.28 700.05" stroke="#132e65" stroke-width="1.5"></path><path d="M1008.27 672.61L1126.79 549.28" stroke="#132e65" stroke-width="1.5"></path><path d="M1143.68 -65.72L1143.68 -65.72" stroke="#132e65" stroke-width="1.5"></path><path d="M1143.68 -65.72L1256.61 -80.53" stroke="#132e65" stroke-width="1.5"></path><path d="M1143.68 -65.72L1106.91 74.07" stroke="#132e65" stroke-width="1.5"></path><path d="M1106.91 74.07L1106.91 74.07" stroke="#132e65" stroke-width="1.5"></path><path d="M1136.88 261.49L1136.88 261.49" stroke="#132e65" stroke-width="1.5"></path><path d="M1136.88 261.49L1250.43 253.42" stroke="#132e65" stroke-width="1.5"></path><path d="M1136.88 261.49L1091.58 372.1" stroke="#132e65" stroke-width="1.5"></path><path d="M1091.58 372.1L1091.58 372.1" stroke="#132e65" stroke-width="1.5"></path><path d="M1091.58 372.1L1126.79 549.28" stroke="#132e65" stroke-width="1.5"></path><path d="M1091.58 372.1L1005.83 548.27" stroke="#132e65" stroke-width="1.5"></path><path d="M1091.58 372.1L1250.43 253.42" stroke="#132e65" stroke-width="1.5"></path><path d="M1126.79 549.28L1126.79 549.28" stroke="#132e65" stroke-width="1.5"></path><path d="M1099.28 700.05L1099.28 700.05" stroke="#132e65" stroke-width="1.5"></path><path d="M1099.28 700.05L1126.79 549.28" stroke="#132e65" stroke-width="1.5"></path><path d="M1099.28 700.05L1267.41 642.2" stroke="#132e65" stroke-width="1.5"></path><path d="M1099.28 700.05L1005.83 548.27" stroke="#132e65" stroke-width="1.5"></path><path d="M1099.28 700.05L1253.78 511.13" stroke="#132e65" stroke-width="1.5"></path><path d="M1256.61 -80.53L1256.61 -80.53" stroke="#132e65" stroke-width="1.5"></path><path d="M1256.61 -80.53L1307.28 92.91" stroke="#132e65" stroke-width="1.5"></path><path d="M1256.61 -80.53L1461.42 -67.38" stroke="#132e65" stroke-width="1.5"></path><path d="M1307.28 92.91L1307.28 92.91" stroke="#132e65" stroke-width="1.5"></path><path d="M1307.28 92.91L1250.43 253.42" stroke="#132e65" stroke-width="1.5"></path><path d="M1307.28 92.91L1453.01 215.87" stroke="#132e65" stroke-width="1.5"></path><path d="M1307.28 92.91L1106.91 74.07" stroke="#132e65" stroke-width="1.5"></path><path d="M1250.43 253.42L1250.43 253.42" stroke="#132e65" stroke-width="1.5"></path><path d="M1250.43 253.42L1292.02 405.3" stroke="#132e65" stroke-width="1.5"></path><path d="M1250.43 253.42L1453.01 215.87" stroke="#132e65" stroke-width="1.5"></path><path d="M1250.43 253.42L1106.91 74.07" stroke="#132e65" stroke-width="1.5"></path><path d="M1292.02 405.3L1292.02 405.3" stroke="#132e65" stroke-width="1.5"></path><path d="M1292.02 405.3L1253.78 511.13" stroke="#132e65" stroke-width="1.5"></path><path d="M1292.02 405.3L1411.34 559.78" stroke="#132e65" stroke-width="1.5"></path><path d="M1253.78 511.13L1253.78 511.13" stroke="#132e65" stroke-width="1.5"></path><path d="M1253.78 511.13L1267.41 642.2" stroke="#132e65" stroke-width="1.5"></path><path d="M1253.78 511.13L1126.79 549.28" stroke="#132e65" stroke-width="1.5"></path><path d="M1253.78 511.13L1411.34 559.78" stroke="#132e65" stroke-width="1.5"></path><path d="M1267.41 642.2L1267.41 642.2" stroke="#132e65" stroke-width="1.5"></path><path d="M1267.41 642.2L1411.34 559.78" stroke="#132e65" stroke-width="1.5"></path><path d="M1267.41 642.2L1126.79 549.28" stroke="#132e65" stroke-width="1.5"></path><path d="M1267.41 642.2L1438.39 711.25" stroke="#132e65" stroke-width="1.5"></path><path d="M1461.42 -67.38L1461.42 -67.38" stroke="#132e65" stroke-width="1.5"></path><path d="M1461.42 -67.38L1587.61 -37.51" stroke="#132e65" stroke-width="1.5"></path><path d="M1461.42 -67.38L1599.75 57.49" stroke="#132e65" stroke-width="1.5"></path><path d="M1461.42 -67.38L1307.28 92.91" stroke="#132e65" stroke-width="1.5"></path><path d="M1453.01 215.87L1453.01 215.87" stroke="#132e65" stroke-width="1.5"></path><path d="M1453.01 215.87L1608.59 241.61" stroke="#132e65" stroke-width="1.5"></path><path d="M1453.01 215.87L1599.75 57.49" stroke="#132e65" stroke-width="1.5"></path><path d="M1453.01 215.87L1591.92 389.46" stroke="#132e65" stroke-width="1.5"></path><path d="M1453.01 215.87L1292.02 405.3" stroke="#132e65" stroke-width="1.5"></path><path d="M1411.34 559.78L1411.34 559.78" stroke="#132e65" stroke-width="1.5"></path><path d="M1411.34 559.78L1550.14 511.17" stroke="#132e65" stroke-width="1.5"></path><path d="M1411.34 559.78L1438.39 711.25" stroke="#132e65" stroke-width="1.5"></path><path d="M1438.39 711.25L1438.39 711.25" stroke="#132e65" stroke-width="1.5"></path><path d="M1438.39 711.25L1592.28 692.81" stroke="#132e65" stroke-width="1.5"></path><path d="M1438.39 711.25L1550.14 511.17" stroke="#132e65" stroke-width="1.5"></path><path d="M1438.39 711.25L1253.78 511.13" stroke="#132e65" stroke-width="1.5"></path><path d="M1438.39 711.25L1292.02 405.3" stroke="#132e65" stroke-width="1.5"></path><path d="M1587.61 -37.51L1587.61 -37.51" stroke="#132e65" stroke-width="1.5"></path><path d="M1587.61 -37.51L1599.75 57.49" stroke="#132e65" stroke-width="1.5"></path><path d="M1587.61 -37.51L1608.59 241.61" stroke="#132e65" stroke-width="1.5"></path><path d="M1587.61 -37.51L1453.01 215.87" stroke="#132e65" stroke-width="1.5"></path><path d="M1599.75 57.49L1599.75 57.49" stroke="#132e65" stroke-width="1.5"></path><path d="M1599.75 57.49L1608.59 241.61" stroke="#132e65" stroke-width="1.5"></path><path d="M1608.59 241.61L1608.59 241.61" stroke="#132e65" stroke-width="1.5"></path><path d="M1608.59 241.61L1591.92 389.46" stroke="#132e65" stroke-width="1.5"></path><path d="M1591.92 389.46L1591.92 389.46" stroke="#132e65" stroke-width="1.5"></path><path d="M1591.92 389.46L1550.14 511.17" stroke="#132e65" stroke-width="1.5"></path><path d="M1591.92 389.46L1411.34 559.78" stroke="#132e65" stroke-width="1.5"></path><path d="M1591.92 389.46L1292.02 405.3" stroke="#132e65" stroke-width="1.5"></path><path d="M1591.92 389.46L1592.28 692.81" stroke="#132e65" stroke-width="1.5"></path><path d="M1550.14 511.17L1550.14 511.17" stroke="#132e65" stroke-width="1.5"></path><path d="M1550.14 511.17L1592.28 692.81" stroke="#132e65" stroke-width="1.5"></path><path d="M1550.14 511.17L1608.59 241.61" stroke="#132e65" stroke-width="1.5"></path><path d="M1550.14 511.17L1292.02 405.3" stroke="#132e65" stroke-width="1.5"></path><path d="M1592.28 692.81L1592.28 692.81" stroke="#132e65" stroke-width="1.5"></path><path d="M1592.28 692.81L1411.34 559.78" stroke="#132e65" stroke-width="1.5"></path><path d="M1592.28 692.81L1267.41 642.2" stroke="#132e65" stroke-width="1.5"></path><path d="M1592.28 692.81L1253.78 511.13" stroke="#132e65" stroke-width="1.5"></path><circle r="5" cx="-40.48" cy="345.54" fill="#132e65"></circle><circle r="5" cx="-55.45" cy="540.28" fill="#132e65"></circle><circle r="5" cx="-63.38" cy="711.76" fill="#132e65"></circle><circle r="5" cx="50.31" cy="365.26" fill="#132e65"></circle><circle r="5" cx="75.89" cy="514.94" fill="#132e65"></circle><circle r="5" cx="51.86" cy="638.51" fill="#132e65"></circle><circle r="5" cx="209.94" cy="376.15" fill="#132e65"></circle><circle r="5" cx="192.36" cy="560.26" fill="#132e65"></circle><circle r="5" cx="218.82" cy="701.15" fill="#132e65"></circle><circle r="5" cx="401.77" cy="360.65" fill="#132e65"></circle><circle r="5" cx="373.28" cy="558.21" fill="#132e65"></circle><circle r="5" cx="383.99" cy="695.81" fill="#132e65"></circle><circle r="5" cx="548.26" cy="340.77" fill="#132e65"></circle><circle r="5" cx="540.57" cy="530.18" fill="#132e65"></circle><circle r="5" cx="535.5" cy="676.59" fill="#132e65"></circle><circle r="5" cx="695.78" cy="204.32" fill="#132e65"></circle><circle r="5" cx="705.03" cy="390.94" fill="#132e65"></circle><circle r="5" cx="652.87" cy="560.8" fill="#132e65"></circle><circle r="5" cx="852.58" cy="73" fill="#132e65"></circle><circle r="5" cx="810.91" cy="245.28" fill="#132e65"></circle><circle r="5" cx="810.18" cy="363.54" fill="#132e65"></circle><circle r="5" cx="851.34" cy="506.75" fill="#132e65"></circle><circle r="5" cx="818.04" cy="688.66" fill="#132e65"></circle><circle r="5" cx="1011.36" cy="-59.35" fill="#132e65"></circle><circle r="5" cx="975.02" cy="43.82" fill="#132e65"></circle><circle r="5" cx="995.21" cy="188.38" fill="#132e65"></circle><circle r="5" cx="1005.83" cy="548.27" fill="#132e65"></circle><circle r="5" cx="1008.27" cy="672.61" fill="#132e65"></circle><circle r="5" cx="1143.68" cy="-65.72" fill="#132e65"></circle><circle r="5" cx="1106.91" cy="74.07" fill="#132e65"></circle><circle r="5" cx="1136.88" cy="261.49" fill="#132e65"></circle><circle r="5" cx="1091.58" cy="372.1" fill="#132e65"></circle><circle r="5" cx="1126.79" cy="549.28" fill="#132e65"></circle><circle r="5" cx="1099.28" cy="700.05" fill="#132e65"></circle><circle r="5" cx="1256.61" cy="-80.53" fill="#132e65"></circle><circle r="5" cx="1307.28" cy="92.91" fill="#132e65"></circle><circle r="5" cx="1250.43" cy="253.42" fill="#132e65"></circle><circle r="5" cx="1292.02" cy="405.3" fill="#132e65"></circle><circle r="5" cx="1253.78" cy="511.13" fill="#132e65"></circle><circle r="5" cx="1267.41" cy="642.2" fill="#132e65"></circle><circle r="5" cx="1461.42" cy="-67.38" fill="#132e65"></circle><circle r="5" cx="1453.01" cy="215.87" fill="#132e65"></circle><circle r="5" cx="1411.34" cy="559.78" fill="#132e65"></circle><circle r="5" cx="1438.39" cy="711.25" fill="#132e65"></circle><circle r="5" cx="1587.61" cy="-37.51" fill="#132e65"></circle><circle r="5" cx="1599.75" cy="57.49" fill="#132e65"></circle><circle r="5" cx="1608.59" cy="241.61" fill="#132e65"></circle><circle r="5" cx="1591.92" cy="389.46" fill="#132e65"></circle><circle r="5" cx="1550.14" cy="511.17" fill="#132e65"></circle><circle r="5" cx="1592.28" cy="692.81" fill="#132e65"></circle><path d="M528.16 692.44L528.16 692.44" stroke="hsl(228.5, 77.2%, 51.5%)" stroke-width="1.5"></path><path d="M528.16 692.44L673.47 651.79" stroke="hsl(228.5, 77.2%, 51.5%)" stroke-width="1.5"></path><path d="M528.16 692.44L353.63 690.86" stroke="hsl(228.5, 77.2%, 51.5%)" stroke-width="1.5"></path><path d="M528.16 692.44L410.7 550.78" stroke="hsl(228.5, 77.2%, 51.5%)" stroke-width="1.5"></path><path d="M639.6 534.29L639.6 534.29" stroke="hsl(228.5, 77.2%, 51.5%)" stroke-width="1.5"></path><path d="M639.6 534.29L542.65 492.95" stroke="hsl(228.5, 77.2%, 51.5%)" stroke-width="1.5"></path><path d="M1103.78 703.78L1103.78 703.78" stroke="hsl(228.5, 77.2%, 51.5%)" stroke-width="1.5"></path><path d="M1103.78 703.78L1003 712.07" stroke="hsl(228.5, 77.2%, 51.5%)" stroke-width="1.5"></path><path d="M1103.78 703.78L1115.38 561.3" stroke="hsl(228.5, 77.2%, 51.5%)" stroke-width="1.5"></path><path d="M1103.78 703.78L1260.4 638.4" stroke="hsl(228.5, 77.2%, 51.5%)" stroke-width="1.5"></path><path d="M1103.78 703.78L950.32 556.51" stroke="hsl(228.5, 77.2%, 51.5%)" stroke-width="1.5"></path><path d="M1103.78 703.78L1257.35 490.41" stroke="hsl(228.5, 77.2%, 51.5%)" stroke-width="1.5"></path><path d="M1103.78 703.78L824.79 668.11" stroke="hsl(228.5, 77.2%, 51.5%)" stroke-width="1.5"></path><path d="M1282.64 395.96L1282.64 395.96" stroke="hsl(228.5, 77.2%, 51.5%)" stroke-width="1.5"></path><path d="M1282.64 395.96L1257.35 490.41" stroke="hsl(228.5, 77.2%, 51.5%)" stroke-width="1.5"></path><path d="M1282.64 395.96L1444.7 385.3" stroke="hsl(228.5, 77.2%, 51.5%)" stroke-width="1.5"></path><path d="M1282.64 395.96L1241.68 216.44" stroke="hsl(228.5, 77.2%, 51.5%)" stroke-width="1.5"></path><path d="M1282.64 395.96L1399.37 550.36" stroke="hsl(228.5, 77.2%, 51.5%)" stroke-width="1.5"></path><path d="M1282.64 395.96L1115.38 561.3" stroke="hsl(228.5, 77.2%, 51.5%)" stroke-width="1.5"></path><path d="M1399.37 550.36L1399.37 550.36" stroke="hsl(228.5, 77.2%, 51.5%)" stroke-width="1.5"></path><path d="M1399.37 550.36L1257.35 490.41" stroke="hsl(228.5, 77.2%, 51.5%)" stroke-width="1.5"></path><path d="M1399.37 550.36L1435.36 701.97" stroke="hsl(228.5, 77.2%, 51.5%)" stroke-width="1.5"></path><path d="M1399.37 550.36L1260.4 638.4" stroke="hsl(228.5, 77.2%, 51.5%)" stroke-width="1.5"></path><path d="M1576.55 410.14L1576.55 410.14" stroke="hsl(228.5, 77.2%, 51.5%)" stroke-width="1.5"></path><path d="M1576.55 410.14L1603.33 506.4" stroke="hsl(228.5, 77.2%, 51.5%)" stroke-width="1.5"></path><path d="M1576.55 410.14L1444.7 385.3" stroke="hsl(228.5, 77.2%, 51.5%)" stroke-width="1.5"></path><path d="M1576.55 410.14L1399.37 550.36" stroke="hsl(228.5, 77.2%, 51.5%)" stroke-width="1.5"></path><path d="M1576.55 410.14L1453.52 203.98" stroke="hsl(228.5, 77.2%, 51.5%)" stroke-width="1.5"></path><path d="M1576.55 410.14L1566.49 702.62" stroke="hsl(228.5, 77.2%, 51.5%)" stroke-width="1.5"></path><path d="M1603.33 506.4L1603.33 506.4" stroke="hsl(228.5, 77.2%, 51.5%)" stroke-width="1.5"></path><path d="M1603.33 506.4L1444.7 385.3" stroke="hsl(228.5, 77.2%, 51.5%)" stroke-width="1.5"></path><path d="M1603.33 506.4L1566.49 702.62" stroke="hsl(228.5, 77.2%, 51.5%)" stroke-width="1.5"></path><path d="M1603.33 506.4L1399.37 550.36" stroke="hsl(228.5, 77.2%, 51.5%)" stroke-width="1.5"></path><path d="M-80.45 537.27L-80.45 537.27" stroke="hsl(228.5, 77.2%, 51.5%)" stroke-width="1.5"></path><path d="M-80.45 537.27L-107.77 641.16" stroke="hsl(228.5, 77.2%, 51.5%)" stroke-width="1.5"></path><path d="M-80.45 537.27L109.78 496.21" stroke="hsl(228.5, 77.2%, 51.5%)" stroke-width="1.5"></path><path d="M-80.45 537.27L85.78 695.45" stroke="hsl(228.5, 77.2%, 51.5%)" stroke-width="1.5"></path><path d="M-80.45 537.27L239.03 678.55" stroke="hsl(228.5, 77.2%, 51.5%)" stroke-width="1.5"></path><path d="M-80.45 537.27L353.63 690.86" stroke="hsl(228.5, 77.2%, 51.5%)" stroke-width="1.5"></path><path d="M-80.45 537.27L410.7 550.78" stroke="hsl(228.5, 77.2%, 51.5%)" stroke-width="1.5"></path><path d="M-107.77 641.16L-107.77 641.16" stroke="hsl(228.5, 77.2%, 51.5%)" stroke-width="1.5"></path><path d="M-107.77 641.16L85.78 695.45" stroke="hsl(228.5, 77.2%, 51.5%)" stroke-width="1.5"></path><path d="M-107.77 641.16L109.78 496.21" stroke="hsl(228.5, 77.2%, 51.5%)" stroke-width="1.5"></path><path d="M-107.77 641.16L239.03 678.55" stroke="hsl(228.5, 77.2%, 51.5%)" stroke-width="1.5"></path><path d="M109.78 496.21L109.78 496.21" stroke="hsl(228.5, 77.2%, 51.5%)" stroke-width="1.5"></path><path d="M109.78 496.21L85.78 695.45" stroke="hsl(228.5, 77.2%, 51.5%)" stroke-width="1.5"></path><path d="M109.78 496.21L239.03 678.55" stroke="hsl(228.5, 77.2%, 51.5%)" stroke-width="1.5"></path><path d="M85.78 695.45L85.78 695.45" stroke="hsl(228.5, 77.2%, 51.5%)" stroke-width="1.5"></path><path d="M85.78 695.45L239.03 678.55" stroke="hsl(228.5, 77.2%, 51.5%)" stroke-width="1.5"></path><path d="M85.78 695.45L353.63 690.86" stroke="hsl(228.5, 77.2%, 51.5%)" stroke-width="1.5"></path><path d="M239.03 678.55L239.03 678.55" stroke="hsl(228.5, 77.2%, 51.5%)" stroke-width="1.5"></path><path d="M239.03 678.55L353.63 690.86" stroke="hsl(228.5, 77.2%, 51.5%)" stroke-width="1.5"></path><path d="M239.03 678.55L410.7 550.78" stroke="hsl(228.5, 77.2%, 51.5%)" stroke-width="1.5"></path><path d="M239.03 678.55L528.16 692.44" stroke="hsl(228.5, 77.2%, 51.5%)" stroke-width="1.5"></path><path d="M410.7 550.78L410.7 550.78" stroke="hsl(228.5, 77.2%, 51.5%)" stroke-width="1.5"></path><path d="M410.7 550.78L542.65 492.95" stroke="hsl(228.5, 77.2%, 51.5%)" stroke-width="1.5"></path><path d="M410.7 550.78L353.63 690.86" stroke="hsl(228.5, 77.2%, 51.5%)" stroke-width="1.5"></path><path d="M353.63 690.86L353.63 690.86" stroke="hsl(228.5, 77.2%, 51.5%)" stroke-width="1.5"></path><path d="M542.65 492.95L542.65 492.95" stroke="hsl(228.5, 77.2%, 51.5%)" stroke-width="1.5"></path><path d="M542.65 492.95L528.16 692.44" stroke="hsl(228.5, 77.2%, 51.5%)" stroke-width="1.5"></path><path d="M542.65 492.95L673.47 651.79" stroke="hsl(228.5, 77.2%, 51.5%)" stroke-width="1.5"></path><path d="M542.65 492.95L800.91 543.1" stroke="hsl(228.5, 77.2%, 51.5%)" stroke-width="1.5"></path><path d="M673.47 651.79L673.47 651.79" stroke="hsl(228.5, 77.2%, 51.5%)" stroke-width="1.5"></path><path d="M673.47 651.79L639.6 534.29" stroke="hsl(228.5, 77.2%, 51.5%)" stroke-width="1.5"></path><path d="M673.47 651.79L824.79 668.11" stroke="hsl(228.5, 77.2%, 51.5%)" stroke-width="1.5"></path><path d="M673.47 651.79L800.91 543.1" stroke="hsl(228.5, 77.2%, 51.5%)" stroke-width="1.5"></path><path d="M673.47 651.79L410.7 550.78" stroke="hsl(228.5, 77.2%, 51.5%)" stroke-width="1.5"></path><path d="M831.32 373.26L831.32 373.26" stroke="hsl(228.5, 77.2%, 51.5%)" stroke-width="1.5"></path><path d="M831.32 373.26L961.03 380.45" stroke="hsl(228.5, 77.2%, 51.5%)" stroke-width="1.5"></path><path d="M831.32 373.26L800.91 543.1" stroke="hsl(228.5, 77.2%, 51.5%)" stroke-width="1.5"></path><path d="M800.91 543.1L800.91 543.1" stroke="hsl(228.5, 77.2%, 51.5%)" stroke-width="1.5"></path><path d="M800.91 543.1L824.79 668.11" stroke="hsl(228.5, 77.2%, 51.5%)" stroke-width="1.5"></path><path d="M800.91 543.1L950.32 556.51" stroke="hsl(228.5, 77.2%, 51.5%)" stroke-width="1.5"></path><path d="M824.79 668.11L824.79 668.11" stroke="hsl(228.5, 77.2%, 51.5%)" stroke-width="1.5"></path><path d="M824.79 668.11L950.32 556.51" stroke="hsl(228.5, 77.2%, 51.5%)" stroke-width="1.5"></path><path d="M961.03 380.45L961.03 380.45" stroke="hsl(228.5, 77.2%, 51.5%)" stroke-width="1.5"></path><path d="M961.03 380.45L950.32 556.51" stroke="hsl(228.5, 77.2%, 51.5%)" stroke-width="1.5"></path><path d="M961.03 380.45L800.91 543.1" stroke="hsl(228.5, 77.2%, 51.5%)" stroke-width="1.5"></path><path d="M950.32 556.51L950.32 556.51" stroke="hsl(228.5, 77.2%, 51.5%)" stroke-width="1.5"></path><path d="M950.32 556.51L1003 712.07" stroke="hsl(228.5, 77.2%, 51.5%)" stroke-width="1.5"></path><path d="M950.32 556.51L1115.38 561.3" stroke="hsl(228.5, 77.2%, 51.5%)" stroke-width="1.5"></path><path d="M1003 712.07L1003 712.07" stroke="hsl(228.5, 77.2%, 51.5%)" stroke-width="1.5"></path><path d="M1105.39 195.13L1105.39 195.13" stroke="hsl(228.5, 77.2%, 51.5%)" stroke-width="1.5"></path><path d="M1105.39 195.13L1241.68 216.44" stroke="hsl(228.5, 77.2%, 51.5%)" stroke-width="1.5"></path><path d="M1105.39 195.13L1293.65 89.36" stroke="hsl(228.5, 77.2%, 51.5%)" stroke-width="1.5"></path><path d="M1115.38 561.3L1115.38 561.3" stroke="hsl(228.5, 77.2%, 51.5%)" stroke-width="1.5"></path><path d="M1115.38 561.3L1257.35 490.41" stroke="hsl(228.5, 77.2%, 51.5%)" stroke-width="1.5"></path><path d="M1268.86 -61.5L1268.86 -61.5" stroke="hsl(228.5, 77.2%, 51.5%)" stroke-width="1.5"></path><path d="M1268.86 -61.5L1395.28 -70.94" stroke="hsl(228.5, 77.2%, 51.5%)" stroke-width="1.5"></path><path d="M1268.86 -61.5L1293.65 89.36" stroke="hsl(228.5, 77.2%, 51.5%)" stroke-width="1.5"></path><path d="M1268.86 -61.5L1453.64 97.19" stroke="hsl(228.5, 77.2%, 51.5%)" stroke-width="1.5"></path><path d="M1268.86 -61.5L1241.68 216.44" stroke="hsl(228.5, 77.2%, 51.5%)" stroke-width="1.5"></path><path d="M1268.86 -61.5L1105.39 195.13" stroke="hsl(228.5, 77.2%, 51.5%)" stroke-width="1.5"></path><path d="M1293.65 89.36L1293.65 89.36" stroke="hsl(228.5, 77.2%, 51.5%)" stroke-width="1.5"></path><path d="M1293.65 89.36L1241.68 216.44" stroke="hsl(228.5, 77.2%, 51.5%)" stroke-width="1.5"></path><path d="M1241.68 216.44L1241.68 216.44" stroke="hsl(228.5, 77.2%, 51.5%)" stroke-width="1.5"></path><path d="M1257.35 490.41L1257.35 490.41" stroke="hsl(228.5, 77.2%, 51.5%)" stroke-width="1.5"></path><path d="M1257.35 490.41L1260.4 638.4" stroke="hsl(228.5, 77.2%, 51.5%)" stroke-width="1.5"></path><path d="M1260.4 638.4L1260.4 638.4" stroke="hsl(228.5, 77.2%, 51.5%)" stroke-width="1.5"></path><path d="M1260.4 638.4L1115.38 561.3" stroke="hsl(228.5, 77.2%, 51.5%)" stroke-width="1.5"></path><path d="M1260.4 638.4L1435.36 701.97" stroke="hsl(228.5, 77.2%, 51.5%)" stroke-width="1.5"></path><path d="M1260.4 638.4L1282.64 395.96" stroke="hsl(228.5, 77.2%, 51.5%)" stroke-width="1.5"></path><path d="M1395.28 -70.94L1395.28 -70.94" stroke="hsl(228.5, 77.2%, 51.5%)" stroke-width="1.5"></path><path d="M1395.28 -70.94L1453.64 97.19" stroke="hsl(228.5, 77.2%, 51.5%)" stroke-width="1.5"></path><path d="M1395.28 -70.94L1293.65 89.36" stroke="hsl(228.5, 77.2%, 51.5%)" stroke-width="1.5"></path><path d="M1453.64 97.19L1453.64 97.19" stroke="hsl(228.5, 77.2%, 51.5%)" stroke-width="1.5"></path><path d="M1453.64 97.19L1453.52 203.98" stroke="hsl(228.5, 77.2%, 51.5%)" stroke-width="1.5"></path><path d="M1453.64 97.19L1564.4 100.56" stroke="hsl(228.5, 77.2%, 51.5%)" stroke-width="1.5"></path><path d="M1453.64 97.19L1293.65 89.36" stroke="hsl(228.5, 77.2%, 51.5%)" stroke-width="1.5"></path><path d="M1453.64 97.19L1241.68 216.44" stroke="hsl(228.5, 77.2%, 51.5%)" stroke-width="1.5"></path><path d="M1453.52 203.98L1453.52 203.98" stroke="hsl(228.5, 77.2%, 51.5%)" stroke-width="1.5"></path><path d="M1453.52 203.98L1564.4 100.56" stroke="hsl(228.5, 77.2%, 51.5%)" stroke-width="1.5"></path><path d="M1453.52 203.98L1444.7 385.3" stroke="hsl(228.5, 77.2%, 51.5%)" stroke-width="1.5"></path><path d="M1453.52 203.98L1293.65 89.36" stroke="hsl(228.5, 77.2%, 51.5%)" stroke-width="1.5"></path><path d="M1453.52 203.98L1241.68 216.44" stroke="hsl(228.5, 77.2%, 51.5%)" stroke-width="1.5"></path><path d="M1444.7 385.3L1444.7 385.3" stroke="hsl(228.5, 77.2%, 51.5%)" stroke-width="1.5"></path><path d="M1444.7 385.3L1399.37 550.36" stroke="hsl(228.5, 77.2%, 51.5%)" stroke-width="1.5"></path><path d="M1444.7 385.3L1257.35 490.41" stroke="hsl(228.5, 77.2%, 51.5%)" stroke-width="1.5"></path><path d="M1435.36 701.97L1435.36 701.97" stroke="hsl(228.5, 77.2%, 51.5%)" stroke-width="1.5"></path><path d="M1435.36 701.97L1566.49 702.62" stroke="hsl(228.5, 77.2%, 51.5%)" stroke-width="1.5"></path><path d="M1435.36 701.97L1603.33 506.4" stroke="hsl(228.5, 77.2%, 51.5%)" stroke-width="1.5"></path><path d="M1602.48 -111.16L1602.48 -111.16" stroke="hsl(228.5, 77.2%, 51.5%)" stroke-width="1.5"></path><path d="M1602.48 -111.16L1395.28 -70.94" stroke="hsl(228.5, 77.2%, 51.5%)" stroke-width="1.5"></path><path d="M1602.48 -111.16L1564.4 100.56" stroke="hsl(228.5, 77.2%, 51.5%)" stroke-width="1.5"></path><path d="M1602.48 -111.16L1453.64 97.19" stroke="hsl(228.5, 77.2%, 51.5%)" stroke-width="1.5"></path><path d="M1602.48 -111.16L1268.86 -61.5" stroke="hsl(228.5, 77.2%, 51.5%)" stroke-width="1.5"></path><path d="M1602.48 -111.16L1453.52 203.98" stroke="hsl(228.5, 77.2%, 51.5%)" stroke-width="1.5"></path><path d="M1602.48 -111.16L1293.65 89.36" stroke="hsl(228.5, 77.2%, 51.5%)" stroke-width="1.5"></path><path d="M1564.4 100.56L1564.4 100.56" stroke="hsl(228.5, 77.2%, 51.5%)" stroke-width="1.5"></path><path d="M1564.4 100.56L1395.28 -70.94" stroke="hsl(228.5, 77.2%, 51.5%)" stroke-width="1.5"></path><path d="M1564.4 100.56L1293.65 89.36" stroke="hsl(228.5, 77.2%, 51.5%)" stroke-width="1.5"></path><path d="M1566.49 702.62L1566.49 702.62" stroke="hsl(228.5, 77.2%, 51.5%)" stroke-width="1.5"></path><path d="M1566.49 702.62L1399.37 550.36" stroke="hsl(228.5, 77.2%, 51.5%)" stroke-width="1.5"></path><circle r="25" cx="528.16" cy="692.44" fill="url(#SvgjsRadialGradient1009)"></circle><circle r="25" cx="639.6" cy="534.29" fill="url(#SvgjsRadialGradient1009)"></circle><circle r="25" cx="1103.78" cy="703.78" fill="url(#SvgjsRadialGradient1009)"></circle><circle r="25" cx="1282.64" cy="395.96" fill="url(#SvgjsRadialGradient1009)"></circle><circle r="25" cx="1399.37" cy="550.36" fill="url(#SvgjsRadialGradient1009)"></circle><circle r="25" cx="1576.55" cy="410.14" fill="url(#SvgjsRadialGradient1009)"></circle><circle r="25" cx="1603.33" cy="506.4" fill="url(#SvgjsRadialGradient1009)"></circle><circle r="5" cx="-80.45" cy="537.27" fill="#8b9ad9"></circle><circle r="5" cx="-107.77" cy="641.16" fill="#8b9ad9"></circle><circle r="5" cx="109.78" cy="496.21" fill="#8b9ad9"></circle><circle r="5" cx="85.78" cy="695.45" fill="#8b9ad9"></circle><circle r="5" cx="239.03" cy="678.55" fill="#8b9ad9"></circle><circle r="5" cx="410.7" cy="550.78" fill="#8b9ad9"></circle><circle r="5" cx="353.63" cy="690.86" fill="#8b9ad9"></circle><circle r="5" cx="542.65" cy="492.95" fill="#8b9ad9"></circle><circle r="5" cx="673.47" cy="651.79" fill="#8b9ad9"></circle><circle r="5" cx="831.32" cy="373.26" fill="#8b9ad9"></circle><circle r="5" cx="800.91" cy="543.1" fill="#8b9ad9"></circle><circle r="5" cx="824.79" cy="668.11" fill="#8b9ad9"></circle><circle r="5" cx="961.03" cy="380.45" fill="#8b9ad9"></circle><circle r="5" cx="950.32" cy="556.51" fill="#8b9ad9"></circle><circle r="5" cx="1003" cy="712.07" fill="#8b9ad9"></circle><circle r="5" cx="1105.39" cy="195.13" fill="#8b9ad9"></circle><circle r="5" cx="1115.38" cy="561.3" fill="#8b9ad9"></circle><circle r="5" cx="1268.86" cy="-61.5" fill="#8b9ad9"></circle><circle r="5" cx="1293.65" cy="89.36" fill="#8b9ad9"></circle><circle r="5" cx="1241.68" cy="216.44" fill="#8b9ad9"></circle><circle r="5" cx="1257.35" cy="490.41" fill="#8b9ad9"></circle><circle r="5" cx="1260.4" cy="638.4" fill="#8b9ad9"></circle><circle r="5" cx="1395.28" cy="-70.94" fill="#8b9ad9"></circle><circle r="5" cx="1453.64" cy="97.19" fill="#8b9ad9"></circle><circle r="5" cx="1453.52" cy="203.98" fill="#8b9ad9"></circle><circle r="5" cx="1444.7" cy="385.3" fill="#8b9ad9"></circle><circle r="5" cx="1435.36" cy="701.97" fill="#8b9ad9"></circle><circle r="5" cx="1602.48" cy="-111.16" fill="#8b9ad9"></circle><circle r="5" cx="1564.4" cy="100.56" fill="#8b9ad9"></circle><circle r="5" cx="1566.49" cy="702.62" fill="#8b9ad9"></circle></g><defs><mask id="SvgjsMask1008"><rect width="1440" height="560" fill="#ffffff"></rect></mask><radialGradient id="SvgjsRadialGradient1009"><stop stop-color="#ffffff" offset="0.1"></stop><stop stop-color="#1735b3" offset="0.2"></stop><stop stop-color="rgba(23, 53, 179, 0)" offset="1"></stop></radialGradient></defs></svg>