<svg xmlns="http://www.w3.org/2000/svg" version="1.1" xmlns:xlink="http://www.w3.org/1999/xlink" xmlns:svgjs="http://svgjs.com/svgjs" width="1440" height="560" preserveAspectRatio="none" viewBox="0 0 1440 560"><g mask="url(&quot;#SvgjsMask1012&quot;)" fill="none"><rect width="1440" height="560" x="0" y="0" fill="#0e2a47"></rect><path d="M-97.4 401.95L-97.4 401.95" stroke="#132e65" stroke-width="1.5"></path><path d="M-97.4 401.95L-98.35 516.69" stroke="#132e65" stroke-width="1.5"></path><path d="M-97.4 401.95L39.67 379.33" stroke="#132e65" stroke-width="1.5"></path><path d="M-97.4 401.95L-109.9 673.87" stroke="#132e65" stroke-width="1.5"></path><path d="M-97.4 401.95L50.02 671.51" stroke="#132e65" stroke-width="1.5"></path><path d="M-97.4 401.95L248.16 359.58" stroke="#132e65" stroke-width="1.5"></path><path d="M-97.4 401.95L258.69 532.07" stroke="#132e65" stroke-width="1.5"></path><path d="M-98.35 516.69L-98.35 516.69" stroke="#132e65" stroke-width="1.5"></path><path d="M-98.35 516.69L-109.9 673.87" stroke="#132e65" stroke-width="1.5"></path><path d="M-98.35 516.69L39.67 379.33" stroke="#132e65" stroke-width="1.5"></path><path d="M-98.35 516.69L50.02 671.51" stroke="#132e65" stroke-width="1.5"></path><path d="M-109.9 673.87L-109.9 673.87" stroke="#132e65" stroke-width="1.5"></path><path d="M-109.9 673.87L50.02 671.51" stroke="#132e65" stroke-width="1.5"></path><path d="M39.67 379.33L39.67 379.33" stroke="#132e65" stroke-width="1.5"></path><path d="M39.67 379.33L248.16 359.58" stroke="#132e65" stroke-width="1.5"></path><path d="M39.67 379.33L258.69 532.07" stroke="#132e65" stroke-width="1.5"></path><path d="M50.02 671.51L50.02 671.51" stroke="#132e65" stroke-width="1.5"></path><path d="M50.02 671.51L234.26 667.3" stroke="#132e65" stroke-width="1.5"></path><path d="M50.02 671.51L258.69 532.07" stroke="#132e65" stroke-width="1.5"></path><path d="M50.02 671.51L39.67 379.33" stroke="#132e65" stroke-width="1.5"></path><path d="M248.16 359.58L248.16 359.58" stroke="#132e65" stroke-width="1.5"></path><path d="M248.16 359.58L360.85 349.39" stroke="#132e65" stroke-width="1.5"></path><path d="M248.16 359.58L258.69 532.07" stroke="#132e65" stroke-width="1.5"></path><path d="M248.16 359.58L359.76 559.31" stroke="#132e65" stroke-width="1.5"></path><path d="M248.16 359.58L234.26 667.3" stroke="#132e65" stroke-width="1.5"></path><path d="M248.16 359.58L557.97 399.88" stroke="#132e65" stroke-width="1.5"></path><path d="M258.69 532.07L258.69 532.07" stroke="#132e65" stroke-width="1.5"></path><path d="M258.69 532.07L359.76 559.31" stroke="#132e65" stroke-width="1.5"></path><path d="M258.69 532.07L234.26 667.3" stroke="#132e65" stroke-width="1.5"></path><path d="M258.69 532.07L360.85 349.39" stroke="#132e65" stroke-width="1.5"></path><path d="M234.26 667.3L234.26 667.3" stroke="#132e65" stroke-width="1.5"></path><path d="M234.26 667.3L387.4 697.7" stroke="#132e65" stroke-width="1.5"></path><path d="M360.85 349.39L360.85 349.39" stroke="#132e65" stroke-width="1.5"></path><path d="M360.85 349.39L557.97 399.88" stroke="#132e65" stroke-width="1.5"></path><path d="M359.76 559.31L359.76 559.31" stroke="#132e65" stroke-width="1.5"></path><path d="M359.76 559.31L387.4 697.7" stroke="#132e65" stroke-width="1.5"></path><path d="M359.76 559.31L491.76 645.5" stroke="#132e65" stroke-width="1.5"></path><path d="M359.76 559.31L234.26 667.3" stroke="#132e65" stroke-width="1.5"></path><path d="M359.76 559.31L558.57 526.71" stroke="#132e65" stroke-width="1.5"></path><path d="M359.76 559.31L360.85 349.39" stroke="#132e65" stroke-width="1.5"></path><path d="M387.4 697.7L387.4 697.7" stroke="#132e65" stroke-width="1.5"></path><path d="M387.4 697.7L491.76 645.5" stroke="#132e65" stroke-width="1.5"></path><path d="M557.97 399.88L557.97 399.88" stroke="#132e65" stroke-width="1.5"></path><path d="M557.97 399.88L677.96 390.73" stroke="#132e65" stroke-width="1.5"></path><path d="M557.97 399.88L558.57 526.71" stroke="#132e65" stroke-width="1.5"></path><path d="M557.97 399.88L658.04 541.22" stroke="#132e65" stroke-width="1.5"></path><path d="M557.97 399.88L703.23 200.94" stroke="#132e65" stroke-width="1.5"></path><path d="M558.57 526.71L558.57 526.71" stroke="#132e65" stroke-width="1.5"></path><path d="M558.57 526.71L658.04 541.22" stroke="#132e65" stroke-width="1.5"></path><path d="M558.57 526.71L491.76 645.5" stroke="#132e65" stroke-width="1.5"></path><path d="M558.57 526.71L677.96 390.73" stroke="#132e65" stroke-width="1.5"></path><path d="M558.57 526.71L683.73 680.68" stroke="#132e65" stroke-width="1.5"></path><path d="M491.76 645.5L491.76 645.5" stroke="#132e65" stroke-width="1.5"></path><path d="M491.76 645.5L683.73 680.68" stroke="#132e65" stroke-width="1.5"></path><path d="M703.23 200.94L703.23 200.94" stroke="#132e65" stroke-width="1.5"></path><path d="M703.23 200.94L844.22 210.63" stroke="#132e65" stroke-width="1.5"></path><path d="M703.23 200.94L861.95 100.87" stroke="#132e65" stroke-width="1.5"></path><path d="M677.96 390.73L677.96 390.73" stroke="#132e65" stroke-width="1.5"></path><path d="M677.96 390.73L658.04 541.22" stroke="#132e65" stroke-width="1.5"></path><path d="M677.96 390.73L829.87 379.9" stroke="#132e65" stroke-width="1.5"></path><path d="M677.96 390.73L793.71 496.68" stroke="#132e65" stroke-width="1.5"></path><path d="M658.04 541.22L658.04 541.22" stroke="#132e65" stroke-width="1.5"></path><path d="M658.04 541.22L683.73 680.68" stroke="#132e65" stroke-width="1.5"></path><path d="M658.04 541.22L793.71 496.68" stroke="#132e65" stroke-width="1.5"></path><path d="M658.04 541.22L788.17 662.33" stroke="#132e65" stroke-width="1.5"></path><path d="M683.73 680.68L683.73 680.68" stroke="#132e65" stroke-width="1.5"></path><path d="M683.73 680.68L788.17 662.33" stroke="#132e65" stroke-width="1.5"></path><path d="M683.73 680.68L793.71 496.68" stroke="#132e65" stroke-width="1.5"></path><path d="M683.73 680.68L677.96 390.73" stroke="#132e65" stroke-width="1.5"></path><path d="M861.95 100.87L861.95 100.87" stroke="#132e65" stroke-width="1.5"></path><path d="M861.95 100.87L844.22 210.63" stroke="#132e65" stroke-width="1.5"></path><path d="M861.95 100.87L979.03 53.26" stroke="#132e65" stroke-width="1.5"></path><path d="M844.22 210.63L844.22 210.63" stroke="#132e65" stroke-width="1.5"></path><path d="M844.22 210.63L1002.78 198.08" stroke="#132e65" stroke-width="1.5"></path><path d="M829.87 379.9L829.87 379.9" stroke="#132e65" stroke-width="1.5"></path><path d="M829.87 379.9L793.71 496.68" stroke="#132e65" stroke-width="1.5"></path><path d="M829.87 379.9L985.53 346.11" stroke="#132e65" stroke-width="1.5"></path><path d="M829.87 379.9L844.22 210.63" stroke="#132e65" stroke-width="1.5"></path><path d="M829.87 379.9L954.71 502.06" stroke="#132e65" stroke-width="1.5"></path><path d="M829.87 379.9L703.23 200.94" stroke="#132e65" stroke-width="1.5"></path><path d="M793.71 496.68L793.71 496.68" stroke="#132e65" stroke-width="1.5"></path><path d="M793.71 496.68L954.71 502.06" stroke="#132e65" stroke-width="1.5"></path><path d="M788.17 662.33L788.17 662.33" stroke="#132e65" stroke-width="1.5"></path><path d="M788.17 662.33L793.71 496.68" stroke="#132e65" stroke-width="1.5"></path><path d="M952.93 -37.85L952.93 -37.85" stroke="#132e65" stroke-width="1.5"></path><path d="M952.93 -37.85L979.03 53.26" stroke="#132e65" stroke-width="1.5"></path><path d="M952.93 -37.85L1094.71 -72.96" stroke="#132e65" stroke-width="1.5"></path><path d="M952.93 -37.85L861.95 100.87" stroke="#132e65" stroke-width="1.5"></path><path d="M979.03 53.26L979.03 53.26" stroke="#132e65" stroke-width="1.5"></path><path d="M979.03 53.26L1091.48 88.33" stroke="#132e65" stroke-width="1.5"></path><path d="M1002.78 198.08L1002.78 198.08" stroke="#132e65" stroke-width="1.5"></path><path d="M1002.78 198.08L1120.02 212.64" stroke="#132e65" stroke-width="1.5"></path><path d="M1002.78 198.08L1091.48 88.33" stroke="#132e65" stroke-width="1.5"></path><path d="M1002.78 198.08L979.03 53.26" stroke="#132e65" stroke-width="1.5"></path><path d="M1002.78 198.08L985.53 346.11" stroke="#132e65" stroke-width="1.5"></path><path d="M985.53 346.11L985.53 346.11" stroke="#132e65" stroke-width="1.5"></path><path d="M985.53 346.11L1105.31 338.3" stroke="#132e65" stroke-width="1.5"></path><path d="M985.53 346.11L954.71 502.06" stroke="#132e65" stroke-width="1.5"></path><path d="M985.53 346.11L1120.02 212.64" stroke="#132e65" stroke-width="1.5"></path><path d="M954.71 502.06L954.71 502.06" stroke="#132e65" stroke-width="1.5"></path><path d="M1094.71 -72.96L1094.71 -72.96" stroke="#132e65" stroke-width="1.5"></path><path d="M1094.71 -72.96L1251.07 -63.83" stroke="#132e65" stroke-width="1.5"></path><path d="M1094.71 -72.96L1091.48 88.33" stroke="#132e65" stroke-width="1.5"></path><path d="M1094.71 -72.96L979.03 53.26" stroke="#132e65" stroke-width="1.5"></path><path d="M1094.71 -72.96L1246.76 82.93" stroke="#132e65" stroke-width="1.5"></path><path d="M1094.71 -72.96L1002.78 198.08" stroke="#132e65" stroke-width="1.5"></path><path d="M1091.48 88.33L1091.48 88.33" stroke="#132e65" stroke-width="1.5"></path><path d="M1120.02 212.64L1120.02 212.64" stroke="#132e65" stroke-width="1.5"></path><path d="M1120.02 212.64L1105.31 338.3" stroke="#132e65" stroke-width="1.5"></path><path d="M1105.31 338.3L1105.31 338.3" stroke="#132e65" stroke-width="1.5"></path><path d="M1105.31 338.3L1241.9 402.78" stroke="#132e65" stroke-width="1.5"></path><path d="M1105.31 338.3L1138.14 499.1" stroke="#132e65" stroke-width="1.5"></path><path d="M1138.14 499.1L1138.14 499.1" stroke="#132e65" stroke-width="1.5"></path><path d="M1138.14 499.1L1263.79 515.18" stroke="#132e65" stroke-width="1.5"></path><path d="M1138.14 499.1L1241.9 402.78" stroke="#132e65" stroke-width="1.5"></path><path d="M1127.52 675.23L1127.52 675.23" stroke="#132e65" stroke-width="1.5"></path><path d="M1127.52 675.23L1257.57 697.28" stroke="#132e65" stroke-width="1.5"></path><path d="M1127.52 675.23L1138.14 499.1" stroke="#132e65" stroke-width="1.5"></path><path d="M1127.52 675.23L1263.79 515.18" stroke="#132e65" stroke-width="1.5"></path><path d="M1127.52 675.23L954.71 502.06" stroke="#132e65" stroke-width="1.5"></path><path d="M1127.52 675.23L1241.9 402.78" stroke="#132e65" stroke-width="1.5"></path><path d="M1127.52 675.23L1390.24 504.7" stroke="#132e65" stroke-width="1.5"></path><path d="M1251.07 -63.83L1251.07 -63.83" stroke="#132e65" stroke-width="1.5"></path><path d="M1251.07 -63.83L1246.76 82.93" stroke="#132e65" stroke-width="1.5"></path><path d="M1251.07 -63.83L1453.8 -98.06" stroke="#132e65" stroke-width="1.5"></path><path d="M1251.07 -63.83L1091.48 88.33" stroke="#132e65" stroke-width="1.5"></path><path d="M1246.76 82.93L1246.76 82.93" stroke="#132e65" stroke-width="1.5"></path><path d="M1246.76 82.93L1276.21 214.31" stroke="#132e65" stroke-width="1.5"></path><path d="M1246.76 82.93L1091.48 88.33" stroke="#132e65" stroke-width="1.5"></path><path d="M1276.21 214.31L1276.21 214.31" stroke="#132e65" stroke-width="1.5"></path><path d="M1276.21 214.31L1401.93 201.79" stroke="#132e65" stroke-width="1.5"></path><path d="M1276.21 214.31L1120.02 212.64" stroke="#132e65" stroke-width="1.5"></path><path d="M1276.21 214.31L1241.9 402.78" stroke="#132e65" stroke-width="1.5"></path><path d="M1241.9 402.78L1241.9 402.78" stroke="#132e65" stroke-width="1.5"></path><path d="M1241.9 402.78L1263.79 515.18" stroke="#132e65" stroke-width="1.5"></path><path d="M1241.9 402.78L1397.38 395.55" stroke="#132e65" stroke-width="1.5"></path><path d="M1241.9 402.78L1390.24 504.7" stroke="#132e65" stroke-width="1.5"></path><path d="M1263.79 515.18L1263.79 515.18" stroke="#132e65" stroke-width="1.5"></path><path d="M1263.79 515.18L1390.24 504.7" stroke="#132e65" stroke-width="1.5"></path><path d="M1263.79 515.18L1397.38 395.55" stroke="#132e65" stroke-width="1.5"></path><path d="M1263.79 515.18L1257.57 697.28" stroke="#132e65" stroke-width="1.5"></path><path d="M1257.57 697.28L1257.57 697.28" stroke="#132e65" stroke-width="1.5"></path><path d="M1257.57 697.28L1462.04 681.89" stroke="#132e65" stroke-width="1.5"></path><path d="M1453.8 -98.06L1453.8 -98.06" stroke="#132e65" stroke-width="1.5"></path><path d="M1453.8 -98.06L1452.1 49.62" stroke="#132e65" stroke-width="1.5"></path><path d="M1453.8 -98.06L1606.82 -76.69" stroke="#132e65" stroke-width="1.5"></path><path d="M1453.8 -98.06L1606.88 90.3" stroke="#132e65" stroke-width="1.5"></path><path d="M1453.8 -98.06L1246.76 82.93" stroke="#132e65" stroke-width="1.5"></path><path d="M1453.8 -98.06L1401.93 201.79" stroke="#132e65" stroke-width="1.5"></path><path d="M1452.1 49.62L1452.1 49.62" stroke="#132e65" stroke-width="1.5"></path><path d="M1452.1 49.62L1606.88 90.3" stroke="#132e65" stroke-width="1.5"></path><path d="M1452.1 49.62L1401.93 201.79" stroke="#132e65" stroke-width="1.5"></path><path d="M1401.93 201.79L1401.93 201.79" stroke="#132e65" stroke-width="1.5"></path><path d="M1401.93 201.79L1537.74 254" stroke="#132e65" stroke-width="1.5"></path><path d="M1397.38 395.55L1397.38 395.55" stroke="#132e65" stroke-width="1.5"></path><path d="M1397.38 395.55L1390.24 504.7" stroke="#132e65" stroke-width="1.5"></path><path d="M1390.24 504.7L1390.24 504.7" stroke="#132e65" stroke-width="1.5"></path><path d="M1390.24 504.7L1564.61 508.16" stroke="#132e65" stroke-width="1.5"></path><path d="M1462.04 681.89L1462.04 681.89" stroke="#132e65" stroke-width="1.5"></path><path d="M1462.04 681.89L1542.74 673.76" stroke="#132e65" stroke-width="1.5"></path><path d="M1462.04 681.89L1390.24 504.7" stroke="#132e65" stroke-width="1.5"></path><path d="M1462.04 681.89L1564.61 508.16" stroke="#132e65" stroke-width="1.5"></path><path d="M1462.04 681.89L1263.79 515.18" stroke="#132e65" stroke-width="1.5"></path><path d="M1462.04 681.89L1397.38 395.55" stroke="#132e65" stroke-width="1.5"></path><path d="M1606.82 -76.69L1606.82 -76.69" stroke="#132e65" stroke-width="1.5"></path><path d="M1606.82 -76.69L1606.88 90.3" stroke="#132e65" stroke-width="1.5"></path><path d="M1606.82 -76.69L1452.1 49.62" stroke="#132e65" stroke-width="1.5"></path><path d="M1606.82 -76.69L1537.74 254" stroke="#132e65" stroke-width="1.5"></path><path d="M1606.88 90.3L1606.88 90.3" stroke="#132e65" stroke-width="1.5"></path><path d="M1606.88 90.3L1537.74 254" stroke="#132e65" stroke-width="1.5"></path><path d="M1606.88 90.3L1401.93 201.79" stroke="#132e65" stroke-width="1.5"></path><path d="M1537.74 254L1537.74 254" stroke="#132e65" stroke-width="1.5"></path><path d="M1537.74 254L1606.06 362.23" stroke="#132e65" stroke-width="1.5"></path><path d="M1537.74 254L1397.38 395.55" stroke="#132e65" stroke-width="1.5"></path><path d="M1606.06 362.23L1606.06 362.23" stroke="#132e65" stroke-width="1.5"></path><path d="M1606.06 362.23L1564.61 508.16" stroke="#132e65" stroke-width="1.5"></path><path d="M1606.06 362.23L1397.38 395.55" stroke="#132e65" stroke-width="1.5"></path><path d="M1606.06 362.23L1390.24 504.7" stroke="#132e65" stroke-width="1.5"></path><path d="M1564.61 508.16L1564.61 508.16" stroke="#132e65" stroke-width="1.5"></path><path d="M1564.61 508.16L1542.74 673.76" stroke="#132e65" stroke-width="1.5"></path><path d="M1564.61 508.16L1397.38 395.55" stroke="#132e65" stroke-width="1.5"></path><path d="M1564.61 508.16L1537.74 254" stroke="#132e65" stroke-width="1.5"></path><path d="M1542.74 673.76L1542.74 673.76" stroke="#132e65" stroke-width="1.5"></path><path d="M1542.74 673.76L1390.24 504.7" stroke="#132e65" stroke-width="1.5"></path><circle r="5" cx="-97.4" cy="401.95" fill="#132e65"></circle><circle r="5" cx="-98.35" cy="516.69" fill="#132e65"></circle><circle r="5" cx="-109.9" cy="673.87" fill="#132e65"></circle><circle r="5" cx="39.67" cy="379.33" fill="#132e65"></circle><circle r="5" cx="50.02" cy="671.51" fill="#132e65"></circle><circle r="5" cx="248.16" cy="359.58" fill="#132e65"></circle><circle r="5" cx="258.69" cy="532.07" fill="#132e65"></circle><circle r="5" cx="234.26" cy="667.3" fill="#132e65"></circle><circle r="5" cx="360.85" cy="349.39" fill="#132e65"></circle><circle r="5" cx="359.76" cy="559.31" fill="#132e65"></circle><circle r="5" cx="387.4" cy="697.7" fill="#132e65"></circle><circle r="5" cx="557.97" cy="399.88" fill="#132e65"></circle><circle r="5" cx="558.57" cy="526.71" fill="#132e65"></circle><circle r="5" cx="491.76" cy="645.5" fill="#132e65"></circle><circle r="5" cx="703.23" cy="200.94" fill="#132e65"></circle><circle r="5" cx="677.96" cy="390.73" fill="#132e65"></circle><circle r="5" cx="658.04" cy="541.22" fill="#132e65"></circle><circle r="5" cx="683.73" cy="680.68" fill="#132e65"></circle><circle r="5" cx="861.95" cy="100.87" fill="#132e65"></circle><circle r="5" cx="844.22" cy="210.63" fill="#132e65"></circle><circle r="5" cx="829.87" cy="379.9" fill="#132e65"></circle><circle r="5" cx="793.71" cy="496.68" fill="#132e65"></circle><circle r="5" cx="788.17" cy="662.33" fill="#132e65"></circle><circle r="5" cx="952.93" cy="-37.85" fill="#132e65"></circle><circle r="5" cx="979.03" cy="53.26" fill="#132e65"></circle><circle r="5" cx="1002.78" cy="198.08" fill="#132e65"></circle><circle r="5" cx="985.53" cy="346.11" fill="#132e65"></circle><circle r="5" cx="954.71" cy="502.06" fill="#132e65"></circle><circle r="5" cx="1094.71" cy="-72.96" fill="#132e65"></circle><circle r="5" cx="1091.48" cy="88.33" fill="#132e65"></circle><circle r="5" cx="1120.02" cy="212.64" fill="#132e65"></circle><circle r="5" cx="1105.31" cy="338.3" fill="#132e65"></circle><circle r="5" cx="1138.14" cy="499.1" fill="#132e65"></circle><circle r="5" cx="1127.52" cy="675.23" fill="#132e65"></circle><circle r="5" cx="1251.07" cy="-63.83" fill="#132e65"></circle><circle r="5" cx="1246.76" cy="82.93" fill="#132e65"></circle><circle r="5" cx="1276.21" cy="214.31" fill="#132e65"></circle><circle r="5" cx="1241.9" cy="402.78" fill="#132e65"></circle><circle r="5" cx="1263.79" cy="515.18" fill="#132e65"></circle><circle r="5" cx="1257.57" cy="697.28" fill="#132e65"></circle><circle r="5" cx="1453.8" cy="-98.06" fill="#132e65"></circle><circle r="5" cx="1452.1" cy="49.62" fill="#132e65"></circle><circle r="5" cx="1401.93" cy="201.79" fill="#132e65"></circle><circle r="5" cx="1397.38" cy="395.55" fill="#132e65"></circle><circle r="5" cx="1390.24" cy="504.7" fill="#132e65"></circle><circle r="5" cx="1462.04" cy="681.89" fill="#132e65"></circle><circle r="5" cx="1606.82" cy="-76.69" fill="#132e65"></circle><circle r="5" cx="1606.88" cy="90.3" fill="#132e65"></circle><circle r="5" cx="1537.74" cy="254" fill="#132e65"></circle><circle r="5" cx="1606.06" cy="362.23" fill="#132e65"></circle><circle r="5" cx="1564.61" cy="508.16" fill="#132e65"></circle><circle r="5" cx="1542.74" cy="673.76" fill="#132e65"></circle><path d="M196.2 562.43L196.2 562.43" stroke="hsl(228.5, 77.2%, 51.5%)" stroke-width="1.5"></path><path d="M196.2 562.43L237.5 664.14" stroke="hsl(228.5, 77.2%, 51.5%)" stroke-width="1.5"></path><path d="M196.2 562.43L56.02 537.98" stroke="hsl(228.5, 77.2%, 51.5%)" stroke-width="1.5"></path><path d="M196.2 562.43L89.85 662.31" stroke="hsl(228.5, 77.2%, 51.5%)" stroke-width="1.5"></path><path d="M196.2 562.43L379.24 660.3" stroke="hsl(228.5, 77.2%, 51.5%)" stroke-width="1.5"></path><path d="M408.88 559.55L408.88 559.55" stroke="hsl(228.5, 77.2%, 51.5%)" stroke-width="1.5"></path><path d="M408.88 559.55L379.24 660.3" stroke="hsl(228.5, 77.2%, 51.5%)" stroke-width="1.5"></path><path d="M408.88 559.55L538.45 561.39" stroke="hsl(228.5, 77.2%, 51.5%)" stroke-width="1.5"></path><path d="M408.88 559.55L532.9 710.66" stroke="hsl(228.5, 77.2%, 51.5%)" stroke-width="1.5"></path><path d="M408.88 559.55L237.5 664.14" stroke="hsl(228.5, 77.2%, 51.5%)" stroke-width="1.5"></path><path d="M408.88 559.55L196.2 562.43" stroke="hsl(228.5, 77.2%, 51.5%)" stroke-width="1.5"></path><path d="M408.88 559.55L663.56 526.98" stroke="hsl(228.5, 77.2%, 51.5%)" stroke-width="1.5"></path><path d="M805.52 404.73L805.52 404.73" stroke="hsl(228.5, 77.2%, 51.5%)" stroke-width="1.5"></path><path d="M805.52 404.73L830.92 500.76" stroke="hsl(228.5, 77.2%, 51.5%)" stroke-width="1.5"></path><path d="M805.52 404.73L970.2 342.62" stroke="hsl(228.5, 77.2%, 51.5%)" stroke-width="1.5"></path><path d="M805.52 404.73L663.56 526.98" stroke="hsl(228.5, 77.2%, 51.5%)" stroke-width="1.5"></path><path d="M805.52 404.73L990.1 510.84" stroke="hsl(228.5, 77.2%, 51.5%)" stroke-width="1.5"></path><path d="M805.52 404.73L984.9 232.97" stroke="hsl(228.5, 77.2%, 51.5%)" stroke-width="1.5"></path><path d="M970.2 342.62L970.2 342.62" stroke="hsl(228.5, 77.2%, 51.5%)" stroke-width="1.5"></path><path d="M970.2 342.62L984.9 232.97" stroke="hsl(228.5, 77.2%, 51.5%)" stroke-width="1.5"></path><path d="M970.2 342.62L1097.19 393.5" stroke="hsl(228.5, 77.2%, 51.5%)" stroke-width="1.5"></path><path d="M970.2 342.62L990.1 510.84" stroke="hsl(228.5, 77.2%, 51.5%)" stroke-width="1.5"></path><path d="M1097.19 393.5L1097.19 393.5" stroke="hsl(228.5, 77.2%, 51.5%)" stroke-width="1.5"></path><path d="M1097.19 393.5L1154.76 499.61" stroke="hsl(228.5, 77.2%, 51.5%)" stroke-width="1.5"></path><path d="M1097.19 393.5L1243.5 371.93" stroke="hsl(228.5, 77.2%, 51.5%)" stroke-width="1.5"></path><path d="M1092.48 691.63L1092.48 691.63" stroke="hsl(228.5, 77.2%, 51.5%)" stroke-width="1.5"></path><path d="M1092.48 691.63L1239.62 681.95" stroke="hsl(228.5, 77.2%, 51.5%)" stroke-width="1.5"></path><path d="M1092.48 691.63L943.48 670.69" stroke="hsl(228.5, 77.2%, 51.5%)" stroke-width="1.5"></path><path d="M1092.48 691.63L1154.76 499.61" stroke="hsl(228.5, 77.2%, 51.5%)" stroke-width="1.5"></path><path d="M1092.48 691.63L990.1 510.84" stroke="hsl(228.5, 77.2%, 51.5%)" stroke-width="1.5"></path><path d="M1092.48 691.63L1260.63 513.26" stroke="hsl(228.5, 77.2%, 51.5%)" stroke-width="1.5"></path><path d="M1260.63 513.26L1260.63 513.26" stroke="hsl(228.5, 77.2%, 51.5%)" stroke-width="1.5"></path><path d="M1260.63 513.26L1154.76 499.61" stroke="hsl(228.5, 77.2%, 51.5%)" stroke-width="1.5"></path><path d="M1260.63 513.26L1243.5 371.93" stroke="hsl(228.5, 77.2%, 51.5%)" stroke-width="1.5"></path><path d="M1260.63 513.26L1239.62 681.95" stroke="hsl(228.5, 77.2%, 51.5%)" stroke-width="1.5"></path><path d="M1260.63 513.26L1438.41 502.53" stroke="hsl(228.5, 77.2%, 51.5%)" stroke-width="1.5"></path><path d="M1260.63 513.26L1097.19 393.5" stroke="hsl(228.5, 77.2%, 51.5%)" stroke-width="1.5"></path><path d="M1260.63 513.26L1409.68 370.41" stroke="hsl(228.5, 77.2%, 51.5%)" stroke-width="1.5"></path><path d="M1388.41 243.41L1388.41 243.41" stroke="hsl(228.5, 77.2%, 51.5%)" stroke-width="1.5"></path><path d="M1388.41 243.41L1409.68 370.41" stroke="hsl(228.5, 77.2%, 51.5%)" stroke-width="1.5"></path><path d="M1388.41 243.41L1255.09 246.14" stroke="hsl(228.5, 77.2%, 51.5%)" stroke-width="1.5"></path><path d="M1409.68 370.41L1409.68 370.41" stroke="hsl(228.5, 77.2%, 51.5%)" stroke-width="1.5"></path><path d="M1409.68 370.41L1438.41 502.53" stroke="hsl(228.5, 77.2%, 51.5%)" stroke-width="1.5"></path><path d="M1409.68 370.41L1572.62 383.29" stroke="hsl(228.5, 77.2%, 51.5%)" stroke-width="1.5"></path><path d="M-100.1 552.3L-100.1 552.3" stroke="hsl(228.5, 77.2%, 51.5%)" stroke-width="1.5"></path><path d="M-100.1 552.3L-81.9 665.34" stroke="hsl(228.5, 77.2%, 51.5%)" stroke-width="1.5"></path><path d="M-100.1 552.3L56.02 537.98" stroke="hsl(228.5, 77.2%, 51.5%)" stroke-width="1.5"></path><path d="M-100.1 552.3L89.85 662.31" stroke="hsl(228.5, 77.2%, 51.5%)" stroke-width="1.5"></path><path d="M-100.1 552.3L196.2 562.43" stroke="hsl(228.5, 77.2%, 51.5%)" stroke-width="1.5"></path><path d="M-100.1 552.3L237.5 664.14" stroke="hsl(228.5, 77.2%, 51.5%)" stroke-width="1.5"></path><path d="M-81.9 665.34L-81.9 665.34" stroke="hsl(228.5, 77.2%, 51.5%)" stroke-width="1.5"></path><path d="M-81.9 665.34L89.85 662.31" stroke="hsl(228.5, 77.2%, 51.5%)" stroke-width="1.5"></path><path d="M-81.9 665.34L56.02 537.98" stroke="hsl(228.5, 77.2%, 51.5%)" stroke-width="1.5"></path><path d="M-81.9 665.34L196.2 562.43" stroke="hsl(228.5, 77.2%, 51.5%)" stroke-width="1.5"></path><path d="M-81.9 665.34L237.5 664.14" stroke="hsl(228.5, 77.2%, 51.5%)" stroke-width="1.5"></path><path d="M56.02 537.98L56.02 537.98" stroke="hsl(228.5, 77.2%, 51.5%)" stroke-width="1.5"></path><path d="M56.02 537.98L89.85 662.31" stroke="hsl(228.5, 77.2%, 51.5%)" stroke-width="1.5"></path><path d="M89.85 662.31L89.85 662.31" stroke="hsl(228.5, 77.2%, 51.5%)" stroke-width="1.5"></path><path d="M237.5 664.14L237.5 664.14" stroke="hsl(228.5, 77.2%, 51.5%)" stroke-width="1.5"></path><path d="M237.5 664.14L379.24 660.3" stroke="hsl(228.5, 77.2%, 51.5%)" stroke-width="1.5"></path><path d="M237.5 664.14L89.85 662.31" stroke="hsl(228.5, 77.2%, 51.5%)" stroke-width="1.5"></path><path d="M237.5 664.14L56.02 537.98" stroke="hsl(228.5, 77.2%, 51.5%)" stroke-width="1.5"></path><path d="M237.5 664.14L532.9 710.66" stroke="hsl(228.5, 77.2%, 51.5%)" stroke-width="1.5"></path><path d="M379.24 660.3L379.24 660.3" stroke="hsl(228.5, 77.2%, 51.5%)" stroke-width="1.5"></path><path d="M379.24 660.3L532.9 710.66" stroke="hsl(228.5, 77.2%, 51.5%)" stroke-width="1.5"></path><path d="M538.45 561.39L538.45 561.39" stroke="hsl(228.5, 77.2%, 51.5%)" stroke-width="1.5"></path><path d="M538.45 561.39L663.56 526.98" stroke="hsl(228.5, 77.2%, 51.5%)" stroke-width="1.5"></path><path d="M532.9 710.66L532.9 710.66" stroke="hsl(228.5, 77.2%, 51.5%)" stroke-width="1.5"></path><path d="M532.9 710.66L673.19 699.46" stroke="hsl(228.5, 77.2%, 51.5%)" stroke-width="1.5"></path><path d="M532.9 710.66L538.45 561.39" stroke="hsl(228.5, 77.2%, 51.5%)" stroke-width="1.5"></path><path d="M532.9 710.66L663.56 526.98" stroke="hsl(228.5, 77.2%, 51.5%)" stroke-width="1.5"></path><path d="M663.56 526.98L663.56 526.98" stroke="hsl(228.5, 77.2%, 51.5%)" stroke-width="1.5"></path><path d="M663.56 526.98L830.92 500.76" stroke="hsl(228.5, 77.2%, 51.5%)" stroke-width="1.5"></path><path d="M663.56 526.98L673.19 699.46" stroke="hsl(228.5, 77.2%, 51.5%)" stroke-width="1.5"></path><path d="M673.19 699.46L673.19 699.46" stroke="hsl(228.5, 77.2%, 51.5%)" stroke-width="1.5"></path><path d="M673.19 699.46L788.8 684.19" stroke="hsl(228.5, 77.2%, 51.5%)" stroke-width="1.5"></path><path d="M673.19 699.46L538.45 561.39" stroke="hsl(228.5, 77.2%, 51.5%)" stroke-width="1.5"></path><path d="M673.19 699.46L830.92 500.76" stroke="hsl(228.5, 77.2%, 51.5%)" stroke-width="1.5"></path><path d="M830.92 500.76L830.92 500.76" stroke="hsl(228.5, 77.2%, 51.5%)" stroke-width="1.5"></path><path d="M830.92 500.76L990.1 510.84" stroke="hsl(228.5, 77.2%, 51.5%)" stroke-width="1.5"></path><path d="M788.8 684.19L788.8 684.19" stroke="hsl(228.5, 77.2%, 51.5%)" stroke-width="1.5"></path><path d="M788.8 684.19L943.48 670.69" stroke="hsl(228.5, 77.2%, 51.5%)" stroke-width="1.5"></path><path d="M788.8 684.19L830.92 500.76" stroke="hsl(228.5, 77.2%, 51.5%)" stroke-width="1.5"></path><path d="M788.8 684.19L663.56 526.98" stroke="hsl(228.5, 77.2%, 51.5%)" stroke-width="1.5"></path><path d="M788.8 684.19L532.9 710.66" stroke="hsl(228.5, 77.2%, 51.5%)" stroke-width="1.5"></path><path d="M788.8 684.19L990.1 510.84" stroke="hsl(228.5, 77.2%, 51.5%)" stroke-width="1.5"></path><path d="M984.9 232.97L984.9 232.97" stroke="hsl(228.5, 77.2%, 51.5%)" stroke-width="1.5"></path><path d="M984.9 232.97L1121.75 111.67" stroke="hsl(228.5, 77.2%, 51.5%)" stroke-width="1.5"></path><path d="M984.9 232.97L1097.19 393.5" stroke="hsl(228.5, 77.2%, 51.5%)" stroke-width="1.5"></path><path d="M984.9 232.97L1255.09 246.14" stroke="hsl(228.5, 77.2%, 51.5%)" stroke-width="1.5"></path><path d="M990.1 510.84L990.1 510.84" stroke="hsl(228.5, 77.2%, 51.5%)" stroke-width="1.5"></path><path d="M990.1 510.84L1097.19 393.5" stroke="hsl(228.5, 77.2%, 51.5%)" stroke-width="1.5"></path><path d="M990.1 510.84L1154.76 499.61" stroke="hsl(228.5, 77.2%, 51.5%)" stroke-width="1.5"></path><path d="M990.1 510.84L943.48 670.69" stroke="hsl(228.5, 77.2%, 51.5%)" stroke-width="1.5"></path><path d="M943.48 670.69L943.48 670.69" stroke="hsl(228.5, 77.2%, 51.5%)" stroke-width="1.5"></path><path d="M1121.75 111.67L1121.75 111.67" stroke="hsl(228.5, 77.2%, 51.5%)" stroke-width="1.5"></path><path d="M1121.75 111.67L1298.65 83.83" stroke="hsl(228.5, 77.2%, 51.5%)" stroke-width="1.5"></path><path d="M1121.75 111.67L1255.09 246.14" stroke="hsl(228.5, 77.2%, 51.5%)" stroke-width="1.5"></path><path d="M1121.75 111.67L970.2 342.62" stroke="hsl(228.5, 77.2%, 51.5%)" stroke-width="1.5"></path><path d="M1154.76 499.61L1154.76 499.61" stroke="hsl(228.5, 77.2%, 51.5%)" stroke-width="1.5"></path><path d="M1154.76 499.61L1243.5 371.93" stroke="hsl(228.5, 77.2%, 51.5%)" stroke-width="1.5"></path><path d="M1298.65 83.83L1298.65 83.83" stroke="hsl(228.5, 77.2%, 51.5%)" stroke-width="1.5"></path><path d="M1298.65 83.83L1430.99 82.78" stroke="hsl(228.5, 77.2%, 51.5%)" stroke-width="1.5"></path><path d="M1298.65 83.83L1255.09 246.14" stroke="hsl(228.5, 77.2%, 51.5%)" stroke-width="1.5"></path><path d="M1298.65 83.83L1388.41 243.41" stroke="hsl(228.5, 77.2%, 51.5%)" stroke-width="1.5"></path><path d="M1255.09 246.14L1255.09 246.14" stroke="hsl(228.5, 77.2%, 51.5%)" stroke-width="1.5"></path><path d="M1255.09 246.14L1243.5 371.93" stroke="hsl(228.5, 77.2%, 51.5%)" stroke-width="1.5"></path><path d="M1255.09 246.14L1409.68 370.41" stroke="hsl(228.5, 77.2%, 51.5%)" stroke-width="1.5"></path><path d="M1243.5 371.93L1243.5 371.93" stroke="hsl(228.5, 77.2%, 51.5%)" stroke-width="1.5"></path><path d="M1243.5 371.93L1409.68 370.41" stroke="hsl(228.5, 77.2%, 51.5%)" stroke-width="1.5"></path><path d="M1239.62 681.95L1239.62 681.95" stroke="hsl(228.5, 77.2%, 51.5%)" stroke-width="1.5"></path><path d="M1239.62 681.95L1154.76 499.61" stroke="hsl(228.5, 77.2%, 51.5%)" stroke-width="1.5"></path><path d="M1395.53 -89.76L1395.53 -89.76" stroke="hsl(228.5, 77.2%, 51.5%)" stroke-width="1.5"></path><path d="M1395.53 -89.76L1430.99 82.78" stroke="hsl(228.5, 77.2%, 51.5%)" stroke-width="1.5"></path><path d="M1395.53 -89.76L1298.65 83.83" stroke="hsl(228.5, 77.2%, 51.5%)" stroke-width="1.5"></path><path d="M1395.53 -89.76L1597.84 -68.15" stroke="hsl(228.5, 77.2%, 51.5%)" stroke-width="1.5"></path><path d="M1395.53 -89.76L1612.25 47.38" stroke="hsl(228.5, 77.2%, 51.5%)" stroke-width="1.5"></path><path d="M1430.99 82.78L1430.99 82.78" stroke="hsl(228.5, 77.2%, 51.5%)" stroke-width="1.5"></path><path d="M1430.99 82.78L1388.41 243.41" stroke="hsl(228.5, 77.2%, 51.5%)" stroke-width="1.5"></path><path d="M1430.99 82.78L1612.25 47.38" stroke="hsl(228.5, 77.2%, 51.5%)" stroke-width="1.5"></path><path d="M1438.41 502.53L1438.41 502.53" stroke="hsl(228.5, 77.2%, 51.5%)" stroke-width="1.5"></path><path d="M1438.41 502.53L1538.41 538.36" stroke="hsl(228.5, 77.2%, 51.5%)" stroke-width="1.5"></path><path d="M1438.41 502.53L1572.62 383.29" stroke="hsl(228.5, 77.2%, 51.5%)" stroke-width="1.5"></path><path d="M1455.76 699.77L1455.76 699.77" stroke="hsl(228.5, 77.2%, 51.5%)" stroke-width="1.5"></path><path d="M1455.76 699.77L1592.16 682.65" stroke="hsl(228.5, 77.2%, 51.5%)" stroke-width="1.5"></path><path d="M1455.76 699.77L1538.41 538.36" stroke="hsl(228.5, 77.2%, 51.5%)" stroke-width="1.5"></path><path d="M1455.76 699.77L1438.41 502.53" stroke="hsl(228.5, 77.2%, 51.5%)" stroke-width="1.5"></path><path d="M1455.76 699.77L1239.62 681.95" stroke="hsl(228.5, 77.2%, 51.5%)" stroke-width="1.5"></path><path d="M1455.76 699.77L1260.63 513.26" stroke="hsl(228.5, 77.2%, 51.5%)" stroke-width="1.5"></path><path d="M1597.84 -68.15L1597.84 -68.15" stroke="hsl(228.5, 77.2%, 51.5%)" stroke-width="1.5"></path><path d="M1597.84 -68.15L1612.25 47.38" stroke="hsl(228.5, 77.2%, 51.5%)" stroke-width="1.5"></path><path d="M1597.84 -68.15L1430.99 82.78" stroke="hsl(228.5, 77.2%, 51.5%)" stroke-width="1.5"></path><path d="M1612.25 47.38L1612.25 47.38" stroke="hsl(228.5, 77.2%, 51.5%)" stroke-width="1.5"></path><path d="M1612.25 47.38L1563.32 260.38" stroke="hsl(228.5, 77.2%, 51.5%)" stroke-width="1.5"></path><path d="M1612.25 47.38L1388.41 243.41" stroke="hsl(228.5, 77.2%, 51.5%)" stroke-width="1.5"></path><path d="M1563.32 260.38L1563.32 260.38" stroke="hsl(228.5, 77.2%, 51.5%)" stroke-width="1.5"></path><path d="M1563.32 260.38L1572.62 383.29" stroke="hsl(228.5, 77.2%, 51.5%)" stroke-width="1.5"></path><path d="M1563.32 260.38L1388.41 243.41" stroke="hsl(228.5, 77.2%, 51.5%)" stroke-width="1.5"></path><path d="M1563.32 260.38L1409.68 370.41" stroke="hsl(228.5, 77.2%, 51.5%)" stroke-width="1.5"></path><path d="M1572.62 383.29L1572.62 383.29" stroke="hsl(228.5, 77.2%, 51.5%)" stroke-width="1.5"></path><path d="M1572.62 383.29L1538.41 538.36" stroke="hsl(228.5, 77.2%, 51.5%)" stroke-width="1.5"></path><path d="M1538.41 538.36L1538.41 538.36" stroke="hsl(228.5, 77.2%, 51.5%)" stroke-width="1.5"></path><path d="M1538.41 538.36L1592.16 682.65" stroke="hsl(228.5, 77.2%, 51.5%)" stroke-width="1.5"></path><path d="M1592.16 682.65L1592.16 682.65" stroke="hsl(228.5, 77.2%, 51.5%)" stroke-width="1.5"></path><path d="M1592.16 682.65L1438.41 502.53" stroke="hsl(228.5, 77.2%, 51.5%)" stroke-width="1.5"></path><circle r="25" cx="196.2" cy="562.43" fill="url(#SvgjsRadialGradient1013)"></circle><circle r="25" cx="408.88" cy="559.55" fill="url(#SvgjsRadialGradient1013)"></circle><circle r="25" cx="805.52" cy="404.73" fill="url(#SvgjsRadialGradient1013)"></circle><circle r="25" cx="970.2" cy="342.62" fill="url(#SvgjsRadialGradient1013)"></circle><circle r="25" cx="1097.19" cy="393.5" fill="url(#SvgjsRadialGradient1013)"></circle><circle r="25" cx="1092.48" cy="691.63" fill="url(#SvgjsRadialGradient1013)"></circle><circle r="25" cx="1260.63" cy="513.26" fill="url(#SvgjsRadialGradient1013)"></circle><circle r="25" cx="1388.41" cy="243.41" fill="url(#SvgjsRadialGradient1013)"></circle><circle r="25" cx="1409.68" cy="370.41" fill="url(#SvgjsRadialGradient1013)"></circle><circle r="5" cx="-100.1" cy="552.3" fill="#8b9ad9"></circle><circle r="5" cx="-81.9" cy="665.34" fill="#8b9ad9"></circle><circle r="5" cx="56.02" cy="537.98" fill="#8b9ad9"></circle><circle r="5" cx="89.85" cy="662.31" fill="#8b9ad9"></circle><circle r="5" cx="237.5" cy="664.14" fill="#8b9ad9"></circle><circle r="5" cx="379.24" cy="660.3" fill="#8b9ad9"></circle><circle r="5" cx="538.45" cy="561.39" fill="#8b9ad9"></circle><circle r="5" cx="532.9" cy="710.66" fill="#8b9ad9"></circle><circle r="5" cx="663.56" cy="526.98" fill="#8b9ad9"></circle><circle r="5" cx="673.19" cy="699.46" fill="#8b9ad9"></circle><circle r="5" cx="830.92" cy="500.76" fill="#8b9ad9"></circle><circle r="5" cx="788.8" cy="684.19" fill="#8b9ad9"></circle><circle r="5" cx="984.9" cy="232.97" fill="#8b9ad9"></circle><circle r="5" cx="990.1" cy="510.84" fill="#8b9ad9"></circle><circle r="5" cx="943.48" cy="670.69" fill="#8b9ad9"></circle><circle r="5" cx="1121.75" cy="111.67" fill="#8b9ad9"></circle><circle r="5" cx="1154.76" cy="499.61" fill="#8b9ad9"></circle><circle r="5" cx="1298.65" cy="83.83" fill="#8b9ad9"></circle><circle r="5" cx="1255.09" cy="246.14" fill="#8b9ad9"></circle><circle r="5" cx="1243.5" cy="371.93" fill="#8b9ad9"></circle><circle r="5" cx="1239.62" cy="681.95" fill="#8b9ad9"></circle><circle r="5" cx="1395.53" cy="-89.76" fill="#8b9ad9"></circle><circle r="5" cx="1430.99" cy="82.78" fill="#8b9ad9"></circle><circle r="5" cx="1438.41" cy="502.53" fill="#8b9ad9"></circle><circle r="5" cx="1455.76" cy="699.77" fill="#8b9ad9"></circle><circle r="5" cx="1597.84" cy="-68.15" fill="#8b9ad9"></circle><circle r="5" cx="1612.25" cy="47.38" fill="#8b9ad9"></circle><circle r="5" cx="1563.32" cy="260.38" fill="#8b9ad9"></circle><circle r="5" cx="1572.62" cy="383.29" fill="#8b9ad9"></circle><circle r="5" cx="1538.41" cy="538.36" fill="#8b9ad9"></circle><circle r="5" cx="1592.16" cy="682.65" fill="#8b9ad9"></circle></g><defs><mask id="SvgjsMask1012"><rect width="1440" height="560" fill="#ffffff"></rect></mask><radialGradient id="SvgjsRadialGradient1013"><stop stop-color="#ffffff" offset="0.1"></stop><stop stop-color="#1735b3" offset="0.2"></stop><stop stop-color="rgba(23, 53, 179, 0)" offset="1"></stop></radialGradient></defs></svg>