<svg xmlns="http://www.w3.org/2000/svg" version="1.1" xmlns:xlink="http://www.w3.org/1999/xlink" xmlns:svgjs="http://svgjs.com/svgjs" width="1440" height="560" preserveAspectRatio="none" viewBox="0 0 1440 560"><g mask="url(&quot;#SvgjsMask1056&quot;)" fill="none"><rect width="1440" height="560" x="0" y="0" fill="#0e2a47"></rect><path d="M-82.63 356.14L-82.63 356.14" stroke="#132e65" stroke-width="1.5"></path><path d="M-82.63 356.14L78.84 337.57" stroke="#132e65" stroke-width="1.5"></path><path d="M-82.63 356.14L-65.66 525.66" stroke="#132e65" stroke-width="1.5"></path><path d="M-82.63 356.14L111.2 508.69" stroke="#132e65" stroke-width="1.5"></path><path d="M-82.63 356.14L205.19 504.18" stroke="#132e65" stroke-width="1.5"></path><path d="M-82.63 356.14L66.31 644.78" stroke="#132e65" stroke-width="1.5"></path><path d="M-82.63 356.14L-56.12 698.37" stroke="#132e65" stroke-width="1.5"></path><path d="M-65.66 525.66L-65.66 525.66" stroke="#132e65" stroke-width="1.5"></path><path d="M-65.66 525.66L-56.12 698.37" stroke="#132e65" stroke-width="1.5"></path><path d="M-65.66 525.66L111.2 508.69" stroke="#132e65" stroke-width="1.5"></path><path d="M-65.66 525.66L66.31 644.78" stroke="#132e65" stroke-width="1.5"></path><path d="M-65.66 525.66L78.84 337.57" stroke="#132e65" stroke-width="1.5"></path><path d="M-65.66 525.66L205.19 504.18" stroke="#132e65" stroke-width="1.5"></path><path d="M-56.12 698.37L-56.12 698.37" stroke="#132e65" stroke-width="1.5"></path><path d="M-56.12 698.37L66.31 644.78" stroke="#132e65" stroke-width="1.5"></path><path d="M78.84 337.57L78.84 337.57" stroke="#132e65" stroke-width="1.5"></path><path d="M78.84 337.57L111.2 508.69" stroke="#132e65" stroke-width="1.5"></path><path d="M78.84 337.57L258.19 409.4" stroke="#132e65" stroke-width="1.5"></path><path d="M78.84 337.57L205.19 504.18" stroke="#132e65" stroke-width="1.5"></path><path d="M111.2 508.69L111.2 508.69" stroke="#132e65" stroke-width="1.5"></path><path d="M111.2 508.69L205.19 504.18" stroke="#132e65" stroke-width="1.5"></path><path d="M111.2 508.69L66.31 644.78" stroke="#132e65" stroke-width="1.5"></path><path d="M111.2 508.69L258.19 409.4" stroke="#132e65" stroke-width="1.5"></path><path d="M111.2 508.69L238.96 680.84" stroke="#132e65" stroke-width="1.5"></path><path d="M66.31 644.78L66.31 644.78" stroke="#132e65" stroke-width="1.5"></path><path d="M66.31 644.78L238.96 680.84" stroke="#132e65" stroke-width="1.5"></path><path d="M66.31 644.78L205.19 504.18" stroke="#132e65" stroke-width="1.5"></path><path d="M66.31 644.78L361.12 664.03" stroke="#132e65" stroke-width="1.5"></path><path d="M258.19 409.4L258.19 409.4" stroke="#132e65" stroke-width="1.5"></path><path d="M258.19 409.4L361.1 389.89" stroke="#132e65" stroke-width="1.5"></path><path d="M258.19 409.4L205.19 504.18" stroke="#132e65" stroke-width="1.5"></path><path d="M258.19 409.4L377.96 546.25" stroke="#132e65" stroke-width="1.5"></path><path d="M205.19 504.18L205.19 504.18" stroke="#132e65" stroke-width="1.5"></path><path d="M238.96 680.84L238.96 680.84" stroke="#132e65" stroke-width="1.5"></path><path d="M238.96 680.84L361.12 664.03" stroke="#132e65" stroke-width="1.5"></path><path d="M238.96 680.84L205.19 504.18" stroke="#132e65" stroke-width="1.5"></path><path d="M361.1 389.89L361.1 389.89" stroke="#132e65" stroke-width="1.5"></path><path d="M361.1 389.89L513.91 368.06" stroke="#132e65" stroke-width="1.5"></path><path d="M361.1 389.89L377.96 546.25" stroke="#132e65" stroke-width="1.5"></path><path d="M361.1 389.89L205.19 504.18" stroke="#132e65" stroke-width="1.5"></path><path d="M377.96 546.25L377.96 546.25" stroke="#132e65" stroke-width="1.5"></path><path d="M377.96 546.25L361.12 664.03" stroke="#132e65" stroke-width="1.5"></path><path d="M361.12 664.03L361.12 664.03" stroke="#132e65" stroke-width="1.5"></path><path d="M361.12 664.03L491.7 675.74" stroke="#132e65" stroke-width="1.5"></path><path d="M361.12 664.03L205.19 504.18" stroke="#132e65" stroke-width="1.5"></path><path d="M361.12 664.03L361.1 389.89" stroke="#132e65" stroke-width="1.5"></path><path d="M513.91 368.06L513.91 368.06" stroke="#132e65" stroke-width="1.5"></path><path d="M513.91 368.06L377.96 546.25" stroke="#132e65" stroke-width="1.5"></path><path d="M513.91 368.06L700.73 517" stroke="#132e65" stroke-width="1.5"></path><path d="M513.91 368.06L258.19 409.4" stroke="#132e65" stroke-width="1.5"></path><path d="M513.91 368.06L789.83 339.74" stroke="#132e65" stroke-width="1.5"></path><path d="M491.7 675.74L491.7 675.74" stroke="#132e65" stroke-width="1.5"></path><path d="M491.7 675.74L377.96 546.25" stroke="#132e65" stroke-width="1.5"></path><path d="M491.7 675.74L679.76 709.09" stroke="#132e65" stroke-width="1.5"></path><path d="M700.73 517L700.73 517" stroke="#132e65" stroke-width="1.5"></path><path d="M700.73 517L826.59 526.08" stroke="#132e65" stroke-width="1.5"></path><path d="M700.73 517L679.76 709.09" stroke="#132e65" stroke-width="1.5"></path><path d="M700.73 517L837.71 658.84" stroke="#132e65" stroke-width="1.5"></path><path d="M700.73 517L789.83 339.74" stroke="#132e65" stroke-width="1.5"></path><path d="M700.73 517L491.7 675.74" stroke="#132e65" stroke-width="1.5"></path><path d="M679.76 709.09L679.76 709.09" stroke="#132e65" stroke-width="1.5"></path><path d="M679.76 709.09L837.71 658.84" stroke="#132e65" stroke-width="1.5"></path><path d="M679.76 709.09L826.59 526.08" stroke="#132e65" stroke-width="1.5"></path><path d="M679.76 709.09L951.33 664.56" stroke="#132e65" stroke-width="1.5"></path><path d="M679.76 709.09L361.12 664.03" stroke="#132e65" stroke-width="1.5"></path><path d="M856.8 224.11L856.8 224.11" stroke="#132e65" stroke-width="1.5"></path><path d="M856.8 224.11L789.83 339.74" stroke="#132e65" stroke-width="1.5"></path><path d="M856.8 224.11L1002.51 196.71" stroke="#132e65" stroke-width="1.5"></path><path d="M856.8 224.11L958.11 379.83" stroke="#132e65" stroke-width="1.5"></path><path d="M856.8 224.11L980.38 56.54" stroke="#132e65" stroke-width="1.5"></path><path d="M789.83 339.74L789.83 339.74" stroke="#132e65" stroke-width="1.5"></path><path d="M789.83 339.74L958.11 379.83" stroke="#132e65" stroke-width="1.5"></path><path d="M789.83 339.74L826.59 526.08" stroke="#132e65" stroke-width="1.5"></path><path d="M826.59 526.08L826.59 526.08" stroke="#132e65" stroke-width="1.5"></path><path d="M826.59 526.08L837.71 658.84" stroke="#132e65" stroke-width="1.5"></path><path d="M826.59 526.08L976.65 511.8" stroke="#132e65" stroke-width="1.5"></path><path d="M837.71 658.84L837.71 658.84" stroke="#132e65" stroke-width="1.5"></path><path d="M837.71 658.84L951.33 664.56" stroke="#132e65" stroke-width="1.5"></path><path d="M993.58 -54.44L993.58 -54.44" stroke="#132e65" stroke-width="1.5"></path><path d="M993.58 -54.44L980.38 56.54" stroke="#132e65" stroke-width="1.5"></path><path d="M993.58 -54.44L1159.85 -80.1" stroke="#132e65" stroke-width="1.5"></path><path d="M993.58 -54.44L1090.63 85.38" stroke="#132e65" stroke-width="1.5"></path><path d="M993.58 -54.44L1002.51 196.71" stroke="#132e65" stroke-width="1.5"></path><path d="M980.38 56.54L980.38 56.54" stroke="#132e65" stroke-width="1.5"></path><path d="M980.38 56.54L1090.63 85.38" stroke="#132e65" stroke-width="1.5"></path><path d="M980.38 56.54L1002.51 196.71" stroke="#132e65" stroke-width="1.5"></path><path d="M980.38 56.54L1159.85 -80.1" stroke="#132e65" stroke-width="1.5"></path><path d="M1002.51 196.71L1002.51 196.71" stroke="#132e65" stroke-width="1.5"></path><path d="M1002.51 196.71L1133.37 224.52" stroke="#132e65" stroke-width="1.5"></path><path d="M958.11 379.83L958.11 379.83" stroke="#132e65" stroke-width="1.5"></path><path d="M958.11 379.83L976.65 511.8" stroke="#132e65" stroke-width="1.5"></path><path d="M958.11 379.83L1090.98 349.35" stroke="#132e65" stroke-width="1.5"></path><path d="M958.11 379.83L1002.51 196.71" stroke="#132e65" stroke-width="1.5"></path><path d="M976.65 511.8L976.65 511.8" stroke="#132e65" stroke-width="1.5"></path><path d="M976.65 511.8L951.33 664.56" stroke="#132e65" stroke-width="1.5"></path><path d="M951.33 664.56L951.33 664.56" stroke="#132e65" stroke-width="1.5"></path><path d="M1159.85 -80.1L1159.85 -80.1" stroke="#132e65" stroke-width="1.5"></path><path d="M1159.85 -80.1L1271.83 37.88" stroke="#132e65" stroke-width="1.5"></path><path d="M1159.85 -80.1L1090.63 85.38" stroke="#132e65" stroke-width="1.5"></path><path d="M1159.85 -80.1L1445.52 -55.1" stroke="#132e65" stroke-width="1.5"></path><path d="M1159.85 -80.1L1133.37 224.52" stroke="#132e65" stroke-width="1.5"></path><path d="M1090.63 85.38L1090.63 85.38" stroke="#132e65" stroke-width="1.5"></path><path d="M1133.37 224.52L1133.37 224.52" stroke="#132e65" stroke-width="1.5"></path><path d="M1133.37 224.52L1090.98 349.35" stroke="#132e65" stroke-width="1.5"></path><path d="M1133.37 224.52L1090.63 85.38" stroke="#132e65" stroke-width="1.5"></path><path d="M1133.37 224.52L1306.76 203.04" stroke="#132e65" stroke-width="1.5"></path><path d="M1133.37 224.52L1297.13 343.57" stroke="#132e65" stroke-width="1.5"></path><path d="M1133.37 224.52L980.38 56.54" stroke="#132e65" stroke-width="1.5"></path><path d="M1090.98 349.35L1090.98 349.35" stroke="#132e65" stroke-width="1.5"></path><path d="M1090.98 349.35L1134.18 497.05" stroke="#132e65" stroke-width="1.5"></path><path d="M1090.98 349.35L1002.51 196.71" stroke="#132e65" stroke-width="1.5"></path><path d="M1090.98 349.35L976.65 511.8" stroke="#132e65" stroke-width="1.5"></path><path d="M1090.98 349.35L1297.13 343.57" stroke="#132e65" stroke-width="1.5"></path><path d="M1134.18 497.05L1134.18 497.05" stroke="#132e65" stroke-width="1.5"></path><path d="M1134.18 497.05L1268.58 551.21" stroke="#132e65" stroke-width="1.5"></path><path d="M1134.18 497.05L976.65 511.8" stroke="#132e65" stroke-width="1.5"></path><path d="M1134.18 497.05L1252.94 640.54" stroke="#132e65" stroke-width="1.5"></path><path d="M1126.5 706.99L1126.5 706.99" stroke="#132e65" stroke-width="1.5"></path><path d="M1126.5 706.99L1252.94 640.54" stroke="#132e65" stroke-width="1.5"></path><path d="M1126.5 706.99L951.33 664.56" stroke="#132e65" stroke-width="1.5"></path><path d="M1126.5 706.99L1134.18 497.05" stroke="#132e65" stroke-width="1.5"></path><path d="M1271.83 37.88L1271.83 37.88" stroke="#132e65" stroke-width="1.5"></path><path d="M1271.83 37.88L1306.76 203.04" stroke="#132e65" stroke-width="1.5"></path><path d="M1306.76 203.04L1306.76 203.04" stroke="#132e65" stroke-width="1.5"></path><path d="M1306.76 203.04L1297.13 343.57" stroke="#132e65" stroke-width="1.5"></path><path d="M1306.76 203.04L1454.75 227.58" stroke="#132e65" stroke-width="1.5"></path><path d="M1297.13 343.57L1297.13 343.57" stroke="#132e65" stroke-width="1.5"></path><path d="M1297.13 343.57L1402.89 411.34" stroke="#132e65" stroke-width="1.5"></path><path d="M1297.13 343.57L1454.75 227.58" stroke="#132e65" stroke-width="1.5"></path><path d="M1297.13 343.57L1268.58 551.21" stroke="#132e65" stroke-width="1.5"></path><path d="M1268.58 551.21L1268.58 551.21" stroke="#132e65" stroke-width="1.5"></path><path d="M1268.58 551.21L1252.94 640.54" stroke="#132e65" stroke-width="1.5"></path><path d="M1268.58 551.21L1441.85 537.03" stroke="#132e65" stroke-width="1.5"></path><path d="M1268.58 551.21L1414.7 654.69" stroke="#132e65" stroke-width="1.5"></path><path d="M1252.94 640.54L1252.94 640.54" stroke="#132e65" stroke-width="1.5"></path><path d="M1252.94 640.54L1414.7 654.69" stroke="#132e65" stroke-width="1.5"></path><path d="M1252.94 640.54L1441.85 537.03" stroke="#132e65" stroke-width="1.5"></path><path d="M1252.94 640.54L1402.89 411.34" stroke="#132e65" stroke-width="1.5"></path><path d="M1445.52 -55.1L1445.52 -55.1" stroke="#132e65" stroke-width="1.5"></path><path d="M1445.52 -55.1L1561.03 -109.97" stroke="#132e65" stroke-width="1.5"></path><path d="M1445.52 -55.1L1539.93 50.93" stroke="#132e65" stroke-width="1.5"></path><path d="M1445.52 -55.1L1434.28 91.33" stroke="#132e65" stroke-width="1.5"></path><path d="M1445.52 -55.1L1271.83 37.88" stroke="#132e65" stroke-width="1.5"></path><path d="M1445.52 -55.1L1546.98 191.67" stroke="#132e65" stroke-width="1.5"></path><path d="M1434.28 91.33L1434.28 91.33" stroke="#132e65" stroke-width="1.5"></path><path d="M1434.28 91.33L1539.93 50.93" stroke="#132e65" stroke-width="1.5"></path><path d="M1434.28 91.33L1454.75 227.58" stroke="#132e65" stroke-width="1.5"></path><path d="M1434.28 91.33L1546.98 191.67" stroke="#132e65" stroke-width="1.5"></path><path d="M1434.28 91.33L1306.76 203.04" stroke="#132e65" stroke-width="1.5"></path><path d="M1454.75 227.58L1454.75 227.58" stroke="#132e65" stroke-width="1.5"></path><path d="M1454.75 227.58L1546.98 191.67" stroke="#132e65" stroke-width="1.5"></path><path d="M1402.89 411.34L1402.89 411.34" stroke="#132e65" stroke-width="1.5"></path><path d="M1402.89 411.34L1441.85 537.03" stroke="#132e65" stroke-width="1.5"></path><path d="M1402.89 411.34L1454.75 227.58" stroke="#132e65" stroke-width="1.5"></path><path d="M1402.89 411.34L1268.58 551.21" stroke="#132e65" stroke-width="1.5"></path><path d="M1402.89 411.34L1604.19 387.8" stroke="#132e65" stroke-width="1.5"></path><path d="M1402.89 411.34L1585.15 538.19" stroke="#132e65" stroke-width="1.5"></path><path d="M1441.85 537.03L1441.85 537.03" stroke="#132e65" stroke-width="1.5"></path><path d="M1441.85 537.03L1414.7 654.69" stroke="#132e65" stroke-width="1.5"></path><path d="M1441.85 537.03L1585.15 538.19" stroke="#132e65" stroke-width="1.5"></path><path d="M1414.7 654.69L1414.7 654.69" stroke="#132e65" stroke-width="1.5"></path><path d="M1414.7 654.69L1566.4 660.64" stroke="#132e65" stroke-width="1.5"></path><path d="M1414.7 654.69L1585.15 538.19" stroke="#132e65" stroke-width="1.5"></path><path d="M1561.03 -109.97L1561.03 -109.97" stroke="#132e65" stroke-width="1.5"></path><path d="M1561.03 -109.97L1539.93 50.93" stroke="#132e65" stroke-width="1.5"></path><path d="M1561.03 -109.97L1434.28 91.33" stroke="#132e65" stroke-width="1.5"></path><path d="M1539.93 50.93L1539.93 50.93" stroke="#132e65" stroke-width="1.5"></path><path d="M1539.93 50.93L1546.98 191.67" stroke="#132e65" stroke-width="1.5"></path><path d="M1546.98 191.67L1546.98 191.67" stroke="#132e65" stroke-width="1.5"></path><path d="M1546.98 191.67L1604.19 387.8" stroke="#132e65" stroke-width="1.5"></path><path d="M1546.98 191.67L1306.76 203.04" stroke="#132e65" stroke-width="1.5"></path><path d="M1546.98 191.67L1402.89 411.34" stroke="#132e65" stroke-width="1.5"></path><path d="M1604.19 387.8L1604.19 387.8" stroke="#132e65" stroke-width="1.5"></path><path d="M1604.19 387.8L1585.15 538.19" stroke="#132e65" stroke-width="1.5"></path><path d="M1585.15 538.19L1585.15 538.19" stroke="#132e65" stroke-width="1.5"></path><path d="M1585.15 538.19L1566.4 660.64" stroke="#132e65" stroke-width="1.5"></path><path d="M1566.4 660.64L1566.4 660.64" stroke="#132e65" stroke-width="1.5"></path><circle r="5" cx="-82.63" cy="356.14" fill="#132e65"></circle><circle r="5" cx="-65.66" cy="525.66" fill="#132e65"></circle><circle r="5" cx="-56.12" cy="698.37" fill="#132e65"></circle><circle r="5" cx="78.84" cy="337.57" fill="#132e65"></circle><circle r="5" cx="111.2" cy="508.69" fill="#132e65"></circle><circle r="5" cx="66.31" cy="644.78" fill="#132e65"></circle><circle r="5" cx="258.19" cy="409.4" fill="#132e65"></circle><circle r="5" cx="205.19" cy="504.18" fill="#132e65"></circle><circle r="5" cx="238.96" cy="680.84" fill="#132e65"></circle><circle r="5" cx="361.1" cy="389.89" fill="#132e65"></circle><circle r="5" cx="377.96" cy="546.25" fill="#132e65"></circle><circle r="5" cx="361.12" cy="664.03" fill="#132e65"></circle><circle r="5" cx="513.91" cy="368.06" fill="#132e65"></circle><circle r="5" cx="491.7" cy="675.74" fill="#132e65"></circle><circle r="5" cx="700.73" cy="517" fill="#132e65"></circle><circle r="5" cx="679.76" cy="709.09" fill="#132e65"></circle><circle r="5" cx="856.8" cy="224.11" fill="#132e65"></circle><circle r="5" cx="789.83" cy="339.74" fill="#132e65"></circle><circle r="5" cx="826.59" cy="526.08" fill="#132e65"></circle><circle r="5" cx="837.71" cy="658.84" fill="#132e65"></circle><circle r="5" cx="993.58" cy="-54.44" fill="#132e65"></circle><circle r="5" cx="980.38" cy="56.54" fill="#132e65"></circle><circle r="5" cx="1002.51" cy="196.71" fill="#132e65"></circle><circle r="5" cx="958.11" cy="379.83" fill="#132e65"></circle><circle r="5" cx="976.65" cy="511.8" fill="#132e65"></circle><circle r="5" cx="951.33" cy="664.56" fill="#132e65"></circle><circle r="5" cx="1159.85" cy="-80.1" fill="#132e65"></circle><circle r="5" cx="1090.63" cy="85.38" fill="#132e65"></circle><circle r="5" cx="1133.37" cy="224.52" fill="#132e65"></circle><circle r="5" cx="1090.98" cy="349.35" fill="#132e65"></circle><circle r="5" cx="1134.18" cy="497.05" fill="#132e65"></circle><circle r="5" cx="1126.5" cy="706.99" fill="#132e65"></circle><circle r="5" cx="1271.83" cy="37.88" fill="#132e65"></circle><circle r="5" cx="1306.76" cy="203.04" fill="#132e65"></circle><circle r="5" cx="1297.13" cy="343.57" fill="#132e65"></circle><circle r="5" cx="1268.58" cy="551.21" fill="#132e65"></circle><circle r="5" cx="1252.94" cy="640.54" fill="#132e65"></circle><circle r="5" cx="1445.52" cy="-55.1" fill="#132e65"></circle><circle r="5" cx="1434.28" cy="91.33" fill="#132e65"></circle><circle r="5" cx="1454.75" cy="227.58" fill="#132e65"></circle><circle r="5" cx="1402.89" cy="411.34" fill="#132e65"></circle><circle r="5" cx="1441.85" cy="537.03" fill="#132e65"></circle><circle r="5" cx="1414.7" cy="654.69" fill="#132e65"></circle><circle r="5" cx="1561.03" cy="-109.97" fill="#132e65"></circle><circle r="5" cx="1539.93" cy="50.93" fill="#132e65"></circle><circle r="5" cx="1546.98" cy="191.67" fill="#132e65"></circle><circle r="5" cx="1604.19" cy="387.8" fill="#132e65"></circle><circle r="5" cx="1585.15" cy="538.19" fill="#132e65"></circle><circle r="5" cx="1566.4" cy="660.64" fill="#132e65"></circle><path d="M662.51 490.05L662.51 490.05" stroke="hsl(228.5, 77.2%, 51.5%)" stroke-width="1.5"></path><path d="M662.51 490.05L667.31 644.73" stroke="hsl(228.5, 77.2%, 51.5%)" stroke-width="1.5"></path><path d="M662.51 490.05L501.01 502.83" stroke="hsl(228.5, 77.2%, 51.5%)" stroke-width="1.5"></path><path d="M662.51 490.05L557.72 655.49" stroke="hsl(228.5, 77.2%, 51.5%)" stroke-width="1.5"></path><path d="M667.31 644.73L667.31 644.73" stroke="hsl(228.5, 77.2%, 51.5%)" stroke-width="1.5"></path><path d="M667.31 644.73L557.72 655.49" stroke="hsl(228.5, 77.2%, 51.5%)" stroke-width="1.5"></path><path d="M1146.71 342.79L1146.71 342.79" stroke="hsl(228.5, 77.2%, 51.5%)" stroke-width="1.5"></path><path d="M1146.71 342.79L1283.22 385.42" stroke="hsl(228.5, 77.2%, 51.5%)" stroke-width="1.5"></path><path d="M1146.71 342.79L1094.86 202.79" stroke="hsl(228.5, 77.2%, 51.5%)" stroke-width="1.5"></path><path d="M1146.71 342.79L1001.13 400.74" stroke="hsl(228.5, 77.2%, 51.5%)" stroke-width="1.5"></path><path d="M1146.71 342.79L994.55 238.67" stroke="hsl(228.5, 77.2%, 51.5%)" stroke-width="1.5"></path><path d="M1577.71 209.08L1577.71 209.08" stroke="hsl(228.5, 77.2%, 51.5%)" stroke-width="1.5"></path><path d="M1577.71 209.08L1597.77 50.43" stroke="hsl(228.5, 77.2%, 51.5%)" stroke-width="1.5"></path><path d="M1577.71 209.08L1395.53 220.52" stroke="hsl(228.5, 77.2%, 51.5%)" stroke-width="1.5"></path><path d="M1577.71 209.08L1581.48 393.98" stroke="hsl(228.5, 77.2%, 51.5%)" stroke-width="1.5"></path><path d="M1577.71 209.08L1401.55 62.8" stroke="hsl(228.5, 77.2%, 51.5%)" stroke-width="1.5"></path><path d="M1577.71 209.08L1389.33 352.08" stroke="hsl(228.5, 77.2%, 51.5%)" stroke-width="1.5"></path><path d="M1560.14 518.68L1560.14 518.68" stroke="hsl(228.5, 77.2%, 51.5%)" stroke-width="1.5"></path><path d="M1560.14 518.68L1581.48 393.98" stroke="hsl(228.5, 77.2%, 51.5%)" stroke-width="1.5"></path><path d="M1560.14 518.68L1414.96 561.77" stroke="hsl(228.5, 77.2%, 51.5%)" stroke-width="1.5"></path><path d="M-50.09 522.98L-50.09 522.98" stroke="hsl(228.5, 77.2%, 51.5%)" stroke-width="1.5"></path><path d="M-50.09 522.98L89.97 559.1" stroke="hsl(228.5, 77.2%, 51.5%)" stroke-width="1.5"></path><path d="M-50.09 522.98L46.71 661.33" stroke="hsl(228.5, 77.2%, 51.5%)" stroke-width="1.5"></path><path d="M-50.09 522.98L-64.61 706.15" stroke="hsl(228.5, 77.2%, 51.5%)" stroke-width="1.5"></path><path d="M-50.09 522.98L207.69 561.3" stroke="hsl(228.5, 77.2%, 51.5%)" stroke-width="1.5"></path><path d="M-50.09 522.98L253.87 661.38" stroke="hsl(228.5, 77.2%, 51.5%)" stroke-width="1.5"></path><path d="M-64.61 706.15L-64.61 706.15" stroke="hsl(228.5, 77.2%, 51.5%)" stroke-width="1.5"></path><path d="M-64.61 706.15L46.71 661.33" stroke="hsl(228.5, 77.2%, 51.5%)" stroke-width="1.5"></path><path d="M-64.61 706.15L89.97 559.1" stroke="hsl(228.5, 77.2%, 51.5%)" stroke-width="1.5"></path><path d="M-64.61 706.15L207.69 561.3" stroke="hsl(228.5, 77.2%, 51.5%)" stroke-width="1.5"></path><path d="M-64.61 706.15L253.87 661.38" stroke="hsl(228.5, 77.2%, 51.5%)" stroke-width="1.5"></path><path d="M-64.61 706.15L401.82 699.87" stroke="hsl(228.5, 77.2%, 51.5%)" stroke-width="1.5"></path><path d="M89.97 559.1L89.97 559.1" stroke="hsl(228.5, 77.2%, 51.5%)" stroke-width="1.5"></path><path d="M89.97 559.1L46.71 661.33" stroke="hsl(228.5, 77.2%, 51.5%)" stroke-width="1.5"></path><path d="M89.97 559.1L207.69 561.3" stroke="hsl(228.5, 77.2%, 51.5%)" stroke-width="1.5"></path><path d="M46.71 661.33L46.71 661.33" stroke="hsl(228.5, 77.2%, 51.5%)" stroke-width="1.5"></path><path d="M46.71 661.33L207.69 561.3" stroke="hsl(228.5, 77.2%, 51.5%)" stroke-width="1.5"></path><path d="M207.69 561.3L207.69 561.3" stroke="hsl(228.5, 77.2%, 51.5%)" stroke-width="1.5"></path><path d="M207.69 561.3L253.87 661.38" stroke="hsl(228.5, 77.2%, 51.5%)" stroke-width="1.5"></path><path d="M207.69 561.3L403.81 489.98" stroke="hsl(228.5, 77.2%, 51.5%)" stroke-width="1.5"></path><path d="M207.69 561.3L401.82 699.87" stroke="hsl(228.5, 77.2%, 51.5%)" stroke-width="1.5"></path><path d="M253.87 661.38L253.87 661.38" stroke="hsl(228.5, 77.2%, 51.5%)" stroke-width="1.5"></path><path d="M253.87 661.38L401.82 699.87" stroke="hsl(228.5, 77.2%, 51.5%)" stroke-width="1.5"></path><path d="M253.87 661.38L89.97 559.1" stroke="hsl(228.5, 77.2%, 51.5%)" stroke-width="1.5"></path><path d="M403.81 489.98L403.81 489.98" stroke="hsl(228.5, 77.2%, 51.5%)" stroke-width="1.5"></path><path d="M403.81 489.98L501.01 502.83" stroke="hsl(228.5, 77.2%, 51.5%)" stroke-width="1.5"></path><path d="M403.81 489.98L401.82 699.87" stroke="hsl(228.5, 77.2%, 51.5%)" stroke-width="1.5"></path><path d="M403.81 489.98L557.72 655.49" stroke="hsl(228.5, 77.2%, 51.5%)" stroke-width="1.5"></path><path d="M403.81 489.98L253.87 661.38" stroke="hsl(228.5, 77.2%, 51.5%)" stroke-width="1.5"></path><path d="M403.81 489.98L662.51 490.05" stroke="hsl(228.5, 77.2%, 51.5%)" stroke-width="1.5"></path><path d="M401.82 699.87L401.82 699.87" stroke="hsl(228.5, 77.2%, 51.5%)" stroke-width="1.5"></path><path d="M401.82 699.87L557.72 655.49" stroke="hsl(228.5, 77.2%, 51.5%)" stroke-width="1.5"></path><path d="M501.01 502.83L501.01 502.83" stroke="hsl(228.5, 77.2%, 51.5%)" stroke-width="1.5"></path><path d="M501.01 502.83L557.72 655.49" stroke="hsl(228.5, 77.2%, 51.5%)" stroke-width="1.5"></path><path d="M501.01 502.83L667.31 644.73" stroke="hsl(228.5, 77.2%, 51.5%)" stroke-width="1.5"></path><path d="M501.01 502.83L401.82 699.87" stroke="hsl(228.5, 77.2%, 51.5%)" stroke-width="1.5"></path><path d="M557.72 655.49L557.72 655.49" stroke="hsl(228.5, 77.2%, 51.5%)" stroke-width="1.5"></path><path d="M849.62 378.21L849.62 378.21" stroke="hsl(228.5, 77.2%, 51.5%)" stroke-width="1.5"></path><path d="M849.62 378.21L1001.13 400.74" stroke="hsl(228.5, 77.2%, 51.5%)" stroke-width="1.5"></path><path d="M849.62 378.21L850.91 555.35" stroke="hsl(228.5, 77.2%, 51.5%)" stroke-width="1.5"></path><path d="M849.62 378.21L994.55 238.67" stroke="hsl(228.5, 77.2%, 51.5%)" stroke-width="1.5"></path><path d="M850.91 555.35L850.91 555.35" stroke="hsl(228.5, 77.2%, 51.5%)" stroke-width="1.5"></path><path d="M850.91 555.35L848.89 685.13" stroke="hsl(228.5, 77.2%, 51.5%)" stroke-width="1.5"></path><path d="M850.91 555.35L662.51 490.05" stroke="hsl(228.5, 77.2%, 51.5%)" stroke-width="1.5"></path><path d="M850.91 555.35L667.31 644.73" stroke="hsl(228.5, 77.2%, 51.5%)" stroke-width="1.5"></path><path d="M848.89 685.13L848.89 685.13" stroke="hsl(228.5, 77.2%, 51.5%)" stroke-width="1.5"></path><path d="M848.89 685.13L667.31 644.73" stroke="hsl(228.5, 77.2%, 51.5%)" stroke-width="1.5"></path><path d="M994.55 238.67L994.55 238.67" stroke="hsl(228.5, 77.2%, 51.5%)" stroke-width="1.5"></path><path d="M994.55 238.67L1094.86 202.79" stroke="hsl(228.5, 77.2%, 51.5%)" stroke-width="1.5"></path><path d="M994.55 238.67L1001.13 400.74" stroke="hsl(228.5, 77.2%, 51.5%)" stroke-width="1.5"></path><path d="M994.55 238.67L1138.03 94.21" stroke="hsl(228.5, 77.2%, 51.5%)" stroke-width="1.5"></path><path d="M1001.13 400.74L1001.13 400.74" stroke="hsl(228.5, 77.2%, 51.5%)" stroke-width="1.5"></path><path d="M1001.13 400.74L1132.06 532.6" stroke="hsl(228.5, 77.2%, 51.5%)" stroke-width="1.5"></path><path d="M1001.13 400.74L850.91 555.35" stroke="hsl(228.5, 77.2%, 51.5%)" stroke-width="1.5"></path><path d="M1138.03 94.21L1138.03 94.21" stroke="hsl(228.5, 77.2%, 51.5%)" stroke-width="1.5"></path><path d="M1138.03 94.21L1094.86 202.79" stroke="hsl(228.5, 77.2%, 51.5%)" stroke-width="1.5"></path><path d="M1138.03 94.21L1299.02 70.59" stroke="hsl(228.5, 77.2%, 51.5%)" stroke-width="1.5"></path><path d="M1094.86 202.79L1094.86 202.79" stroke="hsl(228.5, 77.2%, 51.5%)" stroke-width="1.5"></path><path d="M1094.86 202.79L1266.56 194.63" stroke="hsl(228.5, 77.2%, 51.5%)" stroke-width="1.5"></path><path d="M1094.86 202.79L1001.13 400.74" stroke="hsl(228.5, 77.2%, 51.5%)" stroke-width="1.5"></path><path d="M1132.06 532.6L1132.06 532.6" stroke="hsl(228.5, 77.2%, 51.5%)" stroke-width="1.5"></path><path d="M1132.06 532.6L1103.89 639.54" stroke="hsl(228.5, 77.2%, 51.5%)" stroke-width="1.5"></path><path d="M1132.06 532.6L1263.61 519" stroke="hsl(228.5, 77.2%, 51.5%)" stroke-width="1.5"></path><path d="M1132.06 532.6L1146.71 342.79" stroke="hsl(228.5, 77.2%, 51.5%)" stroke-width="1.5"></path><path d="M1103.89 639.54L1103.89 639.54" stroke="hsl(228.5, 77.2%, 51.5%)" stroke-width="1.5"></path><path d="M1103.89 639.54L1263.61 519" stroke="hsl(228.5, 77.2%, 51.5%)" stroke-width="1.5"></path><path d="M1103.89 639.54L848.89 685.13" stroke="hsl(228.5, 77.2%, 51.5%)" stroke-width="1.5"></path><path d="M1103.89 639.54L1001.13 400.74" stroke="hsl(228.5, 77.2%, 51.5%)" stroke-width="1.5"></path><path d="M1103.89 639.54L850.91 555.35" stroke="hsl(228.5, 77.2%, 51.5%)" stroke-width="1.5"></path><path d="M1255.77 -84.51L1255.77 -84.51" stroke="hsl(228.5, 77.2%, 51.5%)" stroke-width="1.5"></path><path d="M1255.77 -84.51L1402.1 -59.25" stroke="hsl(228.5, 77.2%, 51.5%)" stroke-width="1.5"></path><path d="M1255.77 -84.51L1299.02 70.59" stroke="hsl(228.5, 77.2%, 51.5%)" stroke-width="1.5"></path><path d="M1255.77 -84.51L1401.55 62.8" stroke="hsl(228.5, 77.2%, 51.5%)" stroke-width="1.5"></path><path d="M1255.77 -84.51L1138.03 94.21" stroke="hsl(228.5, 77.2%, 51.5%)" stroke-width="1.5"></path><path d="M1255.77 -84.51L1266.56 194.63" stroke="hsl(228.5, 77.2%, 51.5%)" stroke-width="1.5"></path><path d="M1299.02 70.59L1299.02 70.59" stroke="hsl(228.5, 77.2%, 51.5%)" stroke-width="1.5"></path><path d="M1299.02 70.59L1401.55 62.8" stroke="hsl(228.5, 77.2%, 51.5%)" stroke-width="1.5"></path><path d="M1299.02 70.59L1266.56 194.63" stroke="hsl(228.5, 77.2%, 51.5%)" stroke-width="1.5"></path><path d="M1299.02 70.59L1402.1 -59.25" stroke="hsl(228.5, 77.2%, 51.5%)" stroke-width="1.5"></path><path d="M1266.56 194.63L1266.56 194.63" stroke="hsl(228.5, 77.2%, 51.5%)" stroke-width="1.5"></path><path d="M1266.56 194.63L1395.53 220.52" stroke="hsl(228.5, 77.2%, 51.5%)" stroke-width="1.5"></path><path d="M1266.56 194.63L1138.03 94.21" stroke="hsl(228.5, 77.2%, 51.5%)" stroke-width="1.5"></path><path d="M1266.56 194.63L1401.55 62.8" stroke="hsl(228.5, 77.2%, 51.5%)" stroke-width="1.5"></path><path d="M1266.56 194.63L1146.71 342.79" stroke="hsl(228.5, 77.2%, 51.5%)" stroke-width="1.5"></path><path d="M1283.22 385.42L1283.22 385.42" stroke="hsl(228.5, 77.2%, 51.5%)" stroke-width="1.5"></path><path d="M1283.22 385.42L1389.33 352.08" stroke="hsl(228.5, 77.2%, 51.5%)" stroke-width="1.5"></path><path d="M1283.22 385.42L1263.61 519" stroke="hsl(228.5, 77.2%, 51.5%)" stroke-width="1.5"></path><path d="M1263.61 519L1263.61 519" stroke="hsl(228.5, 77.2%, 51.5%)" stroke-width="1.5"></path><path d="M1402.1 -59.25L1402.1 -59.25" stroke="hsl(228.5, 77.2%, 51.5%)" stroke-width="1.5"></path><path d="M1402.1 -59.25L1401.55 62.8" stroke="hsl(228.5, 77.2%, 51.5%)" stroke-width="1.5"></path><path d="M1402.1 -59.25L1553.79 -78.66" stroke="hsl(228.5, 77.2%, 51.5%)" stroke-width="1.5"></path><path d="M1401.55 62.8L1401.55 62.8" stroke="hsl(228.5, 77.2%, 51.5%)" stroke-width="1.5"></path><path d="M1401.55 62.8L1395.53 220.52" stroke="hsl(228.5, 77.2%, 51.5%)" stroke-width="1.5"></path><path d="M1401.55 62.8L1597.77 50.43" stroke="hsl(228.5, 77.2%, 51.5%)" stroke-width="1.5"></path><path d="M1395.53 220.52L1395.53 220.52" stroke="hsl(228.5, 77.2%, 51.5%)" stroke-width="1.5"></path><path d="M1395.53 220.52L1389.33 352.08" stroke="hsl(228.5, 77.2%, 51.5%)" stroke-width="1.5"></path><path d="M1395.53 220.52L1299.02 70.59" stroke="hsl(228.5, 77.2%, 51.5%)" stroke-width="1.5"></path><path d="M1389.33 352.08L1389.33 352.08" stroke="hsl(228.5, 77.2%, 51.5%)" stroke-width="1.5"></path><path d="M1389.33 352.08L1581.48 393.98" stroke="hsl(228.5, 77.2%, 51.5%)" stroke-width="1.5"></path><path d="M1389.33 352.08L1266.56 194.63" stroke="hsl(228.5, 77.2%, 51.5%)" stroke-width="1.5"></path><path d="M1414.96 561.77L1414.96 561.77" stroke="hsl(228.5, 77.2%, 51.5%)" stroke-width="1.5"></path><path d="M1414.96 561.77L1263.61 519" stroke="hsl(228.5, 77.2%, 51.5%)" stroke-width="1.5"></path><path d="M1414.96 561.77L1389.33 352.08" stroke="hsl(228.5, 77.2%, 51.5%)" stroke-width="1.5"></path><path d="M1414.96 561.77L1594.31 680.06" stroke="hsl(228.5, 77.2%, 51.5%)" stroke-width="1.5"></path><path d="M1414.96 561.77L1283.22 385.42" stroke="hsl(228.5, 77.2%, 51.5%)" stroke-width="1.5"></path><path d="M1553.79 -78.66L1553.79 -78.66" stroke="hsl(228.5, 77.2%, 51.5%)" stroke-width="1.5"></path><path d="M1553.79 -78.66L1597.77 50.43" stroke="hsl(228.5, 77.2%, 51.5%)" stroke-width="1.5"></path><path d="M1553.79 -78.66L1401.55 62.8" stroke="hsl(228.5, 77.2%, 51.5%)" stroke-width="1.5"></path><path d="M1553.79 -78.66L1577.71 209.08" stroke="hsl(228.5, 77.2%, 51.5%)" stroke-width="1.5"></path><path d="M1597.77 50.43L1597.77 50.43" stroke="hsl(228.5, 77.2%, 51.5%)" stroke-width="1.5"></path><path d="M1597.77 50.43L1402.1 -59.25" stroke="hsl(228.5, 77.2%, 51.5%)" stroke-width="1.5"></path><path d="M1581.48 393.98L1581.48 393.98" stroke="hsl(228.5, 77.2%, 51.5%)" stroke-width="1.5"></path><path d="M1581.48 393.98L1414.96 561.77" stroke="hsl(228.5, 77.2%, 51.5%)" stroke-width="1.5"></path><path d="M1581.48 393.98L1395.53 220.52" stroke="hsl(228.5, 77.2%, 51.5%)" stroke-width="1.5"></path><path d="M1581.48 393.98L1594.31 680.06" stroke="hsl(228.5, 77.2%, 51.5%)" stroke-width="1.5"></path><path d="M1594.31 680.06L1594.31 680.06" stroke="hsl(228.5, 77.2%, 51.5%)" stroke-width="1.5"></path><path d="M1594.31 680.06L1560.14 518.68" stroke="hsl(228.5, 77.2%, 51.5%)" stroke-width="1.5"></path><path d="M1594.31 680.06L1263.61 519" stroke="hsl(228.5, 77.2%, 51.5%)" stroke-width="1.5"></path><path d="M1594.31 680.06L1389.33 352.08" stroke="hsl(228.5, 77.2%, 51.5%)" stroke-width="1.5"></path><path d="M1594.31 680.06L1283.22 385.42" stroke="hsl(228.5, 77.2%, 51.5%)" stroke-width="1.5"></path><circle r="25" cx="662.51" cy="490.05" fill="url(#SvgjsRadialGradient1057)"></circle><circle r="25" cx="667.31" cy="644.73" fill="url(#SvgjsRadialGradient1057)"></circle><circle r="25" cx="1146.71" cy="342.79" fill="url(#SvgjsRadialGradient1057)"></circle><circle r="25" cx="1577.71" cy="209.08" fill="url(#SvgjsRadialGradient1057)"></circle><circle r="25" cx="1560.14" cy="518.68" fill="url(#SvgjsRadialGradient1057)"></circle><circle r="5" cx="-50.09" cy="522.98" fill="#8b9ad9"></circle><circle r="5" cx="-64.61" cy="706.15" fill="#8b9ad9"></circle><circle r="5" cx="89.97" cy="559.1" fill="#8b9ad9"></circle><circle r="5" cx="46.71" cy="661.33" fill="#8b9ad9"></circle><circle r="5" cx="207.69" cy="561.3" fill="#8b9ad9"></circle><circle r="5" cx="253.87" cy="661.38" fill="#8b9ad9"></circle><circle r="5" cx="403.81" cy="489.98" fill="#8b9ad9"></circle><circle r="5" cx="401.82" cy="699.87" fill="#8b9ad9"></circle><circle r="5" cx="501.01" cy="502.83" fill="#8b9ad9"></circle><circle r="5" cx="557.72" cy="655.49" fill="#8b9ad9"></circle><circle r="5" cx="849.62" cy="378.21" fill="#8b9ad9"></circle><circle r="5" cx="850.91" cy="555.35" fill="#8b9ad9"></circle><circle r="5" cx="848.89" cy="685.13" fill="#8b9ad9"></circle><circle r="5" cx="994.55" cy="238.67" fill="#8b9ad9"></circle><circle r="5" cx="1001.13" cy="400.74" fill="#8b9ad9"></circle><circle r="5" cx="1138.03" cy="94.21" fill="#8b9ad9"></circle><circle r="5" cx="1094.86" cy="202.79" fill="#8b9ad9"></circle><circle r="5" cx="1132.06" cy="532.6" fill="#8b9ad9"></circle><circle r="5" cx="1103.89" cy="639.54" fill="#8b9ad9"></circle><circle r="5" cx="1255.77" cy="-84.51" fill="#8b9ad9"></circle><circle r="5" cx="1299.02" cy="70.59" fill="#8b9ad9"></circle><circle r="5" cx="1266.56" cy="194.63" fill="#8b9ad9"></circle><circle r="5" cx="1283.22" cy="385.42" fill="#8b9ad9"></circle><circle r="5" cx="1263.61" cy="519" fill="#8b9ad9"></circle><circle r="5" cx="1402.1" cy="-59.25" fill="#8b9ad9"></circle><circle r="5" cx="1401.55" cy="62.8" fill="#8b9ad9"></circle><circle r="5" cx="1395.53" cy="220.52" fill="#8b9ad9"></circle><circle r="5" cx="1389.33" cy="352.08" fill="#8b9ad9"></circle><circle r="5" cx="1414.96" cy="561.77" fill="#8b9ad9"></circle><circle r="5" cx="1553.79" cy="-78.66" fill="#8b9ad9"></circle><circle r="5" cx="1597.77" cy="50.43" fill="#8b9ad9"></circle><circle r="5" cx="1581.48" cy="393.98" fill="#8b9ad9"></circle><circle r="5" cx="1594.31" cy="680.06" fill="#8b9ad9"></circle></g><defs><mask id="SvgjsMask1056"><rect width="1440" height="560" fill="#ffffff"></rect></mask><radialGradient id="SvgjsRadialGradient1057"><stop stop-color="#ffffff" offset="0.1"></stop><stop stop-color="#1735b3" offset="0.2"></stop><stop stop-color="rgba(23, 53, 179, 0)" offset="1"></stop></radialGradient></defs></svg>