<svg xmlns="http://www.w3.org/2000/svg" version="1.1" xmlns:xlink="http://www.w3.org/1999/xlink" xmlns:svgjs="http://svgjs.com/svgjs" width="1440" height="560" preserveAspectRatio="none" viewBox="0 0 1440 560"><g mask="url(&quot;#SvgjsMask1048&quot;)" fill="none"><rect width="1440" height="560" x="0" y="0" fill="#0e2a47"></rect><path d="M-79.64 353.88L-79.64 353.88" stroke="#132e65" stroke-width="1.5"></path><path d="M-79.64 353.88L106.72 365.56" stroke="#132e65" stroke-width="1.5"></path><path d="M-79.64 353.88L-94.34 558.74" stroke="#132e65" stroke-width="1.5"></path><path d="M-79.64 353.88L97.35 543.06" stroke="#132e65" stroke-width="1.5"></path><path d="M-79.64 353.88L258.54 358.98" stroke="#132e65" stroke-width="1.5"></path><path d="M-94.34 558.74L-94.34 558.74" stroke="#132e65" stroke-width="1.5"></path><path d="M-94.34 558.74L-92.82 693.31" stroke="#132e65" stroke-width="1.5"></path><path d="M-94.34 558.74L97.35 543.06" stroke="#132e65" stroke-width="1.5"></path><path d="M-92.82 693.31L-92.82 693.31" stroke="#132e65" stroke-width="1.5"></path><path d="M-92.82 693.31L97.35 543.06" stroke="#132e65" stroke-width="1.5"></path><path d="M-92.82 693.31L-79.64 353.88" stroke="#132e65" stroke-width="1.5"></path><path d="M106.72 365.56L106.72 365.56" stroke="#132e65" stroke-width="1.5"></path><path d="M106.72 365.56L258.54 358.98" stroke="#132e65" stroke-width="1.5"></path><path d="M106.72 365.56L97.35 543.06" stroke="#132e65" stroke-width="1.5"></path><path d="M97.35 543.06L97.35 543.06" stroke="#132e65" stroke-width="1.5"></path><path d="M97.35 543.06L218.36 515.9" stroke="#132e65" stroke-width="1.5"></path><path d="M97.35 543.06L258.54 358.98" stroke="#132e65" stroke-width="1.5"></path><path d="M258.54 358.98L258.54 358.98" stroke="#132e65" stroke-width="1.5"></path><path d="M258.54 358.98L406.39 341.7" stroke="#132e65" stroke-width="1.5"></path><path d="M258.54 358.98L218.36 515.9" stroke="#132e65" stroke-width="1.5"></path><path d="M258.54 358.98L412.15 537.4" stroke="#132e65" stroke-width="1.5"></path><path d="M218.36 515.9L218.36 515.9" stroke="#132e65" stroke-width="1.5"></path><path d="M406.39 341.7L406.39 341.7" stroke="#132e65" stroke-width="1.5"></path><path d="M406.39 341.7L526.97 353.11" stroke="#132e65" stroke-width="1.5"></path><path d="M412.15 537.4L412.15 537.4" stroke="#132e65" stroke-width="1.5"></path><path d="M412.15 537.4L560.17 525.22" stroke="#132e65" stroke-width="1.5"></path><path d="M412.15 537.4L341.54 670.16" stroke="#132e65" stroke-width="1.5"></path><path d="M412.15 537.4L502.89 678.54" stroke="#132e65" stroke-width="1.5"></path><path d="M412.15 537.4L218.36 515.9" stroke="#132e65" stroke-width="1.5"></path><path d="M341.54 670.16L341.54 670.16" stroke="#132e65" stroke-width="1.5"></path><path d="M341.54 670.16L502.89 678.54" stroke="#132e65" stroke-width="1.5"></path><path d="M341.54 670.16L218.36 515.9" stroke="#132e65" stroke-width="1.5"></path><path d="M526.97 353.11L526.97 353.11" stroke="#132e65" stroke-width="1.5"></path><path d="M526.97 353.11L560.17 525.22" stroke="#132e65" stroke-width="1.5"></path><path d="M526.97 353.11L412.15 537.4" stroke="#132e65" stroke-width="1.5"></path><path d="M526.97 353.11L700.87 201.91" stroke="#132e65" stroke-width="1.5"></path><path d="M526.97 353.11L696.25 545.52" stroke="#132e65" stroke-width="1.5"></path><path d="M526.97 353.11L258.54 358.98" stroke="#132e65" stroke-width="1.5"></path><path d="M560.17 525.22L560.17 525.22" stroke="#132e65" stroke-width="1.5"></path><path d="M560.17 525.22L696.25 545.52" stroke="#132e65" stroke-width="1.5"></path><path d="M560.17 525.22L502.89 678.54" stroke="#132e65" stroke-width="1.5"></path><path d="M502.89 678.54L502.89 678.54" stroke="#132e65" stroke-width="1.5"></path><path d="M502.89 678.54L667.91 686.49" stroke="#132e65" stroke-width="1.5"></path><path d="M700.87 201.91L700.87 201.91" stroke="#132e65" stroke-width="1.5"></path><path d="M700.87 201.91L828.93 203.27" stroke="#132e65" stroke-width="1.5"></path><path d="M700.87 201.91L821.43 398.27" stroke="#132e65" stroke-width="1.5"></path><path d="M696.25 545.52L696.25 545.52" stroke="#132e65" stroke-width="1.5"></path><path d="M696.25 545.52L819.41 528.18" stroke="#132e65" stroke-width="1.5"></path><path d="M696.25 545.52L667.91 686.49" stroke="#132e65" stroke-width="1.5"></path><path d="M667.91 686.49L667.91 686.49" stroke="#132e65" stroke-width="1.5"></path><path d="M667.91 686.49L835.71 657.16" stroke="#132e65" stroke-width="1.5"></path><path d="M667.91 686.49L560.17 525.22" stroke="#132e65" stroke-width="1.5"></path><path d="M667.91 686.49L819.41 528.18" stroke="#132e65" stroke-width="1.5"></path><path d="M667.91 686.49L412.15 537.4" stroke="#132e65" stroke-width="1.5"></path><path d="M828.93 203.27L828.93 203.27" stroke="#132e65" stroke-width="1.5"></path><path d="M821.43 398.27L821.43 398.27" stroke="#132e65" stroke-width="1.5"></path><path d="M821.43 398.27L819.41 528.18" stroke="#132e65" stroke-width="1.5"></path><path d="M821.43 398.27L972.42 393.62" stroke="#132e65" stroke-width="1.5"></path><path d="M821.43 398.27L696.25 545.52" stroke="#132e65" stroke-width="1.5"></path><path d="M819.41 528.18L819.41 528.18" stroke="#132e65" stroke-width="1.5"></path><path d="M835.71 657.16L835.71 657.16" stroke="#132e65" stroke-width="1.5"></path><path d="M835.71 657.16L819.41 528.18" stroke="#132e65" stroke-width="1.5"></path><path d="M835.71 657.16L986.4 672.95" stroke="#132e65" stroke-width="1.5"></path><path d="M975.44 -57.71L975.44 -57.71" stroke="#132e65" stroke-width="1.5"></path><path d="M975.44 -57.71L1001.31 50.37" stroke="#132e65" stroke-width="1.5"></path><path d="M975.44 -57.71L1096.22 -60.71" stroke="#132e65" stroke-width="1.5"></path><path d="M1001.31 50.37L1001.31 50.37" stroke="#132e65" stroke-width="1.5"></path><path d="M1004.07 252.55L1004.07 252.55" stroke="#132e65" stroke-width="1.5"></path><path d="M1004.07 252.55L972.42 393.62" stroke="#132e65" stroke-width="1.5"></path><path d="M1004.07 252.55L1155.19 223.62" stroke="#132e65" stroke-width="1.5"></path><path d="M1004.07 252.55L1108.86 106.25" stroke="#132e65" stroke-width="1.5"></path><path d="M1004.07 252.55L828.93 203.27" stroke="#132e65" stroke-width="1.5"></path><path d="M972.42 393.62L972.42 393.62" stroke="#132e65" stroke-width="1.5"></path><path d="M972.42 393.62L977.24 533.46" stroke="#132e65" stroke-width="1.5"></path><path d="M972.42 393.62L1145.43 369.06" stroke="#132e65" stroke-width="1.5"></path><path d="M972.42 393.62L819.41 528.18" stroke="#132e65" stroke-width="1.5"></path><path d="M977.24 533.46L977.24 533.46" stroke="#132e65" stroke-width="1.5"></path><path d="M977.24 533.46L986.4 672.95" stroke="#132e65" stroke-width="1.5"></path><path d="M977.24 533.46L819.41 528.18" stroke="#132e65" stroke-width="1.5"></path><path d="M977.24 533.46L1147.37 525.71" stroke="#132e65" stroke-width="1.5"></path><path d="M977.24 533.46L835.71 657.16" stroke="#132e65" stroke-width="1.5"></path><path d="M986.4 672.95L986.4 672.95" stroke="#132e65" stroke-width="1.5"></path><path d="M1096.22 -60.71L1096.22 -60.71" stroke="#132e65" stroke-width="1.5"></path><path d="M1096.22 -60.71L1001.31 50.37" stroke="#132e65" stroke-width="1.5"></path><path d="M1096.22 -60.71L1108.86 106.25" stroke="#132e65" stroke-width="1.5"></path><path d="M1096.22 -60.71L1267.44 49.47" stroke="#132e65" stroke-width="1.5"></path><path d="M1108.86 106.25L1108.86 106.25" stroke="#132e65" stroke-width="1.5"></path><path d="M1108.86 106.25L1001.31 50.37" stroke="#132e65" stroke-width="1.5"></path><path d="M1108.86 106.25L1155.19 223.62" stroke="#132e65" stroke-width="1.5"></path><path d="M1108.86 106.25L1267.44 49.47" stroke="#132e65" stroke-width="1.5"></path><path d="M1155.19 223.62L1155.19 223.62" stroke="#132e65" stroke-width="1.5"></path><path d="M1155.19 223.62L1289.8 230.59" stroke="#132e65" stroke-width="1.5"></path><path d="M1145.43 369.06L1145.43 369.06" stroke="#132e65" stroke-width="1.5"></path><path d="M1145.43 369.06L1271.41 408.56" stroke="#132e65" stroke-width="1.5"></path><path d="M1145.43 369.06L1155.19 223.62" stroke="#132e65" stroke-width="1.5"></path><path d="M1145.43 369.06L1147.37 525.71" stroke="#132e65" stroke-width="1.5"></path><path d="M1147.37 525.71L1147.37 525.71" stroke="#132e65" stroke-width="1.5"></path><path d="M1147.37 525.71L1139.79 640.16" stroke="#132e65" stroke-width="1.5"></path><path d="M1147.37 525.71L1277.8 548.18" stroke="#132e65" stroke-width="1.5"></path><path d="M1139.79 640.16L1139.79 640.16" stroke="#132e65" stroke-width="1.5"></path><path d="M1139.79 640.16L1265.2 650.82" stroke="#132e65" stroke-width="1.5"></path><path d="M1139.79 640.16L986.4 672.95" stroke="#132e65" stroke-width="1.5"></path><path d="M1139.79 640.16L1277.8 548.18" stroke="#132e65" stroke-width="1.5"></path><path d="M1310.85 -52.6L1310.85 -52.6" stroke="#132e65" stroke-width="1.5"></path><path d="M1310.85 -52.6L1267.44 49.47" stroke="#132e65" stroke-width="1.5"></path><path d="M1310.85 -52.6L1432.62 -48.56" stroke="#132e65" stroke-width="1.5"></path><path d="M1310.85 -52.6L1096.22 -60.71" stroke="#132e65" stroke-width="1.5"></path><path d="M1310.85 -52.6L1108.86 106.25" stroke="#132e65" stroke-width="1.5"></path><path d="M1310.85 -52.6L1289.8 230.59" stroke="#132e65" stroke-width="1.5"></path><path d="M1267.44 49.47L1267.44 49.47" stroke="#132e65" stroke-width="1.5"></path><path d="M1289.8 230.59L1289.8 230.59" stroke="#132e65" stroke-width="1.5"></path><path d="M1289.8 230.59L1448.27 260.52" stroke="#132e65" stroke-width="1.5"></path><path d="M1271.41 408.56L1271.41 408.56" stroke="#132e65" stroke-width="1.5"></path><path d="M1271.41 408.56L1277.8 548.18" stroke="#132e65" stroke-width="1.5"></path><path d="M1271.41 408.56L1147.37 525.71" stroke="#132e65" stroke-width="1.5"></path><path d="M1271.41 408.56L1431.43 342.92" stroke="#132e65" stroke-width="1.5"></path><path d="M1277.8 548.18L1277.8 548.18" stroke="#132e65" stroke-width="1.5"></path><path d="M1277.8 548.18L1265.2 650.82" stroke="#132e65" stroke-width="1.5"></path><path d="M1265.2 650.82L1265.2 650.82" stroke="#132e65" stroke-width="1.5"></path><path d="M1265.2 650.82L1147.37 525.71" stroke="#132e65" stroke-width="1.5"></path><path d="M1432.62 -48.56L1432.62 -48.56" stroke="#132e65" stroke-width="1.5"></path><path d="M1432.62 -48.56L1610.41 -44.36" stroke="#132e65" stroke-width="1.5"></path><path d="M1432.62 -48.56L1267.44 49.47" stroke="#132e65" stroke-width="1.5"></path><path d="M1448.27 260.52L1448.27 260.52" stroke="#132e65" stroke-width="1.5"></path><path d="M1448.27 260.52L1431.43 342.92" stroke="#132e65" stroke-width="1.5"></path><path d="M1448.27 260.52L1584.44 234.14" stroke="#132e65" stroke-width="1.5"></path><path d="M1448.27 260.52L1579.48 377.88" stroke="#132e65" stroke-width="1.5"></path><path d="M1448.27 260.52L1570.54 94.29" stroke="#132e65" stroke-width="1.5"></path><path d="M1431.43 342.92L1431.43 342.92" stroke="#132e65" stroke-width="1.5"></path><path d="M1431.43 342.92L1579.48 377.88" stroke="#132e65" stroke-width="1.5"></path><path d="M1455.12 557.23L1455.12 557.23" stroke="#132e65" stroke-width="1.5"></path><path d="M1455.12 557.23L1545.52 556.96" stroke="#132e65" stroke-width="1.5"></path><path d="M1455.12 557.23L1461.89 678.71" stroke="#132e65" stroke-width="1.5"></path><path d="M1455.12 557.23L1277.8 548.18" stroke="#132e65" stroke-width="1.5"></path><path d="M1461.89 678.71L1461.89 678.71" stroke="#132e65" stroke-width="1.5"></path><path d="M1461.89 678.71L1575.13 694.87" stroke="#132e65" stroke-width="1.5"></path><path d="M1461.89 678.71L1545.52 556.96" stroke="#132e65" stroke-width="1.5"></path><path d="M1461.89 678.71L1265.2 650.82" stroke="#132e65" stroke-width="1.5"></path><path d="M1461.89 678.71L1277.8 548.18" stroke="#132e65" stroke-width="1.5"></path><path d="M1461.89 678.71L1579.48 377.88" stroke="#132e65" stroke-width="1.5"></path><path d="M1610.41 -44.36L1610.41 -44.36" stroke="#132e65" stroke-width="1.5"></path><path d="M1610.41 -44.36L1570.54 94.29" stroke="#132e65" stroke-width="1.5"></path><path d="M1610.41 -44.36L1584.44 234.14" stroke="#132e65" stroke-width="1.5"></path><path d="M1610.41 -44.36L1310.85 -52.6" stroke="#132e65" stroke-width="1.5"></path><path d="M1570.54 94.29L1570.54 94.29" stroke="#132e65" stroke-width="1.5"></path><path d="M1570.54 94.29L1584.44 234.14" stroke="#132e65" stroke-width="1.5"></path><path d="M1584.44 234.14L1584.44 234.14" stroke="#132e65" stroke-width="1.5"></path><path d="M1579.48 377.88L1579.48 377.88" stroke="#132e65" stroke-width="1.5"></path><path d="M1579.48 377.88L1584.44 234.14" stroke="#132e65" stroke-width="1.5"></path><path d="M1579.48 377.88L1545.52 556.96" stroke="#132e65" stroke-width="1.5"></path><path d="M1579.48 377.88L1455.12 557.23" stroke="#132e65" stroke-width="1.5"></path><path d="M1579.48 377.88L1570.54 94.29" stroke="#132e65" stroke-width="1.5"></path><path d="M1545.52 556.96L1545.52 556.96" stroke="#132e65" stroke-width="1.5"></path><path d="M1545.52 556.96L1575.13 694.87" stroke="#132e65" stroke-width="1.5"></path><path d="M1575.13 694.87L1575.13 694.87" stroke="#132e65" stroke-width="1.5"></path><path d="M1575.13 694.87L1455.12 557.23" stroke="#132e65" stroke-width="1.5"></path><path d="M1575.13 694.87L1265.2 650.82" stroke="#132e65" stroke-width="1.5"></path><circle r="5" cx="-79.64" cy="353.88" fill="#132e65"></circle><circle r="5" cx="-94.34" cy="558.74" fill="#132e65"></circle><circle r="5" cx="-92.82" cy="693.31" fill="#132e65"></circle><circle r="5" cx="106.72" cy="365.56" fill="#132e65"></circle><circle r="5" cx="97.35" cy="543.06" fill="#132e65"></circle><circle r="5" cx="258.54" cy="358.98" fill="#132e65"></circle><circle r="5" cx="218.36" cy="515.9" fill="#132e65"></circle><circle r="5" cx="406.39" cy="341.7" fill="#132e65"></circle><circle r="5" cx="412.15" cy="537.4" fill="#132e65"></circle><circle r="5" cx="341.54" cy="670.16" fill="#132e65"></circle><circle r="5" cx="526.97" cy="353.11" fill="#132e65"></circle><circle r="5" cx="560.17" cy="525.22" fill="#132e65"></circle><circle r="5" cx="502.89" cy="678.54" fill="#132e65"></circle><circle r="5" cx="700.87" cy="201.91" fill="#132e65"></circle><circle r="5" cx="696.25" cy="545.52" fill="#132e65"></circle><circle r="5" cx="667.91" cy="686.49" fill="#132e65"></circle><circle r="5" cx="828.93" cy="203.27" fill="#132e65"></circle><circle r="5" cx="821.43" cy="398.27" fill="#132e65"></circle><circle r="5" cx="819.41" cy="528.18" fill="#132e65"></circle><circle r="5" cx="835.71" cy="657.16" fill="#132e65"></circle><circle r="5" cx="975.44" cy="-57.71" fill="#132e65"></circle><circle r="5" cx="1001.31" cy="50.37" fill="#132e65"></circle><circle r="5" cx="1004.07" cy="252.55" fill="#132e65"></circle><circle r="5" cx="972.42" cy="393.62" fill="#132e65"></circle><circle r="5" cx="977.24" cy="533.46" fill="#132e65"></circle><circle r="5" cx="986.4" cy="672.95" fill="#132e65"></circle><circle r="5" cx="1096.22" cy="-60.71" fill="#132e65"></circle><circle r="5" cx="1108.86" cy="106.25" fill="#132e65"></circle><circle r="5" cx="1155.19" cy="223.62" fill="#132e65"></circle><circle r="5" cx="1145.43" cy="369.06" fill="#132e65"></circle><circle r="5" cx="1147.37" cy="525.71" fill="#132e65"></circle><circle r="5" cx="1139.79" cy="640.16" fill="#132e65"></circle><circle r="5" cx="1310.85" cy="-52.6" fill="#132e65"></circle><circle r="5" cx="1267.44" cy="49.47" fill="#132e65"></circle><circle r="5" cx="1289.8" cy="230.59" fill="#132e65"></circle><circle r="5" cx="1271.41" cy="408.56" fill="#132e65"></circle><circle r="5" cx="1277.8" cy="548.18" fill="#132e65"></circle><circle r="5" cx="1265.2" cy="650.82" fill="#132e65"></circle><circle r="5" cx="1432.62" cy="-48.56" fill="#132e65"></circle><circle r="5" cx="1448.27" cy="260.52" fill="#132e65"></circle><circle r="5" cx="1431.43" cy="342.92" fill="#132e65"></circle><circle r="5" cx="1455.12" cy="557.23" fill="#132e65"></circle><circle r="5" cx="1461.89" cy="678.71" fill="#132e65"></circle><circle r="5" cx="1610.41" cy="-44.36" fill="#132e65"></circle><circle r="5" cx="1570.54" cy="94.29" fill="#132e65"></circle><circle r="5" cx="1584.44" cy="234.14" fill="#132e65"></circle><circle r="5" cx="1579.48" cy="377.88" fill="#132e65"></circle><circle r="5" cx="1545.52" cy="556.96" fill="#132e65"></circle><circle r="5" cx="1575.13" cy="694.87" fill="#132e65"></circle><path d="M205.23 683.82L205.23 683.82" stroke="hsl(228.5, 77.2%, 51.5%)" stroke-width="1.5"></path><path d="M205.23 683.82L41.85 666.91" stroke="hsl(228.5, 77.2%, 51.5%)" stroke-width="1.5"></path><path d="M205.23 683.82L230.36 511.1" stroke="hsl(228.5, 77.2%, 51.5%)" stroke-width="1.5"></path><path d="M205.23 683.82L100.31 518.94" stroke="hsl(228.5, 77.2%, 51.5%)" stroke-width="1.5"></path><path d="M205.23 683.82L404.15 690.99" stroke="hsl(228.5, 77.2%, 51.5%)" stroke-width="1.5"></path><path d="M205.23 683.82L-55.22 645.94" stroke="hsl(228.5, 77.2%, 51.5%)" stroke-width="1.5"></path><path d="M706.92 516.1L706.92 516.1" stroke="hsl(228.5, 77.2%, 51.5%)" stroke-width="1.5"></path><path d="M706.92 516.1L652.69 378" stroke="hsl(228.5, 77.2%, 51.5%)" stroke-width="1.5"></path><path d="M706.92 516.1L700.99 687.01" stroke="hsl(228.5, 77.2%, 51.5%)" stroke-width="1.5"></path><path d="M706.92 516.1L802.56 339.43" stroke="hsl(228.5, 77.2%, 51.5%)" stroke-width="1.5"></path><path d="M963.91 524.71L963.91 524.71" stroke="hsl(228.5, 77.2%, 51.5%)" stroke-width="1.5"></path><path d="M963.91 524.71L1122.86 495.53" stroke="hsl(228.5, 77.2%, 51.5%)" stroke-width="1.5"></path><path d="M963.91 524.71L955.51 347.8" stroke="hsl(228.5, 77.2%, 51.5%)" stroke-width="1.5"></path><path d="M963.91 524.71L1117.62 410.8" stroke="hsl(228.5, 77.2%, 51.5%)" stroke-width="1.5"></path><path d="M1289.69 389.96L1289.69 389.96" stroke="hsl(228.5, 77.2%, 51.5%)" stroke-width="1.5"></path><path d="M1289.69 389.96L1297.12 542.61" stroke="hsl(228.5, 77.2%, 51.5%)" stroke-width="1.5"></path><path d="M1289.69 389.96L1117.62 410.8" stroke="hsl(228.5, 77.2%, 51.5%)" stroke-width="1.5"></path><path d="M1462.03 244.58L1462.03 244.58" stroke="hsl(228.5, 77.2%, 51.5%)" stroke-width="1.5"></path><path d="M1462.03 244.58L1547.88 256.95" stroke="hsl(228.5, 77.2%, 51.5%)" stroke-width="1.5"></path><path d="M1462.03 244.58L1569.72 395.15" stroke="hsl(228.5, 77.2%, 51.5%)" stroke-width="1.5"></path><path d="M1462.03 244.58L1582.03 81.93" stroke="hsl(228.5, 77.2%, 51.5%)" stroke-width="1.5"></path><path d="M1433.41 495.12L1433.41 495.12" stroke="hsl(228.5, 77.2%, 51.5%)" stroke-width="1.5"></path><path d="M1433.41 495.12L1441.67 637.54" stroke="hsl(228.5, 77.2%, 51.5%)" stroke-width="1.5"></path><path d="M1433.41 495.12L1297.12 542.61" stroke="hsl(228.5, 77.2%, 51.5%)" stroke-width="1.5"></path><path d="M-54.6 549.04L-54.6 549.04" stroke="hsl(228.5, 77.2%, 51.5%)" stroke-width="1.5"></path><path d="M-54.6 549.04L-55.22 645.94" stroke="hsl(228.5, 77.2%, 51.5%)" stroke-width="1.5"></path><path d="M-54.6 549.04L41.85 666.91" stroke="hsl(228.5, 77.2%, 51.5%)" stroke-width="1.5"></path><path d="M-54.6 549.04L100.31 518.94" stroke="hsl(228.5, 77.2%, 51.5%)" stroke-width="1.5"></path><path d="M-54.6 549.04L230.36 511.1" stroke="hsl(228.5, 77.2%, 51.5%)" stroke-width="1.5"></path><path d="M-54.6 549.04L205.23 683.82" stroke="hsl(228.5, 77.2%, 51.5%)" stroke-width="1.5"></path><path d="M-55.22 645.94L-55.22 645.94" stroke="hsl(228.5, 77.2%, 51.5%)" stroke-width="1.5"></path><path d="M100.31 518.94L100.31 518.94" stroke="hsl(228.5, 77.2%, 51.5%)" stroke-width="1.5"></path><path d="M100.31 518.94L230.36 511.1" stroke="hsl(228.5, 77.2%, 51.5%)" stroke-width="1.5"></path><path d="M100.31 518.94L41.85 666.91" stroke="hsl(228.5, 77.2%, 51.5%)" stroke-width="1.5"></path><path d="M41.85 666.91L41.85 666.91" stroke="hsl(228.5, 77.2%, 51.5%)" stroke-width="1.5"></path><path d="M41.85 666.91L-55.22 645.94" stroke="hsl(228.5, 77.2%, 51.5%)" stroke-width="1.5"></path><path d="M230.36 511.1L230.36 511.1" stroke="hsl(228.5, 77.2%, 51.5%)" stroke-width="1.5"></path><path d="M230.36 511.1L41.85 666.91" stroke="hsl(228.5, 77.2%, 51.5%)" stroke-width="1.5"></path><path d="M230.36 511.1L404.15 690.99" stroke="hsl(228.5, 77.2%, 51.5%)" stroke-width="1.5"></path><path d="M230.36 511.1L504.36 522.22" stroke="hsl(228.5, 77.2%, 51.5%)" stroke-width="1.5"></path><path d="M404.15 690.99L404.15 690.99" stroke="hsl(228.5, 77.2%, 51.5%)" stroke-width="1.5"></path><path d="M404.15 690.99L520.91 660.18" stroke="hsl(228.5, 77.2%, 51.5%)" stroke-width="1.5"></path><path d="M404.15 690.99L504.36 522.22" stroke="hsl(228.5, 77.2%, 51.5%)" stroke-width="1.5"></path><path d="M404.15 690.99L700.99 687.01" stroke="hsl(228.5, 77.2%, 51.5%)" stroke-width="1.5"></path><path d="M404.15 690.99L100.31 518.94" stroke="hsl(228.5, 77.2%, 51.5%)" stroke-width="1.5"></path><path d="M504.36 522.22L504.36 522.22" stroke="hsl(228.5, 77.2%, 51.5%)" stroke-width="1.5"></path><path d="M504.36 522.22L520.91 660.18" stroke="hsl(228.5, 77.2%, 51.5%)" stroke-width="1.5"></path><path d="M504.36 522.22L706.92 516.1" stroke="hsl(228.5, 77.2%, 51.5%)" stroke-width="1.5"></path><path d="M504.36 522.22L652.69 378" stroke="hsl(228.5, 77.2%, 51.5%)" stroke-width="1.5"></path><path d="M520.91 660.18L520.91 660.18" stroke="hsl(228.5, 77.2%, 51.5%)" stroke-width="1.5"></path><path d="M520.91 660.18L700.99 687.01" stroke="hsl(228.5, 77.2%, 51.5%)" stroke-width="1.5"></path><path d="M520.91 660.18L706.92 516.1" stroke="hsl(228.5, 77.2%, 51.5%)" stroke-width="1.5"></path><path d="M652.69 378L652.69 378" stroke="hsl(228.5, 77.2%, 51.5%)" stroke-width="1.5"></path><path d="M700.99 687.01L700.99 687.01" stroke="hsl(228.5, 77.2%, 51.5%)" stroke-width="1.5"></path><path d="M700.99 687.01L801.46 694.18" stroke="hsl(228.5, 77.2%, 51.5%)" stroke-width="1.5"></path><path d="M700.99 687.01L504.36 522.22" stroke="hsl(228.5, 77.2%, 51.5%)" stroke-width="1.5"></path><path d="M700.99 687.01L963.91 524.71" stroke="hsl(228.5, 77.2%, 51.5%)" stroke-width="1.5"></path><path d="M802.56 339.43L802.56 339.43" stroke="hsl(228.5, 77.2%, 51.5%)" stroke-width="1.5"></path><path d="M802.56 339.43L955.51 347.8" stroke="hsl(228.5, 77.2%, 51.5%)" stroke-width="1.5"></path><path d="M802.56 339.43L652.69 378" stroke="hsl(228.5, 77.2%, 51.5%)" stroke-width="1.5"></path><path d="M802.56 339.43L968.86 250.02" stroke="hsl(228.5, 77.2%, 51.5%)" stroke-width="1.5"></path><path d="M802.56 339.43L963.91 524.71" stroke="hsl(228.5, 77.2%, 51.5%)" stroke-width="1.5"></path><path d="M801.46 694.18L801.46 694.18" stroke="hsl(228.5, 77.2%, 51.5%)" stroke-width="1.5"></path><path d="M801.46 694.18L706.92 516.1" stroke="hsl(228.5, 77.2%, 51.5%)" stroke-width="1.5"></path><path d="M801.46 694.18L963.91 524.71" stroke="hsl(228.5, 77.2%, 51.5%)" stroke-width="1.5"></path><path d="M801.46 694.18L520.91 660.18" stroke="hsl(228.5, 77.2%, 51.5%)" stroke-width="1.5"></path><path d="M801.46 694.18L1121.26 656.75" stroke="hsl(228.5, 77.2%, 51.5%)" stroke-width="1.5"></path><path d="M968.86 250.02L968.86 250.02" stroke="hsl(228.5, 77.2%, 51.5%)" stroke-width="1.5"></path><path d="M968.86 250.02L955.51 347.8" stroke="hsl(228.5, 77.2%, 51.5%)" stroke-width="1.5"></path><path d="M968.86 250.02L1150.01 215.63" stroke="hsl(228.5, 77.2%, 51.5%)" stroke-width="1.5"></path><path d="M968.86 250.02L1117.62 410.8" stroke="hsl(228.5, 77.2%, 51.5%)" stroke-width="1.5"></path><path d="M968.86 250.02L1156.18 95.37" stroke="hsl(228.5, 77.2%, 51.5%)" stroke-width="1.5"></path><path d="M968.86 250.02L963.91 524.71" stroke="hsl(228.5, 77.2%, 51.5%)" stroke-width="1.5"></path><path d="M955.51 347.8L955.51 347.8" stroke="hsl(228.5, 77.2%, 51.5%)" stroke-width="1.5"></path><path d="M1157.08 -62.6L1157.08 -62.6" stroke="hsl(228.5, 77.2%, 51.5%)" stroke-width="1.5"></path><path d="M1157.08 -62.6L1280.5 -45.84" stroke="hsl(228.5, 77.2%, 51.5%)" stroke-width="1.5"></path><path d="M1156.18 95.37L1156.18 95.37" stroke="hsl(228.5, 77.2%, 51.5%)" stroke-width="1.5"></path><path d="M1156.18 95.37L1150.01 215.63" stroke="hsl(228.5, 77.2%, 51.5%)" stroke-width="1.5"></path><path d="M1156.18 95.37L1284.45 70.72" stroke="hsl(228.5, 77.2%, 51.5%)" stroke-width="1.5"></path><path d="M1156.18 95.37L1157.08 -62.6" stroke="hsl(228.5, 77.2%, 51.5%)" stroke-width="1.5"></path><path d="M1156.18 95.37L1280.5 -45.84" stroke="hsl(228.5, 77.2%, 51.5%)" stroke-width="1.5"></path><path d="M1150.01 215.63L1150.01 215.63" stroke="hsl(228.5, 77.2%, 51.5%)" stroke-width="1.5"></path><path d="M1117.62 410.8L1117.62 410.8" stroke="hsl(228.5, 77.2%, 51.5%)" stroke-width="1.5"></path><path d="M1117.62 410.8L1122.86 495.53" stroke="hsl(228.5, 77.2%, 51.5%)" stroke-width="1.5"></path><path d="M1117.62 410.8L955.51 347.8" stroke="hsl(228.5, 77.2%, 51.5%)" stroke-width="1.5"></path><path d="M1122.86 495.53L1122.86 495.53" stroke="hsl(228.5, 77.2%, 51.5%)" stroke-width="1.5"></path><path d="M1122.86 495.53L1121.26 656.75" stroke="hsl(228.5, 77.2%, 51.5%)" stroke-width="1.5"></path><path d="M1121.26 656.75L1121.26 656.75" stroke="hsl(228.5, 77.2%, 51.5%)" stroke-width="1.5"></path><path d="M1121.26 656.75L1239.17 677.39" stroke="hsl(228.5, 77.2%, 51.5%)" stroke-width="1.5"></path><path d="M1280.5 -45.84L1280.5 -45.84" stroke="hsl(228.5, 77.2%, 51.5%)" stroke-width="1.5"></path><path d="M1280.5 -45.84L1284.45 70.72" stroke="hsl(228.5, 77.2%, 51.5%)" stroke-width="1.5"></path><path d="M1284.45 70.72L1284.45 70.72" stroke="hsl(228.5, 77.2%, 51.5%)" stroke-width="1.5"></path><path d="M1284.45 70.72L1157.08 -62.6" stroke="hsl(228.5, 77.2%, 51.5%)" stroke-width="1.5"></path><path d="M1297.12 542.61L1297.12 542.61" stroke="hsl(228.5, 77.2%, 51.5%)" stroke-width="1.5"></path><path d="M1297.12 542.61L1239.17 677.39" stroke="hsl(228.5, 77.2%, 51.5%)" stroke-width="1.5"></path><path d="M1239.17 677.39L1239.17 677.39" stroke="hsl(228.5, 77.2%, 51.5%)" stroke-width="1.5"></path><path d="M1239.17 677.39L1441.67 637.54" stroke="hsl(228.5, 77.2%, 51.5%)" stroke-width="1.5"></path><path d="M1447.08 -103.97L1447.08 -103.97" stroke="hsl(228.5, 77.2%, 51.5%)" stroke-width="1.5"></path><path d="M1447.08 -103.97L1577.47 -67.34" stroke="hsl(228.5, 77.2%, 51.5%)" stroke-width="1.5"></path><path d="M1447.08 -103.97L1280.5 -45.84" stroke="hsl(228.5, 77.2%, 51.5%)" stroke-width="1.5"></path><path d="M1447.08 -103.97L1582.03 81.93" stroke="hsl(228.5, 77.2%, 51.5%)" stroke-width="1.5"></path><path d="M1447.08 -103.97L1284.45 70.72" stroke="hsl(228.5, 77.2%, 51.5%)" stroke-width="1.5"></path><path d="M1441.67 637.54L1441.67 637.54" stroke="hsl(228.5, 77.2%, 51.5%)" stroke-width="1.5"></path><path d="M1441.67 637.54L1297.12 542.61" stroke="hsl(228.5, 77.2%, 51.5%)" stroke-width="1.5"></path><path d="M1441.67 637.54L1594.47 521.25" stroke="hsl(228.5, 77.2%, 51.5%)" stroke-width="1.5"></path><path d="M1577.47 -67.34L1577.47 -67.34" stroke="hsl(228.5, 77.2%, 51.5%)" stroke-width="1.5"></path><path d="M1577.47 -67.34L1582.03 81.93" stroke="hsl(228.5, 77.2%, 51.5%)" stroke-width="1.5"></path><path d="M1577.47 -67.34L1280.5 -45.84" stroke="hsl(228.5, 77.2%, 51.5%)" stroke-width="1.5"></path><path d="M1577.47 -67.34L1284.45 70.72" stroke="hsl(228.5, 77.2%, 51.5%)" stroke-width="1.5"></path><path d="M1577.47 -67.34L1547.88 256.95" stroke="hsl(228.5, 77.2%, 51.5%)" stroke-width="1.5"></path><path d="M1582.03 81.93L1582.03 81.93" stroke="hsl(228.5, 77.2%, 51.5%)" stroke-width="1.5"></path><path d="M1582.03 81.93L1547.88 256.95" stroke="hsl(228.5, 77.2%, 51.5%)" stroke-width="1.5"></path><path d="M1547.88 256.95L1547.88 256.95" stroke="hsl(228.5, 77.2%, 51.5%)" stroke-width="1.5"></path><path d="M1547.88 256.95L1569.72 395.15" stroke="hsl(228.5, 77.2%, 51.5%)" stroke-width="1.5"></path><path d="M1569.72 395.15L1569.72 395.15" stroke="hsl(228.5, 77.2%, 51.5%)" stroke-width="1.5"></path><path d="M1569.72 395.15L1594.47 521.25" stroke="hsl(228.5, 77.2%, 51.5%)" stroke-width="1.5"></path><path d="M1594.47 521.25L1594.47 521.25" stroke="hsl(228.5, 77.2%, 51.5%)" stroke-width="1.5"></path><path d="M1594.47 521.25L1433.41 495.12" stroke="hsl(228.5, 77.2%, 51.5%)" stroke-width="1.5"></path><path d="M1594.47 521.25L1547.88 256.95" stroke="hsl(228.5, 77.2%, 51.5%)" stroke-width="1.5"></path><circle r="25" cx="205.23" cy="683.82" fill="url(#SvgjsRadialGradient1049)"></circle><circle r="25" cx="706.92" cy="516.1" fill="url(#SvgjsRadialGradient1049)"></circle><circle r="25" cx="963.91" cy="524.71" fill="url(#SvgjsRadialGradient1049)"></circle><circle r="25" cx="1289.69" cy="389.96" fill="url(#SvgjsRadialGradient1049)"></circle><circle r="25" cx="1462.03" cy="244.58" fill="url(#SvgjsRadialGradient1049)"></circle><circle r="25" cx="1433.41" cy="495.12" fill="url(#SvgjsRadialGradient1049)"></circle><circle r="5" cx="-54.6" cy="549.04" fill="#8b9ad9"></circle><circle r="5" cx="-55.22" cy="645.94" fill="#8b9ad9"></circle><circle r="5" cx="100.31" cy="518.94" fill="#8b9ad9"></circle><circle r="5" cx="41.85" cy="666.91" fill="#8b9ad9"></circle><circle r="5" cx="230.36" cy="511.1" fill="#8b9ad9"></circle><circle r="5" cx="404.15" cy="690.99" fill="#8b9ad9"></circle><circle r="5" cx="504.36" cy="522.22" fill="#8b9ad9"></circle><circle r="5" cx="520.91" cy="660.18" fill="#8b9ad9"></circle><circle r="5" cx="652.69" cy="378" fill="#8b9ad9"></circle><circle r="5" cx="700.99" cy="687.01" fill="#8b9ad9"></circle><circle r="5" cx="802.56" cy="339.43" fill="#8b9ad9"></circle><circle r="5" cx="801.46" cy="694.18" fill="#8b9ad9"></circle><circle r="5" cx="968.86" cy="250.02" fill="#8b9ad9"></circle><circle r="5" cx="955.51" cy="347.8" fill="#8b9ad9"></circle><circle r="5" cx="1157.08" cy="-62.6" fill="#8b9ad9"></circle><circle r="5" cx="1156.18" cy="95.37" fill="#8b9ad9"></circle><circle r="5" cx="1150.01" cy="215.63" fill="#8b9ad9"></circle><circle r="5" cx="1117.62" cy="410.8" fill="#8b9ad9"></circle><circle r="5" cx="1122.86" cy="495.53" fill="#8b9ad9"></circle><circle r="5" cx="1121.26" cy="656.75" fill="#8b9ad9"></circle><circle r="5" cx="1280.5" cy="-45.84" fill="#8b9ad9"></circle><circle r="5" cx="1284.45" cy="70.72" fill="#8b9ad9"></circle><circle r="5" cx="1297.12" cy="542.61" fill="#8b9ad9"></circle><circle r="5" cx="1239.17" cy="677.39" fill="#8b9ad9"></circle><circle r="5" cx="1447.08" cy="-103.97" fill="#8b9ad9"></circle><circle r="5" cx="1441.67" cy="637.54" fill="#8b9ad9"></circle><circle r="5" cx="1577.47" cy="-67.34" fill="#8b9ad9"></circle><circle r="5" cx="1582.03" cy="81.93" fill="#8b9ad9"></circle><circle r="5" cx="1547.88" cy="256.95" fill="#8b9ad9"></circle><circle r="5" cx="1569.72" cy="395.15" fill="#8b9ad9"></circle><circle r="5" cx="1594.47" cy="521.25" fill="#8b9ad9"></circle></g><defs><mask id="SvgjsMask1048"><rect width="1440" height="560" fill="#ffffff"></rect></mask><radialGradient id="SvgjsRadialGradient1049"><stop stop-color="#ffffff" offset="0.1"></stop><stop stop-color="#1735b3" offset="0.2"></stop><stop stop-color="rgba(23, 53, 179, 0)" offset="1"></stop></radialGradient></defs></svg>