<svg xmlns="http://www.w3.org/2000/svg" width="20" height="20" viewBox="0 0 20 20"><path d="M6.815 1.516a.337.337 0 0 1-.077.099 1.252 1.252 0 0 0-.172.201.873.873 0 0 1-.097.122c-.014.016-.022.028-.014.028.006 0-.012.024-.041.055a.672.672 0 0 0-.085.116.535.535 0 0 1-.067.099.335.335 0 0 0-.061.097c-.014.032-.034.059-.045.059s-.014.008-.008.018c.008.01.004.022-.004.026a.554.554 0 0 0-.085.128c-.036.067-.077.128-.089.136s-.014.016-.004.016.004.016-.012.034c-.018.02-.073.118-.12.219a1.925 1.925 0 0 1-.105.195c-.01.006-.014.016-.01.022.006.01-.085.221-.105.239-.006.006-.012.024-.016.041s-.018.055-.034.085a.818.818 0 0 0-.041.118c-.008.032-.022.061-.032.061s-.016.006-.014.014a1.417 1.417 0 0 1-.095.289c-.002.006-.018.061-.041.122-.02.061-.041.12-.043.132-.002.01-.024.087-.049.17a4.114 4.114 0 0 0-.089.336l-.041.178c-.006.03-.014.071-.02.091-.01.032-.02.083-.043.201a2.206 2.206 0 0 1-.022.103 5.167 5.167 0 0 0-.036.257c-.004.032-.014.087-.02.122a6.947 6.947 0 0 0-.045.375c-.004.061-.016.193-.026.294-.018.182-.012 2.205.008 2.563.006.105.014.32.02.476.008.27.012.369.043.963.014.286.022.472.036.811.006.128.016.274.022.324s.014.172.02.274c.01.231.026.505.043.699.008.083.016.211.02.284.004.13.016.288.043.547l.018.253c.002.067.014.245.028.395.024.282.028.347.049.659a2.2 2.2 0 0 0 .024.217c.004.018.014.103.018.192a16.53 16.53 0 0 0 .06.675c.008.128.03.361.043.444l.01.069.318-.014.511-.022.648-.03.531-.028.075-.002-.01-.091a2.018 2.018 0 0 0-.022-.142c-.008-.028-.014-.073-.018-.101a2.522 2.522 0 0 0-.028-.193l-.03-.203a.397.397 0 0 0-.016-.091 3.1 3.1 0 0 1-.045-.324.233.233 0 0 0-.012-.071.248.248 0 0 1-.008-.061.456.456 0 0 0-.018-.103 1.576 1.576 0 0 1-.043-.261 1.856 1.856 0 0 0-.022-.152c-.006-.026-.014-.081-.02-.122-.004-.038-.018-.13-.03-.203l-.028-.182c-.004-.028-.01-.079-.016-.111a9.624 9.624 0 0 1-.067-.454.423.423 0 0 0-.022-.107c-.004-.01-.012-.061-.016-.113s-.01-.109-.016-.126a1.029 1.029 0 0 1-.024-.122l-.02-.152a8.404 8.404 0 0 0-.03-.203 13.55 13.55 0 0 1-.071-.476c-.002-.016-.01-.045-.016-.061s-.01-.045-.01-.061a1.46 1.46 0 0 0-.024-.182l-.032-.207-.03-.192a7.306 7.306 0 0 1-.028-.199 6.04 6.04 0 0 0-.03-.192 2.806 2.806 0 0 1-.03-.203c-.002-.038-.01-.085-.016-.101s-.016-.077-.024-.132c-.006-.057-.014-.12-.018-.142s-.014-.091-.02-.152a1.41 1.41 0 0 0-.026-.148c-.006-.022-.012-.059-.016-.081l-.038-.308a.153.153 0 0 0-.014-.041.196.196 0 0 1-.014-.081 3.25 3.25 0 0 0-.055-.375 2.047 2.047 0 0 1-.02-.156 1.65 1.65 0 0 0-.03-.17.298.298 0 0 1-.016-.077c.006-.022-.03-.28-.051-.377a2.141 2.141 0 0 1-.024-.162 2.867 2.867 0 0 0-.024-.172 3.78 3.78 0 0 1-.036-.456 2.39 2.39 0 0 0-.022-.233c-.014-.038-.038-.865-.038-1.297 0-.367.022-1.017.036-1.145.006-.045.016-.168.024-.274s.018-.211.024-.233c.004-.022.018-.099.028-.172.028-.172.032-.19.067-.334a1.89 1.89 0 0 1 .113-.365.069.069 0 0 0 .016-.036c0-.045.055-.138.079-.132.016.004.028.012.028.02s.012.047.028.085c.016.036.022.073.016.081-.008.006-.002.012.01.012.014 0 .022.006.02.014a.432.432 0 0 0 .045.138c.01.022.038.095.063.162.026.067.055.13.063.142.008.01.016.038.016.063s.006.049.016.053c.018.008.126.259.126.294 0 .014.01.026.022.026.01 0 .014.008.008.02-.006.01-.002.02.008.02.012 0 .022.01.022.024 0 .012.024.073.055.136s.057.118.057.124c.002.006.038.079.081.162s.079.156.081.162c0 .006.018.043.041.081s.036.077.034.085c-.002.006.01.024.026.036.016.014.03.036.03.053 0 .014.012.038.026.053.012.014.061.095.103.178.045.083.085.156.091.162a.516.516 0 0 1 .077.122c.024.059.158.274.178.288.01.008.014.016.006.016s-.002.016.014.034c.016.02.028.041.026.047s.02.036.051.069c.03.032.055.069.055.083s.018.041.041.061.041.045.041.055.012.032.026.047c.057.065.075.091.065.091-.004 0 .004.016.02.034l.156.209c.069.095.136.182.148.197.059.067.134.168.138.182a.35.35 0 0 0 .055.069c.059.061.099.107.213.251.045.055.099.122.122.144.093.099.132.146.132.162.002.01.028.041.061.069.034.026.061.055.061.065 0 .008.02.034.047.061.024.026.081.091.126.146l.122.144c.036.038.099.113.239.276l.122.136c.041.047.075.087.075.093s.02.032.047.059c.087.093.188.209.278.318.051.061.099.122.111.134l.091.107c.038.049.085.101.101.122.026.026.109.13.213.261.01.014.041.049.067.075.026.028.041.051.036.051-.012 0 .01.028.134.17.03.034.057.071.057.079s.026.045.061.081c.032.036.061.075.061.089 0 .012.008.026.016.03.018.006.308.432.308.452 0 .006.024.049.055.097.028.047.053.087.051.091-.004.002.01.032.026.065.018.034.026.061.018.061s0 .014.014.034c.016.018.026.036.024.041-.004.002-.006.008-.004.01a.91.91 0 0 1 .03.219.357.357 0 0 1-.049.237c-.028.059-.061.107-.069.107s-.016.008-.016.018c0 .026-.118.142-.132.128-.006-.006-.01 0-.01.012 0 .014-.014.024-.03.024s-.03.008-.03.018c0 .014-.174.099-.233.113a.547.547 0 0 0-.051.016c-.03.012-.306.069-.365.075-.016.002-.669.01-1.449.018-1.246.01-1.418.016-1.41.043.004.016.01.063.014.101.002.038.014.13.028.203.012.073.026.158.03.193.006.063.043.306.059.395.01.061.055.332.065.405l.028.193c.012.077.026.168.03.203l.03.203c.043.284.067.452.069.501 0 .02.008.036.018.036s.014.018.008.038c-.006.028.004.043.034.051.122.032 3.064 0 3.234-.034l.132-.024c.045-.006.111-.02.148-.032s.081-.016.097-.01c.018.006.024.002.018-.008-.006-.012.004-.02.024-.02.022 0 .134-.032.251-.073.116-.041.223-.073.237-.075.012 0 .024-.008.024-.018 0-.008.018-.016.041-.016s.041-.01.041-.024c0-.012.006-.018.012-.012.016.016.308-.136.336-.176.01-.014.016-.014.016 0s.006.014.016 0a.828.828 0 0 1 .116-.089c.057-.038.126-.095.154-.126.03-.03.061-.051.067-.045.006.008.012 0 .012-.016s.03-.057.067-.091c.075-.071.176-.213.219-.308.014-.034.034-.065.043-.065.01 0 .014-.006.012-.016a.497.497 0 0 1 .043-.156c.034-.061.053-.537.024-.669-.012-.057-.024-.126-.03-.156a.296.296 0 0 0-.032-.095c-.012-.024-.016-.043-.008-.043.006 0 .004-.012-.006-.026a.392.392 0 0 1-.051-.162c.002-.008-.006-.014-.016-.014-.012 0-.02-.014-.02-.032 0-.016-.026-.085-.059-.15s-.055-.124-.047-.13c.006-.006 0-.012-.012-.012-.014 0-.024-.018-.024-.041s-.008-.041-.018-.041c-.016 0-.049-.075-.045-.107.002-.008-.008-.014-.018-.014-.012 0-.02-.012-.02-.026s-.022-.059-.051-.097c-.026-.041-.045-.079-.038-.083.004-.006-.004-.022-.022-.036-.016-.014-.03-.038-.03-.053 0-.016-.01-.028-.022-.028-.01 0-.014-.01-.008-.02.006-.012.004-.02-.008-.02-.01 0-.026-.02-.034-.047a.95.95 0 0 0-.093-.16 1.29 1.29 0 0 1-.091-.152.256.256 0 0 0-.051-.075c-.02-.022-.036-.053-.036-.067s-.01-.026-.022-.026c-.01 0-.016-.008-.01-.018.008-.01.006-.022-.002-.026-.022-.008-.132-.158-.118-.158.006 0-.006-.02-.03-.045-.022-.024-.041-.055-.041-.069 0-.012-.014-.03-.032-.036-.018-.008-.028-.018-.022-.024s-.002-.026-.016-.045a5.624 5.624 0 0 1-.277-.399c-.061-.069-.077-.091-.065-.091.008 0-.006-.016-.028-.038-.024-.02-.045-.045-.045-.055s-.02-.043-.047-.073a3.928 3.928 0 0 1-.095-.128 1.767 1.767 0 0 0-.071-.097c-.012-.014-.043-.059-.071-.099-.028-.043-.057-.077-.065-.077-.01 0-.016-.012-.016-.028s-.006-.032-.014-.036a.676.676 0 0 1-.126-.164c0-.008-.018-.03-.036-.051a.624.624 0 0 1-.111-.142c.004-.002-.006-.018-.02-.032s-.045-.051-.067-.083a3.658 3.658 0 0 0-.203-.255c-.016-.018-.03-.038-.03-.049a.293.293 0 0 0-.055-.081 1.714 1.714 0 0 1-.097-.122 7.23 7.23 0 0 0-.156-.205c-.065-.083-.118-.154-.118-.16s-.016-.026-.034-.047a1.152 1.152 0 0 1-.087-.105 2.821 2.821 0 0 0-.231-.288c-.012-.008-.014-.016-.004-.016s-.002-.016-.024-.038c-.024-.02-.045-.047-.045-.057s-.022-.041-.051-.067c-.028-.026-.047-.051-.043-.055s-.012-.028-.036-.053a1.161 1.161 0 0 1-.083-.103c-.022-.03-.053-.069-.067-.085s-.02-.028-.01-.028c.008 0-.006-.014-.03-.032-.024-.016-.057-.055-.073-.085s-.045-.075-.067-.099c-.087-.101-.107-.128-.107-.138s-.047-.069-.091-.12a1.305 1.305 0 0 1-.091-.124 2.307 2.307 0 0 0-.152-.201 1.656 1.656 0 0 1-.091-.124c-.038-.057-.075-.105-.081-.111s-.034-.043-.061-.081-.055-.075-.061-.081-.034-.043-.061-.081-.059-.081-.071-.095c-.061-.073-.067-.083-.057-.095.008-.006.002-.012-.01-.012s-.043-.036-.067-.081c-.026-.045-.053-.081-.063-.081-.008 0-.016-.014-.016-.03s-.006-.03-.016-.03c-.008 0-.036-.036-.065-.081s-.057-.081-.065-.081c-.01 0-.016-.008-.016-.02 0-.016-.091-.15-.162-.237a.083.083 0 0 1-.02-.047.02.02 0 0 0-.02-.02c-.01 0-.02-.01-.02-.022s-.012-.034-.024-.049c-.061-.067-.077-.091-.077-.111 0-.01-.006-.02-.016-.02-.008 0-.026-.026-.041-.057a.38.38 0 0 0-.065-.101c-.024-.024-.034-.045-.026-.045s.006-.008-.006-.016-.071-.091-.13-.186a3.034 3.034 0 0 0-.136-.205c-.014-.018-.02-.038-.012-.045.006-.008.004-.014-.008-.014-.01 0-.036-.036-.059-.081-.02-.045-.043-.081-.049-.081s-.034-.043-.061-.095a1.12 1.12 0 0 0-.075-.124c-.014-.014-.026-.036-.026-.047v-.028a.178.178 0 0 0-.041-.051c-.024-.024-.036-.051-.03-.061.008-.012.004-.02-.006-.02s-.03-.03-.047-.067c-.014-.034-.03-.069-.036-.075s-.03-.047-.053-.091a.52.52 0 0 0-.071-.113.242.242 0 0 0-.022-.069.229.229 0 0 1-.022-.077c.002-.008-.004-.014-.016-.014-.01 0-.02-.018-.02-.041s-.01-.041-.022-.041c-.012 0-.018-.014-.01-.03.006-.016.004-.03-.006-.03s-.024-.02-.032-.047c-.016-.051-.014-.045-.049-.126a2.134 2.134 0 0 1-.047-.111 1.521 1.521 0 0 0-.047-.101.586.586 0 0 1-.055-.188c.002-.008-.006-.014-.016-.014s-.02-.022-.02-.049c0-.028-.008-.055-.018-.061-.01-.008-.024-.049-.032-.093s-.022-.085-.03-.091c-.01-.006-.014-.028-.01-.051s0-.045-.012-.051c-.01-.008-.018-.043-.018-.077 0-.085-.02-.156-.043-.156-.01 0-.016.008-.012.016zm7.542.144c-.006.006-.036.012-.069.014-.067.006-.334.107-.342.134a.033.033 0 0 1-.026.016c-.03 0-.162.093-.15.105.006.006-.004.022-.024.038-.03.024-.032.024-.018-.002.02-.041-.107.095-.17.18-.028.038-.049.077-.045.087.002.008-.004.016-.012.016-.01 0-.036.036-.063.081-.024.045-.038.081-.03.081.006 0 0 .02-.016.045-.089.138-.111.492-.049.756.028.12.132.334.16.334.012 0 .014.006.008.014-.016.014.107.17.213.265.12.107.288.211.381.231.016.004.034.012.041.02s.034.018.061.024c.028.006.073.016.101.024.148.038.648-.004.648-.057 0-.01.01-.012.02-.006.012.006.049-.006.081-.03.034-.024.061-.038.061-.032 0 .008.051-.02.111-.061s.111-.083.111-.095c0-.012.006-.016.012-.008.014.014.101-.071.095-.091-.004-.01.008-.016.024-.016s.03-.008.03-.016a.29.29 0 0 1 .061-.085c.034-.036.061-.079.061-.093 0-.012.014-.034.03-.049.016-.012.028-.03.026-.036-.002-.008.006-.034.02-.061.014-.024.02-.045.012-.045-.006 0-.004-.012.006-.026a.245.245 0 0 0 .036-.085l.024-.101a1.569 1.569 0 0 0-.016-.517c-.055-.201-.063-.223-.081-.223-.01 0-.016-.008-.014-.016.008-.024-.071-.166-.091-.166-.008 0-.012-.008-.006-.018.016-.024-.199-.243-.312-.318a1.426 1.426 0 0 0-.466-.203c-.085-.016-.421-.024-.436-.01zm.421.172c.118.018.274.089.409.186.278.195.428.474.446.819a1.04 1.04 0 0 1-.494.969.971.971 0 0 1-.58.174c-.351.012-.729-.186-.906-.474a.511.511 0 0 0-.065-.085c-.012-.008-.016-.016-.006-.016.008 0 0-.022-.016-.049-.103-.156-.134-.557-.061-.772.089-.261.257-.474.482-.618.053-.032.099-.061.105-.061a1.241 1.241 0 0 1 .685-.073z"/><path d="M14.077 2.164c-.032.006-.034.071-.034.715v.707h.132c.111 0 .132-.006.134-.036l.002-.304.002-.267h.267l.146.304.144.302h.134a.553.553 0 0 0 .142-.014 2.293 2.293 0 0 0-.142-.318c-.136-.278-.172-.363-.138-.328.02.02.154-.057.213-.122.136-.146.118-.411-.036-.525-.059-.045-.188-.095-.188-.075 0 .006-.012.002-.024-.008a.305.305 0 0 0-.128-.024c-.19-.008-.592-.012-.624-.006zm.697.213c.118.053.162.217.087.332-.041.063-.18.099-.379.097l-.166-.002-.002-.221a1.818 1.818 0 0 1 .006-.237c.014-.026.379-.002.454.03zm-4.162 14.271c-.004.004-.389.03-.561.038a14.68 14.68 0 0 0-.689.061 4.019 4.019 0 0 1-.192.02 3.819 3.819 0 0 0-.325.04c-.099.01-.217.026-.324.045a1.604 1.604 0 0 1-.122.016.165.165 0 0 0-.061.012.398.398 0 0 1-.091.016.877.877 0 0 0-.15.024c-.043.012-.083.016-.089.01s-.02-.004-.032.006a.388.388 0 0 1-.113.028c-.13.018-.19.03-.395.075-.099.022-.203.047-.227.051-.026.006-.067.014-.091.022l-.087.018a1.106 1.106 0 0 0-.109.028c-.038.012-.075.016-.085.012-.008-.006-.02-.002-.026.008a.368.368 0 0 1-.176.036c-.006-.002-.026.008-.045.024-.02.014-.034.022-.034.016s-.032.002-.073.018-.077.026-.083.02c-.006-.004-.038.004-.077.018-.036.016-.071.022-.079.016-.006-.008-.012-.002-.012.01s-.018.018-.041.014c-.022-.004-.041.002-.041.014 0 .01-.012.016-.028.01a.05.05 0 0 0-.045.004.453.453 0 0 1-.12.043.42.42 0 0 0-.126.047c-.014.01-.026.012-.026.004s-.014-.004-.03.01-.03.02-.03.014c0-.01-.31.095-.492.166-.032.012-.065.018-.075.012-.008-.006-.026.002-.038.018-.014.016-.049.034-.079.043s-.081.024-.116.041a1.612 1.612 0 0 1-.156.061l-.026.01-.024.008a4.92 4.92 0 0 0-.259.113.746.746 0 0 1-.176.065c-.01-.002-.016.004-.016.016s-.006.018-.014.016a1.116 1.116 0 0 0-.272.132.034.034 0 0 1-.026.016c-.006-.002-.016 0-.022 0l-.024.006c-.01.002-.057.026-.107.053s-.097.047-.105.045c-.01-.002-.016.006-.016.016 0 .012-.014.02-.032.02a.253.253 0 0 0-.099.053.358.358 0 0 1-.081.051c-.012-.004-.085.034-.192.099a.853.853 0 0 1-.105.053c-.02.008-.036.022-.036.032s-.01.012-.02.006c-.012-.006-.026.002-.032.018-.006.018-.02.028-.028.022s-.026.004-.041.02-.032.024-.043.018c-.01-.006-.018 0-.018.012s-.016.028-.034.034a1.954 1.954 0 0 0-.284.18c-.014.014-.036.028-.049.032s-.02.022-.016.041c.008.028.022.026.109-.018a.918.918 0 0 1 .148-.059c.024-.004.077-.026.116-.049s.071-.034.071-.028c0 .008.012.004.024-.006a.779.779 0 0 1 .128-.055c.057-.02.132-.051.168-.067s.085-.03.105-.032c.022-.002.041-.008.041-.016s.03-.02.067-.028a1.31 1.31 0 0 0 .075-.02c.065-.024.274-.091.314-.099.079-.016.101-.022.111-.032.006-.006.079-.028.162-.049s.166-.041.182-.047a.714.714 0 0 1 .132-.034.523.523 0 0 0 .071-.018.334.334 0 0 1 .081-.022c.028-.006.069-.014.091-.02a11.269 11.269 0 0 1 .496-.103 1.49 1.49 0 0 1 .101-.02l.122-.02c.174-.034.201-.041.365-.063.061-.008.134-.018.162-.02s.051-.006.051-.008.036-.008.081-.01c.045-.004.111-.014.152-.022a2.38 2.38 0 0 1 .316-.036c.047-.004.138-.014.203-.022s.17-.018.231-.022.162-.01.225-.016c.533-.043 2.199-.059 2.652-.026.105.008.288.018.405.024.292.014.458.024.577.038l.263.024c.243.018.298.024.375.036.038.006.13.016.203.022s.154.014.182.018l.172.02c.067.008.154.02.192.026l.122.016c.243.028.43.055.507.071.051.01.138.024.192.032.057.006.128.016.162.02a.643.643 0 0 1 .095.02c.02.006.075.016.124.022.047.004.099.012.116.014l.253.045c.022.006.077.014.122.02.045.008.095.02.113.03.018.008.038.012.045.004.006-.006.028-.004.049.004s.059.018.087.02c.028.002.097.016.152.028.057.014.132.028.17.034a.394.394 0 0 1 .081.016.347.347 0 0 0 .093.02c.045.008.128.026.186.041a.34.34 0 0 0 .116.018c.006-.006.022-.002.036.01s.032.02.043.02a1.67 1.67 0 0 1 .278.059.457.457 0 0 1 .111.026c0 .002.022.006.051.01s.105.018.172.034a.748.748 0 0 0 .148.024l.041-.006c.036-.004.103-.077.116-.126.006-.026.014-.118.018-.203s.014-.166.022-.18c.018-.028.209-.014.274.02.022.012.041.016.041.008 0-.006.012-.004.026.008s.049.026.075.032c.028.004.105.024.172.043.15.043.34.053.421.024.144-.049.211-.158.235-.379.012-.103.018-.113.085-.148.105-.051.274-.065.764-.063.391 0 .43-.002.43-.034 0-.022-.028-.041-.095-.059-.13-.034-.12-.032-.28-.081a1.189 1.189 0 0 0-.176-.045c-.02.002-.036-.006-.036-.018 0-.01-.006-.016-.014-.014a.693.693 0 0 1-.199-.041.123.123 0 0 0-.051-.016.945.945 0 0 1-.14-.034.402.402 0 0 0-.126-.024c-.008.006-.02.002-.028-.01-.006-.01-.032-.02-.059-.02-.024 0-.053-.006-.061-.016a.082.082 0 0 0-.028-.016 2.189 2.189 0 0 1-.307-.067.285.285 0 0 0-.071-.014c-.032-.006-.075-.014-.091-.022-.016-.006-.057-.014-.089-.018s-.069-.018-.083-.028c-.014-.01-.03-.014-.036-.008-.006.008-.028.006-.049-.002-.02-.01-.051-.018-.067-.02s-.053-.01-.081-.016a.912.912 0 0 0-.101-.022l-.101-.02c-.028-.006-.083-.018-.122-.024l-.101-.02c-.29-.059-.65-.128-.729-.14l-.193-.03a4.114 4.114 0 0 0-.203-.032 2.968 2.968 0 0 1-.192-.028c-.134-.024-.184-.03-.344-.051l-.172-.02a5.075 5.075 0 0 1-.334-.042 1.152 1.152 0 0 0-.152-.018l-.182-.016a8.117 8.117 0 0 0-.263-.022l-.284-.024c-.067-.008-.182-.016-.255-.018s-.237-.012-.365-.02a48.637 48.637 0 0 0-1.807-.018z"/></svg>