<?xml version="1.0" encoding="UTF-8" standalone="no"?>
<svg
   xml:space="preserve"
   width="2043"
   height="464"
   shape-rendering="geometricPrecision"
   text-rendering="geometricPrecision"
   image-rendering="optimizeQuality"
   fill-rule="evenodd"
   clip-rule="evenodd"
   viewBox="0 0 2041.21 463.27"
   version="1.1"
   id="svg51"
   sodipodi:docname="logo.svg"
   inkscape:export-filename="logo.svg"
   inkscape:export-xdpi="14.096916"
   inkscape:export-ydpi="14.096916"
   xmlns:inkscape="http://www.inkscape.org/namespaces/inkscape"
   xmlns:sodipodi="http://sodipodi.sourceforge.net/DTD/sodipodi-0.dtd"
   xmlns="http://www.w3.org/2000/svg"
   xmlns:svg="http://www.w3.org/2000/svg"><sodipodi:namedview
     id="namedview53"
     pagecolor="#ffffff"
     bordercolor="#000000"
     borderopacity="0.25"
     inkscape:showpageshadow="2"
     inkscape:pageopacity="0.0"
     inkscape:pagecheckerboard="0"
     inkscape:deskcolor="#d1d1d1"
     showgrid="false" /><defs
     id="defs37"><linearGradient
       id="a"
       gradientUnits="userSpaceOnUse"
       x1="1014.73"
       y1="463.26999"
       x2="1014.73"
       y2="0"><stop
         offset="0"
         stop-color="#005478"
         id="stop32" /><stop
         offset="1"
         stop-color="#00A0E3"
         id="stop34" /></linearGradient></defs><path
     fill="url(#a)"
     d="M 13.85,463.27 H 84.51 V 85.72 C 84.51,78.1 78.34,71.93 70.66,71.93 H 27.65 V 27.64 H 154.8 v 435.63 h 121.18 v -34.73 c -20.81,-9.07 -30.43,-26.98 -30.43,-55.11 V 89.17 c 0,-28.62 8.29,-61.53 73.14,-61.53 h 84.93 c 50.15,0 72.47,19 72.47,61.53 v 284.26 c 0,28.25 -9.62,46.22 -30.42,55.24 v 34.6 h 1569.99 c 7.62,0 13.79,-6.17 13.79,-13.86 0,-7.62 -6.17,-13.79 -13.79,-13.79 H 482.99 c 16.09,-17.54 20.75,-40.95 20.75,-62.19 V 89.17 C 503.74,48.52 486.38,0 403.62,0 H 318.69 C 235.38,0 217.9,48.52 217.9,89.17 v 284.26 c 0,21.24 4.72,44.65 20.93,62.19 H 182.45 V 13.85 C 182.45,6.17 176.28,0 168.6,0 H 13.85 A 13.81,13.81 0 0 0 0,13.85 V 85.72 C 0,93.4 6.17,99.57 13.85,99.57 H 56.86 V 435.62 H 13.85 C 6.17,435.62 0,441.79 0,449.41 c 0,7.69 6.17,13.86 13.85,13.86 z m 334.3,-71.93 h 25.34 c 19.97,0 32.31,-11.86 32.31,-30.91 V 102.9 c 0,-19.12 -12.34,-30.97 -32.31,-30.97 h -25.34 c -19.9,0 -32.31,11.85 -32.31,30.97 v 257.53 c 0,19.05 12.41,30.91 32.31,30.91 z m -4.66,-30.91 V 102.9 c 0,-1.75 0.24,-2.6 0.18,-2.72 0.48,-0.18 1.88,-0.61 4.48,-0.61 h 25.34 c 2.91,0 4.3,0.49 4.3,0.37 0,0 0.36,0.78 0.36,2.96 v 257.53 c 0,1.69 -0.24,2.54 -0.18,2.66 -0.48,0.18 -1.87,0.6 -4.48,0.6 h -25.34 c -2.54,0 -3.94,-0.36 -4.18,-0.36 h -0.12 c 0,0 -0.36,-0.73 -0.36,-2.9 z"
     id="path39"
     style="fill:url(#a)" /><path
     fill="#00a0e3"
     d="m 1796.8,272.03 c 0,5.33 -0.67,10.12 -2.02,14.38 -1.35,4.3 -3.13,8.03 -5.33,11.29 -2.23,3.27 -4.83,6.04 -7.81,8.35 -2.98,2.27 -6.07,4.15 -9.27,5.61 a 47.07,47.07 0 0 1 -9.73,3.23 c -3.3,0.68 -6.39,1.03 -9.3,1.03 h -104.37 v -27.06 h 104.37 c 5.18,0 9.23,-1.52 12.11,-4.58 2.87,-3.05 4.33,-7.13 4.33,-12.25 0,-2.52 -0.39,-4.79 -1.13,-6.89 -0.79,-2.05 -1.89,-3.87 -3.31,-5.39 -1.42,-1.53 -3.16,-2.7 -5.18,-3.56 -2.06,-0.81 -4.33,-1.24 -6.82,-1.24 h -62.21 c -4.37,0 -9.1,-0.78 -14.14,-2.34 -5.08,-1.57 -9.76,-4.05 -14.1,-7.53 -4.36,-3.48 -7.95,-8.03 -10.82,-13.63 -2.88,-5.62 -4.34,-12.47 -4.34,-20.6 0,-8.13 1.46,-14.95 4.34,-20.56 2.87,-5.58 6.45,-10.12 10.82,-13.6 4.34,-3.52 9.02,-6.04 14.1,-7.6 5.04,-1.57 9.77,-2.34 14.14,-2.34 h 92.07 v 27.02 h -92.07 c -5.15,0 -9.13,1.56 -12.01,4.68 -2.87,3.13 -4.33,7.25 -4.33,12.4 0,5.18 1.45,9.3 4.33,12.32 2.88,3.02 6.85,4.54 12.01,4.54 h 62.43 c 2.91,0.07 6,0.47 9.23,1.18 3.27,0.74 6.53,1.88 9.73,3.37 3.23,1.53 6.32,3.48 9.23,5.79 2.91,2.34 5.5,5.11 7.74,8.38 2.24,3.26 4.05,6.99 5.36,11.22 1.32,4.23 1.96,9.02 1.96,14.38 z m -151.24,-105.29 -24.97,139.81 c -0.57,2.76 -1.81,5.18 -3.76,7.17 -1.96,2.03 -4.3,3.3 -7.07,3.87 -2.84,0.5 -5.54,0.18 -8.06,-0.92 -2.56,-1.14 -4.54,-2.88 -6,-5.22 l -49.5,-81.36 -49.65,81.36 a 12.108,12.108 0 0 1 -4.83,4.69 13.698,13.698 0 0 1 -6.6,1.66 c -3.27,0 -6.15,-1.06 -8.63,-3.12 -2.49,-2.1 -4.01,-4.8 -4.58,-8.13 l -25.18,-139.81 h 27.45 l 17.9,98.5 42.68,-68.04 a 12.49,12.49 0 0 1 4.83,-4.68 c 2.03,-1.1 4.23,-1.67 6.61,-1.67 2.34,0 4.54,0.57 6.53,1.67 2.03,1.13 3.7,2.7 5.01,4.68 l 42.43,68.04 17.9,-98.5 z m -353.74,137.64 c 0,1.92 -0.39,3.73 -1.1,5.4 -0.75,1.67 -1.71,3.13 -2.92,4.33 -1.2,1.21 -2.66,2.17 -4.33,2.84 -1.66,0.71 -3.4,1.07 -5.29,1.07 -1.67,0 -3.34,-0.32 -5.04,-0.96 -1.7,-0.6 -3.23,-1.63 -4.54,-3.02 l -98.83,-103.19 v 105.07 h -27.06 V 178.29 c 0,-2.77 0.78,-5.29 2.34,-7.53 1.57,-2.28 3.56,-3.95 6.01,-5.04 2.55,-1.07 5.18,-1.32 7.88,-0.79 2.73,0.5 5.04,1.78 7,3.77 l 98.82,103.12 V 166.75 h 27.06 v 137.64 z m 21.64,-75.61 h 115.12 c 1.92,0 3.47,0.95 3.47,2.13 v 23.12 c 0,1.18 -1.55,2.14 -3.47,2.14 h -115.12 c -1.92,0 -3.47,-0.96 -3.47,-2.14 V 230.9 c 0,-1.18 1.55,-2.13 3.47,-2.13 z m 0,62.15 h 115.12 c 1.92,-0.01 3.47,0.95 3.47,2.13 v 23.12 c 0,1.18 -1.55,2.13 -3.47,2.13 h -115.12 c -1.92,0 -3.47,-0.95 -3.47,-2.13 v -23.12 c 0,-1.18 1.55,-2.14 3.47,-2.14 z m 0,-122.06 h 115.12 c 1.92,0 3.47,0.95 3.47,2.13 v 23.12 c 0,1.18 -1.55,2.13 -3.47,2.13 h -115.12 c -1.92,0 -3.47,-0.95 -3.47,-2.13 v -23.12 c 0,-1.18 1.55,-2.13 3.47,-2.13 z"
     id="path41" /><path
     fill="#ed3237"
     d="m 700.9,228.77 h 115.12 c 1.92,0 3.48,0.95 3.48,2.13 v 23.12 c 0,1.18 -1.56,2.14 -3.47,2.14 H 700.9 c -1.91,0 -3.47,-0.96 -3.47,-2.14 V 230.9 c 0,-1.18 1.56,-2.13 3.48,-2.13 z m -0.01,62.15 h 115.12 c 1.92,-0.01 3.48,0.95 3.48,2.13 v 23.12 c 0,1.18 -1.56,2.13 -3.47,2.13 H 700.89 c -1.91,0 -3.47,-0.95 -3.47,-2.13 v -23.12 c 0,-1.18 1.56,-2.14 3.48,-2.14 z M 700.88,168.86 H 816 c 1.92,0 3.48,0.95 3.48,2.13 v 23.12 c 0,1.18 -1.56,2.13 -3.47,2.13 H 700.88 c -1.91,0 -3.47,-0.95 -3.47,-2.13 v -23.12 c 0,-1.18 1.56,-2.13 3.48,-2.13 z m 424.84,24.92 h -59.59 v 122.15 h -27.05 V 193.78 h -59.73 v -27.03 h 146.37 z m -141.2,78.26 c 0,5.33 -0.67,10.12 -2.02,14.38 -1.35,4.3 -3.12,8.03 -5.33,11.29 -2.23,3.27 -4.83,6.04 -7.81,8.35 -2.98,2.27 -6.07,4.15 -9.27,5.61 a 47.07,47.07 0 0 1 -9.73,3.23 c -3.3,0.68 -6.39,1.03 -9.3,1.03 H 836.69 v -27.06 h 104.37 c 5.18,0 9.23,-1.52 12.11,-4.58 2.87,-3.05 4.33,-7.13 4.33,-12.25 0,-2.52 -0.39,-4.79 -1.14,-6.89 -0.78,-2.05 -1.88,-3.87 -3.3,-5.39 -1.42,-1.53 -3.16,-2.7 -5.19,-3.56 -2.05,-0.81 -4.33,-1.24 -6.81,-1.24 h -62.22 c -4.37,0 -9.09,-0.78 -14.13,-2.34 -5.08,-1.57 -9.76,-4.05 -14.1,-7.53 -4.36,-3.48 -7.95,-8.03 -10.83,-13.63 -2.87,-5.62 -4.33,-12.47 -4.33,-20.6 0,-8.13 1.46,-14.95 4.33,-20.56 2.88,-5.58 6.47,-10.12 10.83,-13.6 4.33,-3.52 9.02,-6.04 14.1,-7.6 5.05,-1.57 9.76,-2.34 14.13,-2.34 h 92.08 v 27.02 h -92.08 c -5.14,0 -9.12,1.56 -12,4.68 -2.87,3.13 -4.33,7.25 -4.33,12.4 0,5.18 1.46,9.3 4.33,12.32 2.88,3.02 6.86,4.54 12,4.54 h 62.43 c 2.92,0.07 6,0.47 9.23,1.18 3.27,0.74 6.54,1.88 9.74,3.37 3.23,1.53 6.32,3.48 9.23,5.79 2.91,2.34 5.5,5.11 7.74,8.38 2.24,3.26 4.05,6.99 5.36,11.22 1.32,4.23 1.96,9.02 1.96,14.38 z m -325.22,5.93 c 0,-3.55 -0.57,-6.71 -1.67,-9.52 -1.1,-2.8 -2.66,-5.22 -4.68,-7.24 -2,-2.03 -4.44,-3.55 -7.28,-4.62 -2.84,-1.1 -6.04,-1.63 -9.56,-1.63 h -60.97 v -27.24 h 48.79 c 3.55,0 6.72,-0.56 9.56,-1.63 2.87,-1.07 5.28,-2.62 7.31,-4.62 1.99,-2.02 3.55,-4.43 4.62,-7.24 1.06,-2.8 1.6,-5.96 1.6,-9.51 v -5.08 c 0,-3.91 -1.85,-5.86 -5.61,-5.86 h -77.1 v 95.09 h 89.28 c 0.49,0 1.06,-0.03 1.77,-0.1 0.67,-0.07 1.31,-0.29 1.88,-0.61 0.53,-0.35 1.03,-0.95 1.46,-1.77 0.39,-0.82 0.6,-1.99 0.6,-3.45 z m 27.06,5.18 c 0,3.34 -0.57,6.89 -1.74,10.73 -1.14,3.8 -3.02,7.35 -5.61,10.61 -2.6,3.27 -5.97,5.97 -10.12,8.17 -4.19,2.17 -9.27,3.27 -15.31,3.27 H 550.89 c -1.92,0 -3.73,-0.35 -5.4,-1.03 -1.67,-0.71 -3.09,-1.67 -4.33,-2.88 a 13.002,13.002 0 0 1 -2.84,-4.3 c -0.71,-1.66 -1.03,-3.48 -1.03,-5.43 v -121.9 c 0,-1.88 0.32,-3.66 1.03,-5.33 0.67,-1.67 1.63,-3.13 2.84,-4.37 1.24,-1.24 2.66,-2.2 4.33,-2.91 1.67,-0.67 3.48,-1.03 5.4,-1.03 h 90.52 c 3.33,0 6.92,0.57 10.72,1.78 3.8,1.17 7.35,3.05 10.65,5.64 3.3,2.63 6.04,6 8.24,10.16 2.16,4.15 3.27,9.27 3.27,15.3 v 5.08 c 0,4.79 -0.79,9.94 -2.38,15.45 -1.6,5.54 -4.19,10.72 -7.71,15.66 3.05,1.88 5.89,4.12 8.56,6.78 2.7,2.63 5.04,5.68 7.03,9.13 2.02,3.48 3.62,7.39 4.79,11.75 1.17,4.37 1.78,9.2 1.78,14.49 z"
     id="path43" /><path
     fill="#00a0e3"
     d="m 1823.63,166.73 h 211.43 c 3.39,0 6.15,7.51 6.15,16.78 v 116.33 c 0,9.27 -2.76,16.78 -6.15,16.78 h -211.43 c -3.39,0 -6.14,-7.51 -6.14,-16.78 V 183.51 c 0,-9.27 2.75,-16.78 6.14,-16.78 z m 150.72,117.76 h 48.77 v 11.68 h -66.18 v -10.52 l 46.01,-60.97 h -45.32 v -11.84 h 63.2 v 10.13 z m -70.12,-26.9 -8.94,9.31 v 29.27 h -14.26 V 177.81 h 14.26 v 71.62 l 7.62,-9.18 25.97,-27.41 h 17.36 l -32.46,34.8 36.22,48.53 h -16.73 z m -64.5,31.09 c 0,-2.47 0.74,-4.5 2.19,-6.16 1.47,-1.63 3.68,-2.44 6.6,-2.44 2.92,0 5.15,0.81 6.65,2.44 1.53,1.66 2.29,3.69 2.29,6.16 0,2.34 -0.76,4.31 -2.29,5.92 -1.5,1.57 -3.73,2.36 -6.65,2.36 -2.92,0 -5.13,-0.79 -6.6,-2.36 -1.45,-1.61 -2.19,-3.58 -2.19,-5.92 z"
     id="path45" /><path
     fill="#ed3237"
     d="m 1678.83,397.71 c 0,-1.34 -0.68,-2.4 -2,-3.17 -1.34,-0.77 -3.47,-1.46 -6.41,-2.07 -9.79,-2.05 -14.68,-6.22 -14.68,-12.47 0,-3.66 1.52,-6.71 4.54,-9.15 3.04,-2.45 7,-3.68 11.89,-3.68 5.22,0 9.39,1.24 12.52,3.69 3.13,2.47 4.7,5.66 4.7,9.59 h -10.99 c 0,-1.57 -0.51,-2.85 -1.52,-3.88 -1.01,-1.03 -2.59,-1.53 -4.75,-1.53 -1.85,0 -3.28,0.41 -4.3,1.25 -1.01,0.84 -1.51,1.9 -1.51,3.19 0,1.2 0.57,2.19 1.72,2.93 1.16,0.75 3.1,1.4 5.84,1.93 2.74,0.55 5.04,1.17 6.92,1.85 5.8,2.12 8.71,5.82 8.71,11.07 0,3.75 -1.61,6.78 -4.83,9.11 -3.22,2.32 -7.38,3.47 -12.47,3.47 -3.45,0 -6.52,-0.61 -9.19,-1.84 -2.67,-1.23 -4.76,-2.92 -6.29,-5.06 -1.52,-2.14 -2.27,-4.45 -2.27,-6.94 h 10.4 c 0.11,1.96 0.83,3.45 2.17,4.5 1.35,1.04 3.15,1.56 5.4,1.56 2.1,0 3.7,-0.4 4.77,-1.2 1.08,-0.8 1.63,-1.85 1.63,-3.15 z m 29.34,11.36 h -11.02 v -41.12 h 11.02 z m -11.67,-51.73 c 0,-1.64 0.55,-3 1.65,-4.06 1.1,-1.07 2.61,-1.6 4.52,-1.6 1.86,0 3.36,0.53 4.47,1.6 1.12,1.06 1.68,2.42 1.68,4.06 0,1.67 -0.56,3.05 -1.69,4.11 -1.13,1.07 -2.62,1.6 -4.46,1.6 -1.86,0 -3.35,-0.53 -4.48,-1.6 -1.13,-1.06 -1.69,-2.44 -1.69,-4.11 z m 30.83,10.61 0.35,4.75 c 2.94,-3.68 6.88,-5.53 11.83,-5.53 4.36,0 7.6,1.29 9.73,3.85 2.13,2.55 3.22,6.38 3.27,11.47 v 26.58 h -10.99 v -26.36 c 0,-2.32 -0.51,-4.02 -1.52,-5.08 -1.01,-1.05 -2.7,-1.58 -5.06,-1.58 -3.09,0 -5.41,1.32 -6.96,3.96 v 29.06 h -10.99 v -41.12 z m 50.59,33.02 c 2.02,0 3.67,-0.56 4.94,-1.68 1.28,-1.1 1.92,-2.58 1.98,-4.43 h 10.3 c -0.02,2.79 -0.78,5.34 -2.28,7.67 -1.49,2.32 -3.53,4.11 -6.14,5.39 -2.6,1.29 -5.46,1.92 -8.61,1.92 -5.87,0 -10.52,-1.86 -13.92,-5.6 -3.39,-3.74 -5.09,-8.9 -5.09,-15.5 v -0.72 c 0,-6.35 1.69,-11.4 5.06,-15.17 3.36,-3.78 8,-5.68 13.88,-5.68 5.14,0 9.26,1.47 12.36,4.39 3.12,2.93 4.69,6.83 4.74,11.71 h -10.3 c -0.06,-2.14 -0.7,-3.88 -1.98,-5.22 -1.27,-1.34 -2.94,-2 -5.02,-2 -2.55,0 -4.49,0.94 -5.8,2.79 -1.3,1.87 -1.95,4.89 -1.95,9.08 v 1.14 c 0,4.24 0.64,7.27 1.94,9.13 1.3,1.86 3.26,2.78 5.89,2.78 z m 42.47,8.87 c -6.03,0 -10.95,-1.85 -14.74,-5.55 -3.79,-3.7 -5.68,-8.63 -5.68,-14.79 v -1.07 c 0,-4.12 0.8,-7.82 2.4,-11.08 1.6,-3.26 3.85,-5.78 6.79,-7.53 2.93,-1.76 6.27,-2.65 10.02,-2.65 5.63,0 10.05,1.78 13.28,5.33 3.24,3.55 4.84,8.59 4.84,15.1 v 4.49 h -26.18 c 0.35,2.69 1.42,4.83 3.2,6.45 1.79,1.62 4.05,2.43 6.79,2.43 4.24,0 7.54,-1.53 9.93,-4.58 l 5.39,6.04 c -1.64,2.33 -3.88,4.16 -6.69,5.45 -2.8,1.32 -5.93,1.96 -9.35,1.96 z m -1.25,-33.79 c -2.18,0 -3.95,0.74 -5.31,2.22 -1.35,1.48 -2.22,3.59 -2.6,6.35 h 15.28 v -0.89 c -0.05,-2.44 -0.7,-4.33 -1.98,-5.67 -1.27,-1.33 -3.06,-2.01 -5.39,-2.01 z m 81.27,33.02 h -37.94 v -7.54 l 17.91,-19.09 c 2.45,-2.69 4.27,-5.03 5.45,-7.04 1.18,-2 1.76,-3.89 1.76,-5.7 0,-2.45 -0.62,-4.38 -1.85,-5.78 -1.25,-1.42 -3.03,-2.12 -5.32,-2.12 -2.5,0 -4.46,0.86 -5.88,2.57 -1.43,1.7 -2.16,3.95 -2.16,6.74 h -11.02 c 0,-3.38 0.81,-6.45 2.42,-9.24 1.61,-2.79 3.88,-4.98 6.82,-6.57 2.94,-1.58 6.27,-2.37 10,-2.37 5.71,0 10.13,1.37 13.29,4.11 3.15,2.74 4.73,6.61 4.73,11.59 0,2.74 -0.71,5.53 -2.13,8.37 -1.41,2.84 -3.85,6.15 -7.3,9.93 l -12.58,13.26 h 23.8 z m 43.98,-22.9 c 0,7.67 -1.58,13.53 -4.75,17.59 -3.16,4.06 -7.81,6.08 -13.91,6.08 -6.03,0 -10.65,-1.98 -13.84,-5.97 -3.2,-3.98 -4.83,-9.69 -4.91,-17.13 v -10.18 c 0,-7.75 1.61,-13.62 4.81,-17.63 3.21,-4 7.83,-6 13.86,-6 6.03,0 10.65,1.98 13.84,5.95 3.19,3.97 4.82,9.67 4.9,17.11 z m -10.99,-11.2 c 0,-4.59 -0.62,-7.94 -1.88,-10.03 -1.25,-2.09 -3.21,-3.14 -5.87,-3.14 -2.59,0 -4.5,1 -5.72,2.99 -1.23,1.99 -1.88,5.11 -1.96,9.34 v 13.48 c 0,4.52 0.61,7.87 1.84,10.06 1.24,2.19 3.21,3.3 5.92,3.3 2.69,0 4.62,-1.05 5.82,-3.16 1.19,-2.11 1.8,-5.33 1.85,-9.66 z m 45.08,34.1 h -10.99 v -42.44 l -13.12,4.05 v -8.88 l 22.93,-8.17 h 1.18 z m 55.93,0 h -37.94 v -7.54 l 17.91,-19.09 c 2.45,-2.69 4.27,-5.03 5.45,-7.04 1.18,-2 1.76,-3.89 1.76,-5.7 0,-2.45 -0.62,-4.38 -1.85,-5.78 -1.25,-1.42 -3.02,-2.12 -5.32,-2.12 -2.49,0 -4.45,0.86 -5.88,2.57 -1.43,1.7 -2.16,3.95 -2.16,6.74 h -11.01 c 0,-3.38 0.8,-6.45 2.41,-9.24 1.61,-2.79 3.88,-4.98 6.83,-6.57 2.93,-1.58 6.26,-2.37 9.99,-2.37 5.71,0 10.13,1.37 13.29,4.11 3.15,2.74 4.73,6.61 4.73,11.59 0,2.74 -0.71,5.53 -2.12,8.37 -1.42,2.84 -3.86,6.15 -7.31,9.93 l -12.57,13.26 h 23.79 z"
     id="path47" /><path
     fill="#005478"
     fill-rule="nonzero"
     d="m 605.84,35.47 v 78.48 h -8.72 v -70.9 h -32.16 l -1.36,29.33 c -0.59,10.85 -1.68,19.15 -3.27,24.87 -1.61,5.72 -3.96,9.93 -7.11,12.63 -3.15,2.7 -7.33,4.07 -12.56,4.07 h -3.34 v -7.73 l 2.67,-0.15 c 5.01,-0.1 8.57,-2.5 10.75,-7.26 2.18,-4.73 3.62,-13.18 4.29,-25.37 l 1.58,-37.97 z m 70.47,79.96 c -6.69,0 -12.71,-1.63 -18.11,-4.93 -5.4,-3.29 -9.58,-7.88 -12.58,-13.77 -3,-5.87 -4.51,-12.46 -4.51,-19.77 v -3.12 c 0,-7.56 1.46,-14.34 4.38,-20.41 2.93,-6.05 7.02,-10.8 12.24,-14.25 5.23,-3.47 10.88,-5.2 16.97,-5.2 9.54,0 17.09,3.25 22.69,9.76 5.6,6.52 8.38,15.41 8.38,26.71 v 4.85 h -56.01 v 1.66 c 0,8.92 2.55,16.35 7.65,22.3 5.1,5.91 11.52,8.89 19.27,8.89 4.63,0 8.75,-0.84 12.29,-2.55 3.57,-1.71 6.79,-4.44 9.68,-8.18 l 5.45,4.14 c -6.39,9.24 -15.65,13.87 -27.79,13.87 z M 674.7,41.41 c -6.51,0 -12.01,2.41 -16.5,7.19 -4.48,4.78 -7.21,11.19 -8.17,19.27 h 47.11 v -0.94 c -0.24,-7.53 -2.4,-13.68 -6.46,-18.41 -4.06,-4.73 -9.39,-7.11 -15.98,-7.11 z m 120.27,1.49 h -28.59 v 71.05 h -8.69 V 42.9 h -27.53 v -7.43 h 64.81 z m 104.21,71.05 V 35.47 h 28.81 c 9.96,0 17.61,1.78 22.94,5.32 5.33,3.57 7.98,8.77 7.98,15.64 0,3.91 -1.19,7.4 -3.57,10.47 -2.35,3.08 -5.82,5.31 -10.38,6.69 5.15,0.99 9.26,3.17 12.39,6.62 3.12,3.44 4.68,7.43 4.68,11.96 0,6.94 -2.55,12.29 -7.66,16.08 -5.1,3.79 -12.33,5.7 -21.67,5.7 z m 8.62,-36.12 v 28.83 h 25.19 c 6.54,0 11.57,-1.26 15.09,-3.76 3.54,-2.5 5.3,-6.15 5.3,-10.88 0,-4.33 -1.76,-7.8 -5.3,-10.35 -3.52,-2.55 -8.55,-3.84 -15.09,-3.84 z m 0,-7.29 h 22 c 13.65,-0.19 20.46,-4.83 20.46,-13.89 0,-4.78 -1.86,-8.25 -5.62,-10.46 -3.74,-2.2 -9.29,-3.29 -16.65,-3.29 H 907.8 Z m 160.72,36.12 3.87,-5 c 6.09,-8.28 9.58,-20.36 10.5,-36.29 l 1.39,-29.9 h 46.37 v 71.19 h 8.12 v 30.32 h -8.62 v -23.03 h -59 v 23.03 h -8.35 l 0.07,-30.32 z m 10.01,0 h 43.4 V 43.64 h -29.38 l -0.94,20.39 c -0.87,18.7 -5.23,32.92 -13.08,42.63 z m 124.2,8.77 c -6.68,0 -12.7,-1.63 -18.1,-4.93 -5.41,-3.29 -9.59,-7.88 -12.59,-13.77 -3,-5.87 -4.51,-12.46 -4.51,-19.77 v -3.12 c 0,-7.56 1.46,-14.34 4.39,-20.41 2.92,-6.05 7.01,-10.8 12.23,-14.25 5.23,-3.47 10.88,-5.2 16.97,-5.2 9.54,0 17.1,3.25 22.69,9.76 5.6,6.52 8.38,15.41 8.38,26.71 v 4.85 h -56.01 v 1.66 c 0,8.92 2.55,16.35 7.65,22.3 5.11,5.91 11.52,8.89 19.27,8.89 4.64,0 8.75,-0.84 12.29,-2.55 3.57,-1.71 6.79,-4.44 9.69,-8.18 l 5.45,4.14 c -6.39,9.24 -15.66,13.87 -27.8,13.87 z m -1.61,-74.02 c -6.51,0 -12.01,2.41 -16.49,7.19 -4.49,4.78 -7.21,11.19 -8.18,19.27 h 47.12 v -0.94 c -0.25,-7.53 -2.41,-13.68 -6.47,-18.41 -4.06,-4.73 -9.39,-7.11 -15.98,-7.11 z m 125.1,-5.94 v 78.48 h -8.72 v -70.9 h -32.15 l -1.37,29.33 c -0.59,10.85 -1.68,19.15 -3.27,24.87 -1.61,5.72 -3.96,9.93 -7.1,12.63 -3.15,2.7 -7.34,4.07 -12.56,4.07 h -3.35 v -7.73 l 2.68,-0.15 c 5,-0.1 8.57,-2.5 10.75,-7.26 2.18,-4.73 3.61,-13.18 4.28,-25.37 L 1277,35.47 Z m 70.48,79.96 c -6.69,0 -12.71,-1.63 -18.11,-4.93 -5.4,-3.29 -9.59,-7.88 -12.59,-13.77 -2.99,-5.87 -4.51,-12.46 -4.51,-19.77 v -3.12 c 0,-7.56 1.47,-14.34 4.39,-20.41 2.92,-6.05 7.01,-10.8 12.24,-14.25 5.22,-3.47 10.87,-5.2 16.97,-5.2 9.53,0 17.09,3.25 22.69,9.76 5.59,6.52 8.37,15.41 8.37,26.71 v 4.85 h -56.01 v 1.66 c 0,8.92 2.55,16.35 7.65,22.3 5.11,5.91 11.52,8.89 19.28,8.89 4.63,0 8.74,-0.84 12.28,-2.55 3.57,-1.71 6.79,-4.44 9.69,-8.18 l 5.45,4.14 c -6.39,9.24 -15.66,13.87 -27.79,13.87 z m -1.61,-74.02 c -6.52,0 -12.02,2.41 -16.5,7.19 -4.49,4.78 -7.21,11.19 -8.18,19.27 h 47.12 v -0.94 c -0.25,-7.53 -2.4,-13.68 -6.47,-18.41 -4.06,-4.73 -9.39,-7.11 -15.97,-7.11 z"
     id="path49" /></svg>
