<svg xmlns="http://www.w3.org/2000/svg" width="83" height="20">
  <path fill="#00a0e3" d="m69.177 4.845 7.853-1.978c.98-.247 1.809-.325 1.851-.175l.256.91c.042.15-.718.472-1.698.719l-7.853 1.978c-.98.247-1.809.325-1.851.175l-.256-.91c-.042-.15.718-.472 1.698-.719z"/>
  <path fill="#ed3237" d="m71.876 4.166 2.425-.61.375 1.463-2.426.611z"/>
  <path fill="#00a0e3" d="M69.585 6.477H80.09c.357 0 .647.24.647.536v7.055c0 .296-.29.536-.647.536H69.585c-.357 0-.647-.24-.647-.536V7.013c0-.296.289-.536.647-.536z"/>
  <path fill="#ed3237" d="M73.98 6.477h1.716v2.276H73.98zm.81-3.124c.278-.358.753-.924.975-1.382s.189-.809.04-1.061c-.148-.251-.415-.404-.636-.43s-.399.072-.536.021c-.139-.052-.238-.253-.415-.376s-.432-.169-.652-.076c-.22.093-.405.325-.514.955s-.141 1.658-.148 2.221c-.006.562.013.657.259.711s.718.064.994-.006c.277-.07.358-.219.635-.578z"/>
  <path fill="#ed3237" d="M71.414 4.348c-.449-.128-1.189-.311-1.657-.551s-.664-.539-.705-.825c-.041-.286.076-.558.236-.705s.365-.169.443-.288.029-.338.093-.537c.063-.199.238-.38.474-.431s.53.03 1.017.472c.486.443 1.165 1.247 1.527 1.692s.407.533.245.716c-.163.182-.533.459-.798.56s-.425.027-.875-.102z"/>
  <path fill="#fefefe" d="M73.687 2.792c.044-.266.127-.745.258-1.116s.311-.631.401-.762c.09-.13.09-.13.129-.13s.118 0 .154.035c.037.035.033.105-.011.183s-.127.165-.263.411c-.136.247-.325.652-.435.974s-.143.562-.178.677c-.034.116-.071.107-.087.077s-.012-.083.032-.348zm-1.661.428c-.203-.187-.574-.523-.914-.744s-.65-.328-.805-.381c-.155-.054-.155-.054-.186-.031s-.094.067-.101.116c-.008.049.041.102.125.139s.206.061.471.18.673.336.967.53.471.369.572.441.125.045.119.011c-.006-.034-.043-.073-.248-.261z"/>
  <path fill="#ed3237" d="M73.98 13.853h1.716v.75H73.98zM7.936 12.822c0 .178-.031.366-.093.571-.061.202-.161.392-.299.565s-.318.318-.539.435c-.223.116-.493.174-.815.174H.723a.756.756 0 0 1-.287-.055.684.684 0 0 1-.381-.377l-.002-.005a.726.726 0 0 1-.055-.289v-6.49c0-.1.017-.194.055-.283a.705.705 0 0 1 .151-.233.711.711 0 0 1 .518-.209h4.819a1.891 1.891 0 0 1 1.138.395c.176.139.322.319.439.54.115.222.174.494.174.815v.27c0 .255-.041.529-.126.822a2.79 2.79 0 0 1-.41.834c.162.1.314.219.456.361.143.14.268.303.374.486.107.185.192.393.255.626s.094.49.094.771v.276h.001zm-1.44-.276c0-.189-.031-.358-.089-.507s-.141-.278-.249-.385a1.043 1.043 0 0 0-.387-.246 1.39 1.39 0 0 0-.509-.087H2.017V9.872h2.597c.189 0 .358-.031.509-.087.153-.057.282-.14.39-.246.105-.107.189-.236.245-.385s.085-.318.085-.507v-.27c0-.208-.098-.312-.298-.312H1.44v5.063h4.753a.925.925 0 0 0 .095-.006.261.261 0 0 0 .1-.032.255.255 0 0 0 .078-.095.452.452 0 0 0 .032-.183v-.265zm17.312-.316c0 .284-.036.539-.107.766a2.304 2.304 0 0 1-.284.601 1.964 1.964 0 0 1-.416.445 2.56 2.56 0 0 1-.994.467l-.017.003a2.482 2.482 0 0 1-.495.055H15.94v-1.44h5.555c.276 0 .491-.082.645-.244s.231-.38.231-.652c0-.134-.021-.255-.061-.367a.815.815 0 0 0-.452-.477.99.99 0 0 0-.363-.066h-3.312c-.232 0-.484-.041-.752-.125a2.218 2.218 0 0 1-.75-.401c-.233-.185-.424-.427-.576-.725s-.231-.663-.231-1.097c0-.433.078-.796.231-1.094a2.221 2.221 0 0 1 1.326-1.129c.268-.083.52-.125.752-.125h4.902v1.439h-4.902c-.274 0-.486.083-.638.249s-.231.386-.231.66c0 .276.077.495.231.656s.364.242.638.242h3.323a2.499 2.499 0 0 1 1.5.55 2.099 2.099 0 0 1 .698 1.043c.07.225.104.48.104.766zm7.517-4.167h-3.172v6.503h-1.44V8.063h-3.179V6.625h7.792v1.438zM8.708 6.737h6.128c.102 0 .185.051.185.114v1.231c0 .063-.083.114-.185.114H8.708c-.102 0-.185-.051-.185-.114V6.851c0-.063.083-.114.185-.114zm0 6.498h6.128c.102 0 .185.051.185.114v1.231c0 .063-.083.113-.185.113l-6.128.001c-.102-.001-.185-.051-.185-.114v-1.231c0-.063.083-.114.185-.114zm0-3.308h6.128c.102 0 .185.051.185.114v1.231c0 .063-.083.114-.185.114H8.708c-.102 0-.185-.051-.185-.114v-1.231c0-.063.083-.114.185-.114z"/>
  <path fill="#00a0e3" d="M41.317 6.737h6.128c.102 0 .185.051.185.114v1.231c0 .063-.083.114-.185.114h-6.128c-.102 0-.185-.051-.185-.114V6.851c0-.063.083-.114.185-.114zm0 6.498h6.128c.102 0 .185.051.185.114v1.231c0 .063-.083.113-.185.113l-6.128.001c-.102-.001-.185-.051-.185-.114v-1.231c0-.063.083-.114.185-.114zm0-3.308h6.128c.102 0 .185.051.185.114v1.231c0 .063-.083.114-.185.114h-6.128c-.102 0-.185-.051-.185-.114v-1.231c0-.063.083-.114.185-.114zm25.73 2.303c0 .284-.036.539-.107.766a2.32 2.32 0 0 1-.284.601 1.938 1.938 0 0 1-.416.444 2.565 2.565 0 0 1-.994.468l-.017.003c-.176.036-.34.055-.495.055h-5.555v-1.44h5.555c.276 0 .492-.082.645-.244s.231-.38.231-.652c0-.134-.021-.255-.061-.367a.805.805 0 0 0-.452-.477.985.985 0 0 0-.363-.066h-3.311c-.233 0-.484-.041-.753-.125a2.218 2.218 0 0 1-.75-.401c-.233-.185-.424-.427-.576-.725s-.231-.663-.231-1.097c0-.433.077-.796.231-1.094A2.221 2.221 0 0 1 60.67 6.75a2.56 2.56 0 0 1 .753-.125h4.901v1.439h-4.901c-.275 0-.486.083-.639.249s-.231.386-.231.66c0 .276.077.495.231.656s.364.242.639.242h3.323a2.508 2.508 0 0 1 1.501.55c.155.125.293.273.412.446s.215.372.286.597c.07.225.104.48.104.766h-.001zm-8.051-5.605-1.329 7.443a.755.755 0 0 1-.201.381.705.705 0 0 1-.805.157.705.705 0 0 1-.32-.278l-2.635-4.331-2.643 4.331a.648.648 0 0 1-.257.249.714.714 0 0 1-.348.089h-.005a.704.704 0 0 1-.703-.599l-1.34-7.442h1.461l.953 5.244 2.272-3.622a.668.668 0 0 1 .257-.249c.1-.056.22-.089.348-.089h.005c.125 0 .242.03.348.089a.766.766 0 0 1 .267.249l2.259 3.622.953-5.244h1.463zm-21.064 6.813-3.04-3.157V8.25l3.04 3.154z"/>
  <path fill="#fefefe" d="M69.506 13.515v-.84h.841v.84zm2.127 0V7.5h.739v3.427l1.748-1.772h.955l-1.663 1.62 1.831 2.74h-.91l-1.447-2.228-.513.499v1.729zm3.808 0v-.602l2.761-3.187c-.314.017-.59.025-.828.025h-1.765v-.597h3.553v.486l-2.363 2.765-.452.514c.332-.028.643-.042.932-.042h2.017v.638H75.44z"/>
  <path fill="#ed3237" d="m59.452 18.92.572-.087a.407.407 0 0 0 .148.249.494.494 0 0 0 .311.086c.147 0 .258-.027.332-.081a.185.185 0 0 0 .075-.153c0-.042-.014-.079-.041-.107s-.092-.053-.19-.075c-.46-.102-.75-.194-.873-.278a.554.554 0 0 1-.256-.485c0-.187.074-.344.221-.471s.375-.191.684-.191c.294 0 .513.049.656.145s.242.239.296.427l-.535.1c-.022-.084-.067-.149-.131-.194s-.156-.067-.276-.067c-.15 0-.258.021-.324.063a.134.134 0 0 0-.065.115c0 .041.019.075.056.104.052.038.23.091.534.16s.516.153.636.254c.119.1.179.242.179.423 0 .197-.082.367-.247.509s-.408.213-.732.213c-.293 0-.525-.059-.696-.178s-.283-.278-.335-.481zm2.508-1.836v-.527h.568v.527zm0 2.441v-2.151h.568v2.151zm3.109 0h-.568v-1.096c0-.232-.013-.382-.037-.45s-.064-.121-.119-.159a.345.345 0 0 0-.199-.056c-.1 0-.188.027-.268.081s-.133.125-.162.214c-.029.089-.044.254-.044.494v.973h-.568v-2.151h.526v.316c.189-.241.426-.362.713-.362.125 0 .241.023.345.068a.57.57 0 0 1 .237.172.608.608 0 0 1 .111.235l.001.004c.022.089.032.217.032.382zm2.449-1.513-.56.1c-.019-.112-.061-.195-.128-.252s-.153-.084-.26-.084c-.141 0-.255.049-.339.147s-.126.262-.126.492c0 .256.042.436.128.541s.201.158.344.158a.378.378 0 0 0 .264-.093c.07-.061.118-.167.146-.318l.56.095c-.058.257-.169.451-.334.583s-.385.197-.662.197c-.314 0-.565-.1-.751-.298-.187-.199-.28-.474-.28-.826 0-.355.094-.632.281-.83s.441-.298.761-.298c.261 0 .469.057.624.169s.265.284.332.515zm1.675.833.568.095c-.072.208-.188.366-.345.475s-.354.163-.59.163c-.374 0-.651-.122-.83-.367-.141-.197-.213-.444-.213-.743 0-.356.093-.636.279-.838a.917.917 0 0 1 .706-.304c.32 0 .571.106.757.317s.273.536.265.972h-1.422c.003.169.049.3.137.394s.196.141.326.141c.089 0 .164-.024.224-.072s.107-.126.137-.233zm.033-.576c-.004-.165-.047-.291-.128-.377s-.178-.129-.295-.129c-.123 0-.226.045-.307.136s-.121.215-.119.37h.848zm3.979.73v.526h-1.994c.022-.201.086-.39.194-.569s.321-.417.639-.713c.256-.239.413-.401.471-.486a.626.626 0 0 0 .117-.349c0-.127-.034-.224-.102-.293s-.162-.102-.282-.102c-.119 0-.213.036-.283.108s-.11.19-.121.357l-.568-.057c.034-.314.139-.539.318-.675s.401-.205.668-.205c.293 0 .523.079.691.238s.251.355.251.591c0 .134-.024.261-.072.383s-.123.247-.228.38a3.518 3.518 0 0 1-.373.38 5.101 5.101 0 0 0-.342.329.955.955 0 0 0-.117.158zm1.346-2.459c.288 0 .512.103.675.309.192.243.289.647.289 1.211s-.097.968-.291 1.214c-.161.203-.385.304-.672.304s-.521-.111-.698-.334c-.177-.222-.266-.62-.266-1.19 0-.56.098-.964.292-1.21.161-.203.385-.304.672-.304zm0 .473a.275.275 0 0 0-.181.066c-.054.044-.095.123-.124.237-.038.147-.058.396-.058.744 0 .35.017.59.052.72s.078.218.131.261c.052.043.112.065.18.065s.129-.022.182-.066c.052-.043.094-.122.123-.236.038-.146.058-.394.058-.743 0-.348-.017-.588-.052-.719s-.079-.218-.131-.262-.112-.066-.181-.066zm2.797 2.512h-.567v-2.148a1.964 1.964 0 0 1-.734.432v-.518c.148-.049.309-.14.483-.277.174-.135.293-.293.358-.474h.461v2.985zm2.774-.526v.526h-1.994c.022-.201.086-.39.194-.569s.321-.417.639-.713c.256-.239.413-.401.471-.486a.62.62 0 0 0 .118-.349c0-.127-.034-.224-.102-.293s-.162-.102-.281-.102-.213.036-.284.108c-.07.071-.109.19-.121.357l-.568-.057c.034-.314.139-.539.318-.675s.401-.205.668-.205c.293 0 .523.079.691.238s.251.355.251.591c0 .134-.024.261-.072.383s-.124.247-.228.38c-.069.089-.194.215-.373.38s-.294.274-.341.329a.955.955 0 0 0-.117.158h1.132z"/>
  <path fill="#00a0e3" d="M38.397 6.166c-.319.148-.592.222-.815.222-.111 0-.165-.082-.165-.243v-.286c0-.11.017-.192.047-.248.033-.054.112-.116.24-.182.17-.096.402-.29.698-.583.293-.293.58-.684.861-1.176.216-.378.345-.583.383-.615.041-.032.107-.047.204-.047h.44v10.408c0 .105.062.199.185.28.105.069.171.14.194.214.023.076.034.273.034.592 0 .125-.061.19-.187.19h-2.442c-.102 0-.165-.022-.189-.067-.023-.042-.034-.15-.034-.319 0-.241.009-.391.029-.45s.092-.113.219-.167c.197-.081.295-.199.295-.351V6.166zm-5.825 0c-.319.148-.592.222-.815.222-.111 0-.165-.082-.165-.243v-.286c0-.11.016-.192.047-.248.033-.054.112-.116.239-.182.171-.096.403-.29.698-.583.294-.293.58-.684.862-1.176.216-.378.345-.583.383-.615.04-.032.107-.047.203-.047h.44v10.408c0 .105.062.199.185.28.105.069.17.14.194.214.024.076.035.273.035.592 0 .125-.062.19-.187.19h-2.442c-.102 0-.165-.022-.189-.067-.024-.042-.034-.15-.034-.319 0-.241.009-.391.029-.45s.093-.113.219-.167c.198-.081.296-.199.296-.351V6.166z"/>
  <path fill="#ed3237" d="M81.288 3.844c.01.03.181.167.217.203.134.131.288.307.458.259.263-.075.108-.778.207-.872.121-.115.586-.304.633-.482.024-.092-.001-.167-.054-.212-.089-.076-.315-.139-.436-.194a1.35 1.35 0 0 0-.225-.084c-.008-.033-.015-.055-.022-.098l-.12-.557a.215.215 0 0 0-.162-.155c-.191-.049-.255.135-.355.245-.017.018-.001-.001-.02.02l-.255.327c-.119-.027-.28-.021-.381-.036-.206-.029-.469-.063-.483.199-.006.114.188.38.261.497.032.052.066.141.107.185l.001.001.001-.001v-.001c-.022.096-.143.369-.182.463-.065.156-.187.438.123.467.056.006.332-.077.405-.102l.223-.063.017-.006c.024-.006.01-.01.041-.006zm-2.271 1.085c.003.011.065.061.078.073.048.047.103.111.164.093.095-.027.039-.279.075-.314.043-.041.21-.109.227-.173.009-.034 0-.061-.019-.077-.032-.027-.114-.049-.157-.07a.532.532 0 0 0-.082-.03.64.64 0 0 1-.008-.035l-.043-.201c-.006-.026-.024-.047-.058-.056-.069-.018-.092.049-.128.089l-.007.007-.091.118c-.043-.01-.101-.008-.137-.013-.075-.011-.169-.023-.174.071-.002.041.068.137.094.178.011.019.024.051.038.067l.001.001v-.001c-.008.035-.052.133-.065.167-.024.056-.067.158.044.169a.92.92 0 0 0 .146-.037l.081-.023a.014.014 0 0 0 .006-.002c.009-.002.004-.003.015-.002zm-2.486.662c-.002.007-.038.036-.045.043-.029.027-.061.065-.097.054-.055-.016-.022-.164-.043-.183-.026-.024-.123-.064-.133-.102-.005-.019 0-.035.011-.045.019-.016.066-.029.092-.041a.268.268 0 0 1 .047-.018l.004-.02.025-.117a.046.046 0 0 1 .034-.033c.041-.01.054.029.075.052l.004.004.054.069c.025-.006.058-.004.08-.008.043-.006.098-.013.102.042.001.024-.04.08-.055.105-.007.011-.014.03-.023.039.004.02.03.077.038.097.013.034.039.093-.026.099-.013.001-.07-.017-.086-.022l-.047-.013a.01.01 0 0 1-.003-.001c-.006-.001-.002-.002-.009-.001zm1.386-.013c-.002-.006-.038-.035-.046-.042-.028-.028-.06-.065-.096-.055-.055.016-.022.164-.043.184-.026.024-.123.064-.133.101-.006.02 0 .036.011.045.019.016.066.029.092.041a.264.264 0 0 0 .047.017l.004.021.025.117c.004.015.015.027.034.033.041.01.054-.029.075-.052l.003-.004.054-.069c.025.006.058.004.08.007.043.006.098.014.102-.042.001-.024-.04-.079-.055-.104-.007-.011-.014-.03-.023-.04v.001c.004-.02.03-.078.038-.098.014-.033.04-.092-.026-.098a.427.427 0 0 0-.085.022l-.047.013-.004.001c-.005.001-.001.002-.008.001zm2.869-1.108c-.002-.006-.038-.035-.045-.042-.029-.028-.061-.065-.097-.055-.055.016-.022.164-.043.184-.026.024-.123.063-.133.101-.006.02 0 .036.011.045.019.016.066.029.092.041a.264.264 0 0 0 .047.017l.004.021.025.117c.004.015.015.027.034.033.041.01.054-.029.075-.052l.004-.005.054-.068c.025.006.059.004.08.007.043.006.099.014.102-.042.001-.024-.04-.079-.055-.104-.007-.011-.014-.03-.023-.04v.001c.005-.02.03-.078.038-.098.013-.033.039-.092-.026-.098a.454.454 0 0 0-.086.022l-.047.013a.01.01 0 0 0-.003.001c-.006.001-.002.002-.009.001zm-.62 1.557c-.003.01-.062.057-.075.07-.046.045-.099.107-.158.09-.091-.026-.038-.269-.072-.302-.042-.04-.202-.105-.219-.167-.008-.032.001-.058.019-.073.031-.027.109-.048.15-.067a.43.43 0 0 1 .078-.029c.003-.011.006-.019.008-.034l.041-.193a.077.077 0 0 1 .056-.054c.066-.017.089.047.123.085l.006.007.089.113c.041-.009.097-.007.132-.012.071-.01.162-.022.167.068.002.04-.065.132-.091.172-.011.017-.023.049-.037.064h-.001v-.001c.008.034.049.128.063.16.022.054.065.151-.042.162a.76.76 0 0 1-.14-.036l-.077-.022-.006-.002c-.009-.002-.003-.003-.015-.001zm-.375-3.062c-.002-.007-.038-.036-.046-.043-.028-.027-.061-.065-.096-.054-.056.016-.023.164-.044.183-.025.024-.123.064-.133.102a.044.044 0 0 0 .012.045c.018.016.066.029.091.041a.268.268 0 0 0 .047.018.29.29 0 0 1 .005.02l.025.117a.044.044 0 0 0 .034.033c.041.01.054-.029.075-.052l.004-.004.054-.069c.025.006.059.004.08.008.044.006.099.013.102-.042.001-.024-.04-.08-.055-.105-.006-.011-.014-.03-.022-.039h-.001c.005-.02.03-.077.038-.097.014-.034.04-.093-.026-.099a.508.508 0 0 0-.085.022l-.047.013a.01.01 0 0 0-.003.001c-.005.001-.002.002-.008.001z"/>
  <path fill="#00a0e3" d="M0 17.33h.872c.174 0 .302.008.387.022s.161.045.229.09c.067.046.123.107.167.182s.067.161.067.255a.501.501 0 0 1-.082.28.505.505 0 0 1-.224.192.53.53 0 0 1 .413.529.642.642 0 0 1-.259.516.622.622 0 0 1-.295.104c-.073.008-.25.013-.532.015H0v-2.183zm.442.363v.503H.73c.171 0 .278-.003.32-.008.075-.009.134-.035.178-.078s.065-.1.065-.169c0-.068-.019-.122-.056-.164s-.092-.068-.165-.076a4.983 4.983 0 0 0-.376-.008H.443zm0 .865v.585H.85c.159 0 .26-.005.303-.013.065-.012.119-.041.16-.087s.062-.109.062-.186c0-.066-.016-.121-.048-.167s-.077-.079-.137-.1c-.06-.02-.191-.031-.392-.031H.442zm1.771-1.228h.442v.873h.589c.155 0 .288.021.399.063s.204.117.279.226a.65.65 0 0 1 .111.375c0 .148-.038.275-.116.382s-.163.178-.259.212a1.257 1.257 0 0 1-.415.052h-1.03V17.33zm.442 1.814h.43c.137 0 .232-.006.286-.02s.102-.044.144-.091a.25.25 0 0 0 .063-.173c0-.096-.035-.169-.103-.217s-.194-.072-.373-.072h-.448v.573zm1.632-1.814h.442v2.183h-.442zm1.075 0h1.506v1.814h.192v.845h-.369v-.476H5.322v.476h-.369v-.845h.186c.091-.186.15-.403.18-.649s.042-.557.042-.934v-.231zm.421.369c0 .66-.061 1.142-.183 1.445h.826v-1.445zm1.574 1.813v-2.183h1.615v.369H7.799v.484H8.89v.369H7.799v.591h1.216v.369zm2.189-2.182h1.529v2.183h-.442V17.7h-.656v.932c0 .267-.009.453-.027.558s-.061.188-.13.247c-.069.058-.177.089-.323.089a5.58 5.58 0 0 1-.282-.015v-.342l.098.001c.092 0 .155-.012.186-.037s.047-.086.047-.183l-.001-.375V17.33zm3.287 2.182V18.6h-.089c-.14 0-.238.021-.295.063s-.155.166-.293.373l-.316.476h-.527l.266-.426c.105-.169.188-.287.25-.355s.141-.129.234-.183c-.203-.032-.349-.102-.439-.212s-.135-.24-.135-.394c0-.133.034-.251.101-.353s.155-.171.265-.207a1.73 1.73 0 0 1 .493-.053h.928v2.183h-.442zm0-1.813h-.344c-.175 0-.29.004-.345.012s-.102.035-.142.08a.261.261 0 0 0-.059.179c0 .077.02.138.057.183s.087.073.146.085c.059.01.179.016.36.016h.326v-.555zm.893-.369h.412v1.453l.884-1.453h.439v2.183h-.412v-1.429l-.884 1.429h-.439zm1.127-.631h.205c-.012.134-.06.241-.143.318s-.19.115-.321.115c-.132 0-.239-.038-.322-.115s-.131-.183-.142-.318h.204c.007.07.031.123.074.16s.105.054.186.054.143-.017.185-.054.067-.089.074-.16zm2.454 2.009.426.131c-.065.24-.175.418-.327.535s-.346.175-.58.175a.94.94 0 0 1-.716-.298c-.186-.198-.279-.469-.279-.812 0-.363.094-.646.282-.847s.434-.302.74-.302c.267 0 .484.079.651.237a.85.85 0 0 1 .223.403l-.436.104c-.026-.113-.08-.202-.162-.268s-.182-.098-.299-.098c-.162 0-.293.058-.394.174s-.152.304-.152.564c0 .275.05.472.149.589s.229.176.387.176c.118 0 .219-.037.303-.112s.145-.192.182-.351zm2.109.804V18.6h-.089c-.139 0-.238.021-.295.063s-.155.166-.293.373l-.316.476h-.527l.266-.426c.105-.169.188-.287.25-.355s.141-.129.234-.183c-.203-.032-.349-.102-.439-.212s-.135-.24-.135-.394c0-.133.034-.251.101-.353s.155-.171.265-.207a1.73 1.73 0 0 1 .493-.053h.928v2.183h-.443zm0-1.813h-.344c-.175 0-.29.004-.344.012s-.103.035-.143.08a.266.266 0 0 0-.059.179c0 .077.02.138.057.183s.087.073.146.085c.058.01.179.016.36.016h.326zm.872 1.396h.417v.299c0 .121-.01.217-.031.287s-.06.133-.118.188a.61.61 0 0 1-.221.131l-.081-.174c.084-.028.143-.066.178-.115s.054-.115.056-.199h-.201v-.417zm1.715-1.765h.442v.93c.098-.01.164-.036.199-.077s.089-.154.16-.34c.091-.236.183-.383.275-.44s.238-.086.442-.086l.064-.001v.326l-.063-.002c-.091 0-.156.012-.198.034s-.075.056-.101.102c-.026.046-.064.14-.114.282a.997.997 0 0 1-.088.19.443.443 0 0 1-.165.143.455.455 0 0 1 .242.168c.064.085.134.203.21.358l.297.597h-.518l-.262-.562c-.003-.008-.013-.023-.025-.046a1.918 1.918 0 0 1-.055-.103c-.056-.107-.102-.174-.137-.201s-.09-.041-.164-.042v.954h-.442v-2.183zm3.82 2.182h-.476l-.189-.497h-.875l-.181.497h-.467l.847-2.183h.467l.875 2.183zm-.807-.865-.304-.808-.294.808zm1.049-1.317h.442v.93c.098-.01.164-.036.199-.077s.089-.154.16-.34c.091-.236.183-.383.275-.44s.238-.086.441-.086l.064-.001v.326l-.063-.002c-.09 0-.156.012-.198.034s-.075.056-.101.102c-.026.046-.064.14-.114.282-.027.075-.056.139-.087.19s-.086.098-.166.143a.45.45 0 0 1 .242.168c.064.085.134.203.21.358l.298.597h-.518l-.261-.562-.026-.046a3.383 3.383 0 0 1-.055-.103c-.056-.107-.101-.174-.137-.201s-.091-.041-.164-.042v.954h-.442v-2.183zm2.701 2.182v-2.183h.442v.86h.86v-.86h.442v2.183h-.442v-.954h-.86v.954zm4.167 0h-.476l-.188-.497h-.876l-.181.497h-.467l.847-2.183h.467l.875 2.183zm-.808-.865-.303-.808-.295.808zm1.049-1.317h.442v1.814h.629V17.33h.442v1.814h.649V17.33h.439l.003 2.185-2.604-.002zm3.063 0h.412v1.453l.884-1.453h.439v2.183h-.411v-1.429l-.884 1.429h-.439zm3.032 2.182v-2.183h.442v.86h.86v-.86h.442v2.183h-.442v-.954h-.86v.954zm2.11-1.078a1.4 1.4 0 0 1 .1-.56c.049-.112.118-.212.203-.3s.18-.153.282-.197c.137-.058.293-.086.471-.086.322 0 .579.1.773.3s.289.478.289.834c0 .353-.095.629-.287.829s-.448.299-.769.299c-.325 0-.583-.099-.775-.298s-.287-.472-.287-.82zm.454-.014c0 .247.058.435.172.563s.259.192.435.192.321-.063.434-.19.169-.317.169-.57c0-.251-.055-.438-.165-.561s-.256-.185-.438-.185a.565.565 0 0 0-.44.187c-.112.125-.167.313-.167.565zm2.008-1.09h.873c.174 0 .302.008.387.022s.161.045.229.09c.067.046.123.107.167.182s.067.161.067.255a.501.501 0 0 1-.082.28.508.508 0 0 1-.223.192.53.53 0 0 1 .412.529.642.642 0 0 1-.259.516.622.622 0 0 1-.295.104c-.073.008-.25.013-.531.015h-.743v-2.183zm.442.363v.503h.288c.171 0 .278-.003.32-.008.075-.009.134-.035.178-.078s.065-.1.065-.169c0-.068-.019-.122-.056-.164s-.092-.068-.165-.076a4.983 4.983 0 0 0-.376-.008h-.253zm0 .865v.585h.408c.159 0 .26-.005.303-.013.065-.012.119-.041.16-.087s.062-.109.062-.186c0-.066-.016-.121-.048-.167s-.077-.079-.137-.1c-.06-.02-.191-.031-.392-.031h-.356zm1.592-.124a1.4 1.4 0 0 1 .1-.56c.049-.112.117-.212.203-.3s.18-.153.282-.197c.136-.058.293-.086.471-.086.322 0 .579.1.772.3s.29.478.29.834c0 .353-.096.629-.288.829s-.448.299-.769.299c-.325 0-.583-.099-.774-.298s-.288-.472-.288-.82zm.455-.014c0 .247.057.435.171.563s.26.192.436.192.321-.063.433-.19.169-.317.169-.57c0-.251-.055-.438-.165-.561s-.255-.185-.438-.185a.563.563 0 0 0-.44.187c-.112.125-.167.313-.167.565zm3.404.288.426.131c-.065.24-.175.418-.327.535s-.346.175-.58.175a.94.94 0 0 1-.716-.298c-.186-.198-.279-.469-.279-.812 0-.363.094-.646.282-.847s.434-.302.74-.302c.267 0 .484.079.651.237a.858.858 0 0 1 .223.403l-.436.104c-.026-.113-.08-.202-.162-.268s-.182-.098-.299-.098c-.162 0-.293.058-.394.174s-.152.304-.152.564c0 .275.05.472.149.589s.229.176.387.176c.118 0 .219-.037.303-.112s.145-.192.182-.351zm1.22.804v-1.813h-.646v-.369h1.731v.369h-.643v1.813zm1.377-2.182h.412v1.453l.884-1.453h.439v2.183h-.412v-1.429l-.884 1.429h-.439zm2.344 1.621-.108-1.109v-.513h.451v.513l-.107 1.109h-.236zm-.09.561v-.417h.417v.417z"/>
</svg>
