<?xml version="1.0" encoding="UTF-8"?>
<!DOCTYPE svg PUBLIC "-//W3C//DTD SVG 1.1//EN" "http://www.w3.org/Graphics/SVG/1.1/DTD/svg11.dtd">
<!-- Creator: CorelDRAW X8 -->
<svg xmlns="http://www.w3.org/2000/svg" xml:space="preserve" width="515px" height="276px" version="1.1" style="shape-rendering:geometricPrecision; text-rendering:geometricPrecision; image-rendering:optimizeQuality; fill-rule:evenodd; clip-rule:evenodd"
viewBox="0 0 51500 27600"
 xmlns:xlink="http://www.w3.org/1999/xlink">
 <defs>
  <style type="text/css">
   <![CDATA[
    .fil0 {fill:black;fill-rule:nonzero}
   ]]>
  </style>
 </defs>
 <g id="Слой_x0020_1">
  <metadata id="CorelCorpID_0Corel-Layer"/>
  <g id="_2178076103744">
   <g>
    <path class="fil0" d="M15475 16739l-3151 -11671 -3187 11671c-250,888 -445,1523 -590,1909 -145,380 -403,730 -766,1033 -363,304 -843,458 -1446,458 -490,0 -889,-90 -1202,-272 -317,-181 -571,-440 -766,-770 -195,-331 -354,-726 -476,-1184 -127,-453 -236,-875 -336,-1265l-3237 -13108c-195,-762 -295,-1342 -295,-1741 0,-504 177,-930 531,-1274 353,-345 793,-517 1314,-517 721,0 1202,231 1451,689 245,463 463,1129 649,2009l2552 11367 2857 -10637c213,-817 404,-1438 571,-1859 168,-427 445,-794 826,-1102 380,-313 897,-467 1550,-467 667,0 1184,163 1551,485 367,322 621,676 762,1056 140,381 331,1007 571,1887l2884 10637 2552 -11367c123,-594 241,-1061 349,-1397 114,-335 304,-639 572,-902 272,-268 662,-399 1179,-399 512,0 947,172 1305,512 359,340 540,766 540,1279 0,363 -95,943 -290,1741l-3242 13108c-222,884 -408,1533 -553,1945 -145,413 -395,771 -744,1079 -349,313 -843,467 -1482,467 -604,0 -1084,-149 -1447,-453 -363,-299 -617,-639 -757,-1016 -145,-376 -340,-1020 -599,-1931z"/>
    <path class="fil0" d="M33686 3395l3151 11671 3188 -11671c249,-888 444,-1523 589,-1908 145,-381 404,-731 767,-1034 362,-304 843,-458 1446,-458 490,0 889,90 1201,272 318,181 572,440 767,771 195,331 353,725 476,1183 127,453 236,875 335,1265l3238 13108c195,762 294,1342 294,1741 0,504 -176,930 -530,1274 -354,345 -794,517 -1315,517 -721,0 -1202,-231 -1451,-689 -245,-462 -462,-1129 -648,-2008l-2553 -11368 -2857 10638c-213,816 -403,1437 -571,1859 -168,426 -444,793 -825,1101 -381,313 -898,467 -1551,467 -666,0 -1183,-163 -1550,-485 -368,-322 -622,-675 -762,-1056 -141,-381 -331,-1007 -571,-1886l-2884 -10638 -2553 11368c-122,593 -240,1060 -349,1396 -113,336 -304,639 -571,902 -272,268 -662,399 -1179,399 -513,0 -948,-172 -1306,-512 -358,-340 -540,-766 -540,-1279 0,-362 96,-943 291,-1741l3242 -13108c222,-884 408,-1532 553,-1945 145,-413 394,-771 743,-1079 349,-313 844,-467 1483,-467 603,0 1084,149 1446,453 363,299 617,640 758,1016 145,376 340,1020 598,1931z"/>
   </g>
   <path class="fil0" d="M13006 21700l-1327 5888 -1782 0 -503 -2433c-22,-105 -49,-245 -82,-421 -33,-176 -66,-363 -99,-560 -33,-198 -55,-372 -66,-520 -11,137 -32,305 -62,503 -30,198 -63,389 -99,573 -36,184 -62,326 -78,425l-512 2433 -1773 0 -1336 -5888 1468 0 561 2812c22,110 51,262 87,457 35,196 71,398 107,606 36,209 62,388 78,537 28,-215 63,-454 107,-718 44,-264 91,-517 141,-759 49,-242 90,-434 123,-577l520 -2358 1344 0 495 2358c33,149 74,346 124,594 49,247 96,502 140,763 44,261 77,493 99,697 16,-138 41,-307 74,-508 33,-200 67,-398 103,-593 36,-196 65,-359 87,-491l569 -2820 1492 0zm3909 5888l-3257 0 0 -5888 3257 0 0 1245 -1732 0 0 973 1609 0 0 1245 -1609 0 0 1163 1732 0 0 1262zm949 -5888l1929 0c781,0 1346,123 1695,371 349,247 524,613 524,1096 0,363 -90,655 -268,875 -179,220 -378,360 -598,420l0 41c176,50 338,127 486,231 149,105 267,248 355,429 88,182 132,415 132,701 0,533 -190,954 -569,1262 -379,308 -894,462 -1542,462l-2144 0 0 -5888zm1525 2267l413 0c230,0 398,-53 503,-160 104,-108 156,-246 156,-417 0,-341 -228,-511 -684,-511l-388 0 0 1088zm0 1147l0 1270 487 0c242,0 415,-58 519,-174 105,-115 157,-272 157,-470 0,-176 -52,-324 -157,-445 -104,-121 -286,-181 -544,-181l-462 0zm6144 2474l-1130 -4140 -33 0c11,209 26,459 46,750 19,292 28,569 28,833l0 2557 -1377 0 0 -5888 2054 0 1113 3941 25 0 1096 -3941 2046 0 0 5888 -1419 0 0 -2582c0,-258 7,-531 21,-820 14,-289 26,-532 37,-730l-33 0 -1130 4132 -1344 0zm8321 0l-264 -1122 -1682 0 -264 1122 -1666 0 1740 -5905 2020 0 1765 5905 -1649 0zm-553 -2384l-247 -1096c-28,-121 -62,-270 -103,-446 -41,-176 -80,-352 -116,-528 -35,-175 -64,-327 -86,-453 -22,126 -51,273 -87,441 -36,168 -71,338 -107,511 -36,174 -70,329 -103,466l-256 1105 1105 0zm4585 -3504c1512,0 2268,580 2268,1740 0,357 -81,666 -243,927 -162,262 -389,480 -680,656l1534 2565 -1707 0 -1130 -2169 -322 0 0 2169 -1526 0 0 -5888 1806 0zm-24 1195l-256 0 0 1369 239 0c231,0 415,-56 553,-169 137,-112 206,-306 206,-581 0,-198 -59,-351 -177,-458 -119,-107 -307,-161 -565,-161zm8114 4693l-1707 0 -1055 -2227 -413 256 0 1971 -1533 0 0 -5888 1533 0 0 2556c50,-121 113,-245 190,-371 77,-126 154,-253 231,-379l1130 -1806 1649 0 -1690 2639 1665 3249zm3852 0l-264 -1122 -1683 0 -263 1122 -1666 0 1740 -5905 2020 0 1765 5905 -1649 0zm-553 -2384l-247 -1096c-28,-121 -62,-270 -103,-446 -42,-176 -80,-352 -116,-528 -36,-175 -64,-327 -86,-453 -22,126 -51,273 -87,441 -36,168 -71,338 -107,511 -36,174 -70,329 -103,466l-256 1105 1105 0z"/>
  </g>
 </g>
</svg>
