<svg xmlns="http://www.w3.org/2000/svg" width="32" height="7" viewBox="0 0 30 7">
  <defs>
    <linearGradient id="a" x1="1014.73" x2="1014.73" y1="463.27" y2="0" gradientTransform="matrix(.0147 0 0 .0151 0 .002)" gradientUnits="userSpaceOnUse">
      <stop offset="0" stop-color="#005478"/>
      <stop offset="1" stop-color="#00a0e3"/>
    </linearGradient>
  </defs>
  <path fill="url(#a)" fill-rule="evenodd" d="M.203 6.996h1.04V1.293a.205.205 0 0 0-.204-.207H.406V.418h1.867v6.578h1.782v-.523c-.305-.141-.446-.41-.446-.836v-4.29c0-.433.121-.929 1.075-.929h1.25c.734 0 1.062.285 1.062.93v4.289c0 .43-.14.699-.445.836v.523h23.074a.206.206 0 0 0 .203-.21.205.205 0 0 0-.203-.208H7.098c.238-.266.304-.617.304-.941v-4.29C7.402.735 7.148 0 5.934 0h-1.25c-1.223 0-1.48.734-1.48 1.348v4.289c0 .324.07.676.308.941H2.68V.211A.206.206 0 0 0 2.477 0H.203A.204.204 0 0 0 .06.063.203.203 0 0 0 0 .21v1.082c0 .117.09.21.203.21h.633v5.075H.203A.205.205 0 0 0 0 6.785c0 .117.09.211.203.211ZM5.117 5.91h.371c.293 0 .477-.18.477-.469V1.555c0-.29-.184-.47-.477-.47h-.37c-.294 0-.477.18-.477.47V5.44c0 .29.183.47.476.47Zm-.07-.469V1.555c0-.028.004-.04.004-.043.008 0 .027-.008.066-.008h.371c.043 0 .063.008.063.004 0 0 .008.012.008.047V5.44c0 .028-.004.04-.004.043-.008 0-.028.008-.067.008h-.37c-.04 0-.06-.008-.063-.008 0 0-.008-.007-.008-.043Zm0 0"/>
  <path fill="#00a0e3" fill-rule="evenodd" d="M26.406 4.11a.696.696 0 0 1-.105.387.62.62 0 0 1-.395.258.587.587 0 0 1-.136.015h-1.536v-.407h1.536c.074 0 .136-.023.175-.07a.264.264 0 0 0 .067-.184.428.428 0 0 0-.016-.105.29.29 0 0 0-.05-.082.261.261 0 0 0-.075-.055.293.293 0 0 0-.101-.02h-.915a.677.677 0 0 1-.414-.148.597.597 0 0 1-.16-.203.697.697 0 0 1-.062-.312.68.68 0 0 1 .062-.309.577.577 0 0 1 .16-.207.677.677 0 0 1 .414-.148h1.352v.406h-1.352c-.078 0-.136.023-.175.07a.268.268 0 0 0-.067.188c0 .078.024.14.067.187.039.043.097.067.175.067h.918c.043 0 .086.007.133.019a.727.727 0 0 1 .281.137.61.61 0 0 1 .192.297c.02.062.027.136.027.218Zm-2.222-1.59-.368 2.109a.205.205 0 0 1-.156.168.214.214 0 0 1-.12-.016.185.185 0 0 1-.087-.078l-.726-1.23-.73 1.23a.202.202 0 0 1-.071.07.224.224 0 0 1-.098.024.194.194 0 0 1-.195-.168l-.371-2.11h.406l.262 1.485.625-1.027a.213.213 0 0 1 .074-.07.2.2 0 0 1 .098-.024c.03 0 .066.008.093.023.032.02.055.043.075.07l.625 1.028.261-1.484Zm-5.2 2.078a.175.175 0 0 1-.015.078.163.163 0 0 1-.043.066.139.139 0 0 1-.063.043.175.175 0 0 1-.078.016.265.265 0 0 1-.074-.012.257.257 0 0 1-.066-.047L17.19 3.184V4.77h-.398V2.69a.205.205 0 0 1 .125-.188.143.143 0 0 1 .113-.01.164.164 0 0 1 .106.054l1.453 1.558V2.52h.394Zm.32-1.145h1.692c.027 0 .05.016.05.035v.348c0 .016-.023.031-.05.031h-1.691c-.028 0-.051-.015-.051-.031v-.348c0-.02.023-.035.05-.035Zm0 .942h1.692c.027-.004.05.011.05.03v.348c0 .02-.023.032-.05.032h-1.691c-.028 0-.051-.012-.051-.032v-.347c0-.02.023-.035.05-.035Zm0-1.844h1.692c.027 0 .05.011.05.031v.348c0 .02-.023.035-.05.035h-1.691c-.028 0-.051-.016-.051-.035v-.348c0-.02.023-.031.05-.031Zm0 0"/>
  <path fill="#ed3237" fill-rule="evenodd" d="M10.3 3.453h1.692c.028 0 .051.016.051.035v.348c0 .016-.023.031-.05.031H10.3c-.028 0-.051-.015-.051-.031v-.348c0-.02.023-.035.05-.035Zm0 .942h1.692c.028-.004.051.011.051.03v.348c0 .02-.023.032-.05.032H10.3c-.028 0-.051-.012-.051-.032v-.347c0-.02.023-.035.05-.035Zm0-1.844h1.692c.028 0 .051.011.051.031v.348c0 .02-.023.035-.05.035H10.3c-.028 0-.051-.016-.051-.035v-.348c0-.02.023-.031.05-.031Zm6.243.375h-.875V4.77h-.395V2.926h-.878V2.52h2.148Zm-2.074 1.183a.696.696 0 0 1-.105.387.716.716 0 0 1-.118.125.726.726 0 0 1-.137.086.849.849 0 0 1-.14.047.587.587 0 0 1-.137.016h-1.535v-.407h1.535a.227.227 0 0 0 .176-.07.264.264 0 0 0 .066-.184.298.298 0 0 0-.066-.187.233.233 0 0 0-.078-.055.256.256 0 0 0-.098-.015h-.914a.606.606 0 0 1-.211-.04.601.601 0 0 1-.363-.316.696.696 0 0 1-.067-.312.668.668 0 0 1 .223-.516.601.601 0 0 1 .207-.113.701.701 0 0 1 .211-.035h1.352v.406h-1.352a.23.23 0 0 0-.18.07.285.285 0 0 0-.062.188c0 .078.023.14.062.187a.242.242 0 0 0 .18.067h.918a.773.773 0 0 1 .133.019.727.727 0 0 1 .281.137.61.61 0 0 1 .191.297c.02.062.028.136.028.218Zm-4.778.086a.41.41 0 0 0-.027-.14.342.342 0 0 0-.066-.11.293.293 0 0 0-.11-.07.378.378 0 0 0-.14-.023h-.895v-.414h.719c.05 0 .098-.008.137-.024a.293.293 0 0 0 .109-.07.342.342 0 0 0 .066-.11.415.415 0 0 0 .024-.144v-.074c0-.059-.028-.09-.082-.09H8.293v1.437h1.312c.008 0 .016-.004.028-.004.008 0 .02-.004.027-.007.008-.004.016-.016.02-.028a.098.098 0 0 0 .011-.05Zm.395.082a.635.635 0 0 1-.024.16.446.446 0 0 1-.082.16.535.535 0 0 1-.148.126.498.498 0 0 1-.227.047H8.098a.192.192 0 0 1-.145-.06.195.195 0 0 1-.043-.065.26.26 0 0 1-.012-.082v-1.84a.24.24 0 0 1 .012-.078.278.278 0 0 1 .043-.067.192.192 0 0 1 .145-.059h1.328a.61.61 0 0 1 .16.024c.055.02.105.047.156.086.047.039.086.09.121.156a.504.504 0 0 1 .047.23v.075a.853.853 0 0 1-.148.473.747.747 0 0 1 .23.238c.028.054.051.113.07.176.016.066.024.14.024.218Zm0 0"/>
  <path fill="#00a0e3" fill-rule="evenodd" d="M26.8 2.516h3.11c.05 0 .09.117.09.254v1.757c0 .141-.04.254-.09.254H26.8c-.046 0-.09-.113-.09-.254V2.77c0-.137.044-.254.09-.254Zm2.216 1.78h.718v.177h-.972v-.16l.675-.922h-.664v-.176h.926v.152Zm-1.028-.405-.133.14v.442h-.21v-1.79h.21v1.083l.114-.137.379-.414h.257l-.476.523.531.735h-.246Zm-.949.468c0-.039.012-.07.031-.093a.13.13 0 0 1 .098-.036.13.13 0 0 1 .098.036.127.127 0 0 1 .035.093.124.124 0 0 1-.035.09c-.024.024-.055.035-.098.035-.043 0-.074-.011-.098-.035a.14.14 0 0 1-.03-.09Zm0 0"/>
  <path fill="#ed3237" fill-rule="evenodd" d="M24.676 6.004c0-.02-.012-.035-.031-.047a.288.288 0 0 0-.094-.031c-.145-.031-.215-.094-.215-.188 0-.054.02-.101.066-.136a.248.248 0 0 1 .172-.059c.078 0 .14.02.188.059a.176.176 0 0 1 .066.144h-.16a.08.08 0 0 0-.023-.059.1.1 0 0 0-.07-.023c-.028 0-.048.004-.063.02a.056.056 0 0 0-.024.046c0 .02.012.032.028.043a.234.234 0 0 0 .086.032.54.54 0 0 1 .101.027c.086.031.129.086.129.168a.165.165 0 0 1-.07.137.308.308 0 0 1-.184.05.306.306 0 0 1-.137-.027.256.256 0 0 1-.093-.074.219.219 0 0 1-.032-.106h.153c0 .028.011.051.031.067.02.016.047.023.078.023s.055-.004.07-.015c.016-.016.028-.032.028-.051Zm.43.172h-.165v-.621h.164Zm-.172-.781a.08.08 0 0 1 .023-.06c.016-.019.04-.026.066-.026.028 0 .051.007.067.027a.08.08 0 0 1 .023.059.082.082 0 0 1-.023.062.092.092 0 0 1-.067.023.099.099 0 0 1-.066-.023.082.082 0 0 1-.023-.062Zm.453.16.004.074a.205.205 0 0 1 .175-.086c.063 0 .11.02.141.059.031.039.05.097.05.171v.403h-.163v-.399c0-.035-.004-.058-.02-.074-.015-.016-.039-.023-.074-.023a.115.115 0 0 0-.105.058v.438h-.16v-.621Zm.742.5a.097.097 0 0 0 .074-.028c.02-.015.027-.039.027-.066h.153a.239.239 0 0 1-.031.117.256.256 0 0 1-.219.11.262.262 0 0 1-.203-.083.345.345 0 0 1-.075-.234V5.86c0-.097.024-.171.075-.23a.259.259 0 0 1 .203-.086c.074 0 .137.023.18.066.046.047.07.106.07.18h-.153a.116.116 0 0 0-.027-.082.097.097 0 0 0-.074-.027c-.04 0-.067.011-.086.039a.256.256 0 0 0-.027.136v.02c0 .063.007.11.027.137a.1.1 0 0 0 .086.043Zm.625.133a.289.289 0 0 1-.215-.083.3.3 0 0 1-.086-.222v-.02c0-.058.012-.117.035-.164a.241.241 0 0 1 .102-.113.275.275 0 0 1 .148-.043.25.25 0 0 1 .196.082.34.34 0 0 1 .07.227v.07h-.387c.008.039.024.07.047.098a.153.153 0 0 0 .102.035.17.17 0 0 0 .144-.07l.082.093a.263.263 0 0 1-.101.082.306.306 0 0 1-.137.027Zm-.02-.508a.1.1 0 0 0-.078.03.171.171 0 0 0-.035.099h.223v-.016a.126.126 0 0 0-.028-.086c-.02-.02-.046-.027-.082-.027Zm1.196.496h-.559v-.114l.266-.289a.517.517 0 0 0 .078-.105.158.158 0 0 0 .027-.086c0-.035-.008-.066-.027-.086-.02-.023-.043-.031-.078-.031a.11.11 0 0 0-.086.035.178.178 0 0 0-.031.105h-.165c0-.054.012-.097.036-.14a.281.281 0 0 1 .101-.102.309.309 0 0 1 .149-.035.3.3 0 0 1 .195.063c.047.043.07.101.07.175a.253.253 0 0 1-.035.125.674.674 0 0 1-.105.153l-.184.199h.348Zm.648-.344a.438.438 0 0 1-.07.266.25.25 0 0 1-.203.09c-.09 0-.16-.028-.207-.09-.047-.059-.07-.145-.07-.258v-.152c0-.118.023-.208.07-.27a.25.25 0 0 1 .203-.09c.09 0 .156.031.203.09.047.062.07.148.074.258Zm-.164-.172a.295.295 0 0 0-.027-.148c-.016-.032-.047-.047-.086-.047-.04 0-.067.012-.082.043a.312.312 0 0 0-.032.14v.204c0 .07.012.12.028.152.02.035.047.05.09.05.039 0 .066-.015.082-.046a.295.295 0 0 0 .027-.149Zm.664.516h-.16v-.64l-.195.062v-.133l.34-.125h.015Zm.82 0h-.554v-.114l.261-.289a.785.785 0 0 0 .082-.105.19.19 0 0 0 .024-.086c0-.035-.008-.066-.027-.086-.016-.023-.043-.031-.079-.031a.11.11 0 0 0-.085.035.178.178 0 0 0-.032.105h-.16a.278.278 0 0 1 .133-.242.309.309 0 0 1 .148-.035.3.3 0 0 1 .196.063c.047.043.07.101.07.175a.295.295 0 0 1-.031.125.886.886 0 0 1-.11.153l-.183.199h.347Zm0 0"/>
  <path fill="#005478" d="M8.902.535V1.72h-.125V.649h-.472l-.02.445a2.202 2.202 0 0 1-.05.375.39.39 0 0 1-.106.191.266.266 0 0 1-.184.059h-.047v-.114l.04-.003c.074 0 .125-.04.156-.11s.054-.199.062-.383L8.18.535Zm1.04 1.207a.491.491 0 0 1-.454-.281.68.68 0 0 1-.066-.3v-.048c0-.113.023-.215.066-.304a.524.524 0 0 1 .18-.22.44.44 0 0 1 .25-.077c.137 0 .25.05.332.148.082.098.121.235.121.402v.075h-.82v.023c0 .137.035.25.11.34a.36.36 0 0 0 .284.133.382.382 0 0 0 .324-.16l.079.062a.465.465 0 0 1-.407.207ZM9.917.625a.315.315 0 0 0-.246.11.5.5 0 0 0-.117.288h.691v-.011a.447.447 0 0 0-.094-.278.292.292 0 0 0-.234-.109Zm1.766.023h-.422v1.07h-.125V.649h-.407V.535h.954Zm1.53 1.07V.536h.427c.144 0 .257.027.336.082a.265.265 0 0 1 .117.235c0 .058-.02.113-.055.16a.254.254 0 0 1-.152.097.329.329 0 0 1 .183.102.26.26 0 0 1 .07.18.283.283 0 0 1-.113.242.512.512 0 0 1-.32.086Zm.13-.542v.433h.367a.39.39 0 0 0 .223-.054.197.197 0 0 0 .078-.164.187.187 0 0 0-.078-.157.36.36 0 0 0-.223-.058Zm0-.11h.32c.203-.004.3-.074.3-.21 0-.07-.027-.126-.081-.157a.456.456 0 0 0-.242-.05h-.297Zm2.36.543.058-.074c.09-.125.14-.308.152-.547l.024-.453h.68V1.61h.12v.457h-.129V1.72h-.867v.347h-.12V1.61Zm.148 0h.636V.66h-.43l-.015.309c-.012.281-.078.496-.191.64Zm1.824.133a.478.478 0 0 1-.266-.074.498.498 0 0 1-.183-.207.631.631 0 0 1-.067-.3v-.048c0-.113.02-.215.063-.304a.555.555 0 0 1 .18-.22.45.45 0 0 1 .25-.077c.14 0 .253.05.335.148.082.098.121.235.121.402v.075h-.824v.023c0 .137.04.25.113.34a.35.35 0 0 0 .286.133.38.38 0 0 0 .18-.04.403.403 0 0 0 .14-.12l.082.062a.468.468 0 0 1-.41.207ZM17.652.625a.313.313 0 0 0-.242.11.503.503 0 0 0-.12.288h.694v-.011a.426.426 0 0 0-.097-.278.282.282 0 0 0-.235-.109Zm1.84-.09V1.72h-.129V.649h-.472l-.02.445a1.825 1.825 0 0 1-.047.375.39.39 0 0 1-.105.191.28.28 0 0 1-.184.059h-.05v-.114l.038-.003c.075 0 .125-.04.16-.11.032-.07.051-.199.063-.383l.024-.574Zm1.035 1.207a.478.478 0 0 1-.265-.074.498.498 0 0 1-.184-.207.631.631 0 0 1-.066-.3v-.048c0-.113.02-.215.062-.304a.524.524 0 0 1 .18-.22.45.45 0 0 1 .25-.077c.14 0 .25.05.332.148a.612.612 0 0 1 .125.402v.075h-.824v.023c0 .137.039.25.113.34.074.09.168.133.281.133a.39.39 0 0 0 .184-.04.403.403 0 0 0 .14-.12l.082.062a.468.468 0 0 1-.41.207ZM20.504.625a.307.307 0 0 0-.242.11.503.503 0 0 0-.121.288h.691v-.011a.447.447 0 0 0-.094-.278.282.282 0 0 0-.234-.109Zm0 0"/>
</svg>
