<?xml version="1.0" encoding="UTF-8" standalone="no"?>
<svg
   xmlns:dc="http://purl.org/dc/elements/1.1/"
   xmlns:cc="http://creativecommons.org/ns#"
   xmlns:rdf="http://www.w3.org/1999/02/22-rdf-syntax-ns#"
   xmlns:svg="http://www.w3.org/2000/svg"
   xmlns="http://www.w3.org/2000/svg"
   xmlns:sodipodi="http://sodipodi.sourceforge.net/DTD/sodipodi-0.dtd"
   xmlns:inkscape="http://www.inkscape.org/namespaces/inkscape"
   viewBox="0 0 97 32"
   version="1.1"
   id="svg3941"
   sodipodi:docname="yandex_zen.svg"
   inkscape:version="0.92.3 (2405546, 2018-03-11)">
  <metadata
     id="metadata3947">
    <rdf:RDF>
      <cc:Work
         rdf:about="">
        <dc:format>image/svg+xml</dc:format>
        <dc:type
           rdf:resource="http://purl.org/dc/dcmitype/StillImage" />
      </cc:Work>
    </rdf:RDF>
  </metadata>
  <defs
     id="defs3945" />
  <sodipodi:namedview
     pagecolor="#ffffff"
     bordercolor="#666666"
     borderopacity="1"
     objecttolerance="10"
     gridtolerance="10"
     guidetolerance="10"
     inkscape:pageopacity="0"
     inkscape:pageshadow="2"
     inkscape:window-width="1920"
     inkscape:window-height="1025"
     id="namedview3943"
     showgrid="false"
     inkscape:zoom="7.729561"
     inkscape:cx="77.629533"
     inkscape:cy="-9.3129123"
     inkscape:window-x="0"
     inkscape:window-y="27"
     inkscape:window-maximized="1"
     inkscape:current-layer="svg3941" />
  <path
     d="m 1.5893702,4.6773622 c 0.00527,-2.4056878 -0.00429,-3.087992 1.0123782,-3.087992 H 94.390693 c 0.870673,0 1.012376,1.8023676 1.012376,3.087992 V 27.322637 c 0,1.520001 0.07515,3.087993 -1.012376,3.087993 H 2.6017484 c -0.8515553,0 -1.0123782,-0.555445 -1.0123782,-3.087993 z"
     id="path3849"
     style="fill:#ffffff;stroke:#bebebe;stroke-width:1.1787405"
     inkscape:connector-curvature="0" />
  <path
     d="m 13.253022,15.078745 h -0.936867 c -1.516835,0 -3.0113629,-0.876492 -3.0113629,-3.094569 0,-2.307505 1.3829959,-3.237666 2.7882959,-3.237666 h 1.159934 z m -1.159934,1.162698 h 1.159934 v 5.11586 h 1.762202 V 7.565936 h -2.855216 c -2.5652328,0 -4.7289502,1.574111 -4.7289502,4.41824 0,1.84243 0.8476403,3.219778 2.9444422,4.024727 l -3.6136338,5.3484 h 2.02988 z m 25.183901,-3.201889 c 0.713805,0 1.182238,0.822828 1.29377,2.218065 0.0223,0.304094 0.0223,0.626065 0.0223,0.626065 h -2.94444 c 0.11154,-1.627778 0.624577,-2.84413 1.628364,-2.84413 z m 13.919177,3.720623 c 0,-1.860317 0.713807,-3.720623 1.985271,-3.720623 0.53535,0 1.070704,0.304084 1.494526,0.679731 l 0.914561,-1.234252 c -0.624579,-0.357747 -1.405301,-0.590287 -2.386782,-0.590287 -2.208332,0 -3.881308,2.074967 -3.881308,5.223189 0,2.84413 1.561445,4.436131 3.836698,4.436131 1.070703,0 1.896039,-0.304082 2.587537,-0.626065 l -0.178453,-1.01959 c -0.423819,0.143098 -1.182236,0.339858 -1.829121,0.339858 -1.717592,0 -2.542929,-1.323682 -2.542929,-3.488092 z M 30.00511,20.176716 h -3.189813 c 1.182238,-1.556223 1.516835,-4.471906 1.516835,-6.725748 v -0.178873 h 1.672978 z m 15.681383,-3.899507 2.810603,-4.149923 h -1.896041 l -2.431397,4.006827 -0.200757,0.178873 v -4.1857 h -1.78451 v 9.212127 h 1.78451 v -4.740222 l 0.200757,0.196763 2.743686,4.543459 h 1.985267 z M 21.774055,12.127286 v 3.63119 h -2.632151 v -3.63119 h -1.784509 v 9.212127 h 1.784509 v -4.40035 h 2.632151 v 4.40035 h 1.762206 v -9.212127 z m 18.603521,8.800715 -0.200757,-1.01959 c -0.423821,0.143098 -1.249157,0.339858 -1.918351,0.339858 -1.806815,0 -2.632151,-1.198473 -2.632151,-3.183999 h 4.79587 v -0.787061 c 0,-2.862019 -1.249157,-4.382463 -3.078279,-4.382463 -2.476009,0 -3.569021,2.504268 -3.569021,5.223189 0,2.790476 1.539142,4.436131 3.836696,4.436131 1.137627,0 2.029881,-0.304082 2.765993,-0.626065 z m -7.718009,-0.751285 h -0.892252 v -8.04943 h -4.99663 v 0.787049 c 0,2.218063 -0.08924,5.097983 -1.516833,7.262381 h -0.691497 v 2.969361 h 1.583751 v -1.806664 h 4.929712 v 1.806664 h 1.583749 z m 34.240291,0.500856 h -5.041242 c 0.602273,-0.590288 0.959174,-1.878192 1.159932,-3.827953 0.17845,-1.770874 0.289983,-4.132046 0.356903,-7.226603 h 3.524407 z m 1.360689,2.808364 h 0.780722 V 20.677572 H 67.948258 V 8.925396 h -5.531983 c -0.06692,3.398652 -0.133845,6.117572 -0.356903,7.924223 -0.223061,1.842429 -0.602269,3.30922 -1.382994,3.827953 h -0.468432 v 2.808364 h 0.803027 l 0.156146,-2.128633 h 6.937283 z m 4.327437,-1.949748 c 1.695285,0 3.122892,-0.983823 3.122892,-2.754699 0,-0.965934 -0.579965,-1.896092 -2.007572,-2.307506 1.226851,-0.482968 1.672977,-1.270029 1.672977,-2.128634 0,-1.305795 -0.936867,-2.182298 -2.676766,-2.182298 -1.204545,0 -2.029882,0.429313 -2.52062,0.948046 l 0.267677,0.769174 c 0.490739,-0.554522 1.226849,-1.019602 2.252943,-1.019602 1.115319,0 1.71759,0.590299 1.71759,1.502569 0,1.216364 -0.91456,1.842429 -2.230637,1.842429 h -0.825335 v 0.643952 h 0.959176 c 1.672977,0 2.364474,0.787061 2.364474,1.949761 0,1.341569 -0.936867,2.039188 -2.119105,2.039188 -1.539141,0 -2.319865,-0.965934 -2.319865,-0.965934 l -0.334594,0.661842 c 0,0 0.86995,1.001712 2.676765,1.001712 z m 7.673393,-8.711284 c 1.159932,0 2.074496,1.091143 1.873744,3.541748 h -4.126687 c 0.0893,-2.307509 1.070703,-3.541748 2.252943,-3.541748 z m 0.200753,8.013664 c -1.628362,0 -2.43139,-1.359459 -2.476004,-3.845851 h 5.085852 c 0.356905,-3.201889 -0.892257,-4.829666 -2.810601,-4.829666 -1.87373,0 -3.256724,1.735108 -3.256724,4.686568 0,2.951461 1.093012,4.686569 3.457477,4.686569 1.762205,0 2.609848,-1.001712 2.609848,-1.001712 L 82.73738,19.872634 c 0,0 -0.758412,0.965934 -2.252943,0.965934 z m 9.480213,0.518735 h 1.003794 v -9.015367 h -1.003794 v 4.006827 h -3.881304 v -4.006827 h -1.003795 v 9.015367 h 1.003795 v -4.364586 h 3.881304 z"
     id="path2488"
     inkscape:connector-curvature="0"
     style="fill:#000000;fill-rule:evenodd;stroke-width:0.47559994" />
  <path
     d="m 13.253022,15.075105 h -0.936867 c -1.516834,0 -3.011363,-0.875988 -3.011363,-3.092788 0,-2.306182 1.382996,-3.235807 2.788296,-3.235807 h 1.159934 z m -1.159934,1.16203 h 1.159934 v 5.112918 h 1.762202 V 7.566614 h -2.855216 c -2.5652327,0 -4.7289496,1.573206 -4.7289496,4.415703 0,1.841369 0.8476403,3.217925 2.9444416,4.022412 l -3.6136337,5.345324 h 2.0298805 z"
     id="path2488-3"
     inkscape:connector-curvature="0"
     style="fill:#ff0000;fill-rule:evenodd;stroke-width:0.47546321"
     sodipodi:nodetypes="cssscccccccsscccc" />
</svg>
