<?xml version="1.0" encoding="UTF-8" standalone="no"?>
<svg
   xmlns:dc="http://purl.org/dc/elements/1.1/"
   xmlns:cc="http://creativecommons.org/ns#"
   xmlns:rdf="http://www.w3.org/1999/02/22-rdf-syntax-ns#"
   xmlns:svg="http://www.w3.org/2000/svg"
   xmlns="http://www.w3.org/2000/svg"
   xmlns:sodipodi="http://sodipodi.sourceforge.net/DTD/sodipodi-0.dtd"
   xmlns:inkscape="http://www.inkscape.org/namespaces/inkscape"
   viewBox="0 0 97 32"
   version="1.1"
   id="svg824"
   sodipodi:docname="google_news.svg"
   inkscape:version="0.92.3 (2405546, 2018-03-11)">
  <metadata
     id="metadata830">
    <rdf:RDF>
      <cc:Work
         rdf:about="">
        <dc:format>image/svg+xml</dc:format>
        <dc:type
           rdf:resource="http://purl.org/dc/dcmitype/StillImage" />
      </cc:Work>
    </rdf:RDF>
  </metadata>
  <defs
     id="defs828" />
  <sodipodi:namedview
     pagecolor="#ffffff"
     bordercolor="#666666"
     borderopacity="1"
     objecttolerance="10"
     gridtolerance="10"
     guidetolerance="10"
     inkscape:pageopacity="0"
     inkscape:pageshadow="2"
     inkscape:window-width="1920"
     inkscape:window-height="1025"
     id="namedview826"
     showgrid="false"
     inkscape:zoom="7.2680412"
     inkscape:cx="62.379362"
     inkscape:cy="0.57050183"
     inkscape:window-x="0"
     inkscape:window-y="27"
     inkscape:window-maximized="1"
     inkscape:current-layer="svg824" />
  <path
     d="m 1.6197212,4.7172511 c 0.00527,-2.41132 -0.00428,-3.0952215 1.0120017,-3.0952215 H 94.386542 c 0.870352,0 1.012001,1.8065872 1.012001,3.0952215 V 27.415543 c 0,1.523559 0.07512,3.095221 -1.012001,3.095221 H 2.6317229 c -0.8512387,0 -1.0120017,-0.556744 -1.0120017,-3.095221 z"
     id="path3849"
     style="fill:#ffffff;stroke:#bebebe;stroke-width:1.17990005"
     inkscape:connector-curvature="0" />
  <path
     d="m 11.578176,14.603848 v 1.674194 h 4.001731 c -0.122502,0.939181 -0.435563,1.626553 -0.911959,2.109755 -0.585287,0.585287 -1.497246,1.22502 -3.089772,1.22502 -2.4636534,0 -4.389651,-1.987254 -4.389651,-4.450905 0,-2.46365 1.9259976,-4.450904 4.389651,-4.450904 1.327105,0 2.300315,0.524036 3.01491,1.197797 l 1.17738,-1.17738 c -0.993628,-0.9664034 -2.327537,-1.7014125 -4.19229,-1.7014125 -3.3756111,0 -6.2135671,2.7494835 -6.2135671,6.1250945 0,3.375609 2.837956,6.125098 6.2135671,6.125098 1.823918,0 3.198662,-0.598899 4.273957,-1.715028 1.102519,-1.102517 1.449607,-2.661015 1.449607,-3.913257 0,-0.387923 -0.02722,-0.748623 -0.08847,-1.048072 z"
     id="path3851"
     style="fill:#4285f4;stroke-width:0.68056643"
     inkscape:connector-curvature="0" />
  <path
     d="m 22.303904,13.242715 c -2.184619,0 -3.967703,1.660582 -3.967703,3.954091 0,2.273092 1.783084,3.954091 3.967703,3.954091 2.184618,0 3.967702,-1.674193 3.967702,-3.954091 0,-2.293509 -1.783084,-3.954091 -3.967702,-3.954091 z m 0,6.349685 c -1.197797,0 -2.232259,-0.986821 -2.232259,-2.395594 0,-1.422384 1.034462,-2.395594 2.232259,-2.395594 1.197797,0 2.232257,0.97321 2.232257,2.395594 0,1.408773 -1.03446,2.395594 -2.232257,2.395594 z"
     id="path3853"
     style="fill:#ea4335;stroke-width:0.68056643"
     inkscape:connector-curvature="0" />
  <path
     d="m 41.754493,14.127452 h -0.06125 c -0.387923,-0.462786 -1.136546,-0.884737 -2.082534,-0.884737 -1.973642,0 -3.695475,1.721833 -3.695475,3.954091 0,2.218647 1.721833,3.954091 3.695475,3.954091 0.945988,0 1.694611,-0.421951 2.082534,-0.898347 h 0.06125 v 0.551258 c 0,1.510858 -0.809874,2.320732 -2.109756,2.320732 -1.061684,0 -1.721834,-0.762234 -1.99406,-1.408773 l -1.510858,0.626121 c 0.435563,1.048073 1.58572,2.334344 3.504918,2.334344 2.034893,0 3.756727,-1.197797 3.756727,-4.117428 v -7.111919 h -1.646971 z m -1.99406,5.464948 c -1.197796,0 -2.109756,-1.020849 -2.109756,-2.395594 0,-1.395161 0.91196,-2.395594 2.109756,-2.395594 1.184186,0 2.109756,1.02085 2.109756,2.409206 0.0068,1.38155 -0.92557,2.381982 -2.109756,2.381982 z"
     id="path3855"
     style="fill:#4285f4;stroke-width:0.68056643"
     inkscape:connector-curvature="0" />
  <path
     d="m 31.151267,13.242715 c -2.184617,0 -3.967702,1.660582 -3.967702,3.954091 0,2.273092 1.783085,3.954091 3.967702,3.954091 2.184618,0 3.967703,-1.674193 3.967703,-3.954091 0,-2.293509 -1.783085,-3.954091 -3.967703,-3.954091 z m 0,6.349685 c -1.197796,0 -2.232257,-0.986821 -2.232257,-2.395594 0,-1.422384 1.034461,-2.395594 2.232257,-2.395594 1.197797,0 2.232258,0.97321 2.232258,2.395594 0,1.408773 -1.034461,2.395594 -2.232258,2.395594 z"
     id="path3857"
     style="fill:#fbbc05;stroke-width:0.68056643"
     inkscape:connector-curvature="0" />
  <path
     d="m 44.762597,9.1933478 h 1.708221 V 21.150897 h -1.708221 z"
     id="path3859"
     style="fill:#34a853;stroke-width:0.68056643"
     inkscape:connector-curvature="0" />
  <path
     d="m 51.745209,19.5924 c -0.884737,0 -1.510858,-0.401534 -1.919198,-1.197797 l 5.288002,-2.184618 -0.176948,-0.449174 c -0.326672,-0.884737 -1.33391,-2.518096 -3.382415,-2.518096 -2.034894,0 -3.729504,1.599331 -3.729504,3.954091 0,2.218647 1.674194,3.954091 3.920063,3.954091 1.810307,0 2.858379,-1.109323 3.293941,-1.749055 L 53.691628,18.503494 C 53.242455,19.156838 52.629945,19.5924 51.745209,19.5924 Z m -0.122502,-4.86605 c 0.700983,0 1.299882,0.3607 1.497246,0.871125 l -3.572975,1.476829 c 0,-1.660582 1.177381,-2.347954 2.075729,-2.347954 z"
     id="path3861"
     style="fill:#ea4335;stroke-width:0.68056643"
     inkscape:connector-curvature="0" />
  <text
     font-size="20px"
     x="56.592598"
     y="21.280214"
     id="text3863"
     style="font-size:13.61132908px;fill:#bebebe;stroke:#bebebe;stroke-width:0.68056643">
    <tspan
       style="line-height:1.25;stroke-width:0.68056643"
       id="tspan26">News</tspan>
  </text>
</svg>
