<?xml version="1.0" encoding="UTF-8" standalone="no"?>
<svg
   xmlns:dc="http://purl.org/dc/elements/1.1/"
   xmlns:cc="http://creativecommons.org/ns#"
   xmlns:rdf="http://www.w3.org/1999/02/22-rdf-syntax-ns#"
   xmlns:svg="http://www.w3.org/2000/svg"
   xmlns="http://www.w3.org/2000/svg"
   xmlns:sodipodi="http://sodipodi.sourceforge.net/DTD/sodipodi-0.dtd"
   xmlns:inkscape="http://www.inkscape.org/namespaces/inkscape"
   viewBox="0 0 97 32"
   version="1.1"
   id="svg3941"
   sodipodi:docname="yandex_news.svg"
   inkscape:version="0.92.3 (2405546, 2018-03-11)">
  <metadata
     id="metadata3947">
    <rdf:RDF>
      <cc:Work
         rdf:about="">
        <dc:format>image/svg+xml</dc:format>
        <dc:type
           rdf:resource="http://purl.org/dc/dcmitype/StillImage" />
      </cc:Work>
    </rdf:RDF>
  </metadata>
  <defs
     id="defs3945" />
  <sodipodi:namedview
     pagecolor="#ffffff"
     bordercolor="#666666"
     borderopacity="1"
     objecttolerance="10"
     gridtolerance="10"
     guidetolerance="10"
     inkscape:pageopacity="0"
     inkscape:pageshadow="2"
     inkscape:window-width="1920"
     inkscape:window-height="1025"
     id="namedview3943"
     showgrid="false"
     inkscape:zoom="7.729561"
     inkscape:cx="16.703544"
     inkscape:cy="18.469287"
     inkscape:window-x="0"
     inkscape:window-y="27"
     inkscape:window-maximized="1"
     inkscape:current-layer="svg3939" />
  <path
     d="M 1.5893855,4.5773743 C 1.5946466,2.1716887 1.5850964,1.4893855 2.601817,1.4893855 h 91.793796 c 0.87072,0 1.012431,1.8023657 1.012431,3.0879888 V 27.222626 c 0,1.519999 0.07514,3.087988 -1.012431,3.087988 H 2.601817 c -0.8516002,0 -1.0124315,-0.555443 -1.0124315,-3.087988 z"
     id="path3849"
     style="fill:#ffffff;stroke:#bebebe;stroke-width:1.17877102"
     inkscape:connector-curvature="0" />
  <svg
     width="155.076"
     height="38.04"
     viewBox="0 0 155.076 38.04"
     version="1.1"
     id="svg3939">
    <path
       d="m 10.315335,16.626508 v 5.35609 h 1.414914 V 8 H 9.6194715 c -2.0817814,0 -3.8272324,1.468605 -3.8272324,4.399642 0,2.091837 0.7712459,3.227229 1.9310147,3.856631 L 5.258747,21.982598 h 1.641071 l 2.2383518,-5.35609 z m 0,-1.252633 H 9.5614838 c -1.2293523,0 -2.2441487,-0.72196 -2.2441487,-2.974233 0,-2.326317 1.1075775,-3.128497 2.2441487,-3.128497 h 0.7538512 z"
       id="path3935"
       inkscape:connector-curvature="0"
       style="fill:#ff0000;stroke-width:0.59818363" />
    <path
       d="m 25.120228,20.815965 h -0.712196 v -8.607999 h -4.194077 v 0.839203 c 0,2.622509 -0.09043,5.67079 -0.915696,7.768796 h -0.55393 V 24 h 1.254827 v -1.937571 h 3.871879 V 24 h 1.249193 z m 6.076302,0.586208 -0.322165,-1.172415 c -0.356099,0.271506 -0.983527,0.660255 -1.774857,0.660255 -1.107862,0 -1.684423,-1.172416 -1.684423,-3.400005 h 3.76451 v -0.845374 c 0,-3.344469 -0.983526,-4.57242 -2.492718,-4.57242 -1.916158,0 -2.724453,2.307807 -2.724453,5.473329 0,3.035939 1.147429,4.658809 3.012719,4.658809 0.898728,0 1.650491,-0.3147 2.221387,-0.802179 z M 16.556841,12.207966 v 4.183673 h -2.080057 v -4.183673 h -1.396157 v 9.854463 h 1.396157 v -4.418156 h 2.080057 v 4.418156 h 1.379193 v -9.854463 z m 19.83423,9.854463 h 1.526157 l -2.560521,-5.220336 2.238323,-4.634127 h -1.418727 l -2.164887,4.553909 V 12.207966 H 32.61529 v 9.854463 h 1.396126 v -4.905634 z m 4.80454,0.141923 c 0.825261,0 1.396127,-0.296188 1.882255,-0.746643 l -0.322197,-1.135392 c -0.322197,0.314701 -0.842197,0.610891 -1.526157,0.610891 -1.124797,0 -1.667427,-1.41307 -1.667427,-3.875143 0,-2.486756 0.717832,-3.714707 1.72396,-3.714707 0.570895,0 1.107861,0.333213 1.48659,0.684938 l 0.197833,-1.450093 c -0.395666,-0.271507 -0.859162,-0.505989 -1.667458,-0.505989 -2.113989,0 -3.204916,1.974594 -3.204916,5.066069 0,3.362981 1.164393,5.066069 3.097517,5.066069 z M 23.02884,20.815965 h -2.402255 c 0.751763,-2.098006 0.842195,-5.127775 0.842195,-7.2011 v -0.172777 h 1.56006 z m 5.658037,-7.491118 c 0.808295,0 1.056994,1.227951 1.056994,2.912528 H 27.43205 c 0.09052,-1.758625 0.395663,-2.912528 1.254827,-2.912528 z m 23.564809,8.737582 h 0.893063 V 8.079831 h -0.893063 v 6.454456 h -3.97928 V 8.079831 h -0.893093 v 13.982598 h 0.893093 v -6.725963 h 3.97928 z m 5.211505,0.197459 c 1.560059,0 2.764019,-1.912888 2.764019,-5.183311 0,-3.381493 -1.20396,-5.06607 -2.764019,-5.06607 -1.554424,0 -2.758384,1.900547 -2.758384,5.183312 0,3.362982 1.20396,5.066069 2.758384,5.066069 z m 0,-0.740472 c -1.056994,0 -1.916157,-1.31434 -1.916157,-4.381133 0,-2.992745 0.859163,-4.362621 1.916157,-4.362621 1.056995,0 1.921824,1.271146 1.921824,4.362621 0,2.974233 -0.864829,4.381133 -1.921824,4.381133 z m 6.234518,0.543013 c 1.70702,0 2.831851,-0.894738 2.831851,-2.832309 0,-1.197099 -0.520032,-2.01779 -1.684394,-2.388027 0.881763,-0.431942 1.271761,-1.252633 1.271761,-2.2461 0,-1.567335 -0.859162,-2.388027 -2.453122,-2.388027 h -1.899174 v 9.854463 z m -0.06787,-9.132501 c 1.04006,0 1.684423,0.450454 1.684423,1.703088 0,1.369874 -0.700899,1.956083 -1.684423,1.956083 h -1.040018 v -3.659171 z m 0.05088,4.344108 c 1.31133,0 2.006594,0.586208 2.006594,2.011619 0,1.53031 -0.819597,2.073324 -1.989656,2.073324 h -1.107822 v -4.084943 z m 6.647201,4.985852 c 1.560055,0 2.764018,-1.912888 2.764018,-5.183311 0,-3.381493 -1.203963,-5.06607 -2.764018,-5.06607 -1.554426,0 -2.758383,1.900547 -2.758383,5.183312 0,3.362982 1.203957,5.066069 2.758383,5.066069 z m 0,-0.740472 c -1.056993,0 -1.916155,-1.31434 -1.916155,-4.381133 0,-2.992745 0.859162,-4.362621 1.916155,-4.362621 1.056993,0 1.921821,1.271146 1.921821,4.362621 0,2.974233 -0.864828,4.381133 -1.921821,4.381133 z m 6.828064,-0.06171 c -1.396129,0 -2.023523,-1.604358 -2.023523,-4.300914 0,-2.776774 0.644365,-4.362621 2.023523,-4.362621 0.768732,0 1.345296,0.50599 1.740957,1.11688 l 0.231733,-0.981126 c -0.395666,-0.524502 -1.040028,-0.919421 -1.972689,-0.919421 -1.842655,0 -2.865751,1.900547 -2.865751,5.146288 0,3.208717 1.04006,5.103092 2.848816,5.103092 1.413093,0 2.080058,-1.092196 2.080058,-1.092196 l -0.271297,-0.765153 c 0,0 -0.627432,1.055174 -1.791825,1.055174 z m 7.794658,-8.490758 v -0.758982 h -5.013668 v 0.758985 h 2.091386 v 9.095478 h 0.842196 v -9.09548 z m 5.499804,9.09548 h 0.8083 v -9.854465 h -0.734789 l -2.939247,6.923424 c -0.180865,0.431942 -0.356096,0.857714 -0.480463,1.308168 h -0.05667 c 0.03394,-0.425772 0.07361,-0.857714 0.07361,-1.388386 V 12.207963 H 86.32986 v 9.854463 h 0.717827 l 2.939248,-6.941935 c 0.197838,-0.431943 0.356104,-0.839203 0.480471,-1.271145 h 0.05667 c -0.03394,0.413431 -0.07361,0.839202 -0.07361,1.351362 z"
       id="path3937"
       inkscape:connector-curvature="0"
       style="stroke-width:0.59058183" />
  </svg>
</svg>
